<?xml version="1.0" standalone="no"?>
<!DOCTYPE svg PUBLIC "-//W3C//DTD SVG 20010904//EN"
 "http://www.w3.org/TR/2001/REC-SVG-20010904/DTD/svg10.dtd">
<svg version="1.0" xmlns="http://www.w3.org/2000/svg"
 width="700.000000pt" height="700.000000pt" viewBox="0 0 700.000000 700.000000"
 preserveAspectRatio="xMidYMid meet">
<metadata>
Created by potrace 1.11, written by Peter Selinger 2001-2013
</metadata>
<g transform="translate(0.000000,700.000000) scale(0.100000,-0.100000)"
fill="#000000" stroke="none">
<path d="M1140 6986 c-134 -24 -259 -107 -335 -221 l-36 -55 -83 0 c-109 0
-167 -20 -227 -80 -79 -79 -80 -88 -77 -531 3 -372 4 -385 25 -424 28 -53 78
-99 133 -124 35 -16 66 -21 137 -21 l91 0 30 -48 c47 -77 140 -159 219 -194
96 -42 138 -48 377 -48 213 0 228 -1 221 -17 -3 -10 -9 -30 -12 -45 -5 -27 -8
-28 -70 -28 -102 0 -170 -39 -216 -125 -21 -39 -22 -51 -22 -375 0 -184 3
-351 8 -371 10 -47 71 -117 121 -140 29 -13 65 -19 122 -19 l81 0 18 -47 c10
-27 31 -69 47 -94 l28 -46 0 -397 0 -396 -315 0 c-362 0 -386 -4 -462 -82 -71
-74 -77 -94 -81 -260 l-4 -148 30 -30 c20 -20 40 -30 60 -30 l30 0 4 -247 3
-248 31 -65 c40 -82 92 -134 174 -174 l65 -31 246 -3 247 -4 31 -47 c64 -100
172 -174 274 -187 l47 -7 0 -682 0 -682 22 -28 c23 -30 201 -149 257 -172 23
-10 41 -11 60 -5 35 12 256 156 267 173 5 8 11 325 14 704 l5 690 775 0 775 0
5 -690 c3 -379 9 -696 14 -704 11 -17 232 -161 267 -173 19 -6 37 -5 60 5 56
23 234 142 257 172 l22 28 0 682 0 682 58 6 c111 10 242 95 293 191 l24 46
220 0 c300 0 370 19 464 126 75 86 84 125 89 402 l4 242 28 0 c32 0 77 38 86
74 3 14 4 81 2 148 -4 144 -23 194 -96 259 -75 66 -96 69 -449 69 l-313 0 0
393 0 392 47 97 48 97 80 1 c90 0 143 19 187 66 56 61 58 72 58 451 0 317 -2
352 -19 388 -38 83 -111 125 -214 125 l-64 0 -11 39 c-7 21 -12 41 -12 45 0 3
96 6 213 6 221 0 265 6 360 48 79 35 172 117 219 194 l30 48 91 0 c71 0 102 5
137 21 60 27 107 74 136 134 24 50 24 51 24 426 0 432 -1 441 -80 519 -59 60
-117 80 -226 80 l-83 0 -36 55 c-79 119 -210 202 -352 224 -106 16 -4613 14
-4703 -3z m1192 -427 l3 -241 33 -29 c44 -39 90 -39 134 0 l33 29 3 236 3 236
975 0 974 0 0 -675 0 -675 -975 0 -975 0 0 148 c0 165 -11 206 -64 231 -42 20
-101 0 -126 -42 -17 -28 -20 -51 -20 -184 l0 -153 -90 0 -90 0 0 680 0 680 89
0 90 0 3 -241z m2546 -441 l2 -678 -95 0 -95 0 0 673 c0 371 3 677 7 681 4 4
46 5 93 4 l85 -3 3 -677z m-2928 -4 l0 -675 -392 3 -393 3 -56 26 c-71 33
-125 87 -158 158 l-26 56 0 425 c0 384 2 430 18 477 20 57 83 135 131 161 72
40 82 40 484 41 l392 1 0 -676z m3951 648 c63 -31 117 -86 148 -152 l26 -55 0
-435 0 -435 -26 -56 c-33 -71 -87 -125 -158 -158 l-56 -26 -377 -3 -378 -3 0
676 0 676 388 -3 c379 -3 388 -3 433 -26z m-5183 -644 l2 -388 -47 0 c-54 0
-65 5 -82 37 -15 29 -16 676 0 704 13 26 45 39 89 36 l35 -2 3 -387z m5684
362 c17 -20 18 -50 18 -357 0 -397 1 -393 -92 -393 l-48 0 0 383 c0 211 3 387
8 391 15 16 96 -1 114 -24z m-1228 -1265 c55 -37 56 -46 56 -512 0 -471 -4
-511 -60 -608 -35 -61 -120 -144 -178 -174 -48 -24 -144 -51 -184 -51 l-28 0
0 74 0 74 34 6 c21 4 45 19 60 37 26 30 26 32 26 205 0 137 -3 181 -15 204
-18 34 -43 50 -79 50 l-26 0 0 115 c0 98 2 115 16 115 8 0 29 13 45 29 48 49
35 126 -26 156 -28 12 -83 15 -334 15 -342 0 -361 -3 -387 -65 -26 -62 15
-135 76 -135 19 0 20 -6 20 -115 l0 -115 -31 0 c-20 0 -40 -10 -60 -29 l-29
-29 0 -181 c0 -108 4 -190 11 -204 12 -28 58 -57 88 -57 19 0 21 -6 21 -75 l0
-75 -670 0 -670 0 0 75 c0 69 2 75 21 75 27 0 60 18 81 44 15 18 18 46 18 209
l0 189 -29 29 c-20 19 -40 29 -60 29 l-31 0 0 110 c0 97 2 111 18 116 44 14
68 35 81 71 18 50 1 90 -49 116 -32 16 -65 17 -353 15 l-319 -3 -29 -33 c-40
-44 -40 -93 0 -133 16 -16 37 -29 45 -29 14 0 16 -17 16 -115 l0 -115 -29 0
c-33 0 -77 -37 -86 -73 -4 -13 -5 -101 -3 -195 3 -164 4 -171 27 -196 13 -14
39 -29 58 -32 l33 -6 0 -74 0 -74 -33 0 c-47 0 -139 26 -197 55 -63 32 -143
113 -177 178 -51 102 -53 119 -53 598 l0 446 23 34 c13 19 38 39 57 46 27 9
416 12 1650 10 1584 -2 1616 -2 1644 -22z m-3584 -580 l0 -315 -45 0 -45 0 0
315 0 315 45 0 45 0 0 -315z m3940 0 l0 -315 -50 0 -50 0 0 315 0 315 50 0 50
0 0 -315z m-2880 0 l0 -105 -90 0 -90 0 0 105 0 105 90 0 90 0 0 -105z m1920
0 l0 -105 -85 0 -85 0 0 105 0 105 85 0 85 0 0 -105z m-1800 -365 l0 -50 -212
2 -213 3 -3 48 -3 47 215 0 216 0 0 -50z m1928 3 l-3 -48 -210 0 -210 0 -3 48
-3 47 216 0 216 0 -3 -47z m-2048 -888 l0 -625 -47 -34 -46 -33 -44 30 -43 31
0 628 0 628 90 0 90 0 0 -625z m1920 378 c0 -223 2 -251 18 -278 27 -44 64
-61 109 -49 58 14 77 50 82 150 l3 84 47 0 c58 0 148 23 220 55 29 14 55 25
57 25 3 0 3 -411 2 -912 l-3 -913 -24 -42 c-14 -24 -42 -55 -64 -70 l-40 -28
-238 -3 -238 -3 -3 153 c-3 143 -5 157 -31 214 -36 77 -104 145 -182 181 l-60
28 -693 3 c-751 3 -743 3 -830 -52 -133 -84 -181 -198 -182 -428 l0 -98 -223
0 c-211 0 -225 1 -267 23 -26 13 -57 40 -75 65 l-30 44 -3 919 -2 920 41 -21
c57 -30 182 -60 246 -60 l53 0 1 -482 c0 -347 3 -493 12 -518 9 -26 35 -51
112 -108 125 -92 157 -107 197 -93 39 14 222 145 248 178 19 25 20 41 20 524
l0 499 75 0 75 0 0 -143 c0 -78 4 -157 10 -176 14 -49 57 -107 96 -130 33 -20
34 -21 34 -90 0 -99 35 -165 109 -203 53 -28 54 -28 250 -28 191 0 199 1 248
25 77 39 106 88 111 193 l5 83 38 24 c21 14 51 46 66 72 27 46 28 53 31 211
l4 162 94 0 94 0 0 -489 c0 -294 4 -500 10 -515 10 -28 192 -169 249 -193 46
-20 71 -9 198 83 74 54 109 87 119 110 21 51 19 229 -4 274 -32 65 -101 79
-154 31 -32 -28 -33 -32 -38 -126 l-5 -97 -40 -28 -40 -28 -42 31 -43 30 0
629 0 628 85 0 85 0 0 -247z m-780 -238 l0 -135 -290 0 -290 0 0 135 0 135
290 0 290 0 0 -135z m-130 -380 l0 -45 -160 0 -160 0 0 45 0 45 160 0 160 0 0
-45z m-1940 -280 l0 -75 -330 0 -330 0 0 50 c0 41 5 56 25 75 l24 25 306 0
305 0 0 -75z m4211 62 c25 -19 39 -53 39 -96 l0 -41 -330 0 -330 0 0 75 0 75
303 0 c222 -1 306 -4 318 -13z m-4302 -344 l91 -6 -2 -276 -3 -276 -195 -3
c-224 -3 -261 5 -308 66 l-27 35 -3 220 c-2 121 -1 226 2 233 4 11 42 14 179
14 96 0 215 -3 266 -7z m4216 -223 c0 -260 -5 -277 -85 -317 -42 -22 -57 -23
-247 -23 l-203 0 0 280 0 279 58 4 c31 2 152 3 267 3 l210 -1 0 -225z m-1658
-211 c38 -14 83 -57 99 -96 9 -22 14 -73 14 -153 l0 -120 -785 0 -785 0 0 127
c0 116 2 130 25 168 16 28 39 50 67 64 42 21 51 21 690 21 433 0 656 -4 675
-11z m-1667 -1218 l0 -639 -50 -31 c-28 -17 -53 -31 -57 -31 -3 0 -28 14 -55
31 l-48 31 0 639 0 639 105 0 105 0 0 -639z m2173 512 c4 -71 7 -356 7 -635
l0 -507 -52 -36 c-29 -19 -56 -35 -60 -35 -5 0 -31 15 -58 33 l-50 32 0 638 0
637 103 0 104 0 6 -127z"/>
<path d="M2795 6625 c-110 -31 -132 -43 -150 -80 -23 -49 -19 -73 19 -111 42
-42 64 -43 191 -8 75 21 101 33 120 56 34 40 33 89 -2 128 -37 41 -78 44 -178
15z"/>
<path d="M4064 6640 c-33 -13 -64 -59 -64 -96 0 -58 36 -88 145 -118 127 -35
149 -34 191 8 38 38 42 62 18 111 -17 37 -50 54 -167 85 -85 22 -92 23 -123
10z"/>
<path d="M2659 6271 c-22 -23 -29 -39 -29 -70 0 -64 28 -87 144 -116 123 -31
147 -31 184 0 40 33 48 74 26 120 -19 41 -36 49 -144 76 -110 27 -146 25 -181
-10z"/>
<path d="M4155 6280 c-103 -26 -120 -35 -139 -75 -22 -46 -14 -87 26 -120 37
-31 61 -31 184 0 116 29 144 52 144 116 0 31 -7 47 -29 70 -35 35 -77 37 -186
9z"/>
<path d="M1494 6640 c-33 -13 -64 -59 -64 -96 0 -58 36 -88 145 -118 118 -33
146 -33 183 -1 39 33 48 74 27 118 -18 39 -50 55 -168 87 -85 22 -92 23 -123
10z"/>
<path d="M1577 6279 c-99 -24 -111 -30 -131 -74 -22 -46 -14 -87 26 -120 37
-31 61 -31 184 0 116 29 144 52 144 116 0 31 -7 47 -29 70 -35 35 -75 37 -194
8z"/>
<path d="M5365 6625 c-111 -31 -132 -43 -150 -82 -21 -44 -12 -85 27 -118 37
-32 65 -32 183 1 75 21 101 33 120 56 34 40 33 89 -2 128 -37 41 -78 44 -178
15z"/>
<path d="M5229 6271 c-22 -23 -29 -39 -29 -70 0 -64 28 -87 144 -116 123 -31
147 -31 184 0 40 33 48 74 26 120 -21 44 -31 50 -139 75 -120 28 -150 26 -186
-9z"/>
<path d="M3215 4831 c-49 -22 -91 -69 -106 -119 -6 -22 -9 -85 -7 -148 3 -103
5 -114 32 -152 17 -26 47 -51 79 -67 50 -25 54 -25 287 -25 233 0 237 0 287
25 32 16 62 41 79 67 27 38 29 49 32 152 4 123 -5 170 -45 217 -54 63 -80 69
-353 69 -216 0 -250 -3 -285 -19z m483 -243 l3 -58 -201 0 -200 0 0 60 0 60
198 -2 197 -3 3 -57z"/>
</g>
</svg>
