<?xml version="1.0" encoding="iso-8859-1"?>
<!-- Generator: Adobe Illustrator 19.0.0, SVG Export Plug-In . SVG Version: 6.00 Build 0)  -->
<svg version="1.1" id="Capa_1" xmlns="http://www.w3.org/2000/svg" xmlns:xlink="http://www.w3.org/1999/xlink" x="0px" y="0px"
	 viewBox="0 0 511.999 511.999" style="enable-background:new 0 0 511.999 511.999;" xml:space="preserve">
<g>
	<g>
		<path d="M300.388,0H137.328c-5.42,0-10.311,3.216-12.461,8.192c-2.15,4.977-1.137,10.742,2.579,14.687l27.96,29.691
			c1.59,1.688,3.273,3.271,5.028,4.761H86.092c-5.635,0-10.598,3.392-12.646,8.64c-2.048,5.249-0.692,11.106,3.455,14.921
			l25.183,23.173c4.297,3.954,8.909,7.47,13.763,10.55l-76.859-0.053h-0.011c-5.418,0-10.309,3.214-12.46,8.189
			c-2.152,4.978-1.139,10.746,2.58,14.692l34.277,36.382c4.16,4.415,8.836,8.257,13.877,11.494
			c1.798,15.988-1.75,34.332-11.056,57.354c-0.004,0.009-0.005,0.019-0.009,0.028c-0.122,0.304-0.22,0.617-0.301,0.935
			c-0.016,0.063-0.029,0.125-0.043,0.187c-0.065,0.284-0.115,0.572-0.146,0.864c-0.004,0.038-0.011,0.076-0.015,0.114
			c-0.029,0.318-0.036,0.64-0.023,0.964c0.003,0.069,0.01,0.137,0.015,0.206c0.017,0.251,0.047,0.502,0.089,0.753
			c0.015,0.086,0.027,0.172,0.045,0.258c0.01,0.051,0.015,0.103,0.027,0.154l3.225,14.243c1.393,6.154,5.357,11.438,10.875,14.499
			c3.325,1.846,7.036,2.783,10.765,2.783c2.458,0,4.926-0.408,7.293-1.233l38.032-13.252l60.502,60.501v15.368h-1.801
			c-10.485,0-19.015,8.53-19.015,19.015v19.366c0,10.485,8.53,19.015,19.015,19.015h1.801v43.076
			c0,38.912,31.224,70.974,69.604,71.473c0.316,0.005,0.63,0.007,0.944,0.007c18.673,0,36.235-7.201,49.541-20.337
			c13.534-13.359,20.987-31.188,20.987-50.203v-0.004l-0.001-2.825h1.08c10.485,0,19.015-8.53,19.015-19.015v-19.366
			c0-10.485-8.53-19.015-19.015-19.015h-1.111l-0.032-56.557l70.879-70.878h29.954c10.345,0,19.793-5.672,24.656-14.803
			l11.48-21.557c2.197-2.641,3.521-6.033,3.521-9.729v-10.52h1.072c4.14,0,7.495-3.355,7.495-7.495v-3.485
			C486.598,83.534,403.064,0,300.388,0z M74.286,163.548L42.26,129.555l258.128,0.097c0.682,0,1.36,0.012,2.03,0.035
			c28.096,0.995,51.154,24.214,52.992,52.514H117.486C101.2,182.201,85.454,175.401,74.286,163.548z M151.778,258.729
			c7.051-2.313,14.297-3.823,21.653-4.5l41.132,41.132c1.464,1.463,3.382,2.195,5.3,2.195c1.918,0,3.836-0.732,5.3-2.195
			l41.564-41.563h26.489l-62.476,62.476c-1.405,1.406-2.195,3.312-2.195,5.301v18.472h-17.027v-18.472
			c0-1.988-0.789-3.893-2.195-5.301L151.778,258.729z M194.201,253.799h25.45l12.937,12.937l-12.726,12.726L194.201,253.799z
			 M240.852,253.799h4.674l-2.336,2.336L240.852,253.799z M196.528,376.192v6.263h-1.801c-2.221,0-4.025-1.806-4.025-4.025v-19.366
			c0-2.221,1.806-4.025,4.025-4.025h49.747c2.221,0,4.025,1.806,4.025,4.025v19.366c0,2.221-1.806,4.025-4.025,4.025h-0.939v-6.263
			c0-7.453-6.064-13.517-13.517-13.517h-19.972C202.592,362.675,196.528,368.739,196.528,376.192z M259.571,496.478
			c-27.044-3.752-48.053-27.534-48.053-55.958v-62.856h17.027v63.15c0,18.794,13.428,34.812,31.026,38.404V496.478z M266.4,464.983
			c-12.609-0.346-22.866-11.188-22.866-24.168v-43.37h0.939c10.485,0,19.015-8.53,19.015-19.015v-19.366
			c0-10.485-8.53-19.015-19.015-19.015h-0.939V324.68l23.498-23.498l23.5,23.5l0.032,56.553h-1.629
			c-10.485,0-19.015,8.53-19.015,19.016v19.366c0,10.485,8.53,19.015,19.016,19.015h1.66l0.001,2.829
			c0,6.408-2.529,12.399-7.124,16.869C278.882,462.796,272.79,465.152,266.4,464.983z M306.088,480.995
			c-8.678,8.566-19.657,13.916-31.527,15.506v-17.248c7.257-1.418,13.933-4.894,19.365-10.18
			c7.52-7.316,11.661-17.123,11.661-27.613v-0.004l-0.001-2.825h17.028l0.001,2.829
			C322.615,456.434,316.746,470.474,306.088,480.995z M337.584,400.923l-0.003-4.7h1.102c2.221,0,4.025,1.806,4.025,4.025v19.366
			c0,2.221-1.806,4.025-4.025,4.025h-49.747c-2.221,0-4.025-1.806-4.025-4.025v-19.366c0-2.221,1.806-4.025,4.025-4.025h1.638
			l0.003,4.717c0.004,7.876,6.415,14.284,14.292,14.284h18.424c3.818,0,7.409-1.487,10.108-4.188
			C336.101,408.334,337.586,404.744,337.584,400.923z M324.743,316.274c-1.406,1.407-2.195,3.315-2.195,5.305l0.045,78.655h-17.027
			l-0.045-78.663c-0.001-1.987-0.79-3.891-2.195-5.297l-25.694-25.694l13.076-13.075l17.857,17.857
			c1.464,1.463,3.383,2.195,5.3,2.195s3.836-0.732,5.3-2.195l41.563-41.563h26.49L324.743,316.274z M301.31,266.905l13.105-13.105
			h25.113l-25.662,25.663L301.31,266.905z M449.798,231.951c-2.253,4.23-6.631,6.858-11.424,6.858H182.509
			c-12.762,0-25.344,2.13-37.401,6.33l-8.734,3.043c-0.598,0.128-1.181,0.331-1.739,0.606L93.06,263.275
			c-1.96,0.683-4.038,0.504-5.855-0.503c-1.815-1.007-3.067-2.677-3.526-4.702l-1.746-7.713l57.959-20.195
			c13.732-4.786,28.071-7.212,42.618-7.212h272.08L449.798,231.951z M462.791,207.962H182.51c-16.23,0-32.229,2.707-47.551,8.048
			L85.621,233.2c4.841-14.898,7.15-28.114,7.063-40.315c7.907,2.805,16.292,4.307,24.802,4.307h345.553v10.52h0.001
			C463.04,207.85,462.929,207.962,462.791,207.962z M429.2,182.201c-0.405-13.163-2.792-25.835-6.873-37.728
			c-1.803-5.252-8.468-6.818-12.395-2.892l-0.017,0.017c-2.034,2.034-2.701,5.044-1.769,7.764
			c3.553,10.359,5.655,21.387,6.054,32.84h-43.758c-0.852-17.035-7.674-33.102-19.425-45.579
			c-12.702-13.484-29.771-21.267-48.073-21.916c-0.848-0.029-1.699-0.045-2.554-0.045H183.443l-16.247-0.011
			c-20.422-0.118-39.924-7.777-54.962-21.614L89.723,72.321h210.666c32.941,0,62.655,14.061,83.465,36.493
			c2.904,3.13,7.804,3.269,10.823,0.25c2.854-2.854,2.928-7.453,0.183-10.413c-23.551-25.397-57.184-41.32-94.472-41.32h-99.252
			c-13.127,0-25.817-5.48-34.816-15.037L140.608,14.99h159.78c93.069,0,169.032,74.647,171.174,167.211H429.2z"/>
	</g>
</g>
<g>
	<g>
		<path d="M159.769,161.072c-4.932-7.734-11.724-13.521-22.068-15.594h-32.745c-3.014,0-4.745,3.659-2.978,6.272
			c4.837,7.156,11.367,12.896,21.734,15.429h32.98C159.622,167.179,161.421,163.662,159.769,161.072z"/>
	</g>
</g>
<g>
	<g>
		<path d="M242.669,161.072c-4.932-7.734-11.724-13.521-22.068-15.594h-32.745c-3.014,0-4.745,3.659-2.978,6.272
			c4.838,7.155,11.367,12.896,21.735,15.429h32.979C242.521,167.179,244.321,163.662,242.669,161.072z"/>
	</g>
</g>
<g>
	<g>
		<path d="M201.219,97.362c-4.931-7.734-11.724-13.521-22.068-15.594h-32.745c-3.014,0-4.745,3.659-2.978,6.272
			c4.837,7.156,11.367,12.896,21.734,15.43h32.979C201.072,103.469,202.871,99.953,201.219,97.362z"/>
	</g>
</g>
<g>
	<g>
		<path d="M284.118,97.362c-4.931-7.734-11.724-13.521-22.068-15.594h-32.745c-3.014,0-4.745,3.659-2.978,6.272
			c4.838,7.155,11.367,12.896,21.735,15.429h32.979C283.97,103.469,285.77,99.952,284.118,97.362z"/>
	</g>
</g>
<g>
	<g>
		<path d="M330.342,41.748c-4.932-7.734-11.724-13.521-22.068-15.594h-32.745c-3.014,0-4.745,3.659-2.978,6.272
			c4.838,7.154,11.367,12.896,21.735,15.429h32.979C330.194,47.855,331.994,44.339,330.342,41.748z"/>
	</g>
</g>
<g>
	<g>
		<path d="M242.669,41.467c-4.932-7.734-11.724-13.521-22.068-15.594h-32.745c-3.014,0-4.745,3.659-2.978,6.272
			c4.838,7.155,11.367,12.896,21.734,15.429h32.979C242.522,47.573,244.321,44.057,242.669,41.467z"/>
	</g>
</g>
<g>
	<g>
		<path d="M325.568,161.072c-4.932-7.734-11.724-13.521-22.068-15.594h-32.745c-3.014,0-4.745,3.659-2.978,6.272
			c4.838,7.155,11.368,12.896,21.735,15.429h32.979C325.42,167.179,327.22,163.662,325.568,161.072z"/>
	</g>
</g>
<g>
</g>
<g>
</g>
<g>
</g>
<g>
</g>
<g>
</g>
<g>
</g>
<g>
</g>
<g>
</g>
<g>
</g>
<g>
</g>
<g>
</g>
<g>
</g>
<g>
</g>
<g>
</g>
<g>
</g>
</svg>
