<?xml version="1.0" encoding="iso-8859-1"?>
<!-- Generator: Adobe Illustrator 19.0.0, SVG Export Plug-In . SVG Version: 6.00 Build 0)  -->
<svg version="1.1" id="Capa_1" xmlns="http://www.w3.org/2000/svg" xmlns:xlink="http://www.w3.org/1999/xlink" x="0px" y="0px"
	 viewBox="0 0 512 512" style="enable-background:new 0 0 512 512;" xml:space="preserve">
<g>
	<g>
		<path d="M504.5,445.857h-23.285l11.448-18.44c2.329-3.754,2.442-8.484,0.294-12.347c-2.147-3.86-6.227-6.259-10.646-6.259h-12.527
			l-31.728-93.903c-8.368-29.473-22.242-56.397-40.361-79.44c0.001-0.055,0.008-0.108,0.008-0.164v-66.373
			c14.227-8.04,23.858-23.299,23.858-40.775V97.953c0-25.812-20.999-46.811-46.811-46.811c-25.813,0-46.812,20.999-46.812,46.811
			v30.203c0,17.476,9.632,32.735,23.859,40.776v22.898c-15.119-10.637-31.595-19.3-49.131-25.597l-30.389-10.911
			c-10.716-3.848-22.519-3.849-33.232,0l-30.389,10.911c-64.98,23.331-115.57,78.894-135.381,148.659L41.543,408.81H29.017
			c-4.418,0-8.498,2.398-10.646,6.259c-2.148,3.861-2.035,8.593,0.295,12.349l11.447,18.439H7.5c-4.143,0-7.5,3.357-7.5,7.5
			s3.357,7.5,7.5,7.5h193.644c0.006,0,303.349,0,303.355,0c4.143,0,7.5-3.357,7.5-7.5C512,449.215,508.643,445.857,504.5,445.857z
			 M342.94,128.155V97.953c0-17.54,14.271-31.81,31.811-31.81s31.81,14.27,31.81,31.81v30.203c0,17.54-14.27,31.811-31.81,31.811
			S342.94,145.697,342.94,128.155z M382.702,174.967v43.293c-5.057-5.225-10.372-10.171-15.901-14.845v-28.448H382.702z
			 M41.407,435.609l-7.323-11.797H48.73L41.407,435.609z M91.504,375.015v70.842H52.701l11.448-18.44
			c2.329-3.754,2.442-8.485,0.294-12.347c-1.578-2.836-4.202-4.872-7.233-5.759l29.013-85.869l12.52-3.237
			C93.939,337.985,91.504,356.363,91.504,375.015z M134.483,375.015v70.842h-27.979v-70.842c0-20.243,3.077-40.134,9.153-59.185
			l26.627-6.885C137.214,329.754,134.483,352.033,134.483,375.015z M107.959,302.326c-0.052,0.013-0.104,0.026-0.155,0.04
			l-16.165,4.18c20.693-59.246,65.554-105.897,122.089-126.196l30.39-10.911c7.445-2.674,15.647-2.674,23.094,0l30.389,10.911
			c56.535,20.299,101.395,66.949,122.089,126.196l-16.18-4.183c-0.042-0.012-0.084-0.021-0.125-0.033l-39.007-10.088
			c-15.218-48.009-43.421-86.274-79.333-104.046l-26.054-12.892c-2.096-1.037-4.557-1.037-6.652,0l-26.054,12.892
			c-35.912,17.771-64.115,56.036-79.333,104.046L107.959,302.326z M347.029,287.757l-83.439-21.577V194.32l14.801,7.323
			c24.179,11.965,44.934,34.68,60.023,65.692C341.608,273.902,344.47,280.729,347.029,287.757z M248.589,193.898v72.062
			l-84.29,21.797c2.559-7.027,5.42-13.856,8.616-20.422c15.089-31.013,35.844-53.728,60.023-65.692L248.589,193.898z
			 M196.219,354.22c-3.363,0.905-5.66,4.006-5.547,7.486l2.74,84.151h-43.929v-70.842c0-24.46,3.2-48.242,9.376-70.357l89.73-23.204
			v57.761l-0.512,1.047L196.219,354.22z M205.859,367.16l33.478-9.012l-31.661,64.794L205.859,367.16z M213.174,445.857
			l42.916-87.826l42.916,87.826H213.174z M304.503,422.943l-31.661-64.794l33.478,9.012L304.503,422.943z M404.823,445.857h-0.001
			h-27.979v-46.324c0-3.821-2.903-7.011-6.706-7.384c-0.053-0.005-0.105-0.01-0.158-0.016c-4.36-0.43-8.136,3.004-8.136,7.385
			v46.339h-43.077l2.74-84.15c0.113-3.481-2.184-6.581-5.547-7.487l-51.857-13.959l-0.512-1.047v-57.541l88.878,22.984
			c4.16,14.898,6.966,30.554,8.357,46.663c0.307,3.56,3.094,6.397,6.649,6.757c0.05,0.005,0.101,0.01,0.151,0.015
			c4.647,0.47,8.536-3.426,8.13-8.08c-1.234-14.149-3.502-27.904-6.709-41.07l26.627,6.885c6.074,19.051,9.153,38.941,9.153,59.185
			V445.857z M419.823,445.857v-70.842c0-18.652-2.435-37.03-7.238-54.81l12.52,3.237l29.014,85.868
			c-3.031,0.887-5.656,2.923-7.233,5.759c-2.148,3.861-2.035,8.593,0.295,12.349l11.447,18.439H419.823z M469.92,435.609
			l-7.322-11.797h14.646L469.92,435.609z"/>
	</g>
</g>
<g>
</g>
<g>
</g>
<g>
</g>
<g>
</g>
<g>
</g>
<g>
</g>
<g>
</g>
<g>
</g>
<g>
</g>
<g>
</g>
<g>
</g>
<g>
</g>
<g>
</g>
<g>
</g>
<g>
</g>
</svg>
