<?xml version="1.0" encoding="iso-8859-1"?>
<!-- Generator: Adobe Illustrator 19.0.0, SVG Export Plug-In . SVG Version: 6.00 Build 0)  -->
<svg version="1.1" id="Capa_1" xmlns="http://www.w3.org/2000/svg" xmlns:xlink="http://www.w3.org/1999/xlink" x="0px" y="0px"
	 viewBox="0 0 511.999 511.999" style="enable-background:new 0 0 511.999 511.999;" xml:space="preserve">
<g>
	<g>
		<path d="M372.056,171.464l-7.122-65.734c-0.414-3.822-3.641-6.717-7.484-6.717H154.553c-3.844,0-7.071,2.896-7.485,6.717
			l-7.122,65.721c-0.142,1.304-0.018,2.64,0.483,3.852c1.209,2.924,3.996,4.694,6.979,4.694H286.56c4.158,0,7.528-3.371,7.528-7.528
			c0-4.158-3.371-7.528-7.528-7.528H155.797l5.513-50.871h189.383l5.512,50.871h-20.659c-4.158,0-7.528,3.371-7.528,7.528
			c0,4.158,3.371,7.528,7.528,7.528h29.047c2.98,0,5.765-1.766,6.977-4.685C372.072,174.101,372.197,172.766,372.056,171.464z"/>
	</g>
</g>
<g>
	<g>
		<path d="M360.084,191.268H151.916c-9.15,0-16.594,7.444-16.594,16.594v20.881c0,9.15,7.444,16.594,16.594,16.594h208.168
			c9.15,0,16.594-7.444,16.594-16.594v-20.881C376.678,198.712,369.234,191.268,360.084,191.268z M361.621,228.743
			c0,0.848-0.69,1.537-1.537,1.537H151.916c-0.847,0-1.537-0.69-1.537-1.537v-20.881c0-0.848,0.69-1.537,1.537-1.537h208.168
			c0.848,0,1.537,0.69,1.537,1.537V228.743z"/>
	</g>
</g>
<g>
	<g>
		<path d="M89.324,382.408c-4.158,0-7.528,3.37-7.528,7.528v15.631c0,4.159,3.371,7.528,7.528,7.528c4.158,0,7.528-3.37,7.528-7.528
			v-15.631C96.852,385.779,93.482,382.408,89.324,382.408z"/>
	</g>
</g>
<g>
	<g>
		<path d="M495.027,320.575h-7.501v-11.273c0-19.259-15.452-34.965-34.609-35.398c-0.087-11.032-9.082-19.981-20.135-19.981h-2.576
			v-4.038c14.285-3.406,24.943-16.268,24.943-31.581c0-16.032-11.683-29.38-26.981-31.998
			c-4.652-12.509-16.596-20.966-30.227-20.966h-0.777l-1.761-12.924h12.446c1.804,8.711,9.535,15.28,18.773,15.28h9.353
			c10.572,0,19.173-8.6,19.173-19.172v-30.338c0-10.572-8.6-19.173-19.173-19.173h-9.353c-9.238,0-16.969,6.569-18.773,15.281
			h-17.641l-2.404-17.641c-1.673-12.271-12.273-21.523-24.656-21.523h-27.413V51.351h5.281c6.532,0,11.846-5.314,11.846-11.846V26.9
			c0-6.532-5.314-11.846-11.846-11.846h-43.297c-7.106,0-12.888,5.782-12.888,12.888v10.521c0,4.363,2.185,8.221,5.514,10.554v26.11
			H148.852c-12.384,0-22.984,9.254-24.655,21.523l-2.404,17.641h-17.641c-1.804-8.712-9.536-15.281-18.774-15.281h-9.353
			c-10.572,0-19.173,8.6-19.173,19.173v30.338c0,10.571,8.6,19.172,19.173,19.172h9.353c9.239,0,16.97-6.568,18.774-15.28h12.446
			l-1.762,12.924h-0.778c-13.654,0-25.581,8.449-30.228,20.967c-15.297,2.618-26.978,15.965-26.978,31.997
			c0,15.314,10.658,28.176,24.943,31.581v4.038h-2.578c-11.053,0-20.047,8.95-20.135,19.981c-19.156,0.434-34.61,16.14-34.61,35.398
			v11.273h-7.5C7.615,320.573,0,328.187,0,337.546v95.734c0,9.359,7.614,16.973,16.974,16.973h7.501v11.273
			c0,19.53,15.889,35.419,35.419,35.419h60.229c16.462,0,30.335-11.29,34.289-26.532h89.486c4.502,0,8.641-1.55,11.942-4.126
			c3.301,2.576,7.44,4.126,11.942,4.126h89.806c3.953,15.242,17.827,26.532,34.288,26.532h60.229
			c19.531,0,35.42-15.889,35.42-35.419v-11.273h7.501c9.359,0,16.973-7.614,16.973-16.973v-95.734
			C512,328.188,504.386,320.575,495.027,320.575z M422.506,144.887V121.82v-3.636c0-2.27,1.846-4.117,4.116-4.117h9.353
			c2.27,0,4.117,1.847,4.117,4.117v30.338c0,2.27-1.847,4.116-4.117,4.116h-9.353c-2.27,0-4.116-1.846-4.116-4.116V144.887z
			 M89.494,121.819v23.066v3.637c0,2.27-1.846,4.115-4.117,4.115h-9.353c-2.27,0-4.117-1.846-4.117-4.115v-30.338
			c0-2.27,1.846-4.117,4.117-4.117h9.353c2.27,0,4.117,1.847,4.117,4.117V121.819z M24.475,435.198h-7.501
			c-1.058,0-1.917-0.86-1.917-1.916v-95.734c0-1.057,0.859-1.916,1.917-1.916h7.501V435.198z M422.676,200.888
			c9.603,0,17.415,7.811,17.415,17.415c0,9.602-7.812,17.416-17.415,17.416c-9.603,0-17.416-7.813-17.416-17.416
			S413.073,200.888,422.676,200.888z M407.45,129.349v8.009h-14.098l-1.091-8.009H407.45z M299.887,30.112h37.916v6.182h-37.916
			V30.112z M320.678,51.351v23.777h-15.277V51.351H320.678z M104.551,137.358v-8.009h15.19l-1.091,8.009H104.551z M114.059,180.395
			h7.35c3.765,0,6.951-2.781,7.459-6.512l10.248-75.2c0.661-4.845,4.846-8.5,9.737-8.5h214.295c4.89,0,9.076,3.655,9.737,8.5
			l10.248,75.2c0.509,3.731,3.695,6.512,7.46,6.512h7.349c5.73,0,10.89,2.807,14.039,7.254
			c-12.664,4.433-21.775,16.495-21.775,30.653c0,15.314,10.658,28.176,24.944,31.581v4.011H96.852v-4.011
			c14.285-3.406,24.943-16.268,24.943-31.581c0-14.158-9.112-26.222-21.777-30.654C103.164,183.2,108.321,180.395,114.059,180.395z
			 M71.909,218.302c0-9.602,7.812-17.415,17.415-17.415c9.602,0,17.415,7.811,17.415,17.415s-7.813,17.416-17.415,17.416
			C79.722,235.717,71.909,227.905,71.909,218.302z M140.485,330.379h-9.968c-4.158,0-7.528,3.37-7.528,7.528
			s3.371,7.528,7.528,7.528h9.968v36.973h-9.968c-4.158,0-7.528,3.37-7.528,7.528s3.371,7.528,7.528,7.528h9.968v36.973h-9.968
			c-4.158,0-7.528,3.37-7.528,7.528s3.371,7.528,7.528,7.528h9.968v12.032c0.001,11.227-9.133,20.362-20.362,20.362H96.852v-48.928
			c0-4.159-3.371-7.528-7.528-7.528c-4.158,0-7.528,3.37-7.528,7.528v48.928H59.894c-11.227,0-20.362-9.134-20.362-20.362v-12.032
			h9.361c4.158,0,7.528-3.37,7.528-7.528s-3.371-7.528-7.528-7.528h-9.361v-36.973h9.361c4.158,0,7.528-3.37,7.528-7.528
			s-3.371-7.528-7.528-7.528h-9.361v-36.973h9.361c4.158,0,7.528-3.37,7.528-7.528s-3.371-7.528-7.528-7.528h-9.361v-2.276v-18.801
			c0-11.227,9.134-20.362,20.361-20.362c2.444,8.372,10.175,14.511,19.326,14.511h2.577v62.787c0,4.159,3.371,7.528,7.528,7.528
			c4.158,0,7.528-3.37,7.528-7.528v-62.787h42.774c0.565,1.886,0.858,3.846,0.858,5.851V330.379z M176.136,347.931
			c0.198,1.746,0.542,3.486,1.025,5.169c0.006,0.021,0.015,0.042,0.022,0.063l-21.639,32.462v-76.325c0-1.978-0.17-3.93-0.49-5.851
			h16.036v0L176.136,347.931z M155.543,412.774l72.751-109.142h11.856l-84.607,126.929V412.774z M186.244,303.45h24.076
			l-20.576,30.866L186.244,303.45z M255.993,307.01c0.002-0.004,0.004-0.007,0.007-0.011c0.002,0.003,0.004,0.006,0.006,0.01
			l35.982,53.98h-71.975L255.993,307.01z M218.381,428.157h6.047v3.317H173.03l29.815-44.73v25.878
			C202.845,421.187,209.814,428.157,218.381,428.157z M248.312,450.944c0,2.434-1.979,4.415-4.413,4.415H155.94v-4.049
			c2.542-1.097,4.84-2.717,6.743-4.779h69.272c4.158,0,7.528-3.37,7.528-7.528v-10.844h8.827V450.944z M218.381,413.1
			c-0.264,0-0.479-0.215-0.479-0.479v-36.576h76.164v36.576c0,0.264-0.215,0.479-0.479,0.479H218.381z M287.253,428.157h6.335
			c8.566,0,15.536-6.968,15.536-15.536v-25.927l29.848,44.778h-51.718V428.157z M355.742,455.358h-87.959
			c-2.434,0-4.414-1.98-4.414-4.414v-22.786h8.827v10.844c0,4.159,3.37,7.528,7.528,7.528h69.592
			c1.824,1.975,4.008,3.551,6.424,4.643V455.358z M356.458,430.562L356.458,430.562l-84.607-126.93h11.856l35.9,53.857
			c0.002,0.003,0.004,0.007,0.006,0.01l36.845,55.274V430.562z M301.681,303.45h23.037l-3.35,29.535L301.681,303.45z
			 M356.458,309.302v76.327l-22.377-33.572c0.337-1.353,0.588-2.731,0.747-4.125l5.045-44.481h17.065
			C356.618,305.368,356.458,307.321,356.458,309.302z M79.219,288.394c-2.805,0-5.086-2.282-5.086-5.086v-9.243
			c0-2.805,2.282-5.085,5.086-5.085h353.562c2.805,0,5.086,2.281,5.086,5.085v9.243c0,2.804-2.282,5.086-5.086,5.086H79.219z
			 M472.468,328.103v2.276h-9.361c-4.159,0-7.528,3.37-7.528,7.528s3.37,7.528,7.528,7.528h9.361v36.973h-9.361
			c-4.159,0-7.528,3.37-7.528,7.528s3.37,7.528,7.528,7.528h9.361v36.973h-9.361c-4.159,0-7.528,3.37-7.528,7.528
			s3.37,7.528,7.528,7.528h9.361v12.032c0.001,11.227-9.134,20.362-20.362,20.362h-21.901v-48.928c0-4.159-3.37-7.528-7.528-7.528
			s-7.528,3.37-7.528,7.528v48.928h-23.272c-11.228,0-20.362-9.134-20.362-20.362v-12.032h9.967c4.159,0,7.528-3.37,7.528-7.528
			s-3.37-7.528-7.528-7.528h-9.967v-36.973h9.967c4.159,0,7.528-3.37,7.528-7.528s-3.37-7.528-7.528-7.528h-9.967v-36.973h9.967
			c4.159,0,7.528-3.37,7.528-7.528s-3.37-7.528-7.528-7.528h-9.967v-21.077c0-2.012,0.291-3.969,0.855-5.851h42.777v62.787
			c0,4.159,3.37,7.528,7.528,7.528c4.159,0,7.528-3.37,7.528-7.528v-62.787h2.576c9.151,0,16.883-6.139,19.327-14.511
			c11.227,0.001,20.361,9.134,20.361,20.362V328.103z M496.943,433.282c0,1.057-0.859,1.916-1.916,1.916h-7.501v-99.567h7.501
			c1.057,0,1.916,0.859,1.916,1.916V433.282z"/>
	</g>
</g>
<g>
	<g>
		<path d="M422.677,382.408c-4.159,0-7.528,3.37-7.528,7.528v15.631c0,4.159,3.37,7.528,7.528,7.528s7.528-3.37,7.528-7.528v-15.631
			C430.206,385.779,426.835,382.408,422.677,382.408z"/>
	</g>
</g>
<g>
</g>
<g>
</g>
<g>
</g>
<g>
</g>
<g>
</g>
<g>
</g>
<g>
</g>
<g>
</g>
<g>
</g>
<g>
</g>
<g>
</g>
<g>
</g>
<g>
</g>
<g>
</g>
<g>
</g>
</svg>
