<?xml version="1.0" encoding="iso-8859-1"?>
<!-- Generator: Adobe Illustrator 19.0.0, SVG Export Plug-In . SVG Version: 6.00 Build 0)  -->
<svg version="1.1" id="Capa_1" xmlns="http://www.w3.org/2000/svg" xmlns:xlink="http://www.w3.org/1999/xlink" x="0px" y="0px"
	 viewBox="0 0 512 512" style="enable-background:new 0 0 512 512;" xml:space="preserve">
<g>
	<g>
		<path d="M505.882,377.228c-2.691-2.014-6.028-2.976-9.389-2.976h-11.125c-7.247,0-13.502,5.152-14.845,12.239
			c-2.175,11.486-12.673,19.522-24.364,19.522h-13.024v-24.588h13.111c9.464,0,17.134-7.671,17.134-17.134V342.8
			c0-9.462-7.671-17.134-17.134-17.134h-1.215V115.543c0-4.829-2.502-9.43-6.762-11.704c-4.97-2.652-10.98-1.769-14.965,2.077
			l-11.12,10.739h-24.46V81.281c0-9.324-7.559-16.883-16.883-16.883h-22.721c-9.324,0-16.883,7.559-16.883,16.883v169.414
			c0,3.982-3.228,7.21-7.21,7.21h-46.865c-15.464,0-28,12.536-28,28v32.891c0,5.083,1.333,9.859,3.658,14.006
			c-0.339,0.07-0.666,0.167-0.998,0.256c-3.096-4.461-8.248-7.392-14.078-7.392h-1.215v-75.097c0-4.162-3.374-7.536-7.536-7.536
			s-7.536,3.374-7.536,7.536v27.771H211.07c-15.459,0-28.458,10.709-31.985,25.096H69.718c-5.268,0-10.222,2.028-13.986,5.702
			v-23.235c0-7.14,5.788-12.927,12.927-12.927h46.865c12.306,0,22.283-9.977,22.283-22.283v-0.19h16.074
			c13.995,0,25.341-11.345,25.341-25.341v-93.435h27.506c1.953,0,3.828-0.758,5.233-2.114l9.496-9.171v81.189
			c0,4.162,3.374,7.536,7.536,7.536c4.162,0,7.536-3.374,7.536-7.536v-86.152c0-4.467-2.141-8.76-5.918-11.147
			c-5.115-3.234-11.595-2.482-15.81,1.585l-11.12,10.739h-24.46V81.281c0-9.324-7.559-16.883-16.883-16.883h-22.721
			c-9.324,0-16.883,7.559-16.883,16.883v169.414c0,3.982-3.228,7.21-7.21,7.21H68.66c-15.464,0-28,12.536-28,28v32.891
			c0,5.083,1.333,9.859,3.658,14.006c-7.581,1.567-13.297,8.293-13.297,16.332v17.09c0,8.188,6.512,14.866,14.627,15.173v24.617
			h-6.64c-2.162-2.126-5.092-3.346-8.202-3.346H12.008c-2.659,0-5.295,0.784-7.401,2.409c-3.502,2.699-5.142,6.994-4.452,11.197
			c2.977,18.154,18.498,31.328,36.905,31.328h409.695v-0.001c32.277,0,60.254-24.049,65.074-55.94
			C512.654,386.202,510.46,380.653,505.882,377.228z M137.806,206.554h9.014c4.162,0,7.536-3.374,7.536-7.536
			s-3.374-7.536-7.536-7.536h-9.014v-8.791h9.014c4.162,0,7.536-3.374,7.536-7.536s-3.374-7.536-7.536-7.536h-9.014v-8.79h9.014
			c4.162,0,7.536-3.374,7.536-7.536s-3.374-7.536-7.536-7.536h-9.014v-8.791h9.014c4.162,0,7.536-3.374,7.536-7.536
			s-3.374-7.536-7.536-7.536h-9.014v-8.791h9.014c4.162,0,7.536-3.374,7.536-7.536s-3.374-7.536-7.536-7.536h-9.014V81.281
			c0-0.999,0.813-1.812,1.811-1.812h22.721c0.999,0,1.812,0.813,1.812,1.812v143.883c0,5.662-4.607,10.269-10.269,10.269h-16.074
			V206.554z M346.307,182.692h9.014c4.162,0,7.536-3.374,7.536-7.536s-3.374-7.536-7.536-7.536h-9.014v-8.79h9.014
			c4.162,0,7.536-3.374,7.536-7.536s-3.374-7.536-7.536-7.536h-9.014v-8.791h9.014c4.162,0,7.536-3.374,7.536-7.536
			s-3.374-7.536-7.536-7.536h-9.014v-8.791h9.014c4.162,0,7.536-3.374,7.536-7.536s-3.374-7.536-7.536-7.536h-9.014V81.281
			c0-0.999,0.813-1.812,1.811-1.812h22.721c0.999,0,1.812,0.813,1.812,1.812v143.883c0,5.662-4.607,10.269-10.269,10.269h-16.074
			v-28.878h9.014c4.162,0,7.536-3.374,7.536-7.536s-3.374-7.536-7.536-7.536h-9.014V182.692z M277.161,272.976h46.865
			c12.286,0,22.283-9.997,22.283-22.283v-0.19h16.074c13.973,0,25.341-11.367,25.341-25.341v-93.436h27.505
			c1.953,0,3.829-0.758,5.235-2.114l9.496-9.171v157.899h-10.386c-15.459,0-28.458,10.709-31.985,25.096H278.22
			c-5.268,0-10.222,2.028-13.986,5.702v-23.235h-0.001C264.233,278.774,270.032,272.976,277.161,272.976z M429.958,293.412
			L429.958,293.412v32.254h-28.25v-14.389c0-9.851,8.014-17.865,17.864-17.865H429.958z M386.636,318.508L386.636,318.508v7.158
			h-9.864c-1.526,0-3.016,0.463-4.272,1.329l-7.934,5.462h-86.671c-4.279,0-8.101-1.981-10.608-5.071l7.422-7.422
			c0.939-0.938,2.186-1.456,3.513-1.456H386.636z M254.877,364.29v-16.065c0.29-0.42,0.773-0.696,1.322-0.696h110.707
			c1.526,0,3.016-0.463,4.272-1.329l7.935-5.462h67.13c1.137,0,2.063,0.925,2.063,2.062v21.49c0,1.137-0.925,2.063-2.063,2.063
			h-67.419l-5.04-3.568c-2.978-2.108-6.48-3.221-10.129-3.221h-66.598c-5.136,0-9.65,2.717-12.179,6.789H254.74
			C254.823,365.676,254.877,364.99,254.877,364.29z M418.063,381.425v24.588h-7.882v-24.588H418.063z M395.108,381.425v24.588
			H292.069v-24.812c3.057-0.75,5.384-3.359,5.7-6.565h65.888c0.512,0,1.004,0.156,1.422,0.452l6.996,4.952
			c1.273,0.902,2.794,1.386,4.354,1.386H395.108z M276.998,381.425v24.588h-7.777v-24.588H276.998z M254.149,381.396v24.617h-6.64
			c-2.162-2.126-5.092-3.346-8.202-3.346h-14.674v-21.242h13.111c3.202,0,6.191-0.899,8.758-2.435
			C248.723,380.426,251.339,381.291,254.149,381.396z M193.206,311.277c0-9.851,8.014-17.865,17.864-17.865h10.386v32.253h-28.25
			V311.277z M66.205,319.964c0.939-0.938,2.186-1.456,3.513-1.456h108.417v7.158h-9.864c-1.526,0-3.016,0.463-4.273,1.329
			l-7.935,5.462h-86.67c-4.279,0-8.101-1.981-10.608-5.071L66.205,319.964z M46.093,349.133c0-0.885,0.72-1.605,1.606-1.605h110.707
			c1.526,0,3.016-0.463,4.273-1.329l7.935-5.462h67.13c1.137,0,2.063,0.925,2.063,2.062v3.339c-0.177,0.973-0.285,1.971-0.285,2.995
			v16.183c-0.357,0.616-1.016,1.037-1.778,1.037h-67.42v0l-5.04-3.568c-2.978-2.108-6.48-3.221-10.129-3.221H88.558
			c-5.136,0-9.65,2.717-12.179,6.789H46.222c-0.072,0-0.129-0.058-0.129-0.129V349.133z M209.561,381.425v24.588h-7.882v-24.588
			H209.561z M186.608,381.425v24.588H83.568v-24.812c3.057-0.75,5.385-3.359,5.7-6.565h65.888c0.512,0,1.004,0.156,1.422,0.452
			l6.996,4.952c1.273,0.902,2.794,1.386,4.354,1.386H186.608z M68.496,381.425v24.588h-7.777v-24.588H68.496z M37.059,432.529
			c-9.619,0-17.917-6.024-21.029-14.79h13.18c2.034,2.121,4.854,3.346,7.849,3.346h172.712c1.264,4.196,3.226,8.05,5.742,11.444
			H37.059z M446.755,432.529H245.561c-9.619,0-17.917-6.024-21.029-14.79h13.18c2.034,2.122,4.853,3.346,7.849,3.346h201.194
			c18.773,0,34.997-13.369,38.613-31.761h11.495l0.064,0.084C493.21,413.992,471.641,432.529,446.755,432.529z"/>
	</g>
</g>
<g>
</g>
<g>
</g>
<g>
</g>
<g>
</g>
<g>
</g>
<g>
</g>
<g>
</g>
<g>
</g>
<g>
</g>
<g>
</g>
<g>
</g>
<g>
</g>
<g>
</g>
<g>
</g>
<g>
</g>
</svg>
