<?xml version="1.0" encoding="iso-8859-1"?>
<!-- Generator: Adobe Illustrator 19.0.0, SVG Export Plug-In . SVG Version: 6.00 Build 0)  -->
<svg version="1.1" id="Capa_1" xmlns="http://www.w3.org/2000/svg" xmlns:xlink="http://www.w3.org/1999/xlink" x="0px" y="0px"
	 viewBox="0 0 512.002 512.002" style="enable-background:new 0 0 512.002 512.002;" xml:space="preserve">
<g>
	<g>
		<path d="M140.366,295.559c-34.647,0-62.834,28.188-62.834,62.834c0,34.647,28.188,62.835,62.834,62.835
			s62.834-28.188,62.834-62.835C203.199,323.747,175.013,295.559,140.366,295.559z M140.366,406.178
			c-26.349,0-47.784-21.436-47.784-47.785c0-26.349,21.436-47.784,47.784-47.784s47.784,21.435,47.784,47.784
			S166.714,406.178,140.366,406.178z"/>
	</g>
</g>
<g>
	<g>
		<path d="M511.975,197.915c-0.004-0.164,0.009-0.323,0.001-0.487c-0.514-10.923-9.651-19.48-20.801-19.48h-48.949l-2.531-27.343
			c-1.198-12.937-7.073-24.302-15.868-32.525V94.096c0-11.694-8.01-21.631-19.478-24.162c-21.709-4.793-43.723-4.793-65.432,0
			c-11.468,2.531-19.478,12.468-19.478,24.162v23.986c-8.795,8.222-14.67,19.588-15.867,32.524l-4.323,46.695
			c-10.588-11.291-26.048-18.429-43.25-18.429c-17.202,0-32.662,7.139-43.25,18.429l-4.323-46.695
			c-1.198-12.936-7.071-24.302-15.867-32.524V94.096c0-11.694-8.01-21.631-19.478-24.162c-21.708-4.793-43.723-4.793-65.432,0
			c-11.468,2.531-19.478,12.468-19.478,24.162v23.986c-8.795,8.222-14.67,19.588-15.868,32.525l-2.531,27.343h-48.95
			c-11.15,0-20.287,8.556-20.801,19.48c-0.008,0.164,0.005,0.323,0.001,0.487C0.014,198.078,0,198.242,0,198.407v51.513
			c0,11.281,9.177,20.459,20.459,20.459h40.757l-6.692,72.28c-0.933,5.105-1.425,10.363-1.425,15.734
			c0,0.017,0.001,0.034,0.001,0.051c0,0.018,0,0.035,0.001,0.053c0.057,48.073,39.181,87.164,87.266,87.164
			c45.162,0,82.417-34.484,86.827-78.504c7.671,6.819,17.761,10.972,28.808,10.972c11.049,0,21.134-4.163,28.804-10.985
			c4.403,44.026,41.664,78.518,86.831,78.518c48.085,0,87.209-39.091,87.266-87.164c0-0.018,0.001-0.035,0.001-0.053
			c0-0.017,0.001-0.034,0.001-0.051c0-5.371-0.491-10.629-1.425-15.734l-6.692-72.28h40.756c11.281,0,20.459-9.177,20.459-20.459
			v-51.513C512,198.242,511.986,198.078,511.975,197.915z M110.895,84.628c19.555-4.317,39.386-4.318,58.942,0
			c4.517,0.998,7.672,4.891,7.672,9.467v14.267c-6.072-2.533-12.737-3.936-19.736-3.936h-34.815c-6.998,0-13.663,1.403-19.736,3.936
			V94.096h-0.001C103.222,89.519,106.378,85.627,110.895,84.628z M87.291,151.993c1.716-18.538,17.05-32.516,35.667-32.516h34.815
			c18.618,0,33.951,13.979,35.667,32.516l6.093,65.807c-16.361-13.573-37.814-21.711-59.168-21.711
			c-22.358,0-43.376,8.422-59.306,23.214L87.291,151.993z M78.63,245.537c0.333-0.347,0.646-0.718,0.916-1.138
			c13.37-20.826,36.107-33.26,60.819-33.26c23.381,0,47.787,12.268,61.393,30.694l5.623,60.729
			c-16.021-19.197-40.114-31.436-67.016-31.436s-50.995,12.238-67.016,31.436L78.63,245.537z M62.609,255.329h-42.15
			c-2.983,0-5.409-2.426-5.409-5.409v-31.813c1.753,0.484,3.569,0.76,5.409,0.76h45.525L62.609,255.329z M20.459,203.817
			c-1.493,0-2.884-0.596-3.914-1.677c-1.03-1.08-1.558-2.501-1.488-4.004c0.133-2.832,2.72-5.137,5.768-5.137H68.38l-1.001,10.818
			H20.459z M140.366,430.611c-39.729,0-72.061-32.249-72.21-71.943l1.273-13.752c6.333-33.399,35.723-58.739,70.937-58.739
			s64.604,25.34,70.938,58.739l1.273,13.752C212.427,398.362,180.095,430.611,140.366,430.611z M256,363.079
			c-15.641,0-28.366-12.725-28.366-28.366c0-15.641,12.725-28.366,28.366-28.366s28.366,12.725,28.366,28.366
			C284.366,350.354,271.641,363.079,256,363.079z M289.122,306.686c-7.971-9.405-19.857-15.391-33.122-15.391
			c-13.265,0-25.152,5.986-33.122,15.391l-3.844-41.51c7.631-12.15,21.767-19.693,36.966-19.693
			c15.381,0,29.328,7.504,36.964,19.708L289.122,306.686z M294.871,244.59c-10.448-8.978-24.197-14.156-38.871-14.156
			c-14.519,0-28.361,5.221-38.866,14.21l-0.588-6.354c0-0.001,0-0.002,0-0.003l-1.491-16.105
			c5.225-16.316,21.599-28.26,40.946-28.26c19.347,0,35.721,11.944,40.946,28.26L294.871,244.59z M342.163,84.628
			c19.556-4.315,39.386-4.317,58.942,0c4.517,0.998,7.672,4.891,7.672,9.467v14.267c-6.072-2.533-12.737-3.936-19.736-3.936h-34.815
			c-6.998,0-13.663,1.403-19.736,3.936V94.096h-0.001C334.491,89.519,337.646,85.627,342.163,84.628z M308.158,264.33
			c0.015-0.125,0.027-0.252,0.035-0.379l2.201-23.773c0.425-0.574,0.863-1.141,1.31-1.702c0.243-0.259,0.472-0.531,0.676-0.822
			c8.814-10.638,21.581-18.711,35.84-23.018c3.176-0.959,5.361-3.865,5.361-7.182c0-5.002-4.818-8.651-9.605-7.203
			c-11.551,3.493-22.322,9.073-31.395,16.307l5.978-64.566c1.716-18.538,17.05-32.516,35.667-32.516h34.815
			c18.617,0,33.951,13.979,35.667,32.516l6.232,67.31c-9.687-8.995-21.259-15.627-33.867-19.447
			c-4.776-1.447-9.577,2.217-9.577,7.208v0.055c0,3.285,2.135,6.198,5.279,7.155c16.157,4.921,30.248,15.435,39.678,30.125
			c0.27,0.419,0.583,0.792,0.916,1.138l5.28,57.025c-16.02-19.197-40.114-31.435-67.016-31.435
			c-26.901,0-50.995,12.238-67.016,31.435L308.158,264.33z M371.634,430.611c-39.729,0-72.062-32.249-72.211-71.943l1.273-13.752
			c6.333-33.399,35.724-58.739,70.938-58.739s64.604,25.34,70.937,58.739l1.273,13.752
			C443.695,398.362,411.363,430.611,371.634,430.611z M443.62,192.998h47.555c3.047,0,5.635,2.305,5.768,5.137
			c0.07,1.503-0.458,2.925-1.488,4.004c-1.031,1.081-2.421,1.677-3.914,1.677h-46.919L443.62,192.998z M496.95,249.921
			c0,2.983-2.426,5.409-5.409,5.409h-42.149l-3.376-36.462h45.525c1.84,0,3.656-0.275,5.409-0.76V249.921z"/>
	</g>
</g>
<g>
	<g>
		<path d="M371.634,295.559c-34.647,0-62.834,28.188-62.834,62.834c0,34.647,28.188,62.835,62.834,62.835
			s62.834-28.188,62.834-62.835C434.468,323.747,406.282,295.559,371.634,295.559z M371.634,406.178
			c-26.349,0-47.784-21.436-47.784-47.785c0-26.349,21.436-47.784,47.784-47.784s47.784,21.435,47.784,47.784
			S397.983,406.178,371.634,406.178z"/>
	</g>
</g>
<g>
	<g>
		<path d="M133.446,327.841c-2.939-2.938-7.704-2.939-10.641,0.001l-15.352,15.353c-2.939,2.939-2.939,7.703,0,10.641
			c1.469,1.469,3.395,2.203,5.321,2.203s3.851-0.734,5.321-2.204l15.352-15.353C136.384,335.543,136.384,330.779,133.446,327.841z"
			/>
	</g>
</g>
<g>
	<g>
		<path d="M165.484,333.716c-2.868-3.008-7.63-3.122-10.638-0.255l-40.889,38.973c-3.009,2.867-3.122,7.629-0.256,10.639
			c1.479,1.551,3.461,2.333,5.448,2.333c1.865,0,3.734-0.69,5.19-2.078l40.889-38.973
			C168.237,341.489,168.351,336.726,165.484,333.716z"/>
	</g>
</g>
<g>
	<g>
		<path d="M404.548,343.195l-15.352-15.353c-2.939-2.94-7.704-2.939-10.641-0.001c-2.939,2.94-2.939,7.704,0,10.641l15.352,15.353
			c1.469,1.47,3.395,2.204,5.321,2.204s3.852-0.734,5.321-2.203C407.487,350.896,407.487,346.133,404.548,343.195z"/>
	</g>
</g>
<g>
	<g>
		<path d="M398.042,372.434l-40.888-38.973c-3.009-2.869-7.771-2.753-10.639,0.255c-2.867,3.009-2.753,7.772,0.256,10.639
			l40.889,38.973c1.457,1.39,3.325,2.078,5.19,2.078c1.986,0,3.969-0.782,5.448-2.333
			C401.165,380.064,401.051,375.301,398.042,372.434z"/>
	</g>
</g>
<g>
	<g>
		<path d="M256,315.61c-10.533,0-19.102,8.569-19.102,19.103c0,10.533,8.569,19.101,19.102,19.101s19.102-8.568,19.102-19.101
			C275.102,324.18,266.533,315.61,256,315.61z M256,338.764c-2.234,0-4.052-1.818-4.052-4.051c0-2.235,1.818-4.052,4.052-4.052
			s4.052,1.818,4.052,4.052C260.052,336.946,258.234,338.764,256,338.764z"/>
	</g>
</g>
<g>
</g>
<g>
</g>
<g>
</g>
<g>
</g>
<g>
</g>
<g>
</g>
<g>
</g>
<g>
</g>
<g>
</g>
<g>
</g>
<g>
</g>
<g>
</g>
<g>
</g>
<g>
</g>
<g>
</g>
</svg>
