<?xml version="1.0" encoding="iso-8859-1"?>
<!-- Generator: Adobe Illustrator 19.0.0, SVG Export Plug-In . SVG Version: 6.00 Build 0)  -->
<svg version="1.1" id="Capa_1" xmlns="http://www.w3.org/2000/svg" xmlns:xlink="http://www.w3.org/1999/xlink" x="0px" y="0px"
	 viewBox="0 0 512 512" style="enable-background:new 0 0 512 512;" xml:space="preserve">
<g>
	<g>
		<path d="M210.324,328.927h-11.008c-4.146,0-7.505,3.359-7.505,7.505s3.36,7.505,7.505,7.505h11.008
			c4.146,0,7.505-3.359,7.505-7.505S214.47,328.927,210.324,328.927z"/>
	</g>
</g>
<g>
	<g>
		<path d="M504.692,420.716v-10.128c0-10.641-8.656-19.297-19.297-19.297h-2.617l-4.117-6.347c-1.744-2.691-4.569-4.465-7.751-4.867
			c-3.176-0.401-6.359,0.613-8.717,2.784l-9.158,8.43h-41.572l-28.07-55.848c7.697-35.662,7.45-65.033-0.736-89.721
			c-0.009-0.027-0.016-0.055-0.025-0.082c-0.007-0.022-0.014-0.045-0.021-0.068c-0.029-0.086-0.066-0.168-0.098-0.252
			c-0.047-0.126-0.092-0.252-0.145-0.375c-0.047-0.107-0.101-0.21-0.153-0.315c-0.054-0.109-0.104-0.22-0.164-0.327
			c-0.06-0.109-0.128-0.212-0.193-0.316c-0.061-0.098-0.118-0.197-0.183-0.292c-0.071-0.103-0.148-0.199-0.223-0.298
			c-0.07-0.092-0.136-0.186-0.21-0.274c-0.08-0.095-0.167-0.183-0.251-0.273c-0.102-0.11-0.204-0.219-0.312-0.323
			c-0.143-0.137-0.288-0.27-0.441-0.395c-0.069-0.056-0.145-0.107-0.217-0.161c-0.122-0.092-0.243-0.185-0.369-0.269
			c-0.074-0.049-0.152-0.093-0.228-0.14c-0.134-0.082-0.268-0.164-0.406-0.237c-0.025-0.013-0.047-0.029-0.072-0.042
			c-25.791-13.366-51.845-24.276-77.49-32.464l-3.251-46.607l86.016,11.839l8.693,7.837c0.784,0.708,1.71,1.242,2.717,1.567
			l56.935,18.406c1.678,0.542,3.405,0.81,5.124,0.81c3.089,0,6.149-0.864,8.832-2.55c4.177-2.622,6.956-6.928,7.629-11.813
			l3.255-23.648c1.251-9.082-5.121-17.488-14.204-18.737l-167.745-23.088l-0.666-9.551c-0.003-0.05-0.007-0.099-0.012-0.148
			c-0.487-5.442-4.609-9.766-10.026-10.513l-27.924-3.83l-12.906-17.897c-2.664-3.696-7.239-5.377-11.664-4.274
			c-4.422,1.101-7.682,4.728-8.303,9.243l-3.664,26.624l-20.493-2.821c-4.124-0.568-8.127,0.982-10.723,4.143
			c-2.51,3.056-3.238,7.108-1.949,10.843c0,0.001,0.001,0.002,0.001,0.002l6.57,19.025c0.923,2.673,3.269,4.6,6.07,4.984
			l15.125,2.082l-2.657,18.622l-10.309,21.11c-42.483-1.73-67.066,5.768-68.113,6.096c-0.542,0.17-1.049,0.4-1.522,0.674
			c-0.062,0.036-0.121,0.075-0.182,0.113c-0.197,0.122-0.387,0.251-0.571,0.39c-0.059,0.044-0.118,0.088-0.175,0.134
			c-0.203,0.163-0.397,0.335-0.581,0.517c-0.023,0.022-0.048,0.043-0.071,0.066c-0.204,0.208-0.395,0.427-0.572,0.656
			c-0.043,0.055-0.081,0.113-0.123,0.169c-0.128,0.175-0.25,0.354-0.363,0.54c-0.049,0.08-0.095,0.159-0.141,0.241
			c-0.106,0.19-0.203,0.385-0.293,0.583c-0.029,0.064-0.062,0.126-0.089,0.192c-0.11,0.264-0.205,0.535-0.285,0.811
			c-0.016,0.057-0.028,0.116-0.043,0.173c-0.061,0.232-0.111,0.466-0.149,0.704c-0.006,0.039-0.019,0.076-0.024,0.115
			c-7.126,48.999-7.254,92.43-0.384,132.678l-24.917,51.21l-7.827-7.06c-2.757-2.486-6.917-2.585-9.787-0.229l-3.78,3.103
			l-11.364-8.35c-3.242-2.383-7.575-2.598-11.04-0.544c-3.462,2.053-5.355,5.957-4.82,9.945l1.055,7.886H26.194
			c-10.641,0-19.297,8.656-19.297,19.297v10.149C3.037,421.048,0,424.271,0,428.211c0,4.146,3.359,7.505,7.505,7.505h496.991
			c4.146,0,7.505-3.359,7.505-7.505C512,424.133,508.745,420.822,504.692,420.716z M461.154,160.788
			c0.548,0.076,0.884,0.382,1.068,0.625c0.184,0.243,0.389,0.648,0.313,1.197l-3.255,23.648c-0.085,0.617-0.45,0.966-0.741,1.148
			c-0.293,0.183-0.766,0.359-1.359,0.169l-55.409-17.912l-9.219-8.309c-1.117-1.008-2.512-1.655-4.001-1.86l-91.417-12.582
			l-0.612-8.784L461.154,160.788z M226.24,174.889c0.344-0.703,0.575-1.458,0.686-2.232l6.61-46.339l3.949-28.689l7.167,9.939
			c2.383,3.307,6.067,5.521,10.101,6.074l25.257,3.477l5.616,80.508c-23.654,6.285-45.588,3.785-66.768-7.625L226.24,174.889z
			 M206.378,134.421l-3.154-9.134l14.882,2.048l-1.176,8.537L206.378,134.421z M212.278,203.477
			c15.635,8.297,31.946,12.475,48.792,12.475c8.412,0,16.958-1.05,25.618-3.127l0.413,5.921
			c-27.573,8.404-52.943,5.012-77.232-10.336L212.278,203.477z M140.749,343.936h35.832c4.109,0,7.693-3.167,7.816-7.274
			c0.127-4.25-3.28-7.735-7.502-7.735h-34.487c-5.426-34.301-5.608-71.167-0.534-112.178
			c34.769,22.692,71.529,37.544,109.439,44.199c10.286,1.805,20.733,3.005,31.313,3.623c4.471,0.261,8.158-3.48,7.881-7.95
			c-0.004-0.066-0.008-0.131-0.012-0.196c-0.235-3.771-3.249-6.766-7.02-6.998c-45.015-2.771-87.874-16.764-128.176-41.938
			c9.494-1.355,22.789-2.524,39.401-2.217l-1.19,2.436c-1.614,3.305-0.595,7.293,2.407,9.418
			c19.822,14.032,40.796,21.064,62.69,21.062c12.675,0,25.662-2.357,38.905-7.078c2.72-0.97,4.588-3.393,4.92-6.181
			c16.681,5.578,33.533,12.333,50.359,20.198c-7.335,1.327-14.622,2.37-21.86,3.145c-3.978,0.426-6.917,3.898-6.645,7.891
			l0.013,0.195c0.287,4.215,4.018,7.366,8.217,6.907c12.471-1.362,25.078-3.486,37.793-6.374
			c5.173,20.012,4.878,43.706-0.888,72.038H242.81c-4.11,0-7.693,3.167-7.816,7.274c-0.127,4.25,3.28,7.735,7.502,7.735h128.367
			l23.802,47.355h-53.816l-4.611-29.768c-0.594-3.835-3.28-6.891-7.008-7.973c-3.728-1.079-7.633,0.063-10.189,2.986l-14.102,16.137
			l-10.836-3.188c-2.495-0.733-5.208-0.611-7.53,0.559c-2.515,1.268-4.328,3.475-5.081,6.175l-4.199,15.072h-37.885l-8.094-20.185
			c-2.305-5.744-8.718-8.74-14.6-6.816l-12.696,4.148l-3.64-4.57c-3.591-4.507-9.859-5.76-14.911-2.979l-16.653,9.183l-9.132-3.146
			c-3.861-1.328-8.019-0.604-11.192,1.934c-3.438,2.751-4.939,7.273-4.192,11.612l1.864,10.818h-28.457L140.749,343.936z
			 M21.906,420.706v-10.118c0-2.364,1.923-4.288,4.288-4.288h38.144c2.163,0,4.223-0.935,5.647-2.563
			c1.426-1.629,2.078-3.792,1.791-5.938l-0.635-4.752l6.603,4.852c2.764,2.031,6.552,1.929,9.204-0.246l3.295-2.704l10.323,9.313
			l0.005,0.004l0.112,0.101c0.066,0.06,0.138,0.112,0.206,0.169c0.098,0.082,0.193,0.166,0.296,0.243
			c0.12,0.091,0.246,0.173,0.371,0.256c0.073,0.048,0.142,0.101,0.216,0.146c0.207,0.127,0.42,0.245,0.638,0.351
			c0.005,0.002,0.01,0.006,0.015,0.008c0.028,0.013,0.056,0.022,0.083,0.035c0.206,0.097,0.415,0.184,0.628,0.262
			c0.089,0.033,0.178,0.06,0.267,0.089c0.155,0.05,0.312,0.096,0.47,0.136c0.106,0.027,0.213,0.053,0.319,0.075
			c0.145,0.03,0.29,0.053,0.437,0.074c0.111,0.016,0.221,0.035,0.332,0.046c0.168,0.017,0.338,0.023,0.508,0.028
			c0.077,0.002,0.154,0.013,0.231,0.013c0.01,0,0.019-0.002,0.028-0.002h49.34c2.213,0,4.314-0.978,5.74-2.67
			c1.426-1.692,2.031-3.928,1.655-6.109l-2.521-14.629l7.131,2.456c2.003,0.689,4.21,0.501,6.068-0.523l17.188-9.478l5.191,6.519
			c1.952,2.451,5.223,3.429,8.201,2.458l14.781-4.83l8.859,22.094c1.141,2.847,3.898,4.712,6.965,4.712h48.662
			c3.369,0,6.325-2.245,7.229-5.49l4.331-15.546l10.759,3.165c2.813,0.826,5.843-0.057,7.769-2.261l10.011-11.457l3.909,25.235
			c0.565,3.657,3.714,6.356,7.416,6.356h121.546c1.883,0,3.696-0.707,5.082-1.982l7.697-7.084l3.662,5.646
			c1.384,2.133,3.753,3.421,6.296,3.421h6.694c2.364,0,4.288,1.923,4.288,4.288v10.117H21.906z"/>
	</g>
</g>
<g>
	<g>
		<path d="M176.868,131.105l-8.942-24.161c-0.698-1.887-2.126-3.415-3.962-4.24c-1.836-0.826-3.926-0.88-5.803-0.146
			c-11.995,4.677-20.449,13.13-25.124,25.125c-0.73,1.875-0.677,3.965,0.147,5.802c0.824,1.836,2.354,3.262,4.243,3.96l24.161,8.941
			h-0.001c1.374,0.508,2.785,0.756,4.179,0.755c3.08,0,6.071-1.211,8.359-3.5C177.447,140.319,178.5,135.514,176.868,131.105z
			 M150.654,126.336c1.715-2.398,3.765-4.448,6.165-6.165l3.621,9.786L150.654,126.336z"/>
	</g>
</g>
<g>
	<g>
		<path d="M164.847,162.15l-21.645-13.972c-1.691-1.091-3.751-1.457-5.714-1.017s-3.668,1.652-4.731,3.361
			c-6.794,10.938-8.488,22.772-5.036,35.173c0.54,1.941,1.836,3.582,3.596,4.556c1.123,0.621,2.373,0.939,3.633,0.939
			c0.717,0,1.438-0.103,2.137-0.311l24.694-7.334c4.508-1.339,7.722-5.061,8.389-9.714
			C170.837,169.177,168.798,164.701,164.847,162.15z M141.01,174.057c-0.065-2.949,0.346-5.819,1.236-8.63l8.767,5.659
			L141.01,174.057z M157.509,169.156l-0.004,0.001c0.002,0,0.004-0.001,0.006-0.002C157.51,169.156,157.51,169.156,157.509,169.156z
			"/>
	</g>
</g>
<g>
</g>
<g>
</g>
<g>
</g>
<g>
</g>
<g>
</g>
<g>
</g>
<g>
</g>
<g>
</g>
<g>
</g>
<g>
</g>
<g>
</g>
<g>
</g>
<g>
</g>
<g>
</g>
<g>
</g>
</svg>
