<?xml version="1.0" encoding="iso-8859-1"?>
<!-- Generator: Adobe Illustrator 19.0.0, SVG Export Plug-In . SVG Version: 6.00 Build 0)  -->
<svg version="1.1" id="Capa_1" xmlns="http://www.w3.org/2000/svg" xmlns:xlink="http://www.w3.org/1999/xlink" x="0px" y="0px"
	 viewBox="0 0 512 512" style="enable-background:new 0 0 512 512;" xml:space="preserve">
<g>
	<g>
		<path d="M323.378,281.881c-3.452-2.247-8.071-1.269-10.319,2.183c-4.604,7.073-12.381,11.296-20.807,11.296
			c-13.676,0-24.801-11.125-24.801-24.801c-0.001-7.358,3.238-14.293,8.888-19.025c3.157-2.644,3.573-7.349,0.928-10.506
			c-2.645-3.157-7.349-3.573-10.506-0.928c-4.688,3.927-8.327,8.806-10.756,14.233c-2.429-5.427-6.07-10.308-10.758-14.234
			c-3.156-2.643-7.861-2.228-10.506,0.93c-2.644,3.157-2.228,7.861,0.93,10.506c5.649,4.731,8.888,11.664,8.888,19.024
			c0,13.676-11.125,24.801-24.801,24.801c-8.424,0-16.202-4.223-20.806-11.296c-2.247-3.453-6.867-4.428-10.319-2.183
			c-3.453,2.247-4.429,6.866-2.183,10.319c7.366,11.319,19.818,18.077,33.307,18.077c16.13,0,30.034-9.671,36.247-23.513
			c6.213,13.843,20.117,23.513,36.247,23.513c13.49,0,25.942-6.758,33.308-18.077C327.807,288.747,326.829,284.128,323.378,281.881z
			"/>
	</g>
</g>
<g>
	<g>
		<path d="M508.869,123.002c-2.483-3.826-6.148-6.599-10.447-7.942c0.746-3.957,2.6-8.417,3.571-9.525
			c8.297-6.628,9.715-18.762,3.142-27.128c-3.2-4.073-7.795-6.655-12.938-7.272c-5.144-0.62-10.218,0.806-14.289,4.005
			c-7.445,5.85-11.91,14.251-14.552,21.553c-2.777-3.965-7.028-6.905-12.143-7.908c-10.498-2.058-20.701,4.807-22.758,15.297
			c-4.002,20.409,3.237,40.779,9.349,53.355c-4.075,4.354-8.622,8.258-13.611,11.688c-1.272-5.196-4.668-9.845-9.756-12.54
			c-9.454-5.001-21.208-1.383-26.21,8.064c-2.822,5.331-4.529,12.221-5.094,20.533c-5.286,1.156-10.32,2.451-15.129,3.856
			c-1.538-7.739-3.308-15.182-5.286-22.189c-0.841-2.978-3.435-5.128-6.518-5.403c-40.835-3.624-71.333-9.898-95.979-19.747
			c-1.471-0.587-3.087-0.691-4.62-0.298c-32.968,8.451-63.913,14.839-97.386,20.106c-2.886,0.453-5.246,2.54-6.029,5.354
			c-2.033,7.31-3.852,15.027-5.434,23.001c-5.627-1.728-11.571-3.303-17.874-4.683c-0.5-7.354-1.893-13.594-4.163-18.627
			c-4.663-10.34-16.876-15.268-26.956-10.067c-5.191,2.678-8.654,7.379-9.941,12.637c-4.99-3.43-9.537-7.334-13.611-11.689
			c6.112-12.577,13.352-32.948,9.349-53.354c-2.056-10.491-12.269-17.356-22.76-15.296c-5.114,1.002-9.366,3.943-12.142,7.907
			c-2.643-7.305-7.106-15.702-14.551-21.552c-4.072-3.201-9.142-4.62-14.29-4.006c-5.143,0.617-9.738,3.2-12.938,7.272
			c-6.572,8.366-5.154,20.5,3.142,27.128c0.971,1.109,2.825,5.57,3.571,9.525c-5.562,1.739-10.061,5.868-12.315,11.577
			c-0.831,2.107-1.261,4.366-1.272,6.631c-0.064,12.766,11.46,21.646,23.129,19.322c0.263-0.01,0.799,0.001,1.626,0.062
			c1.48,3.119,3.08,6.165,4.776,9.097c1.595,2.757,3.335,5.508,5.174,8.176c0.026,0.04,0.054,0.079,0.082,0.117
			c3.9,5.647,8.285,10.964,13.087,15.875c-4.442,7.444-3.461,17.247,2.941,23.65c3.663,3.662,8.532,5.679,13.712,5.679
			c4.164,0,8.226-1.347,11.551-3.815c0.817-0.348,2.401-0.937,4.517-1.633c7.031,3.553,14.591,6.567,22.517,8.974
			c0.206,0.067,0.411,0.129,0.601,0.186c4.544,1.359,9.225,2.532,13.911,3.483c8.695,1.767,16.5,3.945,23.508,6.38
			c-4.765,50.503-0.706,105.07,11.051,147.117c0.615,2.2,2.204,3.996,4.312,4.874c37.452,15.621,69.762,35.25,96.034,58.342
			c1.408,1.237,3.166,1.856,4.923,1.856c1.752,0,3.504-0.615,4.91-1.845c24.482-21.419,55.952-40.528,96.206-58.42
			c2.077-0.924,3.621-2.744,4.19-4.944c11.443-44.158,15.339-97.885,10.77-147.876c2.718-0.892,5.552-1.745,8.505-2.55
			c3.145-0.857,5.311-3.706,5.366-6.965c0.001-0.064,0.002-0.128,0.004-0.192c0.1-4.879-4.467-8.543-9.176-7.261
			c-32.447,8.832-52.193,23.143-63.373,34.223c-14.464,14.333-18.591,26.784-18.764,27.322c-0.597,1.86-2.307,3.111-4.258,3.111
			c-0.46,0-0.919-0.073-1.368-0.217c-2.35-0.753-3.648-3.276-2.897-5.625c0.699-2.182,18.092-53.652,102.066-70.716
			c0.692-0.14,1.369-0.29,2.047-0.441l0.315-0.07c3.399-0.753,5.834-3.76,5.845-7.241c0.027-8.39,1.295-15.377,3.57-19.676
			c0.802-1.514,2.358-2.38,3.963-2.38c1.237,0,2.507,0.511,3.479,1.644c1.183,1.379,1.288,3.359,0.444,4.968
			c-0.773,1.474-1.327,3.254-1.734,5.569c-0.4,2.279,0.095,4.677,1.597,6.436c2.242,2.626,5.882,3.337,8.876,1.924
			c13.657-6.444,25.275-15.378,34.53-26.556c1.916-2.314,2.187-5.573,0.758-8.215c-5.362-9.918-13.811-29.295-10.277-47.835
			c0.443-2.32,2.544-4.068,4.892-3.821c2.646,0.278,4.434,2.759,3.935,5.313c-1.554,7.918-0.642,16.999,2.708,26.991
			c0.996,2.968,3.74,4.999,6.869,5.083c3.165,0.104,5.98-1.796,7.135-4.704l0.363-0.935c0.115-0.299,0.211-0.606,0.286-0.918
			c0.083-0.342,0.203-0.666,0.354-0.966c0.147-0.291,0.275-0.592,0.385-0.899c3.664-10.405,4.513-18.062,4.653-19.567
			c0.006-0.071,0.014-0.126,0.024-0.205c0.264-1.82,2.819-17.879,12.252-25.508c0.727-0.588,1.581-1.028,2.512-1.115
			c1.745-0.162,3.343,0.629,4.26,2.07c1.231,1.932,0.696,4.532-1.094,5.962c-6.772,5.408-9.004,19.417-9.027,19.559
			c-0.019,0.12-0.034,0.242-0.047,0.363c-0.079,0.747-0.322,2.789-0.909,5.809c-0.255,1.313-0.234,2.69,0.194,3.958
			c1.036,3.076,3.814,5.028,6.862,5.119c1.315,0.04,2.478,0.151,3.464,0.33c1.136,0.206,2.218,0.723,2.945,1.618
			c0.874,1.077,1.2,2.441,0.916,3.771c-0.513,2.41-2.904,3.958-5.401,3.426c-0.797-0.158-3.223-0.643-10.469,0.439
			c-2.551,0.381-4.719,2.048-5.748,4.414c-1.725,3.971-3.675,7.844-5.796,11.51c-1.4,2.421-2.935,4.845-4.562,7.204
			c-0.005,0.007-0.01,0.015-0.015,0.021c-0.02,0.027-0.039,0.057-0.059,0.086c-4.62,6.685-10.019,12.845-16.047,18.314
			c-1.047,0.951-1.889,2.133-2.292,3.487c-0.959,3.224,0.297,6.519,2.886,8.314c0.505,0.351,0.771,0.591,1.02,0.836
			c0.728,0.718,1.264,1.629,1.41,2.641c0.208,1.44-0.26,2.833-1.263,3.833c-0.845,0.846-1.968,1.311-3.164,1.311
			c-1.043,0-2.054-0.363-2.849-1.023c-0.4-0.332-0.834-0.622-1.296-0.864c-2.663-1.4-8.212-3.139-10.474-3.823
			c-1.891-0.57-3.939-0.369-5.684,0.569c-2.116,1.137-4.294,2.216-6.526,3.239c-3.968,1.817-5.441,6.698-3.213,10.45
			c0.027,0.046,0.054,0.091,0.082,0.137c1.909,3.279,6.02,4.496,9.47,2.915c1.496-0.686,2.97-1.395,4.422-2.129
			c2.115,0.695,3.7,1.285,4.518,1.633c3.325,2.466,7.386,3.815,11.55,3.815c5.18,0,10.048-2.017,13.712-5.679
			c6.402-6.403,7.383-16.207,2.941-23.65c4.803-4.912,9.189-10.231,13.089-15.877c0.018-0.025,0.035-0.051,0.052-0.076
			c0.003-0.004,0.006-0.008,0.009-0.013c1.849-2.681,3.596-5.441,5.194-8.203c1.696-2.932,3.295-5.98,4.775-9.097
			c0.831-0.061,1.369-0.071,1.631-0.062c10.347,2.022,20.484-4.653,22.686-14.993C512.648,132.529,511.689,127.346,508.869,123.002z
			 M151.242,216.638c-8.932-3.431-19.098-6.468-30.648-8.814c-4.248-0.863-8.49-1.926-12.633-3.165l-0.192-0.058
			c-0.078-0.027-0.156-0.052-0.235-0.076c-8.089-2.451-15.727-5.593-22.703-9.34c-1.096-0.589-2.308-0.888-3.529-0.888
			c-0.725,0-1.451,0.105-2.156,0.318c-2.263,0.684-7.816,2.424-10.476,3.824c-0.46,0.242-0.894,0.531-1.294,0.863
			c-0.795,0.66-1.806,1.023-2.849,1.023c-1.195,0-2.319-0.465-3.164-1.311c-0.846-0.845-1.311-1.968-1.311-3.164
			s0.465-2.319,1.311-3.164c0.303-0.303,0.564-0.565,1.169-0.985c1.869-1.298,3.045-3.378,3.189-5.65
			c0.145-2.27-0.754-4.484-2.442-6.009c-6.09-5.502-11.54-11.711-16.202-18.455c-0.025-0.037-0.051-0.074-0.077-0.11
			c-1.622-2.352-3.155-4.775-4.559-7.201c-2.121-3.667-4.073-7.542-5.799-11.517c-1.024-2.36-3.193-4.025-5.739-4.406
			c-7.251-1.083-9.676-0.599-10.556-0.423c-2.425,0.514-4.806-1.034-5.319-3.444c-0.25-1.169-0.028-2.365,0.622-3.368
			c0.65-1.001,1.652-1.69,2.821-1.94c1.069-0.228,2.376-0.366,3.881-0.412c2.189-0.066,4.238-1.091,5.603-2.802
			c1.366-1.712,1.91-3.938,1.489-6.087c-0.634-3.238-0.882-5.404-0.943-5.99c-0.013-0.123-0.029-0.247-0.048-0.37
			c-0.022-0.142-2.271-14.25-9.099-19.616c-1.94-1.523-2.278-4.342-0.754-6.283c0.739-0.94,1.799-1.536,2.986-1.679
			c1.186-0.138,2.357,0.187,3.296,0.926c9.615,7.554,12.208,23.851,12.475,25.694c0.01,0.07,0.018,0.125,0.03,0.271
			c0.133,1.43,0.981,9.091,4.645,19.492c0.108,0.308,0.237,0.608,0.385,0.899c0.151,0.299,0.27,0.623,0.354,0.966
			c0.076,0.311,0.171,0.619,0.286,0.918l0.355,0.915c1.148,2.917,3.973,4.825,7.132,4.725c3.133-0.08,5.883-2.111,6.88-5.083
			c3.349-9.991,4.261-19.071,2.709-26.991c-0.474-2.421,1.109-4.778,3.529-5.251c2.42-0.477,4.778,1.108,5.253,3.529
			c3.647,18.6-4.842,38.092-10.226,48.055c-1.448,2.678-1.123,5.967,0.821,8.309c9.244,11.137,20.837,20.044,34.459,26.472
			c2.506,1.181,5.46,0.879,7.673-0.791c2.213-1.668,3.317-4.424,2.87-7.159c-0.416-2.544-0.996-4.457-1.825-6.023
			c-1.154-2.181-0.319-4.895,1.859-6.049c2.182-1.154,4.895-0.319,6.049,1.859c2.273,4.295,3.542,11.277,3.57,19.66
			c0.012,3.488,2.439,6.502,5.845,7.256l0.298,0.066c0.684,0.152,1.367,0.303,2.064,0.445
			c83.974,17.064,101.367,68.534,102.067,70.715c0.752,2.35-0.547,4.873-2.903,5.628c-0.443,0.142-0.902,0.215-1.362,0.215
			c-1.951,0-3.662-1.251-4.262-3.126c-0.169-0.523-4.296-12.974-18.76-27.307c-8.853-8.773-23.083-19.573-44.729-28.076
			C152.049,216.917,151.654,216.76,151.242,216.638z M273.361,265.219c-1.579,4.933-1.143,10.185,1.227,14.789
			c2.371,4.606,6.394,8.012,11.321,9.589c1.92,0.617,3.913,0.93,5.922,0.93c8.433,0,15.833-5.382,18.438-13.4
			c0.19-0.527,3.905-10.505,15.731-21.99c2.653-2.576,5.865-5.358,9.696-8.201c1.747,36.249-0.904,74.434-7.354,104.688
			c-27.329,12.985-50.567,26.57-70.776,41.382c-21.175-15.774-45.148-29.832-71.376-41.856c-1.067-4.725-2.024-9.687-2.877-14.828
			c-0.497-2.996-2.772-5.397-5.748-6.006c-0.064-0.013-0.127-0.026-0.192-0.04c-5.066-1.058-9.64,3.298-8.792,8.405
			c1.135,6.835,2.448,13.368,3.937,19.504c0.543,2.24,2.092,4.103,4.195,5.047c28.38,12.727,54.039,27.871,76.264,45.012
			c1.341,1.034,2.947,1.552,4.554,1.552c1.589,0,3.177-0.506,4.511-1.518c21.199-16.1,46.045-30.726,75.953-44.714
			c2.084-0.975,3.602-2.856,4.113-5.099c7.819-34.326,10.789-79.25,8.014-120.62c2.771-1.485,5.729-2.944,8.905-4.356
			c3.727,45.823,0.21,94.463-9.833,135.11c-37.476,16.918-67.581,35.008-91.727,55.132c-25.744-21.65-56.602-40.216-91.86-55.262
			c-10.232-38.647-13.873-87.685-10.023-133.79c3.186,1.495,6.138,3.035,8.893,4.595c-1.25,17.827-1.422,36.115-0.587,53.784
			c0.239,5.051,5.411,8.369,10.099,6.473c0.064-0.026,0.126-0.051,0.189-0.076c2.897-1.157,4.751-4.013,4.604-7.129
			c-0.673-14.252-0.672-28.939,0.056-43.458c2.741,2.167,5.12,4.278,7.169,6.268c11.827,11.485,15.541,21.463,15.731,21.99
			c2.605,8.018,10.005,13.4,18.438,13.4c2.01,0,4.001-0.312,5.917-0.928c4.932-1.579,8.955-4.985,11.326-9.591
			c2.371-4.605,2.806-9.856,1.227-14.79c-0.6-1.87-11.791-35.031-55.192-59.718c0.519-3.024,1.066-5.998,1.658-8.86
			c23.661-4.177,46.803-9.083,70.512-14.945c20.986,7.327,45.419,12.671,74.464,16.285c0.392,1.964,0.76,3.989,1.116,6.042
			C285.602,228.842,273.973,263.31,273.361,265.219z M345.141,197.244c-0.501-2.633-1.03-5.196-1.586-7.669
			c-0.695-3.095-3.273-5.411-6.425-5.774c-31.266-3.594-56.976-9.122-78.602-16.902c-1.389-0.499-2.896-0.574-4.329-0.219
			c-25.768,6.426-50.813,11.7-76.569,16.123c-2.965,0.509-5.335,2.751-6.007,5.684c-0.732,3.192-1.416,6.528-2.06,9.95
			c-2.753-1.245-5.61-2.453-8.576-3.617c1.278-6.661,2.72-13.146,4.326-19.342c31.343-5.066,60.66-11.156,91.652-19.033
			c24.522,9.468,54.178,15.668,92.732,19.378c1.491,5.73,2.834,11.748,4.029,17.958C350.761,194.894,347.901,196.05,345.141,197.244
			z"/>
	</g>
</g>
<g>
</g>
<g>
</g>
<g>
</g>
<g>
</g>
<g>
</g>
<g>
</g>
<g>
</g>
<g>
</g>
<g>
</g>
<g>
</g>
<g>
</g>
<g>
</g>
<g>
</g>
<g>
</g>
<g>
</g>
</svg>
