<?xml version="1.0" encoding="iso-8859-1"?>
<!-- Generator: Adobe Illustrator 19.0.0, SVG Export Plug-In . SVG Version: 6.00 Build 0)  -->
<svg version="1.1" id="Capa_1" xmlns="http://www.w3.org/2000/svg" xmlns:xlink="http://www.w3.org/1999/xlink" x="0px" y="0px"
	 viewBox="0 0 511.998 511.998" style="enable-background:new 0 0 511.998 511.998;" xml:space="preserve">
<g>
	<g>
		<path d="M195.751,389.592h-18.689c-4.158,0-7.528,3.37-7.528,7.529c0,4.159,3.371,7.528,7.528,7.528h18.689
			c4.158,0,7.529-3.37,7.529-7.528C203.28,392.961,199.909,389.592,195.751,389.592z"/>
	</g>
</g>
<g>
	<g>
		<path d="M231.722,389.592h-9.574c-4.158,0-7.529,3.37-7.529,7.529c0,4.159,3.371,7.528,7.529,7.528h9.574
			c4.158,0,7.529-3.37,7.529-7.528C239.251,392.961,235.88,389.592,231.722,389.592z"/>
	</g>
</g>
<g>
	<g>
		<path d="M495.207,373.507c3.344-5.139,5.294-11.265,5.294-17.838v-39.235c0-17.612-14.328-31.94-31.94-31.94h-55.902
			c-5.548,0-10.061-4.513-10.061-10.061V130.623c7.451-1.698,13.033-8.366,13.033-16.325V99.837c0-9.239-7.516-16.755-16.755-16.755
			H271.737c-7.236,0-13.399,4.62-15.737,11.059c-2.339-6.439-8.501-11.059-15.737-11.059H113.125
			c-9.239,0-16.755,7.516-16.755,16.755v14.462c0,7.958,5.582,14.625,13.033,16.325v143.808c0,5.548-4.514,10.061-10.061,10.061
			H43.437c-17.612,0-31.94,14.328-31.94,31.94v39.235c0,6.575,1.951,12.699,5.294,17.838C7.395,374.341,0,382.246,0,391.856v20.387
			c0,9.193,7.479,16.672,16.672,16.672h42.402c4.158,0,7.528-3.37,7.528-7.528c0-0.314,0.256-0.569,0.57-0.569h79.444
			c0.914,0,1.793,0.279,2.54,0.809l8.345,5.906c1.272,0.899,2.792,1.383,4.349,1.383h83.283c4.041,0,7.783-1.28,10.865-3.441
			c3.082,2.161,6.824,3.441,10.864,3.441h83.284c1.558,0,3.078-0.483,4.349-1.383l8.345-5.907c0.746-0.528,1.624-0.808,2.54-0.808
			h79.444c0.314,0,0.569,0.256,0.569,0.569c0,4.159,3.37,7.528,7.528,7.528h42.403c9.193,0,16.672-7.479,16.672-16.672v-20.387
			C512,382.246,504.604,374.341,495.207,373.507z M270.038,99.837c0-0.938,0.762-1.698,1.698-1.698h127.138
			c0.938,0,1.698,0.762,1.698,1.698v14.462c0,0.938-0.762,1.698-1.698,1.698H271.737c-0.938,0-1.698-0.762-1.698-1.698V99.837z
			 M113.124,98.139h127.138c0.937,0,1.698,0.762,1.698,1.698v14.462c0,0.938-0.762,1.698-1.698,1.698H113.125
			c-0.937,0-1.698-0.762-1.698-1.698V99.837h-0.001C111.425,98.899,112.187,98.139,113.124,98.139z M26.555,316.433
			c0-9.309,7.574-16.883,16.883-16.883h38.758v15.394c0,11.898-4.633,23.083-13.046,31.497c-2.94,2.94-2.94,7.707,0,10.646
			c1.47,1.47,3.397,2.204,5.323,2.204s3.854-0.735,5.323-2.205c11.257-11.257,17.456-26.223,17.456-42.142V299.55h2.089
			c12.914,0,23.578-9.797,24.962-22.348h21.37c3.047,8.002,10.779,13.713,19.838,13.713c11.712,0,21.242-9.529,21.242-21.241
			s-9.529-21.241-21.242-21.241c-9.059,0-16.791,5.711-19.838,13.713H124.46v-35.424h21.213
			c3.047,8.002,10.779,13.713,19.838,13.713c11.712,0,21.242-9.529,21.242-21.241s-9.529-21.241-21.242-21.241
			c-9.059,0-16.791,5.711-19.838,13.713H124.46v-35.424h21.213c3.047,8.002,10.779,13.713,19.838,13.713
			c11.712,0,21.242-9.529,21.242-21.241s-9.529-21.241-21.242-21.241c-9.059,0-16.791,5.711-19.838,13.713H124.46v-30.129h102.707
			v177.817h-13.85c-20.858,0-37.827,16.969-37.827,37.827v18.626h-13.228c-1.525,0-3.012,0.463-4.268,1.327l-9.839,6.772H44.312
			c-9.791,0-17.756-7.965-17.756-17.755V316.433z M159.325,269.674c0-3.41,2.774-6.184,6.185-6.184c3.411,0,6.185,2.774,6.185,6.184
			s-2.774,6.184-6.185,6.184C162.1,275.859,159.325,273.084,159.325,269.674z M159.325,219.192c0-3.41,2.774-6.184,6.185-6.184
			c3.411,0,6.185,2.774,6.185,6.184c0,3.41-2.774,6.184-6.185,6.184C162.1,225.377,159.325,222.603,159.325,219.192z
			 M159.325,168.711c0-3.41,2.774-6.184,6.185-6.184c3.411,0,6.185,2.774,6.185,6.184c0,3.41-2.774,6.184-6.185,6.184
			C162.1,174.896,159.325,172.122,159.325,168.711z M227.167,323.927v0.001v41.396h-36.62v-18.626
			c0-12.555,10.215-22.77,22.77-22.77H227.167z M245.135,413.858h-80.889l-6.389-4.522c-3.305-2.34-7.191-3.577-11.24-3.577H67.173
			c-5.889,0-11.028,3.274-13.691,8.098h-36.81c-0.89,0-1.615-0.725-1.615-1.615v-20.387c0-1.861,1.515-3.376,3.376-3.376h132.061
			c1.525,0,3.012-0.463,4.268-1.327l9.839-6.772h80.534c1.178,0,2.225,0.534,2.945,1.359c-0.114,0.84-0.194,1.691-0.194,2.562
			v25.635c0,0.872,0.079,1.722,0.194,2.563C247.36,413.324,246.314,413.858,245.135,413.858z M245.135,365.325h-2.911V130.93
			c6.374-0.748,11.652-5.086,13.776-10.934c2.124,5.847,7.401,10.185,13.776,10.934v83.6c0,4.049,3.232,7.355,7.281,7.448
			c0.05,0.001,0.1,0.002,0.151,0.003c4.183,0.097,7.626-3.264,7.626-7.448v-83.479H387.54v30.129h-21.213
			c-3.144-8.253-11.27-14.069-20.696-13.696c-10.817,0.429-19.752,9.213-20.35,20.023c-0.679,12.255,9.097,22.443,21.208,22.443
			c9.059,0,16.79-5.711,19.839-13.713h21.213v35.424h-21.213c-3.144-8.253-11.27-14.069-20.696-13.696
			c-10.817,0.429-19.752,9.213-20.35,20.023c-0.679,12.255,9.097,22.443,21.208,22.443c9.059,0,16.79-5.711,19.839-13.713h21.213
			v35.424h-21.213c-3.144-8.253-11.27-14.069-20.696-13.696c-10.817,0.429-19.752,9.213-20.35,20.023
			c-0.679,12.255,9.097,22.443,21.208,22.443c9.059,0,16.79-5.711,19.839-13.713h21.37c1.384,12.55,12.049,22.348,24.962,22.348
			h2.089v15.394c0,15.919,6.199,30.887,17.456,42.143c1.471,1.47,3.398,2.204,5.324,2.204c1.926,0,3.854-0.735,5.324-2.204
			c2.94-2.941,2.94-7.707,0-10.647c-8.414-8.413-13.046-19.598-13.046-31.496v-15.394h38.757c9.324,0,16.883,7.559,16.883,16.883
			v39.235c0,9.806-7.949,17.755-17.755,17.755H363.846l-9.841-6.773c-1.255-0.864-2.743-1.326-4.266-1.326H336.51v-18.626
			c0-20.891-16.936-37.827-37.827-37.827h-13.851v-45.498c0-4.049-3.232-7.359-7.281-7.454c-0.05-0.001-0.1-0.002-0.151-0.004
			c-4.183-0.098-7.626,3.27-7.626,7.454v101.955h-2.911c-4.041,0-7.783,1.28-10.864,3.441
			C252.918,366.604,249.176,365.325,245.135,365.325z M352.674,168.711c0,3.41-2.775,6.184-6.185,6.184
			c-3.41,0-6.184-2.775-6.184-6.184c0-3.41,2.775-6.184,6.184-6.184C349.898,162.527,352.674,165.302,352.674,168.711z
			 M352.674,219.192c0,3.41-2.775,6.184-6.185,6.184c-3.41,0-6.184-2.775-6.184-6.184c0-3.41,2.775-6.184,6.184-6.184
			C349.898,213.008,352.674,215.782,352.674,219.192z M352.674,269.674c0,3.41-2.775,6.184-6.185,6.184
			c-3.41,0-6.184-2.774-6.184-6.184s2.775-6.184,6.184-6.184C349.898,263.49,352.674,266.263,352.674,269.674z M321.453,346.698
			v18.626h-36.62v-41.396h13.85C311.239,323.928,321.453,334.143,321.453,346.698z M496.943,412.243L496.943,412.243
			c0,0.891-0.725,1.615-1.615,1.615h-36.811c-2.663-4.824-7.801-8.098-13.691-8.098h-79.444c-4.049,0-7.936,1.236-11.24,3.576
			l-6.389,4.523h-80.889c-1.178,0-2.225-0.533-2.944-1.359c0.115-0.84,0.194-1.691,0.194-2.562v-25.635
			c0-0.871-0.079-1.722-0.194-2.562c0.72-0.826,1.766-1.359,2.944-1.359h80.534l9.84,6.772c1.256,0.864,2.743,1.327,4.268,1.327
			h132.06c1.862,0,3.377,1.515,3.377,3.376V412.243z"/>
	</g>
</g>
<g>
	<g>
		<path d="M334.938,389.592h-18.69c-4.159,0-7.528,3.37-7.528,7.529c0,4.159,3.37,7.528,7.528,7.528h18.69
			c4.159,0,7.528-3.37,7.528-7.528C342.466,392.961,339.096,389.592,334.938,389.592z"/>
	</g>
</g>
<g>
	<g>
		<path d="M289.851,389.592h-9.574c-4.159,0-7.528,3.37-7.528,7.529c0,4.159,3.37,7.528,7.528,7.528h9.574
			c4.159,0,7.528-3.37,7.528-7.528C297.379,392.961,294.01,389.592,289.851,389.592z"/>
	</g>
</g>
<g>
</g>
<g>
</g>
<g>
</g>
<g>
</g>
<g>
</g>
<g>
</g>
<g>
</g>
<g>
</g>
<g>
</g>
<g>
</g>
<g>
</g>
<g>
</g>
<g>
</g>
<g>
</g>
<g>
</g>
</svg>
