<?xml version="1.0" encoding="iso-8859-1"?>
<!-- Generator: Adobe Illustrator 19.0.0, SVG Export Plug-In . SVG Version: 6.00 Build 0)  -->
<svg version="1.1" id="Capa_1" xmlns="http://www.w3.org/2000/svg" xmlns:xlink="http://www.w3.org/1999/xlink" x="0px" y="0px"
	 viewBox="0 0 512 512" style="enable-background:new 0 0 512 512;" xml:space="preserve">
<g>
	<g>
		<path d="M375.291,377.304l-197.929-26.212c-4.12-0.55-7.898,2.352-8.444,6.47c-0.546,4.118,2.351,7.9,6.469,8.446l197.928,26.212
			c0.335,0.044,0.668,0.065,0.997,0.065c3.715,0,6.946-2.752,7.448-6.536C382.305,381.631,379.409,377.85,375.291,377.304z"/>
	</g>
</g>
<g>
	<g>
		<path d="M132.696,330.479c-13.63,0-24.719,11.089-24.719,24.719s11.089,24.719,24.719,24.719s24.719-11.09,24.719-24.719
			C157.414,341.568,146.326,330.479,132.696,330.479z M132.696,364.872c-5.335,0-9.674-4.34-9.674-9.674s4.34-9.674,9.674-9.674
			s9.674,4.34,9.674,9.674S138.03,364.872,132.696,364.872z"/>
	</g>
</g>
<g>
	<g>
		<path d="M483.348,108.876h-9.542c-0.981-11.9-10.979-21.284-23.129-21.284c-2.399,0-4.755,0.369-6.997,1.081
			c-5.274-8.593-14.696-14.075-25.291-14.075c-16.38,0-29.705,13.326-29.705,29.705c0,1.749,0.152,3.483,0.453,5.184
			c-8.17,2.128-14.219,9.569-14.219,18.397c0,10.481,8.527,19.008,19.008,19.008h89.422c10.481,0,19.008-8.527,19.008-19.008
			S493.829,108.876,483.348,108.876z M483.346,131.848h-89.42c-2.185,0-3.964-1.777-3.964-3.964c0-2.186,1.778-3.964,3.964-3.964
			h5.871c2.76,0,5.3-1.512,6.614-3.94s1.195-5.38-0.314-7.692c-1.551-2.378-2.371-5.14-2.371-7.986
			c0-8.085,6.577-14.661,14.661-14.661c6.875,0,12.749,4.674,14.284,11.366c0.601,2.62,2.553,4.721,5.123,5.51
			c2.571,0.786,5.365,0.146,7.333-1.685c1.523-1.417,3.493-2.197,5.547-2.197c4.501,0,8.164,3.662,8.164,8.164
			c0,0.978-0.186,1.956-0.55,2.908c-0.886,2.314-0.577,4.912,0.827,6.954c1.403,2.04,3.721,3.259,6.197,3.259h18.032
			c2.185,0,3.964,1.777,3.964,3.964C487.31,130.07,485.531,131.848,483.346,131.848z"/>
	</g>
</g>
<g>
	<g>
		<path d="M122.388,37.934h-7.863c-1.242-10.737-10.39-19.099-21.454-19.099c-2.029,0-4.025,0.284-5.937,0.832
			C82.208,12.021,73.672,7.173,64.097,7.173c-15.123,0-27.427,12.305-27.427,27.429c0,1.379,0.103,2.747,0.306,4.096
			c-7.316,2.223-12.658,9.031-12.658,17.065c0,9.83,7.998,17.828,17.828,17.828h80.243c9.831,0,17.828-7.998,17.828-17.828
			C140.217,45.932,132.218,37.934,122.388,37.934z M122.387,58.543H42.146c-1.536,0-2.784-1.249-2.784-2.784s1.25-2.782,2.784-2.782
			h5.268c2.76,0,5.299-1.512,6.613-3.94c1.315-2.426,1.195-5.379-0.313-7.691c-1.31-2.009-2.002-4.342-2.002-6.747
			c0-6.829,5.555-12.384,12.383-12.384c5.808,0,10.77,3.949,12.065,9.601c0.601,2.62,2.554,4.72,5.123,5.509
			c2.57,0.787,5.365,0.147,7.333-1.685c1.224-1.138,2.804-1.765,4.452-1.765c3.614,0,6.553,2.941,6.553,6.553
			c0,0.782-0.148,1.568-0.442,2.335c-0.886,2.313-0.576,4.911,0.828,6.952c1.403,2.04,3.721,3.259,6.197,3.259h16.182
			c1.536,0,2.784,1.249,2.784,2.784S123.922,58.543,122.387,58.543z"/>
	</g>
</g>
<g>
	<g>
		<path d="M504.609,420.343c-8.785,0.071-15.959-7.037-15.994-15.796c-0.015-3.852-2.963-7.195-6.799-7.553
			c-4.479-0.418-8.245,3.095-8.245,7.488c0,8.747-7.116,15.862-15.863,15.862c-8.744,0-15.859-7.112-15.863-15.855
			c-0.002-3.83-2.985-7.139-6.798-7.495c-4.48-0.418-8.246,3.094-8.246,7.488c0,8.747-7.116,15.862-15.863,15.862
			c-3.688,0-7.151-1.259-9.909-3.467c16.831-12.425,27.773-32.389,27.773-54.868v-4.645c0-6.688-4.954-12.34-11.584-13.219
			l-10.717-1.419v-25.877c0-8.722-6.819-15.98-15.526-16.523l-103.885-6.465v-22.739c42.482-9.536,102.739-4.727,150.718,0.579
			c2.804,0.314,5.541-0.973,7.098-3.323c1.557-2.35,1.669-5.372,0.291-7.831c-24.459-43.648-51.664-83.563-81.354-119.442
			c-0.331-0.519-0.724-0.993-1.168-1.414c-23.214-27.908-47.941-53.352-74.06-76.18l34.367-10.7
			c2.294-0.714,4.222-2.395,5.036-4.655c1.268-3.522-0.196-7.292-3.276-9.09l-41.383-24.14c-2.817-1.643-6.438-1.311-8.933,1.004
			c-1.571,1.457-2.379,3.563-2.379,5.707v41.978c-11.622,5.077-49.122,22.177-89.604,48.318
			c-64.966,41.954-103.996,85.054-116.008,128.105c-0.653,2.343-0.134,4.856,1.394,6.749c1.529,1.893,3.881,2.917,6.304,2.781
			c0.693-0.043,35.476-1.996,77.712,1.477c4.395,0.361,8.159-3.119,8.159-7.529v-0.058c0-3.924-3.005-7.205-6.915-7.529
			c-19.611-1.622-37.582-2.076-51.504-2.076c-6.843,0-12.71,0.109-17.313,0.242c10.199-26.1,30.987-50.327,55.386-71.584
			c13.916,3.449,63.958,16.255,108.467,32.62c2.302,24.759,8.944,47.854,19.831,68.555c-19.017-9.913-41.822-16.601-65.023-21.086
			c-4.677-0.904-9.027,2.648-9.027,7.411c0,3.622,2.571,6.731,6.128,7.412c26.867,5.142,52.876,13.295,72.014,26.121v9.381
			l-90.825-5.653c-8.172-0.523-15.585,5.151-17.242,13.172l-2.045,9.893l-53.233-7.05c-8.941-1.178-17.984,2.86-23.005,10.886
			c-2.375,3.797-3.505,8.244-3.505,12.723v35.111c0,22.7,11.163,42.83,28.276,55.226c-2.69,1.981-5.978,3.109-9.41,3.109
			c-8.744,0-15.859-7.112-15.863-15.855c-0.002-3.83-2.985-7.139-6.798-7.495c-4.48-0.418-8.246,3.094-8.246,7.488
			c0,8.747-7.116,15.862-15.863,15.862c-8.744,0-15.859-7.112-15.863-15.855c-0.002-3.83-2.985-7.139-6.798-7.495
			c-4.48-0.418-8.246,3.094-8.246,7.488c0,8.701-7.042,15.788-15.726,15.862C3.45,420.379,0,423.658,0,427.866v69.44
			c0,4.154,3.368,7.522,7.522,7.522h496.956c4.154,0,7.522-3.368,7.522-7.522v-69.398C512,423.799,508.719,420.31,504.609,420.343z
			 M287.092,34.523l15.322,8.938l-15.322,4.771V34.523z M287.092,82.307c18.796,17.042,36.835,35.502,54.07,55.318h-54.07V82.307z
			 M287.092,152.671h66.786c6.109,7.437,12.111,15.049,18.003,22.837h-84.789V152.671z M287.092,190.551L287.092,190.551h95.883
			c14.686,20.447,28.649,42.011,41.844,64.653c-62.424-6.252-105.629-6.077-137.726,0.523V190.551z M247.245,178.813
			c-35.481-12.666-73.139-22.968-93.225-28.174c11.496-9.044,23.45-17.445,35.232-25.097c15.125,4.455,45.778,14.014,59.78,20.531
			C247.66,157.217,247.072,168.146,247.245,178.813z M206.192,114.952c23.031-13.873,44.107-24.54,58.062-31.184
			c-4.223,11.447-9.318,27.696-12.854,46.928C238.646,125.292,219.673,119.122,206.192,114.952z M272.047,235.439
			c-12.73-36.355-10.922-72.962-6.292-99.582c1.739-10.003,3.968-19.229,6.292-27.382V235.439z M178.714,303.489
			c0.151-0.731,0.831-1.236,1.573-1.201l209.755,13.054c0.794,0.05,1.417,0.712,1.417,1.507v23.884l-214.569-28.416L178.714,303.489
			z M97.238,362.008v-35.489c0-2.452,1.016-4.694,2.86-6.31c1.555-1.362,3.471-2.083,5.492-2.083c0.376,0,0.756,0.025,1.138,0.076
			l307.03,40.66v3.145c0,29.293-23.832,53.125-53.125,53.125H150.362C121.069,415.133,97.238,391.301,97.238,362.008z
			 M496.957,489.784L496.957,489.784H15.044v-55.321c6.262-1.572,11.772-5.06,15.868-9.801c5.672,6.562,14.045,10.727,23.38,10.727
			c9.336,0,17.713-4.167,23.385-10.732c5.672,6.565,14.048,10.732,23.385,10.732c8.914,0,17.34-3.889,23.148-10.436
			c8.059,3.361,16.892,5.225,26.155,5.225h210.271c9.543,0,18.631-1.979,26.885-5.536c5.787,6.75,14.247,10.747,23.421,10.747
			c9.336,0,17.713-4.167,23.385-10.732c5.672,6.565,14.048,10.732,23.385,10.732c9.333,0,17.708-4.164,23.38-10.727
			c4.096,4.742,9.605,8.23,15.868,9.801V489.784z"/>
	</g>
</g>
<g>
</g>
<g>
</g>
<g>
</g>
<g>
</g>
<g>
</g>
<g>
</g>
<g>
</g>
<g>
</g>
<g>
</g>
<g>
</g>
<g>
</g>
<g>
</g>
<g>
</g>
<g>
</g>
<g>
</g>
</svg>
