<?xml version="1.0" encoding="iso-8859-1"?>
<!-- Generator: Adobe Illustrator 19.0.0, SVG Export Plug-In . SVG Version: 6.00 Build 0)  -->
<svg version="1.1" id="Capa_1" xmlns="http://www.w3.org/2000/svg" xmlns:xlink="http://www.w3.org/1999/xlink" x="0px" y="0px"
	 viewBox="0 0 512 512" style="enable-background:new 0 0 512 512;" xml:space="preserve">
<g>
	<g>
		<path d="M234.806,127.374l-13.332-14.65c-4.65-5.108-11.277-8.036-18.184-8.036H43.13c-7.125,0-13.891,3.084-18.563,8.464
			l-12.611,14.52C4.246,136.549,0,147.912,0,159.67v211.776c0,20.428,16.619,37.048,37.048,37.048h173.418
			c20.429,0,37.049-16.62,37.049-37.048V160.218C247.515,148.043,243.001,136.378,234.806,127.374z M178.171,119.71
			c-3.622,19.516-17.922,36.409-36.833,42.923c-20.833,7.176-44.808,1.043-59.659-15.263c-7.053-7.743-11.812-17.422-13.682-27.66
			H178.171z M52.787,119.71c1.996,13.981,8.231,27.282,17.788,37.775c13.582,14.913,33.18,23.113,52.966,23.113
			c7.647,0,15.326-1.226,22.691-3.763c24.844-8.557,43.415-31.244,47.157-57.125h6.584c-1.771,13.45-7.156,26.53-15.428,37.261
			c-9.084,11.784-21.774,20.973-35.732,25.881c-14.616,5.137-30.926,5.745-45.927,1.709c-14.327-3.855-27.696-12.111-37.644-23.247
			c-10.017-11.212-16.722-25.543-18.882-40.352c-0.06-0.415-0.104-0.836-0.158-1.254H52.787z M15.021,159.67
			c0-8.138,2.939-16.003,8.276-22.147l8.91-10.259c3.147,16.369,10.639,31.529,21.834,44.06
			c12.042,13.478,27.582,23.071,44.943,27.743c7.819,2.104,15.934,3.149,24.053,3.149c10.466,0,20.933-1.738,30.758-5.193
			c16.908-5.943,31.654-16.621,42.648-30.88c8.944-11.603,14.928-25.01,17.606-39.258l9.648,10.6
			c5.673,6.234,8.797,14.307,8.797,22.734v81.974H15.021V159.67z M15.021,325.97h217.076v17.214H15.021V325.97z M232.494,371.446
			c0,12.146-9.882,22.027-22.028,22.027H37.048c-12.146,0-22.027-9.882-22.027-22.027v-13.24h217.472V371.446z M232.494,274.428
			h-27.077c-4.121,0-7.378,3.423-7.258,7.542c0.003,0.1,0.006,0.199,0.008,0.299c0.094,3.989,3.335,7.18,7.324,7.18h27.003v21.501
			H15.021v-21.501h143.903c4.106,0,7.372-3.372,7.326-7.477c-0.001-0.077-0.002-0.154-0.002-0.231
			c-0.028-4.041-3.285-7.312-7.325-7.312H15.021v-17.214h217.472V274.428z"/>
	</g>
</g>
<g>
	<g>
		<path d="M490.647,35.689H368.458c-8.313,0-15.09,6.778-15.11,15.107c-0.039,16.954,1.734,33.104,3.449,48.722
			c3.595,32.74,6.699,61.017-8.652,83.079c-1.736,2.496-1.798,5.793-0.153,8.351c19.955,31.051,14.477,112.957,9.645,185.221
			c-1.949,29.139-3.789,56.662-4.112,80.894c-0.068,5.127,1.877,9.958,5.474,13.605c3.591,3.639,8.386,5.644,13.5,5.644h18.529
			H429.4h58.131c13.492,0,24.469-10.976,24.469-24.469v-394.8C512,45.268,502.422,35.689,490.647,35.689z M398.218,50.71h92.43
			c3.491,0,6.331,2.84,6.331,6.331v12.413h-99.999C397.484,63.39,397.9,57.152,398.218,50.71z M368.458,50.71h14.714
			c-0.428,8.472-1.019,16.586-1.776,24.36c-0.158,0.607-0.25,1.24-0.25,1.896c0,0.125,0.013,0.248,0.019,0.372
			c-1.644,16.026-4.009,30.597-7.141,43.832c-0.577-7.633-1.428-15.41-2.293-23.289c-1.669-15.209-3.397-30.935-3.36-47.048
			C368.369,50.748,368.421,50.71,368.458,50.71z M372.498,461.289L372.498,461.289c-1.436,0.001-2.376-0.734-2.808-1.173
			c-0.753-0.764-1.161-1.776-1.146-2.855c0.316-23.83,2.144-51.159,4.08-80.091c1.416-21.169,2.844-42.533,3.726-63.134
			c3.681,37.736,6.287,85.876,7.078,147.253H372.498z M496.979,451.843c0,5.209-4.239,9.447-9.448,9.447H429.4h-30.948
			c-1.832-143.121-13.683-235.262-35.258-274.159c16.742-25.796,27.262-59.078,32.3-102.655h101.485V451.843z"/>
	</g>
</g>
<g>
	<g>
		<path d="M477.779,122.528H415.99c-6.463,0-12.131,4.136-14.104,10.289l-12.865,40.121c-0.496,1.543-0.478,3.206,0.05,4.738
			l12.871,37.388c1.822,5.291,6.131,9.34,11.525,10.828l32.251,8.904c0.654,0.181,1.326,0.271,1.999,0.271
			c0.714,0,1.428-0.102,2.12-0.305l27.981-8.233c7.168-2.109,12.174-8.8,12.174-16.273V134.74
			C489.991,128.006,484.513,122.528,477.779,122.528z M474.969,210.259c0.001,0.854-0.572,1.62-1.392,1.862l-25.927,7.628
			l-30.187-8.333c-0.618-0.17-1.11-0.634-1.318-1.239l-12.059-35.028l3.18-9.916h67.704V210.259z M474.97,150.211h-62.887
			l4.061-12.663h58.827V150.211z"/>
	</g>
</g>
<g>
	<g>
		<path d="M332.256,230.254v-38.7c0-8.977-5.651-16.641-13.574-19.677v-6.248c0-4.149-3.363-7.511-7.51-7.511
			s-7.511,3.362-7.511,7.511v4.841c-17.995,0.001-32.635,14.642-32.635,32.637v15.596c0,17.996,14.641,32.637,32.637,32.637h1.757
			c0.636,3.502,0.636,6.979,0,10.481h-1.757c-17.996,0-32.637,14.641-32.637,32.637v15.595c0,17.995,14.64,32.636,32.635,32.637
			v4.089c0,4.149,3.363,7.511,7.511,7.511s7.51-3.362,7.51-7.511v-5.496c7.923-3.035,13.574-10.7,13.574-19.677v-38.7
			c0-8.354-4.896-15.567-11.958-18.978c0.822-4.893,0.822-9.802,0-14.695C327.36,245.822,332.256,238.609,332.256,230.254z
			 M317.234,321.605c0,3.344-2.72,6.064-6.063,6.064h-7.51c-9.712-0.001-17.614-7.904-17.614-17.617v-15.595
			c0-9.713,7.902-17.616,17.616-17.616h7.486c0.008,0,0.016,0.002,0.023,0.002c0.005,0,0.01-0.001,0.015-0.001
			c3.336,0.008,6.047,2.724,6.047,6.063V321.605z M317.235,230.255c0,3.344-2.72,6.065-6.063,6.065h-7.51
			c-9.714-0.001-17.616-7.904-17.616-17.617v-15.596c0-9.713,7.902-17.616,17.616-17.616h7.51c3.343,0,6.063,2.72,6.063,6.064
			V230.255z"/>
	</g>
</g>
<g>
</g>
<g>
</g>
<g>
</g>
<g>
</g>
<g>
</g>
<g>
</g>
<g>
</g>
<g>
</g>
<g>
</g>
<g>
</g>
<g>
</g>
<g>
</g>
<g>
</g>
<g>
</g>
<g>
</g>
</svg>
