<?xml version="1.0" encoding="iso-8859-1"?>
<!-- Generator: Adobe Illustrator 19.0.0, SVG Export Plug-In . SVG Version: 6.00 Build 0)  -->
<svg version="1.1" id="Capa_1" xmlns="http://www.w3.org/2000/svg" xmlns:xlink="http://www.w3.org/1999/xlink" x="0px" y="0px"
	 viewBox="0 0 512.001 512.001" style="enable-background:new 0 0 512.001 512.001;" xml:space="preserve">
<g>
	<g>
		<path d="M219.324,157.348c-18.688-27.114-44.317-48.188-74.315-61.217c-0.277-9.39-7.984-16.949-17.44-16.949
			c-5.598,0-10.575,2.657-13.774,6.765c-5.467-1.221-11.01-2.181-16.582-2.869c-1.729-7.823-8.71-13.696-17.045-13.696
			c-6.519,0-12.205,3.595-15.206,8.901c-4.792-3.443-7.835-9.071-7.835-15.162c0-10.276,8.359-18.636,18.635-18.636
			c12.265,0,22.242-9.978,22.242-22.242C98.005,9.978,88.027,0,75.763,0C40.958,0,12.643,28.315,12.643,63.12
			c0,29.768,21.265,55.642,50.059,61.744v262.271c-28.797,6.101-50.059,31.968-50.059,61.744c0,34.805,28.315,63.12,63.12,63.12
			c12.265,0,22.242-9.978,22.242-22.242c0-12.265-9.978-22.242-22.242-22.242c-10.276,0-18.636-8.36-18.636-18.636
			c0-5.595,2.531-10.771,6.658-14.251c2.454,6.681,8.862,11.469,16.383,11.469c9.547,0,17.32-7.704,17.453-17.222
			c5.435-0.684,10.844-1.632,16.174-2.822c3.199,4.107,8.176,6.763,13.773,6.763c9.459,0,17.168-7.562,17.441-16.957
			c30.353-13.189,56.234-34.61,74.941-62.122c19.663-28.919,30.056-62.716,30.056-97.738
			C250.007,220.584,239.398,186.47,219.324,157.348z M62.701,109.258c-20.265-5.767-34.894-24.614-34.894-46.137
			c0.001-26.443,21.513-47.955,47.955-47.955c3.901,0,7.077,3.176,7.077,7.077s-3.176,7.077-7.077,7.077
			c-18.638,0-33.801,15.163-33.801,33.801c0,13.613,8.37,25.95,20.74,31.166V109.258z M62.701,417.726
			c-12.476,5.242-20.74,17.517-20.74,31.153c0,18.638,15.163,33.801,33.801,33.801c3.901,0,7.077,3.176,7.077,7.077
			c0,3.902-3.176,7.077-7.077,7.077c-26.442,0-47.955-21.512-47.955-47.955c0-21.531,14.626-40.374,34.894-46.139V417.726z
			 M82.469,428.631c0,1.269-1.032,2.301-2.3,2.301s-2.301-1.032-2.301-2.301V86.847c0-1.269,1.032-2.3,2.301-2.3s2.3,1.032,2.3,2.3
			V428.631z M125.267,96.65c0-1.269,1.032-2.301,2.301-2.301c1.269,0,2.301,1.032,2.301,2.301v32.659
			c0,1.269-1.032,2.301-2.301,2.301c-1.269,0-2.301-1.032-2.301-2.301V96.65z M97.634,98.429c4.187,0.579,8.351,1.321,12.468,2.23
			v14.538c-4.116-1.003-8.277-1.83-12.468-2.468V98.429z M110.101,411.339c-4.115,0.907-8.279,1.653-12.468,2.232v-14.303
			c4.191-0.638,8.352-1.463,12.468-2.466V411.339z M129.87,415.35c0,1.269-1.032,2.301-2.301,2.301
			c-1.269,0-2.301-1.032-2.301-2.301v-32.659c0-1.269,1.032-2.301,2.301-2.301c1.269,0,2.301,1.032,2.301,2.301V415.35z
			 M145.035,399.165v-15.902c21.656-11.828,39.995-28.994,53.254-49.933c14.654-23.139,22.399-49.879,22.399-77.33
			c0-17.762-3.254-35.23-9.52-51.617c-1.702-4.451-7.131-5.921-11.039-3.194c-0.074,0.052-0.148,0.102-0.222,0.153
			c-2.791,1.888-3.993,5.402-2.799,8.552c5.48,14.451,8.416,30.019,8.416,46.107c0,47.498-25.405,90.377-66.694,113.361
			c-3.043-2.575-6.971-4.135-11.26-4.135c-9.099,0-16.587,6.995-17.386,15.89c-4.128,1.136-8.32,2.067-12.548,2.788v-255.81
			c4.228,0.721,8.419,1.653,12.548,2.788c0.801,8.894,8.287,15.89,17.386,15.89c4.292,0,8.221-1.562,11.265-4.139
			c13.59,7.57,25.457,17.306,35.267,28.652c2.033,2.352,5.355,3.022,8.228,1.834c0.163-0.067,0.327-0.133,0.491-0.198
			c4.581-1.803,6.022-7.595,2.812-11.327c-11.42-13.284-25.162-24.434-40.595-32.864v-15.927
			c54.904,26.535,89.807,81.604,89.807,143.197C234.842,317.368,199.871,372.606,145.035,399.165z"/>
	</g>
</g>
<g>
	<g>
		<path d="M349.039,378.609c-0.361-1.499-1.17-2.853-2.32-3.882c-11.033-9.859-23.449-17.93-37.822-24.593V98.129l12.827,4.65
			c0.844,0.306,1.717,0.454,2.583,0.454c2.143,0,4.235-0.91,5.703-2.585c2.059-2.349,2.467-5.721,1.027-8.493l-33.738-64.938
			c-1.304-2.51-3.898-4.086-6.728-4.086s-5.424,1.576-6.728,4.086l-33.737,64.938c-1.441,2.772-1.032,6.145,1.027,8.493
			c2.059,2.351,5.351,3.196,8.285,2.13l12.827-4.65v252.005c-14.372,6.663-26.789,14.733-37.822,24.593
			c-1.151,1.029-1.959,2.382-2.319,3.882c-7.81,32.496-4.457,70.812-0.148,104.008c0.307,2.363,1.707,4.444,3.78,5.62
			c1.156,0.655,2.446,0.987,3.739,0.987c1.028,0,2.057-0.208,3.024-0.629c12.434-5.408,25.677-11.744,35.095-19.277
			c3.32,3.333,7.911,5.401,12.977,5.401s9.657-2.068,12.978-5.401c9.418,7.534,22.661,13.87,35.095,19.278
			c0.967,0.421,1.997,0.629,3.024,0.629c1.293,0,2.584-0.331,3.739-0.987c2.074-1.175,3.474-3.258,3.78-5.62
			C353.496,449.422,356.849,411.105,349.039,378.609z M245.731,470.506c-3.339-28.435-5.249-59.585,0.58-86.039
			c7.773-6.693,16.338-12.452,25.928-17.44v86.66h0.001C266.78,459.745,256.274,465.55,245.731,470.506z M293.731,456.389
			c0,1.745-1.418,3.163-3.163,3.163c-1.744,0-3.162-1.418-3.162-3.163V92.631l3.162-1.146l3.163,1.146V456.389z M293.152,76.291
			c-0.834-0.303-1.709-0.454-2.584-0.454c-0.875,0-1.749,0.151-2.584,0.454l-15.463,5.605l18.048-34.738l18.049,34.738
			L293.152,76.291z M335.406,470.506c-10.543-4.955-21.049-10.761-26.51-16.819v-86.66c9.59,4.988,18.157,10.747,25.928,17.44
			C340.655,410.921,338.745,442.071,335.406,470.506z"/>
	</g>
</g>
<g>
	<g>
		<path d="M494.663,378.609c-0.36-1.499-1.169-2.853-2.319-3.882c-11.033-9.859-23.449-17.93-37.822-24.593V98.129l12.827,4.65
			c0.844,0.306,1.717,0.454,2.583,0.454c2.143,0,4.235-0.91,5.703-2.585c2.059-2.349,2.467-5.721,1.027-8.493l-33.738-64.938
			c-1.304-2.51-3.898-4.086-6.728-4.086s-5.424,1.576-6.728,4.086l-33.737,64.938c-1.441,2.772-1.032,6.145,1.027,8.493
			c2.059,2.351,5.351,3.196,8.285,2.13l12.827-4.65v252.005c-14.372,6.663-26.789,14.733-37.822,24.593
			c-1.151,1.029-1.959,2.382-2.319,3.882c-7.81,32.496-4.456,70.812-0.148,104.008c0.307,2.363,1.707,4.444,3.78,5.62
			c1.156,0.655,2.446,0.987,3.739,0.987c1.028,0,2.057-0.208,3.024-0.629c12.434-5.408,25.677-11.744,35.095-19.277
			c3.32,3.333,7.911,5.401,12.977,5.401c5.066,0,9.657-2.068,12.978-5.401c9.418,7.534,22.661,13.87,35.095,19.278
			c0.966,0.421,1.997,0.629,3.024,0.629c1.293,0,2.584-0.331,3.739-0.987c2.074-1.175,3.474-3.258,3.78-5.62
			C499.119,449.422,502.473,411.105,494.663,378.609z M391.356,470.506c-3.339-28.435-5.249-59.585,0.58-86.039
			c7.773-6.693,16.338-12.452,25.928-17.44v86.66h0.001C412.405,459.745,401.899,465.55,391.356,470.506z M439.356,456.389
			c0,1.745-1.419,3.163-3.163,3.163c-1.744,0-3.162-1.418-3.162-3.163c0-0.024,0,0,0-0.024V92.631l3.162-1.146l3.163,1.146V456.389z
			 M438.777,76.291c-0.834-0.303-1.709-0.454-2.584-0.454s-1.749,0.151-2.584,0.454l-15.463,5.605l18.048-34.738l18.049,34.738
			L438.777,76.291z M481.031,470.506c-10.543-4.955-21.049-10.761-26.51-16.819v-86.66c9.59,4.988,18.157,10.747,25.928,17.44
			C486.28,410.921,484.371,442.071,481.031,470.506z"/>
	</g>
</g>
<g>
</g>
<g>
</g>
<g>
</g>
<g>
</g>
<g>
</g>
<g>
</g>
<g>
</g>
<g>
</g>
<g>
</g>
<g>
</g>
<g>
</g>
<g>
</g>
<g>
</g>
<g>
</g>
<g>
</g>
</svg>
