<?xml version="1.0" encoding="iso-8859-1"?>
<!-- Generator: Adobe Illustrator 19.0.0, SVG Export Plug-In . SVG Version: 6.00 Build 0)  -->
<svg version="1.1" id="Capa_1" xmlns="http://www.w3.org/2000/svg" xmlns:xlink="http://www.w3.org/1999/xlink" x="0px" y="0px"
	 viewBox="0 0 512 512" style="enable-background:new 0 0 512 512;" xml:space="preserve">
<g>
	<g>
		<path d="M345.132,256.147c4.134,0,7.486-3.352,7.486-7.486v-60.852c0-69.229-30.569-134.925-83.53-179.511l-7.767-6.539
			c-2.786-2.346-6.856-2.346-9.642,0l-7.767,6.539c-52.96,44.585-83.53,110.282-83.53,179.511v134.825
			c0,70.139,31.377,136.601,85.532,181.174l3.868,3.183c1.344,2.002,3.627,3.32,6.219,3.32c0.106,0,0.208-0.012,0.312-0.016
			c0.063,0.001,0.125,0.016,0.187,0.016c1.688,0,3.376-0.568,4.758-1.706l5.83-4.799c54.355-44.738,85.53-110.774,85.53-181.172
			v-25.261c0-4.133-3.352-7.485-7.486-7.485c-4.134,0-7.486,3.352-7.486,7.486v25.261c0,63.304-26.938,122.828-74.159,164.546
			V394.68c20.629-3.564,36.374-21.576,36.374-43.208V162.216c0-21.632-15.745-39.645-36.374-43.209V23.249
			c47.194,41.715,74.159,101.378,74.159,164.556v60.855C337.646,252.795,340.997,256.147,345.132,256.147z M248.515,486.287
			c-46.6-41.673-73.161-100.797-73.161-163.653V187.806c0-62.732,26.585-121.999,73.161-163.67v94.872
			c-20.629,3.564-36.374,21.577-36.374,43.209v189.255c0,21.632,15.745,39.644,36.374,43.208V486.287z M284.888,162.216v189.255
			c0,15.93-12.959,28.888-28.888,28.888s-28.887-12.959-28.887-28.888V162.216c0-15.93,12.959-28.888,28.887-28.888
			S284.888,146.287,284.888,162.216z"/>
	</g>
</g>
<g>
	<g>
		<path d="M270.415,343.986c-4.135,0-7.486,3.351-7.486,7.486c0,3.82-3.108,6.928-6.928,6.928c-3.82,0-6.928-3.108-6.928-6.928
			V319.29c0-4.135-3.351-7.486-7.486-7.486c-4.135,0-7.486,3.351-7.486,7.486v32.181c0,12.077,9.825,21.9,21.9,21.9
			c12.076,0,21.9-9.825,21.9-21.9C277.901,347.336,274.55,343.986,270.415,343.986z"/>
	</g>
</g>
<g>
	<g>
		<path d="M256.001,140.315c-12.076,0-21.9,9.826-21.9,21.901c0,4.135,3.351,7.486,7.486,7.486c4.135,0,7.486-3.351,7.486-7.486
			c0-3.821,3.108-6.929,6.928-6.929c3.82,0,6.928,3.108,6.928,6.929v20.428c0,4.135,3.351,7.486,7.486,7.486
			c4.135,0,7.486-3.351,7.486-7.486v-20.428C277.901,150.14,268.076,140.315,256.001,140.315z"/>
	</g>
</g>
<g>
	<g>
		<path d="M317.47,150.896c-4.135,0-7.486,3.351-7.486,7.486v136.341c0,4.134,3.351,7.485,7.486,7.485
			c4.135,0,7.486-3.351,7.486-7.486V158.382C324.956,154.247,321.605,150.896,317.47,150.896z"/>
	</g>
</g>
<g>
	<g>
		<path d="M317.47,314.237c-4.135,0-7.486,3.351-7.486,7.486v44.163c0,4.135,3.351,7.486,7.486,7.486
			c4.135,0,7.486-3.351,7.486-7.486v-44.163C324.956,317.587,321.605,314.237,317.47,314.237z"/>
	</g>
</g>
<g>
	<g>
		<path d="M194.532,222.058c-4.135,0-7.486,3.351-7.486,7.486v136.342c0,4.135,3.351,7.486,7.486,7.486
			c4.135,0,7.486-3.351,7.486-7.486V229.544C202.018,225.41,198.667,222.058,194.532,222.058z"/>
	</g>
</g>
<g>
	<g>
		<path d="M194.532,150.896c-4.135,0-7.486,3.351-7.486,7.486v44.163c0,4.135,3.351,7.486,7.486,7.486
			c4.135,0,7.486-3.351,7.486-7.486v-44.163C202.018,154.247,198.667,150.896,194.532,150.896z"/>
	</g>
</g>
<g>
	<g>
		<path d="M450.085,73.889v-49.7c0-3.386-2.272-6.349-5.541-7.229L389.486,2.143c-3.954-1.066-8.081-0.247-11.328,2.243
			c-3.248,2.488-5.111,6.262-5.111,10.355v59.148c0,13.619,7.111,25.601,17.809,32.452v301.006
			c-10.698,6.851-17.809,18.833-17.809,32.453v59.147c0,4.092,1.862,7.865,5.109,10.355c2.315,1.774,5.078,2.699,7.905,2.699
			c1.139,0,2.289-0.15,3.424-0.455l55.06-14.819c3.268-0.879,5.541-3.844,5.541-7.229v-49.699c0-13.62-7.111-25.602-17.809-32.453
			V106.341C442.975,99.489,450.085,87.507,450.085,73.889z M435.113,439.799v43.962l-47.094,12.674v-56.635
			c0-12.984,10.563-23.547,23.547-23.547C424.551,416.252,435.113,426.815,435.113,439.799z M405.829,401.28V112.407h11.476V401.28
			H405.829z M411.568,97.435c-12.984,0-23.547-10.562-23.547-23.546V17.254l47.094,12.673v43.963
			C435.114,86.873,424.552,97.435,411.568,97.435z"/>
	</g>
</g>
<g>
	<g>
		<path d="M138.953,73.889V14.74c0-4.091-1.863-7.866-5.111-10.355c-3.247-2.488-7.374-3.308-11.327-2.243L67.456,16.96
			c-3.268,0.879-5.541,3.844-5.541,7.229v49.7c0,13.619,7.111,25.601,17.809,32.452v301.006
			c-10.698,6.851-17.809,18.833-17.809,32.453v49.699c0,3.386,2.272,6.349,5.541,7.229l55.061,14.819
			c1.135,0.306,2.284,0.455,3.423,0.455c2.827,0,5.591-0.925,7.905-2.699c3.247-2.489,5.109-6.262,5.109-10.355v-59.147
			c0-13.62-7.111-25.601-17.809-32.453V106.341C131.843,99.489,138.953,87.507,138.953,73.889z M123.982,439.799v56.635h-0.001
			l-47.093-12.674v-43.962c0-12.984,10.562-23.547,23.546-23.547S123.982,426.815,123.982,439.799z M94.696,401.28V112.407h11.477
			V401.28H94.696z M100.434,97.435c-12.984,0-23.546-10.562-23.546-23.546V29.926l47.094-12.673v56.635
			C123.981,86.873,113.418,97.435,100.434,97.435z"/>
	</g>
</g>
<g>
</g>
<g>
</g>
<g>
</g>
<g>
</g>
<g>
</g>
<g>
</g>
<g>
</g>
<g>
</g>
<g>
</g>
<g>
</g>
<g>
</g>
<g>
</g>
<g>
</g>
<g>
</g>
<g>
</g>
</svg>
