<?xml version="1.0" encoding="iso-8859-1"?>
<!-- Generator: Adobe Illustrator 19.0.0, SVG Export Plug-In . SVG Version: 6.00 Build 0)  -->
<svg version="1.1" id="Capa_1" xmlns="http://www.w3.org/2000/svg" xmlns:xlink="http://www.w3.org/1999/xlink" x="0px" y="0px"
	 viewBox="0 0 511.999 511.999" style="enable-background:new 0 0 511.999 511.999;" xml:space="preserve">
<g>
	<g>
		<path d="M356.998,182.703h-3.968v-3.968c0-6.438-5.237-11.675-11.675-11.675h-13.188c-6.438,0-11.675,5.237-11.675,11.675v3.968
			h-3.968c-6.438,0-11.675,5.237-11.675,11.675v13.188c0,6.438,5.237,11.675,11.675,11.675h3.968v3.968
			c0,6.438,5.237,11.675,11.675,11.675h13.188c6.438,0,11.675-5.237,11.675-11.675v-3.968h3.968c6.438,0,11.675-5.237,11.675-11.675
			v-13.188C368.673,187.941,363.436,182.703,356.998,182.703z M353.655,204.224h-8.134c-4.148,0-7.509,3.361-7.509,7.509v8.134
			h-6.502v-8.134c0-4.148-3.361-7.509-7.509-7.509h-8.134v-6.502h8.134c4.148,0,7.509-3.361,7.509-7.509v-8.134h6.502v8.134
			c0,4.148,3.361,7.509,7.509,7.509h8.134V204.224z"/>
	</g>
</g>
<g>
	<g>
		<path d="M420.045,440.577c4.147,0,7.509-3.362,7.509-7.509V178.652c0-10.086-8.093-18.541-18.178-18.462
			c-15.697,0.122-28.507-12.612-28.507-28.282V16.993C380.868,7.608,373.26,0,363.875,0h-46.214c-4.147,0-7.509,3.362-7.509,7.509
			v0.967c0,13.648-6.619,27.167-19.143,39.094l-34.707,33.056L220.83,47.842c-13.145-12.15-20.093-25.975-20.093-39.985V7.509
			c0-4.147-3.362-7.509-7.509-7.509h-45.211c-9.385,0-16.993,7.608-16.993,16.993v125.808c0,9.605-7.785,17.39-17.39,17.39h-10.787
			c-10.163,0-18.402,8.239-18.402,18.402v317.635c0,8.711,7.061,15.771,15.771,15.771h311.566c8.711,0,15.771-7.061,15.771-15.771
			v-14.3c0-4.147-3.362-7.509-7.509-7.509c-4.147,0.001-7.509,3.363-7.509,7.51v14.3c0,0.416-0.337,0.753-0.753,0.753H263.89
			v-75.145h0.703c5.581,0,10.484-2.916,13.297-7.295h26.776v1.234c0,9.635,7.81,17.446,17.446,17.446h23.256
			c9.635,0,17.445-7.81,17.445-17.445v-1.236h49.723v18.525C412.536,437.215,415.898,440.577,420.045,440.577z M325.171,85.254
			V15.018h38.703c1.089,0,1.976,0.886,1.976,1.975v114.914c0,23.877,19.424,43.301,43.301,43.301c1.865,0,3.384,1.519,3.384,3.384
			v101.143h-49.723v-0.671c0-9.62-7.825-17.446-17.445-17.446h-23.256c-9.62,0-17.446,7.825-17.446,17.446v0.671h-26.776
			c-2.812-4.38-7.716-7.295-13.297-7.295h-0.703V170.918l37.477-35.696C316.94,120.392,325.171,103.112,325.171,85.254z
			 M412.43,294.754v7.591h-49.618v-7.591H412.43z M319.684,317.363h13.746c4.148,0,7.509-3.361,7.509-7.509v-22.609
			c-0.001-4.147-3.362-7.509-7.51-7.509h-13.745v-0.671c0-1.339,1.089-2.428,2.428-2.428h23.256c1.339,0,2.427,1.089,2.427,2.428
			v38.969c0,1.339-1.088,2.428-2.427,2.428h-23.256c-1.339,0-2.428-1.089-2.428-2.428V317.363z M280.397,302.345v-7.591h45.523
			v7.591H280.397z M265.379,288.246v20.609c0,0.434-0.353,0.786-0.786,0.786h-18.295c-0.434,0-0.786-0.353-0.786-0.786v-20.609
			c0-0.434,0.352-0.786,0.786-0.786h18.295C265.026,287.46,265.379,287.814,265.379,288.246z M200.738,48.204
			c2.903,3.671,6.191,7.238,9.9,10.665l40.646,37.566c1.44,1.331,3.268,1.994,5.096,1.994c1.865,0,3.731-0.691,5.179-2.072
			l39.809-37.915c3.259-3.105,6.177-6.321,8.785-9.623v36.432c0,13.648-6.619,27.167-19.144,39.094l-34.705,33.056l-35.473-32.784
			c-13.145-12.15-20.093-25.975-20.093-39.985V48.204z M99.463,178.593c0-1.865,1.519-3.384,3.384-3.384h10.788
			c17.87,0,32.408-14.539,32.408-32.408V16.993c0-1.089,0.886-1.975,1.975-1.975h37.701v69.616c0,18.307,8.616,35.947,24.918,51.013
			l38.234,35.337V272.44h-2.574c-5.581,0-10.484,2.916-13.296,7.295h-25.776v-0.671c0-9.62-7.825-17.446-17.445-17.446h-23.255
			c-9.62,0-17.445,7.825-17.445,17.446v0.671H99.463V178.593z M178.463,317.363h13.745v0.671c0,1.339-1.088,2.428-2.427,2.428
			h-23.255c-1.339,0-2.427-1.089-2.427-2.428v-38.969c0-1.339,1.088-2.428,2.427-2.428h23.255c1.339,0,2.427,1.089,2.427,2.428
			v0.671h-13.745c-4.147,0-7.509,3.361-7.509,7.509v22.609C170.954,314.002,174.316,317.363,178.463,317.363z M185.972,302.345
			v-7.591h44.522v7.591H185.972z M99.463,294.754h49.618v7.591H99.463V294.754z M99.463,317.363h49.618v0.671
			c0,9.62,7.825,17.446,17.445,17.446h23.255c9.62,0,17.445-7.825,17.445-17.446v-0.671h25.776c2.812,4.38,7.715,7.295,13.296,7.295
			h2.574v44.961h-2.574c-5.581,0-10.484,2.915-13.296,7.295h-25.776v-1.234c0-9.619-7.825-17.445-17.445-17.445h-23.255
			c-9.62,0-17.445,7.825-17.445,17.445v1.234H99.463V317.363z M178.463,414.543h13.745v1.234c0,1.339-1.088,2.428-2.427,2.428
			h-23.255c-1.339,0-2.427-1.089-2.427-2.428V375.68c0-1.339,1.088-2.427,2.427-2.427h23.255c1.339,0,2.427,1.088,2.427,2.427v1.234
			h-13.745c-4.147,0-7.509,3.361-7.509,7.509v22.609C170.954,411.182,174.316,414.543,178.463,414.543z M185.972,399.524v-7.591
			h44.522v7.591H185.972z M99.463,391.933h49.618v7.591H99.463V391.933z M248.872,496.982H100.216c-0.416,0-0.753-0.337-0.753-0.753
			v-81.686h49.618v1.234c0,9.62,7.825,17.446,17.445,17.446h23.255c9.62,0,17.445-7.825,17.445-17.446v-1.234h25.776
			c2.812,4.38,7.715,7.295,13.296,7.295h2.574V496.982z M265.38,406.033c0,0.434-0.353,0.786-0.786,0.786h-18.295
			c-0.434,0-0.786-0.353-0.786-0.786v-20.609c0-0.434,0.352-0.786,0.786-0.786h18.295c0.434,0,0.786,0.353,0.786,0.786V406.033z
			 M280.398,399.524v-7.591h45.523v7.591H280.398z M347.795,415.777L347.795,415.777c-0.001,1.339-1.089,2.428-2.428,2.428h-23.256
			c-1.339,0-2.428-1.089-2.428-2.428v-1.234h13.746c4.148,0,7.509-3.361,7.509-7.509v-22.609c0-4.148-3.361-7.509-7.509-7.509
			h-13.745v-1.234c0-1.339,1.089-2.427,2.428-2.427h23.256c1.339,0,2.427,1.088,2.427,2.427V415.777z M412.43,399.524h-49.618
			v-7.591h49.618V399.524z M412.535,376.915h-49.723v-1.234c0-9.619-7.825-17.445-17.445-17.445h-23.256
			c-9.62,0-17.446,7.825-17.446,17.445v1.234h-26.776c-2.812-4.38-7.716-7.295-13.297-7.295h-0.703v-44.961h0.703
			c5.581,0,10.484-2.915,13.297-7.295h26.777v0.671c0,9.62,7.825,17.446,17.446,17.446h23.256c9.619,0,17.445-7.825,17.445-17.446
			v-0.671h49.723L412.535,376.915L412.535,376.915z"/>
	</g>
</g>
<g>
	<g>
		<path d="M208.233,193.463h-61.036c-4.147,0-7.509,3.361-7.509,7.509s3.362,7.509,7.509,7.509h61.036
			c4.147,0,7.509-3.361,7.509-7.509S212.38,193.463,208.233,193.463z"/>
	</g>
</g>
<g>
</g>
<g>
</g>
<g>
</g>
<g>
</g>
<g>
</g>
<g>
</g>
<g>
</g>
<g>
</g>
<g>
</g>
<g>
</g>
<g>
</g>
<g>
</g>
<g>
</g>
<g>
</g>
<g>
</g>
</svg>
