<?xml version="1.0" encoding="iso-8859-1"?>
<!-- Generator: Adobe Illustrator 19.0.0, SVG Export Plug-In . SVG Version: 6.00 Build 0)  -->
<svg version="1.1" id="Capa_1" xmlns="http://www.w3.org/2000/svg" xmlns:xlink="http://www.w3.org/1999/xlink" x="0px" y="0px"
	 viewBox="0 0 512.002 512.002" style="enable-background:new 0 0 512.002 512.002;" xml:space="preserve">
<g>
	<g>
		<path d="M450.043,9.814C443.713,3.485,435.294,0,426.335,0H324.158c-18.484,0-33.522,15.039-33.522,33.522
			c0,8.96,3.485,17.379,9.809,23.703c4.952,4.962,11.188,8.179,17.965,9.343v11.164h-14.327c-18.484,0-33.522,15.043-33.522,33.532
			c0,8.961,3.491,17.379,9.825,23.699c6.336,6.335,14.751,9.824,23.698,9.824h61.766c18.49,0,33.532-15.039,33.533-33.522
			c0-8.953-3.489-17.372-9.82-23.703c-5.706-5.717-13.117-9.118-21.094-9.73V67.055h57.867c18.49,0,33.532-15.043,33.532-33.532
			C459.867,24.569,456.378,16.15,450.043,9.814z M426.334,52.058h-65.365c-4.141,0-7.498,3.356-7.498,7.498v25.674
			c0,4.142,3.357,7.498,7.498,7.498h4.879c4.954,0,9.605,1.928,13.103,5.433c3.503,3.502,5.433,8.156,5.433,13.103
			c0,10.215-8.315,18.526-18.536,18.526h-61.766c-4.941,0-9.591-1.929-13.1-5.437c-3.498-3.492-5.426-8.14-5.426-13.089
			c0-10.221,8.311-18.536,18.526-18.536h21.826c4.141,0,7.498-3.356,7.498-7.498V59.556c0-4.142-3.357-7.498-7.498-7.498h-1.75
			c-4.955,0-9.606-1.928-13.104-5.433c-3.496-3.496-5.422-8.149-5.422-13.103c0-10.215,8.311-18.526,18.526-18.526h102.177
			c4.953,0,9.607,1.926,13.102,5.423c3.503,3.502,5.433,8.156,5.433,13.103C444.87,43.743,436.555,52.058,426.334,52.058z"/>
	</g>
</g>
<g>
	<g>
		<path d="M381.115,175h-22.915c-6.432,0-12.479,2.506-17.029,7.055c-4.55,4.549-7.055,10.594-7.055,17.019
			c0,13.28,10.805,24.084,24.084,24.084h22.915c6.432,0,12.479-2.505,17.029-7.055c4.55-4.55,7.055-10.597,7.055-17.029
			C405.2,185.801,394.395,175,381.115,175z M387.54,205.499c-1.718,1.718-3.999,2.663-6.426,2.663H358.2
			c-5.011,0-9.088-4.077-9.088-9.088c0-2.419,0.946-4.698,2.662-6.415c1.718-1.718,3.999-2.663,6.426-2.663h22.915
			c5.011,0,9.088,4.072,9.088,9.078C390.202,201.501,389.257,203.782,387.54,205.499z"/>
	</g>
</g>
<g>
	<g>
		<path d="M431.453,241.94h-49.837c-10.495,0-19.698,7.58-21.103,17.98c-1.232,9.118,3.649,17.526,11.286,21.377v13.894h-74.291
			c-11.43,0-21.107,9.008-21.298,20.436c-0.184,11.003,8.228,20.119,18.949,21.062v22.757h-29.726v-60.24
			c0-4.141-3.357-7.498-7.498-7.498s-7.498,3.357-7.498,7.498v60.24h-22.365V226.538h22.365v23.878c0,4.141,3.357,7.498,7.498,7.498
			s7.498-3.357,7.498-7.498v-27.918c4.983-3.712,8.23-9.631,8.23-16.308s-3.247-12.595-8.23-16.308v-31.118
			c0-27.442-22.246-49.688-49.688-49.688h-37.462c-27.442,0-49.688,22.246-49.688,49.688v31.119
			c-4.983,3.712-8.23,9.631-8.23,16.308c0,6.677,3.247,12.595,8.23,16.308v27.133h-6.127c-7.278,0-13.54,4.431-16.234,10.736H88.286
			c-5.34,0-10.362,2.08-14.139,5.856L57.99,282.38c-3.776,3.777-5.856,8.798-5.856,14.139v96.851c0,5.303,2.107,10.389,5.857,14.139
			l16.157,16.156c3.75,3.749,8.835,5.856,14.138,5.856h17.948c2.694,6.306,8.956,10.736,16.234,10.736h6.127v35.09
			c-4.983,3.712-8.23,9.631-8.23,16.308c0,11.219,9.128,20.347,20.378,20.347l164.966-0.364c18.436,0,33.772-13.489,36.678-31.114
			l22.909-5.348c10.22-2.385,17.449-11.497,17.449-21.991v-29.733c0-12.471-10.111-22.582-22.582-22.582H342.89v-6.175
			c7.713-2.174,13.345-9.363,13.096-17.818c-0.288-9.791-8.644-17.428-18.439-17.428h-0.406v-22.676h64.79
			c11.325,0,20.947-8.851,21.272-20.171c0.214-7.463-3.453-14.19-9.423-18.05v-15.029h17.16c11.259,0,20.861-8.738,21.286-19.989
			C452.675,251.703,443.183,241.94,431.453,241.94z M104.822,414.523H88.285c-1.335,0-2.59-0.521-3.535-1.465l-16.157-16.156
			c-0.944-0.944-1.464-2.198-1.464-3.534v-96.85c0-1.335,0.521-2.59,1.464-3.534l16.156-16.156c0.945-0.944,2.201-1.465,3.535-1.465
			h16.536v9.998H93.462c-1.989,0-3.896,0.79-5.302,2.195l-8.836,8.836c-1.407,1.407-2.196,3.313-2.196,5.303v86.497
			c0,1.989,0.79,3.895,2.196,5.303l8.836,8.836c1.406,1.406,3.313,2.195,5.302,2.195h11.359V414.523z M128.595,425.259h-6.127
			c-1.461,0-2.649-1.189-2.649-2.649v-0.578c0-0.003,0-0.006,0-0.01v-24.994c0-0.003,0-0.006,0-0.01v-0.579
			c0-1.461,1.189-2.649,2.649-2.649h6.127V425.259z M128.595,378.792h-6.127c-7.279,0-13.541,4.431-16.234,10.737h-9.666
			l-4.443-4.443V304.8l4.443-4.443h9.666c2.694,6.305,8.956,10.736,16.234,10.736h6.127V378.792z M128.595,296.096h-6.127
			c-1.461,0-2.649-1.189-2.649-2.649v-0.578c0-0.003,0-0.006,0-0.01v-24.994c0-0.003,0-0.006,0-0.01v-0.578
			c0-1.461,1.189-2.649,2.649-2.649h6.127V296.096z M342.89,415.864h17.273c4.183,0,7.585,3.402,7.585,7.585v29.733
			c0,3.544-2.41,6.582-5.861,7.387l-18.998,4.435V415.864z M215.745,124.073c19.129,0,34.691,15.562,34.691,34.691v27.079h-22.365
			v-27.079c0-13.487-5.409-25.729-14.163-34.691H215.745z M143.592,158.764c0-19.129,15.562-34.691,34.691-34.691h0.101
			c19.129,0,34.691,15.562,34.691,34.691v27.079h-69.483V158.764z M140.713,200.839h112.602c2.95,0,5.351,2.4,5.351,5.352
			c0,2.951-2.4,5.352-5.351,5.352H140.713c-2.95,0-5.352-2.4-5.352-5.352C135.362,203.24,137.762,200.839,140.713,200.839z
			 M194.374,394.693v76.612h-50.782V226.538h69.483v132.909h-13.839c-9.907,0-17.966,8.06-17.966,17.966
			C181.27,385.633,186.826,392.565,194.374,394.693z M140.713,497.003c-2.95,0-5.352-2.399-5.352-5.351
			c0-2.951,2.4-5.352,5.352-5.352h55.608c1.279,3.793,3.146,7.318,5.506,10.457L140.713,497.003z M291.049,474.455
			c0,12.232-9.952,22.184-22.184,22.184h-37.31c-12.232,0-22.184-9.952-22.184-22.184V395.38h81.678V474.455z M327.894,474.455
			c0,12.232-9.952,22.184-22.184,22.184h-7.026c4.622-6.197,7.362-13.877,7.362-22.184V395.38h21.848V474.455z M338.028,374.443
			c1.638,0,2.969,1.332,2.969,2.969c0,1.638-1.333,2.97-2.969,2.97H199.236c-1.638,0-2.969-1.333-2.969-2.97
			c0-1.638,1.333-2.969,2.969-2.969H338.028z M431.453,268.525h-25.169c-4.141,0-7.498,3.356-7.498,7.498v27.24
			c0,3.303,2.161,6.218,5.323,7.175c2.419,0.734,4.109,3.014,4.109,5.544c0,3.194-2.599,5.794-5.794,5.794h-72.779
			c-4.141,0-7.498,3.356-7.498,7.498v27.785h-11.989v-27.785c0-4.142-3.357-7.498-7.498-7.498h-5.66
			c-3.195,0-5.794-2.599-5.794-5.794s2.599-5.794,5.794-5.794h82.299c4.141,0,7.498-3.356,7.498-7.498v-26.806
			c0-3.748-2.767-6.92-6.481-7.429c-2.847-0.39-4.995-2.851-4.995-5.726c0-3.194,2.599-5.794,5.794-5.794h50.34
			c3.194,0,5.794,2.599,5.794,5.794C437.247,265.925,434.648,268.525,431.453,268.525z"/>
	</g>
</g>
<g>
</g>
<g>
</g>
<g>
</g>
<g>
</g>
<g>
</g>
<g>
</g>
<g>
</g>
<g>
</g>
<g>
</g>
<g>
</g>
<g>
</g>
<g>
</g>
<g>
</g>
<g>
</g>
<g>
</g>
</svg>
