<?xml version="1.0" encoding="iso-8859-1"?>
<!-- Generator: Adobe Illustrator 19.0.0, SVG Export Plug-In . SVG Version: 6.00 Build 0)  -->
<svg version="1.1" id="Capa_1" xmlns="http://www.w3.org/2000/svg" xmlns:xlink="http://www.w3.org/1999/xlink" x="0px" y="0px"
	 viewBox="0 0 512 512" style="enable-background:new 0 0 512 512;" xml:space="preserve">
<g>
	<g>
		<path d="M404.044,311.194l-15.208-2.972c-4.076-0.799-8.028,1.862-8.825,5.939c-0.796,4.077,1.862,8.029,5.939,8.825l15.208,2.972
			c0.487,0.096,0.973,0.141,1.451,0.141c3.525,0,6.673-2.49,7.375-6.081C410.781,315.94,408.121,311.99,404.044,311.194z"/>
	</g>
</g>
<g>
	<g>
		<path d="M369.395,303.753l-24.795-4.844c-4.075-0.803-8.029,1.861-8.825,5.939c-0.796,4.077,1.862,8.029,5.94,8.825l24.795,4.844
			c0.487,0.096,0.972,0.141,1.45,0.141c3.525,0,6.673-2.49,7.375-6.081C376.132,308.5,373.472,304.549,369.395,303.753z"/>
	</g>
</g>
<g>
	<g>
		<path d="M304.173,273.322c-14.497,0-26.29,11.794-26.29,26.29s11.794,26.29,26.29,26.29c14.497,0,26.289-11.794,26.289-26.29
			S318.668,273.322,304.173,273.322z M304.173,310.859c-6.201,0-11.246-5.045-11.246-11.246c0-6.201,5.045-11.246,11.246-11.246
			c6.201,0,11.245,5.045,11.245,11.246C315.418,305.814,310.373,310.859,304.173,310.859z"/>
	</g>
</g>
<g>
	<g>
		<path d="M131.991,314.161c-0.797-4.078-4.745-6.744-8.826-5.939l-15.208,2.972c-4.077,0.796-6.737,4.747-5.939,8.825
			c0.702,3.59,3.848,6.081,7.375,6.081c0.478,0,0.964-0.045,1.451-0.141l15.208-2.972
			C130.129,322.19,132.789,318.239,131.991,314.161z"/>
	</g>
</g>
<g>
	<g>
		<path d="M176.226,304.848c-0.796-4.077-4.752-6.741-8.825-5.939l-24.795,4.844c-4.077,0.796-6.737,4.747-5.94,8.825
			c0.701,3.59,3.848,6.081,7.375,6.081c0.478,0,0.964-0.045,1.45-0.141l24.795-4.844
			C174.363,312.876,177.023,308.926,176.226,304.848z"/>
	</g>
</g>
<g>
	<g>
		<path d="M207.83,273.322c-14.497,0-26.29,11.794-26.29,26.29s11.794,26.29,26.29,26.29c14.497,0,26.289-11.794,26.289-26.29
			S222.326,273.322,207.83,273.322z M207.83,310.859c-6.201,0-11.246-5.045-11.246-11.246c0-6.201,5.045-11.246,11.246-11.246
			c6.201,0,11.245,5.045,11.245,11.246C219.075,305.814,214.03,310.859,207.83,310.859z"/>
	</g>
</g>
<g>
	<g>
		<path d="M504.479,420.238c-8.747,0-15.863-7.116-15.863-15.862c0-4.155-3.368-7.522-7.522-7.522c-4.154,0-7.522,3.367-7.522,7.522
			c0,8.747-7.116,15.862-15.863,15.862c-8.747,0-15.863-7.116-15.863-15.862c0-4.155-3.368-7.522-7.522-7.522
			s-7.522,3.367-7.522,7.522c0,8.747-7.116,15.862-15.863,15.862s-15.863-7.116-15.863-15.862v-6.233
			c27.214-42.192,45.627-92.043,55.947-151.19c0.704-4.034-1.949-7.89-5.968-8.674l-24.12-4.713l-20.871-106.834
			c-1.678-8.592-8.233-15.531-16.701-17.676c-35.78-9.061-72.044-14.241-108.605-15.571V64.649
			c7.876-5.786,13.001-15.107,13.001-25.608c0-17.513-14.248-31.761-31.76-31.761c-17.512,0-31.76,14.248-31.76,31.761
			c0,10.5,5.125,19.822,13.001,25.608v28.823c-36.908,1.314-74.05,6.514-111.24,15.629c-8.557,2.098-15.181,9.053-16.874,17.717
			L88.165,234.131l-21.221,4.147c-3.922,0.766-6.559,4.464-6.008,8.421c7.892,56.596,26.31,106.534,55.987,151.551v6.125
			c0,8.747-7.116,15.862-15.863,15.862c-8.747,0-15.863-7.116-15.863-15.862c0-4.155-3.368-7.522-7.522-7.522
			c-4.154,0-7.522,3.367-7.522,7.522c0,8.747-7.116,15.862-15.863,15.862c-8.747,0-15.863-7.116-15.863-15.862
			c0-4.155-3.368-7.522-7.522-7.522c-4.154,0-7.522,3.367-7.522,7.522c0,8.747-7.116,15.862-15.863,15.862
			c-4.154,0-7.522,3.367-7.522,7.522v69.44c0,4.155,3.368,7.522,7.522,7.522h496.956c4.154,0,7.522-3.367,7.522-7.522v-69.44
			C512.001,423.605,508.633,420.238,504.479,420.238z M398.767,361.522l-135.244-26.428v-85.24l164.649,32.174
			C420.77,311.056,411.006,337.467,398.767,361.522z M263.524,375.183v-24.76l127.773,24.967
			c-4.339,7.599-8.95,14.945-13.832,22.057L263.524,375.183z M367.711,410.869c-2.439,3.172-4.931,6.297-7.491,9.37h-96.698v-29.727
			L367.711,410.869z M434.889,251.619c-1.007,5.338-2.091,10.585-3.237,15.761l-168.129-32.852v-16.394l2.174,0.425
			c0.02,0.004,0.041,0.008,0.061,0.012L434.889,251.619z M256.001,22.324c9.217,0,16.716,7.5,16.716,16.717
			c0,8.544-6.447,15.601-14.73,16.588h-3.973c-8.283-0.987-14.73-8.044-14.73-16.588C239.284,29.824,246.783,22.324,256.001,22.324z
			 M259.716,70.672v22.484c-2.475-0.018-4.953-0.019-7.43-0.002V70.672h0.931c0.919,0.08,1.845,0.129,2.784,0.129
			c0.939,0,1.865-0.049,2.784-0.129H259.716z M123.895,129.704c0.573-2.933,2.806-5.284,5.69-5.992
			c40.056-9.817,80.047-14.973,119.725-15.484h13.292c39.444,0.526,78.55,5.659,117.07,15.412c2.851,0.722,5.061,3.068,5.63,5.977
			l19.7,100.835l-10.624-2.076l-5.235-26.797c-0.896-4.584-5.802-6.986-10.091-5.134c-0.082,0.035-0.164,0.07-0.247,0.104
			c-3.195,1.322-5.064,4.657-4.401,8.05l4.037,20.662l-103.678-20.258v-71.436c29.492,1.188,59.055,5.149,88.071,11.804
			l2.668,13.654c0.641,3.279,3.419,5.677,6.751,5.911c0.084,0.006,0.169,0.012,0.253,0.018c4.84,0.365,8.714-3.947,7.783-8.71
			l-3.62-18.53c-0.562-2.876-2.742-5.179-5.591-5.863c-34.078-8.176-68.953-12.742-103.654-13.571
			c-2.476-0.052-4.805,1.084-6.288,3.126c-0.972,1.337-1.414,2.989-1.414,4.643v76.015l-2.173-0.424
			c-0.021-0.004-0.041-0.008-0.062-0.012l-0.036-0.007c-0.074-0.014-0.148-0.02-0.223-0.032c-0.16-0.026-0.321-0.054-0.484-0.07
			c-0.172-0.017-0.346-0.021-0.52-0.026c-0.072-0.002-0.143-0.011-0.217-0.011c-0.073,0-0.144,0.009-0.218,0.011
			c-0.174,0.005-0.346,0.009-0.518,0.026c-0.164,0.016-0.324,0.044-0.484,0.07c-0.074,0.012-0.148,0.018-0.222,0.032l-0.036,0.007
			c-0.021,0.004-0.041,0.008-0.062,0.012l-4.963,0.97v-76.603c0-1.081-0.18-2.168-0.621-3.156c-1.313-2.942-4.137-4.569-7.12-4.512
			c-34.14,0.99-68.994,5.577-103.59,13.636c-2.873,0.669-5.079,2.981-5.645,5.876l-17.796,91.092l-10.624,2.076L123.895,129.704z
			 M234.452,133.661v71.885l-103.79,20.281l15.686-80.291C175.784,138.963,205.364,134.977,234.452,133.661z M76.881,251.665
			l171.599-33.531v16.394L79.711,267.506C78.67,262.286,77.72,257.009,76.881,251.665z M112.72,361.624
			c-13.093-24.845-22.978-51.227-29.779-79.421l165.539-32.347v85.24L112.72,361.624z M134.549,397.444
			c-5.015-7.197-9.716-14.53-14.115-22l128.046-25.021v24.76L134.549,397.444z M248.479,390.51v29.727h-96.661
			c-2.549-3.102-5.033-6.23-7.456-9.384L248.479,390.51z M496.958,489.678h-0.001H15.045v-55.321
			c6.262-1.572,11.772-5.06,15.868-9.801c5.672,6.562,14.045,10.727,23.38,10.727c9.336,0,17.713-4.167,23.385-10.732
			c5.672,6.565,14.048,10.732,23.385,10.732c12.833,0,23.86-7.863,28.527-19.022c4.13,5.515,8.434,10.958,12.927,16.327
			c1.429,1.708,3.541,2.695,5.768,2.695h215.434c2.202,0,4.296-0.966,5.725-2.643c4.511-5.292,8.836-10.734,12.999-16.31
			c4.683,11.123,15.693,18.952,28.5,18.952c9.336,0,17.713-4.167,23.385-10.733c5.672,6.565,14.048,10.733,23.385,10.733
			c9.333,0,17.708-4.164,23.38-10.727c4.096,4.742,9.605,8.23,15.868,9.801V489.678z"/>
	</g>
</g>
<g>
</g>
<g>
</g>
<g>
</g>
<g>
</g>
<g>
</g>
<g>
</g>
<g>
</g>
<g>
</g>
<g>
</g>
<g>
</g>
<g>
</g>
<g>
</g>
<g>
</g>
<g>
</g>
<g>
</g>
</svg>
