<?xml version="1.0" encoding="iso-8859-1"?>
<!-- Generator: Adobe Illustrator 19.0.0, SVG Export Plug-In . SVG Version: 6.00 Build 0)  -->
<svg version="1.1" id="Capa_1" xmlns="http://www.w3.org/2000/svg" xmlns:xlink="http://www.w3.org/1999/xlink" x="0px" y="0px"
	 viewBox="0 0 512.001 512.001" style="enable-background:new 0 0 512.001 512.001;" xml:space="preserve">
<g>
	<g>
		<path d="M253.192,261.094c-4.15,0-7.513,3.364-7.513,7.512v111.299h-15.967v-93.414c0-4.114-3.17-7.701-7.282-7.824
			c-4.254-0.127-7.743,3.283-7.743,7.509v93.729h-15.002c-4.114,0-7.701,3.17-7.824,7.282c-0.127,4.254,3.283,7.743,7.509,7.743
			h15.316v15.723c0,4.037-3.272,7.31-7.31,7.31h-61.662c-4.038,0-7.311-3.273-7.311-7.311V394.93h32.565
			c4.114,0,7.701-3.17,7.824-7.282c0.127-4.254-3.283-7.743-7.509-7.743h-32.879V151.336h22.331c4.114,0,7.701-3.17,7.824-7.282
			c0.127-4.254-3.283-7.743-7.509-7.743h-21.552c3.245-10.928,13.375-18.924,25.343-18.924h23.41
			c11.968,0,22.097,7.996,25.343,18.924h-29.904c-4.114,0-7.701,3.17-7.824,7.282c-0.127,4.254,3.283,7.743,7.509,7.743h31.312
			v38.108c0,4.114,3.17,7.701,7.282,7.824c4.254,0.127,7.743-3.283,7.743-7.509v-38.422h15.967v68.389
			c0,4.149,3.364,7.512,7.512,7.512s7.512-3.364,7.512-7.512v-75.902c0-11.203-4.474-21.377-11.72-28.845V91.473
			c0-6.882-5.579-12.461-12.461-12.461h-87.922c-6.882,0-12.46,5.579-12.46,12.461v22.472c-7.856,7.549-12.759,18.148-12.759,29.878
			v3.667c-2.253-3.243-5.998-5.374-10.237-5.374H25.22c-6.882,0-12.461,5.579-12.461,12.461v22.472
			C4.904,184.598,0,195.198,0,206.927v203.726c0,12.335,10,22.336,22.336,22.336h92.654c5.948,0,11.356-2.342,15.362-6.145
			c4.007,3.804,9.414,6.145,15.363,6.145h92.654c12.335,0,22.335-9.999,22.335-22.335V268.606
			C260.704,264.457,257.341,261.094,253.192,261.094z M244.586,136.311h-15.569c-1.304-7.091-4.406-13.558-8.832-18.9
			C231.739,117.819,241.426,125.671,244.586,136.311z M233.958,94.037v11.032c-4.577-1.744-9.535-2.707-14.715-2.707h-54.402
			c-4.792,0-9.391,0.826-13.676,2.329V94.037H233.958z M121.206,199.415h-15.569c-1.304-7.091-4.406-13.558-8.831-18.9
			C108.359,180.922,118.046,188.775,121.206,199.415z M110.579,157.141v11.032c-4.576-1.744-9.535-2.707-14.715-2.707H41.461
			c-4.792,0-9.391,0.826-13.676,2.329v-10.654H110.579z M98.82,278.664c-4.15,0-7.512,3.362-7.512,7.512v93.729H75.991
			c-4.15,0-7.512,3.363-7.512,7.512c0,4.15,3.363,7.512,7.512,7.512h15.316v15.723c0,4.031-3.278,7.31-7.31,7.31H22.336
			c-4.031,0-7.311-3.278-7.311-7.31V394.93h32.879c4.15,0,7.512-3.363,7.512-7.512c0-4.15-3.362-7.512-7.512-7.512H15.025V214.439
			H37.67c4.15,0,7.512-3.363,7.512-7.512c0-4.15-3.362-7.512-7.512-7.512H16.118c3.245-10.928,13.375-18.924,25.343-18.924h23.41
			c11.968,0,22.097,7.996,25.343,18.924h-30.22c-4.15,0-7.512,3.363-7.512,7.512c0,4.15,3.362,7.512,7.512,7.512h31.312v38.422
			c0,4.15,3.362,7.512,7.512,7.512c4.15,0,7.512-3.363,7.512-7.512v-38.422h15.967v165.466h-15.966v-93.729
			C106.333,282.026,102.97,278.664,98.82,278.664z M122.3,410.654c0,4.031-3.278,7.31-7.31,7.31h-9.892
			c0.796-2.292,1.235-4.75,1.235-7.31v-15.723H122.3C122.3,394.931,122.3,410.654,122.3,410.654z M245.679,410.654
			c0,4.031-3.278,7.31-7.31,7.31h-9.892c0.796-2.292,1.235-4.75,1.235-7.31v-15.723h15.967V410.654z"/>
	</g>
</g>
<g>
	<g>
		<path d="M369.735,312.703c-4.15,0-7.512,3.363-7.512,7.512v78.731c0,4.15,3.363,7.512,7.512,7.512c4.15,0,7.512-3.362,7.512-7.512
			v-78.731C377.248,316.066,373.885,312.703,369.735,312.703z"/>
	</g>
</g>
<g>
	<g>
		<path d="M334.889,312.703c-4.15,0-7.512,3.363-7.512,7.512v78.731c0,4.15,3.362,7.512,7.512,7.512c4.15,0,7.512-3.362,7.512-7.512
			v-78.731C342.401,316.066,339.038,312.703,334.889,312.703z"/>
	</g>
</g>
<g>
	<g>
		<path d="M404.583,312.703c-4.15,0-7.512,3.363-7.512,7.512v78.731c0,4.15,3.362,7.512,7.512,7.512s7.512-3.362,7.512-7.512
			v-78.731C412.095,316.066,408.732,312.703,404.583,312.703z"/>
	</g>
</g>
<g>
	<g>
		<path d="M475.638,203.65h-29.4v-21.658c0-14.53-11.82-26.35-26.35-26.35c-0.002,0-0.003,0-0.005,0
			c-4.025-10.2-13.897-17.21-25.441-17.21c-4.936,0-9.664,1.305-13.788,3.719c-6.163-7.536-15.443-12.071-25.571-12.071
			c-15.725,0-28.922,11.032-32.259,25.762c-1.071-0.133-2.153-0.2-3.24-0.2c-14.53,0-26.35,11.82-26.35,26.35v223.985
			c0,14.893,12.117,27.01,27.009,27.01h98.986c14.892,0,27.009-12.117,27.009-27.01v-0.365h13.498c5.35,0,10.379-2.083,14.166-5.867
			l32.233-32.234c3.782-3.784,5.866-8.814,5.866-14.164V240.013C512.001,219.962,495.689,203.65,475.638,203.65z M431.213,373.06
			v25.041v7.877c0,6.609-5.376,11.986-11.985,11.986h-98.986c-6.609,0-11.985-5.377-11.985-11.986V244.75h20.08v37.802
			c0,11.688,9.51,21.198,21.199,21.198c11.688,0,21.198-9.51,21.198-21.198V244.75h60.478V373.06z M431.213,229.725h-67.991
			c-4.15,0-7.512,3.363-7.512,7.512v45.314c0,3.404-2.771,6.173-6.174,6.173c-3.404,0-6.173-2.77-6.173-6.173v-45.314
			c0-4.15-3.363-7.512-7.512-7.512h-27.592v-15.286h122.955V229.725z M431.215,199.415H308.258v-17.422
			c0-6.244,5.08-11.325,11.326-11.325c0.88,0,1.753,0.109,2.602,0.313v12.879c0,4.15,3.362,7.512,7.512,7.512
			s7.512-3.363,7.512-7.512v-17.74c0-0.281-0.018-0.559-0.048-0.832c-0.001-0.01,0-0.02-0.001-0.03
			c-0.085-0.735-0.126-1.423-0.126-2.101c0-9.952,8.097-18.05,18.05-18.05c6.953,0,13.174,3.918,16.198,10.088v8.835
			c0,4.15,3.362,7.512,7.512,7.512s7.512-3.362,7.512-7.512v-7.469c2.239-1.982,5.096-3.101,8.136-3.101
			c6.364,0,11.594,4.725,12.263,11.021v19.38c0,4.15,3.362,7.512,7.512,7.512c4.15,0,7.512-3.362,7.512-7.512v-13.028
			c5.37,0.884,9.484,5.546,9.484,11.162V199.415z M496.975,353.348c0,1.337-0.522,2.595-1.467,3.541l-32.23,32.231
			c-0.948,0.947-2.206,1.468-3.543,1.468h-13.498v-10.016h8.312c1.992,0,3.902-0.791,5.312-2.2l21.973-21.972
			c3.305-3.307,5.125-7.703,5.125-12.377v-104.01c0-6.242-5.078-11.322-11.322-11.322h-29.4v-10.016h29.4
			c11.765,0,21.338,9.573,21.338,21.338V353.348z M446.238,365.546v-121.83h25.696v100.306c0,0.663-0.258,1.287-0.726,1.755
			l-19.771,19.769H446.238z"/>
	</g>
</g>
<g>
</g>
<g>
</g>
<g>
</g>
<g>
</g>
<g>
</g>
<g>
</g>
<g>
</g>
<g>
</g>
<g>
</g>
<g>
</g>
<g>
</g>
<g>
</g>
<g>
</g>
<g>
</g>
<g>
</g>
</svg>
