<?xml version="1.0" encoding="iso-8859-1"?>
<!-- Generator: Adobe Illustrator 19.0.0, SVG Export Plug-In . SVG Version: 6.00 Build 0)  -->
<svg version="1.1" id="Capa_1" xmlns="http://www.w3.org/2000/svg" xmlns:xlink="http://www.w3.org/1999/xlink" x="0px" y="0px"
	 viewBox="0 0 511.999 511.999" style="enable-background:new 0 0 511.999 511.999;" xml:space="preserve">
<g>
	<g>
		<path d="M58.441,232.609l-7.212-11.822c-2.157-3.535-6.772-4.653-10.31-2.496c-3.537,2.157-4.653,6.772-2.496,10.31l7.209,11.816
			c-0.401,1.182-0.628,2.443-0.628,3.76c0,6.467,5.242,11.71,11.71,11.71s11.71-5.242,11.71-11.709
			C68.423,238.299,64.087,233.446,58.441,232.609z"/>
	</g>
</g>
<g>
	<g>
		<path d="M471.081,218.291c-3.534-2.156-8.152-1.041-10.31,2.496l-7.213,11.822c-5.645,0.837-9.982,5.689-9.982,11.568
			c0,6.467,5.242,11.71,11.71,11.71s11.71-5.242,11.71-11.71c0-1.317-0.227-2.579-0.628-3.76l7.209-11.816
			C475.735,225.065,474.617,220.449,471.081,218.291z"/>
	</g>
</g>
<g>
	<g>
		<path d="M263.017,31.262c-3.534-2.156-8.151-1.041-10.31,2.496l-6.116,10.024c-2.157,3.535-1.04,8.151,2.496,10.31
			c1.22,0.744,2.568,1.099,3.899,1.099c2.528,0,4.997-1.278,6.41-3.595l6.116-10.024C267.672,38.035,266.555,33.419,263.017,31.262z
			"/>
	</g>
</g>
<g>
	<g>
		<path d="M474.664,191.234v-17.017c0-32.301-26.186-58.487-58.487-58.487H355.8c2.294-2.381,3.714-5.61,3.714-9.171V93.613
			c0-7.308-5.924-13.233-13.233-13.233h-1.875V54.269c0-17.449-14.145-31.594-31.594-31.594h-19.628
			C286.002,9.199,271.808,0,255.5,0c-16.308,0-30.502,9.199-37.684,22.675h-18.628c-17.449,0-31.594,14.145-31.594,31.594V80.38
			h-1.875c-7.308,0-13.234,5.925-13.234,13.234v12.946c0,3.56,1.42,6.789,3.714,9.171H95.822c-32.301,0-58.487,26.186-58.487,58.487
			v17.017c-21.567,7.919-36.996,28.663-36.996,52.943c0,24.279,15.428,45.023,36.996,52.942v80.214
			c0,30.489,23.454,55.589,53.266,58.241c0.953,9.789,9.225,17.465,19.259,17.465h14.844v34.934
			c0,13.269,10.757,24.026,24.025,24.026h76.729c13.269,0,24.026-10.757,24.026-24.026V366.45c0-4.669-4.295-8.132-8.869-7.188
			c-0.065,0.013-0.129,0.026-0.193,0.039c-3.445,0.697-5.939,3.696-5.939,7.212v38.236h-94.778V300.163h94.778v20.41
			c0,3.523,2.504,6.529,5.959,7.215c0.063,0.013,0.127,0.025,0.191,0.038c4.569,0.925,8.851-2.53,8.851-7.193V216.369
			c0-15.578-9.48-28.981-22.972-34.751v-12.016c0-9.352-7.581-16.933-16.933-16.933h-1.561v-32.877h0.452
			c7.308,0,13.234-5.925,13.234-13.234V93.613c0-7.308-5.924-13.233-13.233-13.233h-0.875V62.678h10.22
			c7.182,13.477,21.376,22.675,37.684,22.675s30.502-9.199,37.684-22.675h11.22V80.38h-0.874c-7.308,0-13.233,5.924-13.233,13.233
			v12.946c0,7.308,5.924,13.233,13.233,13.233h0.451v32.877h-1.561c-9.352,0-16.933,7.581-16.933,16.933v12.016
			c-13.493,5.77-22.972,19.173-22.972,34.751v271.605c0,13.269,10.757,24.025,24.026,24.025h76.73
			c13.269,0,24.025-10.757,24.025-24.024v-34.935h14.844c10.035,0,18.306-7.677,19.259-17.465
			c29.812-2.651,53.266-27.753,53.266-58.241V297.12c21.567-7.919,36.996-28.663,36.996-52.942
			C511.66,219.897,496.232,199.153,474.664,191.234z M167.486,95.381h39.217v9.411h-39.217V95.381z M193.018,119.792v32.877h-11.847
			v-32.877H193.018z M52.336,174.217c0-23.979,19.507-43.486,43.486-43.486h70.348v10.001H95.822
			c-18.464,0-33.485,15.022-33.485,33.485v13.866c-1.85-0.184-3.725-0.281-5.623-0.281c-1.475,0-2.931,0.075-4.377,0.187V174.217z
			 M15.34,244.177c0-22.814,18.56-41.375,41.374-41.375s41.374,18.561,41.374,41.375c0,22.813-18.56,41.374-41.374,41.374
			S15.34,266.992,15.34,244.177z M90.318,420.472c-21.388-2.714-37.981-21.024-37.981-43.139v-76.969
			c1.446,0.112,2.903,0.187,4.377,0.187c1.898,0,3.773-0.097,5.623-0.281v77.064c0,16.589,12.126,30.399,27.981,33.032V420.472z
			 M124.705,438.039h-14.844c-2.4,0-4.354-1.953-4.354-4.354v-30.593c0-2.401,1.953-4.354,4.354-4.354h14.844
			C124.705,398.738,124.705,438.039,124.705,438.039z M234.484,419.749v68.225c0,4.977-4.048,9.025-9.025,9.025h-76.73
			c-4.976,0-9.025-4.048-9.025-9.025v-68.225H234.484z M124.705,216.369v167.367h-14.844c-7.954,0-14.797,4.826-17.77,11.702
			c-8.41-1.731-14.753-9.191-14.753-18.104v-80.706c20.909-8.252,35.751-28.644,35.751-52.45c0-23.807-14.841-44.2-35.751-52.451
			v-17.509c0-10.192,8.293-18.484,18.484-18.484h60.104c-4.375,3.064-7.248,8.135-7.248,13.87v11.614
			C134.657,186.742,124.705,200.411,124.705,216.369z M234.484,285.161h-94.778v-10.244h94.778V285.161z M234.484,216.369v43.547
			h-94.778v-43.547c0-12.559,10.218-22.774,22.775-22.774h49.227C224.267,193.594,234.484,203.811,234.484,216.369z M209.58,167.67
			c1.065,0,1.931,0.866,1.931,1.932v8.991h-47.834v-8.991c0-1.065,0.866-1.932,1.931-1.932H209.58z M213.126,47.677h-7.132
			c-7.388,0-13.399,6.011-13.399,13.399V80.38h-10.001V54.269c0-9.149,7.443-16.593,16.593-16.593h13.939
			c-0.193,1.641-0.303,3.308-0.303,5C212.823,44.369,212.933,46.035,213.126,47.677z M255.5,70.352
			c-15.26,0-27.676-12.415-27.676-27.676c0-15.261,12.416-27.676,27.676-27.676c15.261,0,27.676,12.415,27.676,27.676
			C283.176,57.938,270.761,70.352,255.5,70.352z M345.829,130.731h70.348c23.978,0,43.486,19.508,43.486,43.486v13.772
			c-1.446-0.112-2.903-0.187-4.377-0.187c-1.898,0-3.773,0.097-5.623,0.281v-13.866c0-18.464-15.022-33.485-33.485-33.485h-70.348
			V130.731z M344.514,95.381v9.411h-39.216v-9.411H344.514z M330.828,119.792v32.877h-11.847v-32.877H330.828z M297.874,47.677
			c0.193-1.641,0.303-3.308,0.303-5c0-1.692-0.11-3.359-0.303-5h14.939c9.149,0,16.593,7.443,16.593,16.593V80.38h-10.001V61.076
			c0-7.388-6.01-13.399-13.398-13.399H297.874z M302.42,167.67h43.971c1.065,0,1.932,0.866,1.932,1.932v8.991h-47.834v-8.991h-0.001
			C300.488,168.538,301.354,167.67,302.42,167.67z M277.516,216.369c0-12.559,10.218-22.774,22.775-22.774h49.227
			c12.559,0,22.775,10.217,22.775,22.774v43.547h-94.778V216.369z M363.271,496.998H286.54c-4.976,0-9.024-4.048-9.024-9.025
			v-68.225h94.778v68.225h0C372.294,492.951,368.246,496.998,363.271,496.998z M372.294,404.748h-94.778V300.162h94.778V404.748z
			 M372.294,285.161h-94.778v-10.244h94.778V285.161z M406.492,433.685c0,2.4-1.953,4.354-4.354,4.354h-14.844v-39.302h14.844
			c2.4,0,4.354,1.953,4.354,4.354V433.685z M419.909,395.439c-2.973-6.875-9.816-11.702-17.77-11.702h-14.844V216.369
			c0-15.958-9.953-29.627-23.972-35.152v-11.615c0-5.735-2.873-10.806-7.249-13.87h60.103c10.192,0,18.484,8.292,18.484,18.484
			v17.509c-20.909,8.252-35.75,28.644-35.75,52.451c0,23.806,14.841,44.199,35.75,52.45v80.707
			C434.661,386.248,428.319,393.708,419.909,395.439z M459.663,377.335c0,22.113-16.592,40.425-37.981,43.139v-10.106
			c15.855-2.633,27.981-16.443,27.981-33.032v-77.064c1.85,0.184,3.725,0.281,5.623,0.281c1.474,0,2.931-0.075,4.377-0.187V377.335z
			 M455.285,285.551c-22.814,0-41.374-18.56-41.374-41.374c0-22.813,18.56-41.375,41.374-41.375
			c22.813,0,41.374,18.561,41.374,41.375C496.659,266.991,478.1,285.551,455.285,285.551z"/>
	</g>
</g>
<g>
</g>
<g>
</g>
<g>
</g>
<g>
</g>
<g>
</g>
<g>
</g>
<g>
</g>
<g>
</g>
<g>
</g>
<g>
</g>
<g>
</g>
<g>
</g>
<g>
</g>
<g>
</g>
<g>
</g>
</svg>
