<?xml version="1.0" encoding="iso-8859-1"?>
<!-- Generator: Adobe Illustrator 19.0.0, SVG Export Plug-In . SVG Version: 6.00 Build 0)  -->
<svg version="1.1" id="Capa_1" xmlns="http://www.w3.org/2000/svg" xmlns:xlink="http://www.w3.org/1999/xlink" x="0px" y="0px"
	 viewBox="0 0 511.999 511.999" style="enable-background:new 0 0 511.999 511.999;" xml:space="preserve">
<g>
	<g>
		<circle cx="181.057" cy="418.832" r="6.643"/>
	</g>
</g>
<g>
	<g>
		<path d="M355.931,190.443c-13.446-17.033-33.201-27.212-54.419-28.487l1.361-6.075c1.083-4.835-0.073-9.825-3.17-13.692
			c-3.097-3.868-7.714-6.086-12.669-6.086h-0.392v-10.709c0-4.795-2.926-8.919-7.085-10.683v-6.619c0-1.008-0.138-1.983-0.373-2.919
			c6.329-5.01,10.401-12.751,10.401-21.431V71.744c0-12.731-8.752-23.456-20.557-26.476V33.976
			c11.804-3.02,20.557-13.745,20.557-26.476c0-4.143-3.358-7.5-7.5-7.5s-7.5,3.357-7.5,7.5c0,6.798-5.53,12.327-12.327,12.327
			s-12.327-5.53-12.327-12.327c0-4.143-3.358-7.5-7.5-7.5s-7.5,3.357-7.5,7.5c0,12.2,8.039,22.557,19.097,26.057v12.127
			c-11.058,3.5-19.097,13.857-19.097,26.057V83.74c0,8.133,3.575,15.441,9.229,20.452c-0.422,1.225-0.661,2.533-0.661,3.899v6.619
			c-4.16,1.764-7.085,5.889-7.085,10.683v10.709h-0.392c-4.955,0-9.572,2.218-12.669,6.086c-3.097,3.867-4.252,8.857-3.17,13.692
			l2.859,12.765c-34.012,4.034-59.872,31.383-62.286,65.193c-6.714,1.758-11.688,7.859-11.688,15.116v14.277
			c-5.367,1.915-9.225,7.034-9.225,13.05v123.702c0,6.017,3.859,11.135,9.225,13.05v14.278c0,7.195,4.891,13.255,11.517,15.071
			c0.681,38.5,32.191,69.617,70.851,69.617c30.271,0,57.213-19.236,67.043-47.867l69.561-202.617
			C376.391,237.195,371.864,210.626,355.931,190.443z M249.931,71.742c0-6.798,5.53-12.327,12.327-12.327s12.327,5.53,12.327,12.327
			v11.999c0,6.798-5.53,12.328-12.327,12.328s-12.327-5.531-12.327-12.328V71.742z M271.642,128.795v7.308h-20.228v-7.308H271.642z
			 M258.499,113.796v-2.728h6.059v2.728H258.499z M235.063,151.564c0.168-0.211,0.472-0.462,0.961-0.462h51.01
			c0.489,0,0.793,0.251,0.961,0.462c0.169,0.211,0.348,0.563,0.241,1.04l-14.315,63.918c-0.622,2.778-3.044,4.718-5.89,4.718
			h-13.005c-2.846,0-5.268-1.939-5.889-4.717l-14.315-63.919C234.715,152.127,234.894,151.775,235.063,151.564z M226.055,183.388
			l0.284-0.027l2.423,10.816l-1.647,0.159c-21.203,2.051-37.625,18.371-40.207,38.976h-11.069
			C178.471,206.999,199.178,185.989,226.055,183.388z M164.068,248.955c0-0.353,0.285-0.639,0.637-0.642H197.4
			c0.352,0.003,0.637,0.289,0.637,0.642v13.461h-6.048c-4.142,0-7.5,3.357-7.5,7.5v7.479h-6.875v-7.479c0-4.143-3.358-7.5-7.5-7.5
			h-6.048V248.955z M162.616,398.852h-7.772V277.416h7.772v7.479c0,4.143,3.358,7.499,7.5,7.499h3.438v8.26
			c0,4.143,3.358,7.5,7.5,7.5s7.499-3.357,7.499-7.5v-8.26h3.438c4.142,0,7.5-3.357,7.5-7.499v-7.479h7.773v121.436h-7.773v-5.739
			c0-4.143-3.358-7.5-7.5-7.5h-3.438v-7.438c0-4.143-3.358-7.5-7.499-7.5s-7.5,3.357-7.5,7.5v7.438h-3.438
			c-4.142,0-7.5,3.357-7.5,7.5V398.852z M164.068,427.313v-13.462h6.048c4.142,0,7.5-3.357,7.5-7.5v-5.739h6.875v5.739
			c0,4.143,3.358,7.5,7.499,7.5h6.048v13.462c0,0.354-0.288,0.642-0.642,0.642h-32.686
			C164.356,427.954,164.068,427.666,164.068,427.313z M353.856,256.646l-69.561,202.617c-7.749,22.573-28.991,37.738-52.857,37.738
			c-29.156,0-53.168-22.443-55.669-50.961h11.053c2.459,22.443,21.531,39.961,44.617,39.961c19.168,0,36.229-12.181,42.454-30.311
			l32.155-93.659c1.524-4.439-1.407-9.208-6.069-9.751c-0.064-0.007-0.128-0.015-0.192-0.023c-3.487-0.421-6.798,1.619-7.937,4.94
			l-32.142,93.622c-4.145,12.072-15.504,20.184-28.267,20.184c-16.06,0-29.196-12.735-29.854-28.636
			c6.595-1.838,11.453-7.882,11.453-15.054v-14.278c5.367-1.915,9.225-7.034,9.225-13.05V276.283c0-6.017-3.859-11.135-9.225-13.05
			v-14.277c0-7.031-4.666-12.992-11.062-14.955c2.196-13.14,12.889-23.409,26.585-24.735l3.505-0.339l2.435,10.874
			c2.152,9.608,10.68,16.438,20.527,16.438h13.004c9.845,0,18.374-6.83,20.526-16.437l3.741-16.705l0.572-0.055
			c11.558-1.119,23.114,3.324,30.477,12.303c7.581,9.246,9.79,21.585,5.92,32.859l-22.111,64.403
			c-1.173,3.418,0.24,7.271,3.456,8.917c0.047,0.024,0.095,0.049,0.142,0.074c4.075,2.138,9.086,0.256,10.58-4.096l22.12-64.429
			c5.465-15.919,2.501-33.31-7.928-46.52c-9.679-12.26-24.356-19.098-39.81-18.716l2.46-10.985
			c17.896,0.364,34.709,8.604,45.983,22.885C356.917,215.898,360.541,237.172,353.856,256.646z"/>
	</g>
</g>
<g>
</g>
<g>
</g>
<g>
</g>
<g>
</g>
<g>
</g>
<g>
</g>
<g>
</g>
<g>
</g>
<g>
</g>
<g>
</g>
<g>
</g>
<g>
</g>
<g>
</g>
<g>
</g>
<g>
</g>
</svg>
