<?xml version="1.0" encoding="iso-8859-1"?>
<!-- Generator: Adobe Illustrator 19.0.0, SVG Export Plug-In . SVG Version: 6.00 Build 0)  -->
<svg version="1.1" id="Capa_1" xmlns="http://www.w3.org/2000/svg" xmlns:xlink="http://www.w3.org/1999/xlink" x="0px" y="0px"
	 viewBox="0 0 512 512" style="enable-background:new 0 0 512 512;" xml:space="preserve">
<g>
	<g>
		<path d="M349.894,129.353v-38.64c0-31.026-25.241-56.266-56.266-56.266c-7.402,0-14.665,1.446-21.418,4.226
			C264.804,16.24,243.658,0,218.777,0c-31.026,0-56.266,25.241-56.266,56.266v73.011c-22.363,3.934-38.796,23.231-38.796,46.348
			v289.29c0,25.962,21.121,47.084,47.083,47.084h170.404c25.962,0,47.083-21.122,47.083-47.084V175.624
			C388.285,152.946,371.768,133.477,349.894,129.353z M293.628,49.472c22.74,0,41.24,18.501,41.24,41.24v77.691h-8.621v-32.547
			c0-4.15-3.364-7.513-7.513-7.513h-43.69V56.266c0-0.779-0.027-1.552-0.059-2.324C280.735,51.022,287.102,49.472,293.628,49.472z
			 M311.22,143.369v25.033h-36.177v-25.033H311.22z M177.536,56.266c0-22.739,18.501-41.24,41.241-41.24
			c22.74,0,41.24,18.501,41.24,41.24v79.59v32.255h-7.053V100.55c0-4.15-3.364-7.513-7.513-7.513h-53.347
			c-4.149,0-7.513,3.363-7.513,7.513v67.561h-7.053V56.266z M237.937,108.063v60.048h-38.321v-60.048H237.937z M373.259,464.916
			c0,17.677-14.38,32.058-32.057,32.058H170.798c-17.676,0-32.057-14.38-32.057-32.058V210.066
			c8.413,7.836,19.682,12.642,32.057,12.642h170.404c12.376,0,23.645-4.807,32.057-12.642V464.916z M341.202,207.682H170.798
			c-17.676,0-32.057-14.38-32.057-32.058c0-14.817,9.911-27.328,23.769-30.978v24.466h-2.79c-4.149,0-7.513,3.363-7.513,7.513
			c0,4.15,3.364,7.513,7.513,7.513h193.899c4.149,0,7.513-3.363,7.513-7.513c0-4.15-3.364-7.513-7.513-7.513h-3.724v-24.345
			c13.493,3.832,23.364,16.386,23.364,30.857C373.259,193.302,358.878,207.682,341.202,207.682z"/>
	</g>
</g>
<g>
	<g>
		<circle cx="202.007" cy="41.975" r="7.529"/>
	</g>
</g>
<g>
	<g>
		<circle cx="235.546" cy="41.975" r="7.529"/>
	</g>
</g>
<g>
	<g>
		<circle cx="202.007" cy="74.452" r="7.529"/>
	</g>
</g>
<g>
	<g>
		<circle cx="235.546" cy="74.452" r="7.529"/>
	</g>
</g>
<g>
	<g>
		<circle cx="308.826" cy="80.362" r="7.529"/>
	</g>
</g>
<g>
	<g>
		<circle cx="308.826" cy="109.253" r="7.529"/>
	</g>
</g>
<g>
	<g>
		<path d="M336.409,309.516c-2.511-4.165-8.296-4.823-11.735-1.384c-2.46,2.46-2.881,6.269-1.089,9.251
			c7.839,13.044,12.021,28.522,11.078,45.022c-2.292,40.073-34.908,72.297-75.006,74.12c-45.605,2.074-83.28-34.858-82.438-80.202
			c0.764-41.121,33.533-75.053,74.605-77.194c13.98-0.729,27.214,2.228,38.848,7.961c2.875,1.417,6.332,0.824,8.598-1.442
			l0.002-0.002c3.651-3.651,2.618-9.804-2.016-12.083c-13.209-6.495-28.159-9.976-43.945-9.532
			c-49.785,1.399-90.156,42.149-91.115,91.944c-1.008,52.381,41.151,95.347,93.234,95.658c51.249,0.306,93.639-41.192,94.38-92.436
			C350.073,341.025,345.142,324.001,336.409,309.516z"/>
	</g>
</g>
<g>
	<g>
		<path d="M298.539,329.717h-14.442v-14.441c0-8.537-6.946-15.483-15.483-15.483h-25.229c-8.537,0-15.483,6.946-15.483,15.483
			v14.442H213.46c-8.537,0-15.483,6.946-15.483,15.483v25.229c0,8.537,6.945,15.483,15.483,15.483h14.443v14.44
			c0,8.537,6.946,15.483,15.483,15.483h25.229c8.537,0,15.483-6.946,15.483-15.483v-14.44h14.442
			c8.537,0,15.483-6.946,15.483-15.483V345.2C314.022,336.662,307.077,329.717,298.539,329.717z M298.996,370.428L298.996,370.428
			c-0.001,0.252-0.206,0.457-0.458,0.457h-21.955c-4.149,0-7.513,3.363-7.513,7.513v21.954c0,0.252-0.205,0.457-0.457,0.457h-25.229
			c-0.251,0-0.457-0.204-0.457-0.457v-21.954c0-4.15-3.364-7.513-7.513-7.513H213.46c-0.251,0-0.457-0.204-0.457-0.457V345.2
			c0-0.253,0.205-0.457,0.457-0.457h21.956c4.149,0,7.513-3.363,7.513-7.513v-21.955c0-0.253,0.205-0.457,0.457-0.457h25.229
			c0.251,0,0.457,0.204,0.457,0.457v21.955c0,4.15,3.364,7.513,7.513,7.513h21.955c0.251,0,0.457,0.204,0.457,0.457V370.428z"/>
	</g>
</g>
<g>
</g>
<g>
</g>
<g>
</g>
<g>
</g>
<g>
</g>
<g>
</g>
<g>
</g>
<g>
</g>
<g>
</g>
<g>
</g>
<g>
</g>
<g>
</g>
<g>
</g>
<g>
</g>
<g>
</g>
</svg>
