<?xml version="1.0" encoding="iso-8859-1"?>
<!-- Generator: Adobe Illustrator 19.0.0, SVG Export Plug-In . SVG Version: 6.00 Build 0)  -->
<svg version="1.1" id="Capa_1" xmlns="http://www.w3.org/2000/svg" xmlns:xlink="http://www.w3.org/1999/xlink" x="0px" y="0px"
	 viewBox="0 0 512 512" style="enable-background:new 0 0 512 512;" xml:space="preserve">
<g>
	<g>
		<path d="M153.072,418.948c0.258-3.746-0.958-7.369-3.425-10.2l-6.349-7.284c-2.467-2.831-5.888-4.532-9.634-4.789
			c-3.756-0.257-7.37,0.959-10.2,3.426l-3.461,3.017l-3.018-3.462c-5.09-5.842-13.988-6.455-19.833-1.361l-7.284,6.348
			c-2.831,2.467-4.532,5.888-4.789,9.634s0.959,7.369,3.426,10.2l3.017,3.462l-3.461,3.017c-2.832,2.467-4.532,5.889-4.789,9.635
			c-0.257,3.746,0.96,7.368,3.427,10.199l6.349,7.285c5.091,5.842,13.988,6.455,19.833,1.361l3.461-3.017l3.017,3.461
			c2.467,2.831,5.888,4.532,9.634,4.789c0.33,0.022,0.658,0.034,0.985,0.034c3.392,0,6.633-1.211,9.214-3.46l7.284-6.348
			c2.831-2.467,4.532-5.888,4.789-9.634c0.258-3.747-0.959-7.37-3.426-10.2l-3.017-3.462l3.461-3.017
			C151.114,426.116,152.815,422.694,153.072,418.948z M128.547,435.811l7.313,8.392l-5.81,5.063l-7.313-8.392
			c-1.31-1.504-3.163-2.425-5.152-2.562c-0.172-0.012-0.345-0.018-0.516-0.018c-1.81,0-3.567,0.654-4.94,1.85l-8.393,7.315
			l-5.063-5.811l8.393-7.313c3.129-2.729,3.456-7.477,0.729-10.607l-7.313-8.392l5.811-5.064l7.313,8.393
			c1.31,1.503,3.164,2.424,5.153,2.561c1.992,0.138,3.951-0.522,5.454-1.832l8.391-7.314l5.064,5.81l-8.393,7.314
			C126.145,427.931,125.818,432.68,128.547,435.811z"/>
	</g>
</g>
<g>
	<g>
		<path d="M157.996,140.585c-17.897,0-32.456,14.559-32.456,32.456c0,16.671,23.261,35.087,27.924,38.609
			c1.34,1.013,2.936,1.52,4.532,1.52s3.192-0.506,4.532-1.52c4.663-3.522,27.924-21.938,27.924-38.609
			C190.452,155.144,175.892,140.585,157.996,140.585z M157.995,195.973c-8.358-7.227-17.419-17.415-17.419-22.932
			c0-9.605,7.815-17.42,17.42-17.42s17.42,7.815,17.42,17.42C175.416,178.757,166.191,188.897,157.995,195.973z"/>
	</g>
</g>
<g>
	<g>
		<circle cx="157.998" cy="173.204" r="8.153"/>
	</g>
</g>
<g>
	<g>
		<path d="M167.933,242.067c-1.239-6.693-2.775-11.128-2.839-11.312c-1.367-3.914-5.646-5.977-9.559-4.618
			c-3.917,1.358-5.993,5.64-4.642,9.56c0.013,0.035,1.24,3.629,2.254,9.108c0.671,3.619,3.83,6.15,7.384,6.15
			c0.454,0,0.914-0.041,1.377-0.126C165.99,250.072,168.689,246.15,167.933,242.067z"/>
	</g>
</g>
<g>
	<g>
		<path d="M147.092,298.022c-2.244-3.493-6.898-4.506-10.389-2.26c-3.444,2.213-7.45,4.064-11.901,5.499
			c-2.657,0.856-5.198,1.927-7.55,3.18c-3.664,1.953-5.051,6.507-3.099,10.17c1.352,2.54,3.952,3.986,6.641,3.986
			c1.192,0,2.403-0.285,3.529-0.885c1.567-0.836,3.279-1.555,5.091-2.139c5.693-1.835,10.88-4.244,15.418-7.161
			C148.324,306.167,149.336,301.515,147.092,298.022z"/>
	</g>
</g>
<g>
	<g>
		<path d="M109.205,319.956c-3.722-1.848-8.231-0.328-10.078,3.39c-3.355,6.756-5.409,14.818-6.105,23.959
			c-0.315,4.141,2.787,7.754,6.927,8.068c0.194,0.015,0.387,0.021,0.578,0.021c3.893,0,7.188-3.001,7.489-6.948
			c0.548-7.204,2.089-13.399,4.579-18.413C114.442,326.315,112.924,321.803,109.205,319.956z"/>
	</g>
</g>
<g>
	<g>
		<path d="M162.414,257.828c-4.156-0.357-7.786,2.69-8.151,6.826c-0.604,6.825-2.34,12.879-5.159,17.993
			c-2.005,3.636-0.684,8.208,2.953,10.212c1.151,0.636,2.396,0.936,3.623,0.936c2.65,0,5.22-1.403,6.59-3.889
			c3.836-6.957,6.182-15.008,6.971-23.927C169.606,261.844,166.55,258.194,162.414,257.828z"/>
	</g>
</g>
<g>
	<g>
		<path d="M110.632,378.287c-0.01-0.037-0.993-3.8-1.795-9.463c-0.581-4.112-4.388-6.972-8.497-6.391
			c-4.112,0.581-6.973,4.387-6.39,8.497c0.937,6.62,2.101,11.03,2.15,11.215c0.896,3.363,3.933,5.582,7.257,5.582
			c0.638,0,1.286-0.082,1.932-0.253C109.299,386.413,111.689,382.299,110.632,378.287z"/>
	</g>
</g>
<g>
	<g>
		<path d="M339.041,303.21c-49.909,0-90.514,40.605-90.514,90.515s40.604,90.514,90.514,90.514s90.514-40.604,90.514-90.514
			S388.951,303.21,339.041,303.21z M346.559,468.826v-9.717c0-4.153-3.365-7.518-7.518-7.518s-7.518,3.365-7.518,7.518v9.717
			c-35.627-3.539-64.043-31.955-67.584-67.584h9.716c4.153,0,7.518-3.365,7.518-7.518s-3.365-7.518-7.518-7.518h-9.716
			c3.539-35.628,31.955-64.044,67.584-67.585v9.717c0,4.153,3.365,7.518,7.518,7.518s7.518-3.365,7.518-7.518v-9.717
			c35.628,3.539,64.043,31.955,67.584,67.585h-9.717c-4.153,0-7.518,3.365-7.518,7.518s3.365,7.518,7.518,7.518h9.717
			C410.602,436.87,382.187,465.286,346.559,468.826z"/>
	</g>
</g>
<g>
	<g>
		<path d="M367.064,278.81v-18.873c0-4.93-2.974-9.172-7.218-11.043v-8.448c0.414-0.189,0.817-0.415,1.203-0.687
			c10.165-7.163,16.234-18.856,16.234-31.278c0-21.086-17.155-38.242-38.241-38.242S300.8,187.394,300.8,208.481
			c0,12.901,6.438,24.845,17.221,31.95c0.07,0.046,0.145,0.077,0.217,0.12v8.341c-4.245,1.872-7.218,6.115-7.218,11.043v18.873
			c-31.8,7.756-58.588,28.413-74.525,56.075V121.269c0-14.238-11.585-25.823-25.823-25.823h-16.243V47.858c0-0.001,0-0.003,0-0.005
			c0-0.001,0-0.002,0-0.003c0-0.006-0.001-0.011-0.001-0.016c-0.001-0.331-0.03-0.655-0.072-0.973
			c-0.01-0.079-0.023-0.156-0.036-0.235c-0.05-0.305-0.114-0.604-0.2-0.895c-0.005-0.018-0.009-0.037-0.014-0.055
			c-0.096-0.318-0.217-0.623-0.352-0.921c-0.026-0.057-0.054-0.113-0.082-0.17c-0.127-0.263-0.269-0.518-0.425-0.763
			c-0.021-0.034-0.04-0.069-0.062-0.102c-0.176-0.267-0.37-0.519-0.578-0.761c-0.047-0.055-0.097-0.107-0.146-0.161
			c-0.185-0.203-0.381-0.397-0.588-0.579c-0.041-0.036-0.078-0.074-0.12-0.109c-0.247-0.207-0.507-0.397-0.779-0.572
			c-0.052-0.034-0.107-0.065-0.16-0.097c-0.267-0.162-0.542-0.311-0.83-0.439c-0.016-0.007-0.031-0.018-0.047-0.025l-0.053-0.023
			c-0.023-0.01-0.046-0.021-0.069-0.03L98.105,0.636c-2.327-1.023-5.008-0.799-7.134,0.587c-2.126,1.389-3.407,3.756-3.407,6.295
			v76.02L59.288,96.032c-0.012,0.005-0.025,0.011-0.037,0.017l-0.087,0.039c-0.054,0.024-0.104,0.054-0.157,0.079
			c-0.159,0.075-0.317,0.151-0.47,0.237c-0.091,0.051-0.177,0.107-0.266,0.161c-0.116,0.072-0.234,0.142-0.346,0.221
			c-0.108,0.074-0.21,0.155-0.314,0.235c-0.086,0.066-0.172,0.131-0.256,0.201c-0.11,0.093-0.215,0.19-0.318,0.29
			c-0.071,0.067-0.143,0.133-0.211,0.203c-0.099,0.102-0.193,0.208-0.287,0.315c-0.067,0.077-0.135,0.154-0.199,0.235
			c-0.081,0.101-0.157,0.207-0.234,0.312c-0.069,0.095-0.137,0.19-0.202,0.289c-0.061,0.094-0.118,0.191-0.175,0.289
			c-0.068,0.115-0.135,0.232-0.197,0.351c-0.045,0.088-0.086,0.177-0.128,0.267c-0.062,0.131-0.122,0.264-0.177,0.399
			c-0.035,0.087-0.065,0.177-0.097,0.266c-0.049,0.138-0.097,0.276-0.139,0.418c-0.03,0.101-0.053,0.203-0.078,0.306
			c-0.032,0.129-0.064,0.259-0.09,0.391c-0.025,0.132-0.042,0.266-0.061,0.399c-0.014,0.104-0.031,0.208-0.041,0.313
			c-0.017,0.175-0.022,0.353-0.027,0.53c-0.001,0.057-0.009,0.113-0.009,0.171v0.091c0,0.016,0,0.031,0,0.048v401.379
			c0,4.153,3.365,7.518,7.518,7.518H210.67c14.238,0,25.823-11.585,25.823-25.823v-33.568C256.938,488.075,295.247,512,339.041,512
			c65.218,0,118.276-53.059,118.276-118.276C457.317,338.159,418.799,291.428,367.064,278.81z M102.599,19.032l65.665,28.846
			l-65.665,29.016V19.032z M179.391,59.399v36.047H97.816L179.391,59.399z M221.457,381.14c-0.44,4.138-0.692,8.332-0.692,12.584
			c0,4.316,0.24,8.578,0.692,12.776v79.678c0,5.957-4.83,10.787-10.787,10.787H69.719V486.94h125.538
			c8.934,0,16.177-7.242,16.177-16.177V281.901c0-4.813-4.518-8.387-9.184-7.211c-0.064,0.016-0.128,0.032-0.191,0.048
			c-3.321,0.824-5.661,3.788-5.661,7.209v188.816c0,0.628-0.513,1.141-1.141,1.141H69.719V135.542h125.538
			c0.628,0,1.141,0.513,1.141,1.141v99.462c0,3.419,2.335,6.386,5.655,7.208c0.063,0.016,0.127,0.032,0.191,0.048
			c4.669,1.175,9.191-2.394,9.191-7.209v-99.508c0-8.934-7.242-16.177-16.177-16.177H69.719v-10.024H210.67
			c5.957,0,10.787,4.83,10.787,10.787V381.14z M315.836,208.481c0-12.797,10.41-23.206,23.206-23.206s23.206,10.41,23.206,23.206
			c0,6.33-2.606,12.343-7.094,16.685c-0.873-0.355-1.825-0.553-2.825-0.553h-26.574c-1.005,0-1.963,0.2-2.84,0.559
			C318.424,220.837,315.836,214.851,315.836,208.481z M352.028,262.903v13.26c-4.266-0.468-8.599-0.717-12.987-0.717
			s-8.721,0.249-12.987,0.717v-13.26H352.028z M333.272,247.867v-8.219h11.538v8.219H333.272z M339.041,496.964
			c-52.896,0-96.619-39.988-102.548-91.32v-23.839c5.929-51.333,49.652-91.321,102.548-91.321
			c56.927,0,103.24,46.314,103.24,103.241S395.968,496.964,339.041,496.964z"/>
	</g>
</g>
<g>
	<g>
		<path d="M376.947,355.936c-1.824-1.867-4.487-2.653-7.037-2.076l-53.036,12.029c-2.823,0.641-5.029,2.846-5.669,5.669
			l-12.029,53.036c-0.577,2.547,0.208,5.211,2.075,7.038c1.422,1.39,3.316,2.143,5.257,2.143c0.608,0,1.222-0.073,1.826-0.226
			l52.034-13.031c0.012-0.003,0.023-0.008,0.034-0.011c0.628-0.16,1.238-0.402,1.815-0.728c0.038-0.021,0.074-0.044,0.112-0.066
			c0.233-0.136,0.459-0.286,0.679-0.449c0.047-0.035,0.096-0.068,0.142-0.104c0.242-0.188,0.477-0.388,0.7-0.61
			c0.22-0.22,0.417-0.451,0.602-0.69c0.055-0.07,0.105-0.142,0.157-0.214c0.132-0.181,0.256-0.367,0.369-0.557
			c0.047-0.078,0.095-0.155,0.139-0.236c0.142-0.26,0.274-0.523,0.384-0.795c0.022-0.053,0.037-0.11,0.057-0.164
			c0.085-0.225,0.159-0.452,0.221-0.683c0.015-0.054,0.038-0.104,0.052-0.158l13.031-52.034
			C379.499,360.485,378.772,357.803,376.947,355.936z M316.545,415.992l6.307-27.81l20.977,20.977L316.545,415.992z M354.47,398.535
			l-20.994-20.994l27.833-6.312L354.47,398.535z"/>
	</g>
</g>
<g>
</g>
<g>
</g>
<g>
</g>
<g>
</g>
<g>
</g>
<g>
</g>
<g>
</g>
<g>
</g>
<g>
</g>
<g>
</g>
<g>
</g>
<g>
</g>
<g>
</g>
<g>
</g>
<g>
</g>
</svg>
