<?xml version="1.0" encoding="iso-8859-1"?>
<!-- Generator: Adobe Illustrator 19.0.0, SVG Export Plug-In . SVG Version: 6.00 Build 0)  -->
<svg version="1.1" id="Capa_1" xmlns="http://www.w3.org/2000/svg" xmlns:xlink="http://www.w3.org/1999/xlink" x="0px" y="0px"
	 viewBox="0 0 512.001 512.001" style="enable-background:new 0 0 512.001 512.001;" xml:space="preserve">
<g>
	<g>
		<path d="M181.379,471.387h-72.884c-4.151,0-7.516,3.364-7.516,7.516c0,4.152,3.365,7.516,7.516,7.516h72.884
			c4.151,0,7.516-3.364,7.516-7.516C188.895,474.752,185.53,471.387,181.379,471.387z"/>
	</g>
</g>
<g>
	<g>
		<path d="M266.295,471.387h-52.894c-4.151,0-7.516,3.364-7.516,7.516c0,4.152,3.365,7.516,7.516,7.516h52.894
			c4.151,0,7.516-3.364,7.516-7.516C273.811,474.752,270.446,471.387,266.295,471.387z"/>
	</g>
</g>
<g>
	<g>
		<path d="M340.638,360.156c4.212,0,8.111-2.101,10.428-5.617c2.317-3.518,2.707-7.927,1.044-11.797l-4.187-9.746l4.187-9.745
			c1.663-3.869,1.272-8.281-1.045-11.798c-2.317-3.517-6.216-5.616-10.427-5.616h-29.893v-28.141h29.893
			c4.212,0,8.11-2.101,10.427-5.616c2.317-3.518,2.708-7.928,1.045-11.799l-4.187-9.744l4.186-9.745
			c1.663-3.869,1.273-8.28-1.044-11.797c-2.317-3.518-6.216-5.617-10.428-5.617h-29.893v-28.141h29.893
			c4.212,0,8.11-2.101,10.427-5.617c2.317-3.517,2.708-7.928,1.045-11.798l-4.187-9.744l4.186-9.745
			c1.664-3.869,1.273-8.281-1.044-11.798c-2.317-3.517-6.216-5.617-10.427-5.617h-29.893v-28.141h29.893
			c4.212,0,8.111-2.101,10.428-5.617c2.317-3.518,2.707-7.927,1.044-11.797l-4.187-9.746l4.187-9.745
			c1.665-3.874,1.274-8.285-1.043-11.803c-2.317-3.517-6.216-5.616-10.427-5.616h-29.893V39.598
			c0-17.726-14.421-32.146-32.146-32.146h-5.001C271.425,3.046,266.899,0,261.663,0H251.21c-5.235,0-9.761,3.046-11.935,7.451
			H99.441c-17.784,0-32.252,14.469-32.252,32.253v436.957c0,0.323,0.027,0.638,0.066,0.95c-0.027,0.45-0.051,0.901-0.06,1.355
			c-0.163,8.609,3.129,16.796,9.268,23.053c6.225,6.344,14.862,9.982,23.698,9.982h178.438c17.726,0,32.146-14.422,32.146-32.146
			v-37.238h29.893c4.212,0,8.11-2.101,10.427-5.617c2.317-3.517,2.708-7.928,1.045-11.798l-4.187-9.744l4.186-9.745
			c1.664-3.869,1.273-8.281-1.044-11.798c-2.317-3.517-6.216-5.617-10.427-5.617h-29.893v-28.141H340.638z M310.745,238.407h26.027
			l-3.935,9.16c-0.814,1.894-0.814,4.039,0,5.934l3.936,9.16h-26.028V238.407z M310.745,320.867h26.027l-3.935,9.159
			c-0.814,1.895-0.814,4.04,0,5.934l3.936,9.161h-26.028V320.867z M310.745,155.946h26.027l-3.935,9.161
			c-0.814,1.894-0.814,4.039,0,5.934l3.936,9.16h-26.028V155.946z M310.745,73.484h26.028l-3.936,9.16
			c-0.814,1.895-0.814,4.04,0,5.934l3.936,9.161h-26.028V73.484z M274.978,22.484h3.621c9.437,0,17.113,7.677,17.113,17.113v407.508
			l-20.734,0.008V22.484z M252.927,15.033h7.016v432.085h-7.016V15.033z M82.221,39.703c0-8.653,6.423-15.816,14.747-17.021v181.712
			c0,4.152,3.365,7.516,7.516,7.516s7.516-3.364,7.516-7.516V22.484h125.893v15.532h-86.431c-11.957,0-21.684,9.728-21.684,21.685
			v42.168c0,11.957,9.728,21.685,21.684,21.685h86.431v36.743c-9.136-9.033-21.684-14.622-35.517-14.622
			c-27.873,0-50.549,22.677-50.549,50.548c0,27.874,22.676,50.549,50.549,50.549c13.832,0,26.381-5.589,35.517-14.622v30.809
			h-70.822c-10.172,0-18.448,8.276-18.448,18.448v0.631c0,10.172,8.276,18.448,18.448,18.448h70.822v18.4h-86.431
			c-11.957,0-21.684,9.728-21.684,21.685v67.943c0,11.957,9.728,21.684,21.684,21.684h86.431v16.922l-125.893,0.046V237.449
			c0-4.152-3.365-7.516-7.516-7.516s-7.516,3.364-7.516,7.516v209.846c-5.379,0.443-10.408,2.222-14.747,5.007V39.703z
			 M237.894,53.048v0.001v55.473h-86.431c-3.668,0-6.652-2.984-6.652-6.653V59.701c0-3.668,2.985-6.653,6.652-6.653H237.894z
			 M237.894,196.225c0,19.584-15.933,35.517-35.517,35.517s-35.516-15.933-35.516-35.517s15.932-35.516,35.516-35.516
			S237.894,176.641,237.894,196.225z M237.894,277.996v7.462h-70.822c-1.883,0-3.415-1.532-3.415-3.415v-0.631
			c0-1.883,1.532-3.415,3.415-3.415H237.894z M237.894,333.923v0.001v81.247h-86.431c-3.668,0-6.652-2.985-6.652-6.652v-67.944
			c0-3.668,2.985-6.653,6.652-6.653H237.894z M278.598,496.967H100.16c-4.825,0-9.551-1.996-12.966-5.478
			c-3.29-3.353-5.055-7.7-4.969-12.239c0.177-9.397,7.972-17.04,17.378-17.04l196.109-0.072v17.716
			C295.712,489.29,288.035,496.967,278.598,496.967z M336.772,403.328l-3.935,9.161c-0.814,1.894-0.814,4.039,0,5.934l3.936,9.16
			h-26.028v-24.255H336.772z"/>
	</g>
</g>
<g>
	<g>
		<path d="M437.296,240.747c4.151,0,7.516-3.365,7.516-7.516V112.747c0-1.011-0.203-2.011-0.599-2.941L430.832,78.34
			c-1.699-3.994-5.601-6.575-9.942-6.575s-8.243,2.581-9.942,6.575l-13.38,31.465c-0.396,0.93-0.599,1.93-0.599,2.941V426.84
			c0,13.383,10.951,24.688,24.332,24.461c13.001-0.22,23.51-10.865,23.51-23.918V282.139c0-4.151-3.365-7.516-7.516-7.516
			s-7.515,3.365-7.515,7.516v84.893h-17.777V126.54h17.777v106.691C429.78,237.382,433.145,240.747,437.296,240.747z
			 M429.78,403.326v24.058h0c0,4.902-3.988,8.888-8.888,8.888s-8.888-3.988-8.888-8.888v-24.058H429.78z M429.78,382.064v6.23
			h-17.777v-6.23H429.78z M413.181,111.507l7.71-18.13l7.71,18.13H413.181z"/>
	</g>
</g>
<g>
</g>
<g>
</g>
<g>
</g>
<g>
</g>
<g>
</g>
<g>
</g>
<g>
</g>
<g>
</g>
<g>
</g>
<g>
</g>
<g>
</g>
<g>
</g>
<g>
</g>
<g>
</g>
<g>
</g>
</svg>
