<?xml version="1.0" encoding="iso-8859-1"?>
<!-- Generator: Adobe Illustrator 19.0.0, SVG Export Plug-In . SVG Version: 6.00 Build 0)  -->
<svg version="1.1" id="Capa_1" xmlns="http://www.w3.org/2000/svg" xmlns:xlink="http://www.w3.org/1999/xlink" x="0px" y="0px"
	 viewBox="0 0 512 512" style="enable-background:new 0 0 512 512;" xml:space="preserve">
<g>
	<g>
		<path d="M154.671,291.421c-4.096-4.113-9.556-6.378-15.374-6.378H125.75c-0.304-14.588-12.266-26.362-26.926-26.362
			c-3.271,0-6.475,0.594-9.475,1.728c-6.043-10.831-17.528-17.818-30.508-17.818c-19.289,0-34.983,15.688-34.983,34.973
			c0,2.648,0.298,5.267,0.881,7.814C14.562,287.18,6.807,296.09,6.807,306.775c0,5.813,2.265,11.27,6.357,15.344
			c4.096,4.112,9.557,6.378,15.375,6.378h110.758c11.978,0,21.722-9.744,21.722-21.722
			C161.018,300.966,158.76,295.51,154.671,291.421z M139.297,313.495H28.538c-1.8,0-3.486-0.697-4.768-1.984
			c-1.265-1.26-1.962-2.941-1.962-4.735c0-3.711,3.019-6.73,6.73-6.73h7.271c2.752,0,5.283-1.508,6.595-3.927
			c1.311-2.42,1.191-5.363-0.312-7.67c-2.115-3.244-3.233-7.01-3.233-10.886c0-11.013,8.964-19.971,19.982-19.971
			c9.368,0,17.37,6.368,19.461,15.487c0.599,2.612,2.546,4.706,5.108,5.493c2.561,0.784,5.349,0.147,7.312-1.68
			c2.225-2.07,5.101-3.21,8.102-3.21c6.578,0,11.931,5.352,11.931,11.931c0,1.431-0.27,2.867-0.802,4.27
			c-0.875,2.305-0.561,4.892,0.839,6.922c1.4,2.029,3.708,3.24,6.173,3.24h22.332c1.8,0,3.485,0.697,4.757,1.974
			c1.266,1.266,1.963,2.955,1.963,4.756C146.017,310.48,143.003,313.495,139.297,313.495z"/>
	</g>
</g>
<g>
	<g>
		<path d="M500.237,271.958c-3.164-3.164-7.375-4.906-11.854-4.906h-6.421c-1.444-9.698-9.828-17.161-19.922-17.161
			c-1.708,0-3.39,0.215-5.013,0.632c-4.599-6.815-12.354-11.113-21.029-11.113c-13.996,0-25.382,11.387-25.382,25.383
			c0,1.065,0.066,2.125,0.198,3.174c-6.569,2.27-11.299,8.517-11.299,15.847c0,4.462,1.737,8.667,4.922,11.869
			c3.172,3.154,7.377,4.892,11.838,4.892h72.106c9.243-0.001,16.762-7.521,16.762-16.762
			C505.144,279.351,503.407,275.147,500.237,271.958z M488.383,285.573h-72.105c-0.635,0-1.063-0.331-1.232-0.499
			c-0.197-0.198-0.528-0.625-0.528-1.261c0-0.971,0.79-1.76,1.76-1.76h4.73c2.748,0,5.276-1.503,6.59-3.917
			c1.313-2.414,1.2-5.353-0.293-7.66c-1.103-1.703-1.686-3.669-1.686-5.684c0-5.724,4.657-10.382,10.381-10.382
			c4.795,0,9.052,3.384,10.12,8.047c0.599,2.611,2.544,4.705,5.105,5.492c2.559,0.789,5.346,0.149,7.311-1.673
			c0.68-0.632,1.84-1.385,3.506-1.385c2.834,0,5.14,2.306,5.14,5.14c0,0.624-0.116,1.242-0.344,1.838
			c-0.883,2.306-0.575,4.898,0.825,6.934c1.399,2.035,3.71,3.25,6.179,3.25h14.541c0.606,0,1.012,0.279,1.231,0.498
			c0.241,0.242,0.529,0.658,0.529,1.262C490.143,284.784,489.353,285.573,488.383,285.573z"/>
	</g>
</g>
<g>
	<g>
		<path d="M102.119,124.334H34.123c-4.142,0-7.501,3.357-7.501,7.501c0,4.143,3.358,7.501,7.501,7.501h67.996
			c4.142,0,7.501-3.357,7.501-7.501C109.619,127.691,106.261,124.334,102.119,124.334z"/>
	</g>
</g>
<g>
	<g>
		<path d="M102.119,201.577H59.6c-4.142,0-7.501,3.357-7.501,7.501c0,4.143,3.358,7.501,7.501,7.501h42.519
			c4.142,0,7.501-3.357,7.501-7.501C109.619,204.935,106.261,201.577,102.119,201.577z"/>
	</g>
</g>
<g>
	<g>
		<path d="M50.02,428.071H7.501c-4.142,0-7.501,3.357-7.501,7.501s3.358,7.501,7.501,7.501H50.02c4.142,0,7.501-3.357,7.501-7.501
			S54.162,428.071,50.02,428.071z"/>
	</g>
</g>
<g>
	<g>
		<path d="M504.499,349.5h-65.556c-4.142,0-7.501,3.357-7.501,7.501s3.358,7.501,7.501,7.501h65.556
			c4.142,0,7.501-3.357,7.501-7.501S508.643,349.5,504.499,349.5z"/>
	</g>
</g>
<g>
	<g>
		<path d="M388.863,44.92C359.65,15.911,320.953,0.06,279.797,0.086c-0.117,0.001-0.233-0.006-0.35-0.004
			c-0.015,0-0.031,0.001-0.046,0.002c-0.146,0-0.292-0.004-0.438-0.003c-40.548,0.29-78.809,16.315-107.732,45.125
			c-28.926,28.813-45.098,67.01-45.535,107.555c-0.269,24.726,5.442,49.37,16.515,71.269c10.7,21.163,26.422,39.879,45.453,54.116
			c1.091,0.82,1.716,2.032,1.716,3.325v21.094c-3.076,1-5.905,2.706-8.275,5.066c-3.918,3.935-6.076,9.157-6.076,14.703
			c0,10.358,7.619,18.947,17.541,20.52l33.228,64.306h-8.036c-4.796,0-9.305,1.867-12.694,5.257
			c-3.39,3.391-5.257,7.899-5.257,12.694c0,4.318,1.532,8.285,4.08,11.387v26.006c0,27.247,22.172,49.414,49.424,49.414h52.754
			c27.247,0,49.414-22.167,49.414-49.414v-25.979c2.647-3.213,4.09-7.206,4.09-11.414c0-9.898-8.058-17.951-17.961-17.951h-7.263
			l33.29-64.426c3.989-0.792,7.663-2.742,10.619-5.686c3.932-3.931,6.097-9.157,6.097-14.714c0-8.927-5.664-16.535-13.581-19.482
			V281.48c0-1.284,0.646-2.532,1.735-3.346c18.809-14.084,34.397-32.552,45.076-53.408c11.203-21.879,16.883-45.515,16.883-70.255
			C434.469,113.031,418.273,74.125,388.863,44.92z M140.697,152.924c0.666-61.771,42.379-114.399,98.891-131.767
			c-23.229,26.379-38.7,75.035-39.005,131.645c-0.26,48.825,10.722,93.823,30.131,123.463c0.374,0.569,1.081,2.391,1.081,5.206
			v20.062h-27.412v-20.062c0-5.964-2.88-11.69-7.718-15.327C161.137,239.567,140.216,197.241,140.697,152.924z M209.603,343.14
			H244.5l11.102,60.662h-14.654L209.603,343.14z M340.482,462.506c0,18.975-15.438,34.413-34.413,34.413h-52.754
			c-18.98,0-34.423-15.438-34.423-34.413v-19.431h121.589V462.506z M341.612,422.163c1.632,0,2.96,1.323,2.96,2.95
			c0,1.016-0.478,1.709-0.862,2.097c-0.322,0.322-1.024,0.863-2.098,0.863H217.763c-1.627,0-2.95-1.328-2.95-2.96
			c0-1.064,0.541-1.764,0.864-2.087c0.322-0.322,1.021-0.863,2.086-0.863H341.612z M259.75,343.14h40.648l-11.102,60.662h-18.444
			L259.75,343.14z M319.2,403.802h-14.653l11.102-60.662h34.897L319.2,403.802z M367.662,326.431
			c-1.104,1.1-2.566,1.705-4.118,1.705H195.831c-3.198,0-5.8-2.602-5.8-5.8c0-1.552,0.605-3.015,1.683-4.097
			c1.104-1.099,2.565-1.704,4.117-1.704h167.713c3.204,0,5.81,2.603,5.81,5.801C369.354,323.886,368.75,325.344,367.662,326.431z
			 M363.528,266.121c-4.855,3.624-7.755,9.367-7.755,15.36v20.052h-27.422v-20.052c0-2.826,0.713-4.66,1.095-5.241
			c16.01-24.453,26.304-59.494,29.248-98.464c0.328-4.347-3.14-8.05-7.5-8.05c-3.931,0-7.182,3.035-7.486,6.955
			c-2.809,36.213-12.389,69.311-26.809,91.337c-2.289,3.488-3.549,8.271-3.549,13.464v20.052h-66.555v-20.062
			c0-5.185-1.257-9.957-3.535-13.43c-17.571-26.832-27.918-69.882-27.677-115.16c0.4-74.195,29.747-137.3,64.082-137.801
			c9.056-0.133,17.956,4.04,26.429,12.394c19.653,19.374,33.451,57.7,37.348,101.569c0.345,3.887,3.579,6.88,7.483,6.88
			c4.425,0,7.868-3.804,7.483-8.214c-3.92-44.818-17.586-83.808-37.792-106.674c21.524,6.51,41.262,18.227,57.678,34.529
			c26.553,26.368,41.176,61.494,41.176,98.909C419.468,198.808,399.075,239.505,363.528,266.121z"/>
	</g>
</g>
<g>
</g>
<g>
</g>
<g>
</g>
<g>
</g>
<g>
</g>
<g>
</g>
<g>
</g>
<g>
</g>
<g>
</g>
<g>
</g>
<g>
</g>
<g>
</g>
<g>
</g>
<g>
</g>
<g>
</g>
</svg>
