<?xml version="1.0" encoding="iso-8859-1"?>
<!-- Generator: Adobe Illustrator 19.0.0, SVG Export Plug-In . SVG Version: 6.00 Build 0)  -->
<svg version="1.1" id="Capa_1" xmlns="http://www.w3.org/2000/svg" xmlns:xlink="http://www.w3.org/1999/xlink" x="0px" y="0px"
	 viewBox="0 0 512 512" style="enable-background:new 0 0 512 512;" xml:space="preserve">
<g>
	<g>
		<path d="M139.495,119.024h-13.542c-0.303-14.585-12.263-26.358-26.919-26.358c-3.274,0-6.478,0.593-9.479,1.727
			C83.513,83.561,72.03,76.574,59.05,76.574c-19.283,0-34.971,15.687-34.971,34.97c0,2.649,0.298,5.266,0.881,7.812
			c-10.175,1.801-17.928,10.707-17.928,21.391c0,11.978,9.745,21.723,21.724,21.723h110.74c11.978,0,21.724-9.745,21.724-21.723
			S151.474,119.024,139.495,119.024z M139.495,147.471H28.755c-3.708,0-6.725-3.017-6.725-6.724c0-3.708,3.018-6.724,6.725-6.724
			h7.27c2.752,0,5.282-1.507,6.593-3.927c1.312-2.42,1.192-5.362-0.311-7.668c-2.114-3.243-3.231-7.006-3.231-10.885
			c0-11.013,8.96-19.972,19.973-19.972c9.367,0,17.369,6.368,19.459,15.486c0.599,2.612,2.547,4.706,5.107,5.493
			c2.564,0.787,5.349,0.146,7.311-1.679c2.223-2.069,5.102-3.208,8.107-3.208c6.576,0,11.927,5.35,11.927,11.926
			c0,1.433-0.27,2.864-0.802,4.253c-0.882,2.306-0.573,4.897,0.826,6.931c1.399,2.034,3.71,3.249,6.178,3.249h22.332
			c3.708,0,6.725,3.017,6.725,6.724C146.22,144.455,143.203,147.471,139.495,147.471z"/>
	</g>
</g>
<g>
	<g>
		<path d="M447.039,192.975h-8.737c-1.101-11.329-10.678-20.213-22.291-20.213c-2.221,0-4.404,0.328-6.486,0.96
			c-5.099-8.129-14.084-13.302-24.176-13.302c-15.751,0-28.566,12.815-28.566,28.566c0,1.573,0.128,3.132,0.382,4.664
			c-7.752,2.168-13.455,9.296-13.455,17.73c-0.001,10.151,8.257,18.408,18.406,18.408h84.923c10.149,0,18.407-8.257,18.407-18.407
			C465.446,201.233,457.188,192.975,447.039,192.975z M447.038,214.791h-84.923c-1.88,0-3.409-1.529-3.409-3.409
			c0.001-1.88,1.53-3.409,3.41-3.409h5.575c2.752,0,5.282-1.507,6.594-3.927c1.311-2.419,1.191-5.362-0.312-7.667
			c-1.436-2.202-2.194-4.757-2.194-7.392c0-7.481,6.086-13.568,13.568-13.568c6.362,0,11.799,4.326,13.219,10.519
			c0.6,2.612,2.547,4.706,5.107,5.492c2.567,0.789,5.349,0.146,7.311-1.679c1.38-1.284,3.165-1.992,5.025-1.992
			c4.079,0,7.397,3.319,7.397,7.397c0,0.885-0.168,1.772-0.499,2.636c-0.882,2.306-0.573,4.897,0.826,6.931
			c1.399,2.034,3.71,3.249,6.178,3.249h17.125c1.88,0,3.409,1.529,3.409,3.409C450.447,213.261,448.918,214.791,447.038,214.791z"/>
	</g>
</g>
<g>
	<g>
		<path d="M504.501,420.429h-13.854v-18.862c8.897-3.109,15.299-11.581,15.299-21.525v-14.056c0-12.571-10.228-22.799-22.799-22.799
			c-12.571,0-22.799,10.228-22.799,22.799v14.056c0,9.944,6.402,18.416,15.299,21.525v18.862h-14.155l-71.395-115.415
			c-3.255-5.262-8.893-8.458-15.079-8.55c-6.184-0.083-11.916,2.936-15.325,8.099l-20.53,31.085l-45.965-83.922
			c-3.166-5.778-8.988-9.283-15.576-9.375c-0.089-0.001-0.177-0.002-0.265-0.002c-6.48,0-12.286,3.328-15.565,8.937l-38.143,65.228
			l-45.992-103.476c-2.898-6.52-9.131-10.626-16.267-10.715c-0.078-0.001-0.156-0.001-0.235-0.001
			c-7.038,0-13.268,3.934-16.293,10.31L46.252,420.43h-7.24v-18.863c8.897-3.109,15.299-11.581,15.299-21.525v-14.056
			c0-12.571-10.228-22.799-22.799-22.799c-12.571,0-22.8,10.227-22.8,22.798v14.056c0,9.944,6.402,18.416,15.299,21.525v18.862
			H7.499c-4.143,0-7.499,3.358-7.499,7.499s3.357,7.499,7.499,7.499h497.002c4.143,0,7.499-3.358,7.499-7.499
			S508.642,420.429,504.501,420.429z M31.512,387.841c-4.302,0-7.8-3.5-7.8-7.8v-14.056c0-4.301,3.499-7.8,7.8-7.8
			c4.302,0,7.8,3.5,7.8,7.8v14.056C39.311,384.343,35.812,387.841,31.512,387.841z M372.208,312.828
			c0.801-1.212,1.959-1.364,2.588-1.368c0.624,0.009,1.783,0.209,2.548,1.445l24.599,39.766l-18.577,8.499l-10.243-5.659
			c-1.642-0.907-3.563-1.165-5.385-0.726l-15.981,3.855l-4.445-8.114L372.208,312.828z M274.74,258.856
			c0.78-1.335,1.976-1.513,2.674-1.509c0.663,0.009,1.888,0.228,2.631,1.583l29.385,53.65l-19.618,8.975l-10.243-5.659
			c-1.642-0.907-3.563-1.165-5.385-0.726l-18.52,4.467l-12.842-6.196L274.74,258.856z M158.41,219.061
			c0.729-1.537,2.077-1.744,2.793-1.742c0.73,0.009,2.058,0.256,2.748,1.81l28.882,64.981l-19.784,9.051l-10.243-5.659
			c-1.642-0.907-3.563-1.165-5.385-0.726l-18.521,4.467l-11.997-5.789L158.41,219.061z M269.835,420.427v0.002l-12.207-27.463
			c-1.204-2.708-3.89-4.453-6.853-4.453c-5.427,0-9.057,5.586-6.853,10.545l9.499,21.371H62.851l57.621-121.424l14.32,6.911
			c1.56,0.753,3.334,0.943,5.017,0.536l18.293-4.413l11.001,6.077c1.126,0.622,2.375,0.935,3.627,0.935
			c1.063,0,2.128-0.226,3.12-0.68l23.074-10.556l23.31,52.444c1.204,2.708,3.89,4.454,6.853,4.454c5.427,0,9.057-5.586,6.853-10.545
			l-4.789-10.774l4.073-6.965l16.331,7.881c1.561,0.753,3.334,0.942,5.018,0.536l18.292-4.413l11.001,6.077
			c1.126,0.622,2.375,0.935,3.627,0.935c1.063,0,2.128-0.226,3.12-0.68l24.039-10.998l51.845,94.659H269.835z M385.598,420.429
			l-26.378-48.161l9.201-2.219l11.001,6.077c1.126,0.622,2.375,0.935,3.627,0.935c1.063,0,2.128-0.226,3.12-0.68l23.726-10.855
			l33.962,54.902H385.598z M483.147,387.841c-4.302,0-7.8-3.5-7.8-7.8v-14.056c0-4.301,3.499-7.8,7.8-7.8c4.302,0,7.8,3.5,7.8,7.8
			v14.056C490.947,384.343,487.449,387.841,483.147,387.841z"/>
	</g>
</g>
<g>
</g>
<g>
</g>
<g>
</g>
<g>
</g>
<g>
</g>
<g>
</g>
<g>
</g>
<g>
</g>
<g>
</g>
<g>
</g>
<g>
</g>
<g>
</g>
<g>
</g>
<g>
</g>
<g>
</g>
</svg>
