<?xml version="1.0" encoding="iso-8859-1"?>
<!-- Generator: Adobe Illustrator 19.0.0, SVG Export Plug-In . SVG Version: 6.00 Build 0)  -->
<svg version="1.1" id="Capa_1" xmlns="http://www.w3.org/2000/svg" xmlns:xlink="http://www.w3.org/1999/xlink" x="0px" y="0px"
	 viewBox="0 0 512 512" style="enable-background:new 0 0 512 512;" xml:space="preserve">
<g>
	<g>
		<path d="M353.612,0H160.926c-15.675,0-28.427,12.753-28.427,28.427v455.147c0,15.675,12.752,28.427,28.427,28.427h192.686
			c15.675,0,28.427-12.753,28.427-28.427V28.427C382.039,12.753,369.288,0,353.612,0z M353.613,496.987H160.926
			c-7.397,0-13.414-6.018-13.414-13.414V289.72h8.007v191.755c0,4.145,3.36,7.506,7.506,7.506h188.489
			c4.146,0,7.506-3.361,7.506-7.506V36.438c0-7.399-6.02-13.419-13.419-13.419h-31.052c-3.637,0-6.75,2.606-7.389,6.187
			l-3.429,19.196c-0.09,0.506-0.529,0.875-1.045,0.875h-90.834c-0.515,0-0.955-0.367-1.046-0.876l-3.428-19.195
			c-0.64-3.58-3.752-6.187-7.389-6.187h-31.052c-7.4,0-13.419,6.02-13.419,13.419v238.269h-8.007V28.427
			c0-7.396,6.018-13.414,13.414-13.414h192.686c7.397,0,13.414,6.018,13.414,13.414v455.146h0.001
			C367.027,490.969,361.009,496.987,353.613,496.987z M175.343,274.707h-4.812V154.154l34.541,34.541
			c2.292,2.292,5.809,2.751,8.651,1.194c0.083-0.046,0.167-0.091,0.251-0.136c4.334-2.315,5.298-8.089,1.824-11.563l-45.267-45.267
			v-18.044l92.388,92.388c1.408,1.408,3.317,2.199,5.308,2.199s3.899-0.791,5.308-2.199l70.473-70.473v18.044l-61.45,61.451
			c-2.931,2.931-2.931,7.684,0,10.615l60.616,60.617c0.263,0.263,0.544,0.498,0.835,0.714V306.4l-95.951-95.951
			c-3.471-3.471-9.232-2.517-11.567,1.8c-0.039,0.072-0.078,0.144-0.118,0.215c-1.579,2.855-1.134,6.398,1.174,8.705l53.538,53.538
			h-19.032c-4.11,0-7.694,3.167-7.818,7.275c-0.128,4.251,3.28,7.737,7.503,7.737h32.027c0.71,0,1.393-0.105,2.044-0.289
			l3.651,3.651l-64.769,64.77h-74.16v-68.133h5.126c4.222,0,7.63-3.486,7.503-7.737
			C183.037,277.874,179.453,274.707,175.343,274.707z M170.531,93.646V38.032h23.174l2.322,13.007
			c1.37,7.677,8.026,13.25,15.825,13.25h90.834c7.799,0,14.454-5.573,15.824-13.249l2.322-13.008h23.174v77.53l-75.781,75.781
			L170.531,93.646z M344.008,176.069v91.055l-45.527-45.527L344.008,176.069z M344.008,327.63v30.221H302.57l35.83-35.83
			L344.008,327.63z M247.799,372.864c1.991,0,3.899-0.791,5.308-2.199l66.968-66.969l7.709,7.709l-48.644,48.644
			c-2.147,2.147-2.788,5.375-1.626,8.18c1.161,2.805,3.899,4.634,6.935,4.634h59.56v10.903h-75.833
			c-1.991,0-3.899,0.791-5.308,2.199l-87.454,87.453c-0.176,0.176-0.335,0.361-0.49,0.549h-4.392v-11.085l66.301-66.301
			c2.147-2.147,2.788-5.375,1.626-8.18c-1.161-2.805-3.899-4.634-6.935-4.634h-60.993v-10.903H247.799z M344.008,398.78v75.188
			H196.095l75.189-75.188H344.008z M213.403,398.781l-42.872,42.871v-42.871H213.403z"/>
	</g>
</g>
<g>
	<g>
		<path d="M245.717,23.019h-25.125c-4.146,0-7.506,3.361-7.506,7.506s3.36,7.506,7.506,7.506h25.125
			c4.146,0,7.506-3.361,7.506-7.506S249.862,23.019,245.717,23.019z"/>
	</g>
</g>
<g>
	<g>
		<circle cx="270.905" cy="30.525" r="6.477"/>
	</g>
</g>
<g>
	<g>
		<circle cx="290.001" cy="30.525" r="6.477"/>
	</g>
</g>
<g>
	<g>
		<path d="M450.073,39.744c-27.451,0-49.784,22.333-49.784,49.784c0,26.326,40.627,57.776,45.26,61.275
			c1.338,1.011,2.931,1.517,4.525,1.517s3.187-0.505,4.525-1.517c4.633-3.5,45.26-34.949,45.26-61.275
			C499.857,62.077,477.524,39.744,450.073,39.744z M450.07,135.258c-15.015-12.283-34.768-32.795-34.768-45.73
			c0-19.173,15.598-34.771,34.771-34.771c19.173,0,34.771,15.598,34.771,34.771C484.844,102.433,465.084,122.96,450.07,135.258z"/>
	</g>
</g>
<g>
	<g>
		<path d="M450.073,68.474c-11.76,0-21.328,9.568-21.328,21.328c0,11.76,9.568,21.328,21.328,21.328
			c11.761,0,21.329-9.568,21.329-21.328C471.402,78.041,461.834,68.474,450.073,68.474z M450.073,96.116
			c-3.482,0-6.315-2.833-6.315-6.315c0-3.482,2.832-6.315,6.315-6.315c3.483,0,6.316,2.833,6.316,6.315
			C456.389,93.284,453.556,96.116,450.073,96.116z"/>
	</g>
</g>
<g>
	<g>
		<path d="M270.901,101.877c-17.869,0-32.405,14.537-32.405,32.405c0,16.645,23.224,35.032,27.88,38.549
			c1.338,1.011,2.931,1.517,4.525,1.517s3.187-0.506,4.525-1.517c4.656-3.517,27.88-21.904,27.88-38.549
			C303.306,116.413,288.77,101.877,270.901,101.877z M270.901,157.178c-8.345-7.216-17.391-17.388-17.391-22.896
			c0-9.591,7.803-17.393,17.393-17.393c9.59,0,17.392,7.803,17.392,17.393C288.294,139.989,279.085,150.113,270.901,157.178z"/>
	</g>
</g>
<g>
	<g>
		<circle cx="270.905" cy="134.442" r="8.14"/>
	</g>
</g>
<g>
	<g>
		<path d="M111.604,274.706h-7.003v0.001c-6.073,0-11.848-2.929-15.447-7.838c-2.452-3.343-7.149-4.064-10.492-1.613
			c-3.343,2.452-4.065,7.149-1.613,10.492c6.415,8.748,16.716,13.971,27.552,13.971h7.003c4.146,0,7.506-3.361,7.506-7.506
			S115.75,274.706,111.604,274.706z"/>
	</g>
</g>
<g>
	<g>
		<path d="M63.047,341.405c-3.219-2.617-7.946-2.127-10.56,1.089c-5.664,6.966-8.782,15.754-8.782,24.746v10.368
			c0,4.145,3.36,7.506,7.506,7.506c4.146,0,7.506-3.361,7.506-7.506v-10.368c0-5.633,1.874-10.914,5.419-15.275
			C66.752,348.748,66.264,344.02,63.047,341.405z"/>
	</g>
</g>
<g>
	<g>
		<path d="M118.788,327.995H86.761c-4.146,0-7.506,3.361-7.506,7.506c0,4.146,3.36,7.506,7.506,7.506h32.027
			c4.146,0,7.506-3.361,7.506-7.506C126.294,331.355,122.933,327.995,118.788,327.995z"/>
	</g>
</g>
<g>
	<g>
		<path d="M108.417,219.895h-3.816c-12.309,0-23.714,6.668-29.764,17.4c-2.037,3.611-0.759,8.189,2.852,10.224
			c1.165,0.657,2.431,0.969,3.679,0.969c2.621,0,5.166-1.376,6.545-3.821c3.394-6.02,9.787-9.759,16.687-9.759h3.816
			c4.146,0,7.506-3.361,7.506-7.506S112.564,219.895,108.417,219.895z"/>
	</g>
</g>
<g>
	<g>
		<path d="M239.711,274.707h-32.027c-4.146,0-7.506,3.361-7.506,7.506s3.36,7.506,7.506,7.506h32.027
			c4.146,0,7.506-3.361,7.506-7.506S243.857,274.707,239.711,274.707z"/>
	</g>
</g>
<g>
	<g>
		<path d="M434.929,285.94c-6.464-7.139-15.693-11.233-25.319-11.233h-9.765c-4.146,0-7.506,3.361-7.506,7.506
			s3.36,7.506,7.506,7.506h9.765c5.394,0,10.567,2.295,14.191,6.297c1.481,1.636,3.521,2.468,5.567,2.468
			c1.797,0,3.6-0.642,5.036-1.942C437.476,293.761,437.712,289.014,434.929,285.94z"/>
	</g>
</g>
<g>
	<g>
		<path d="M436.795,314.128c-3.701-1.865-8.215-0.377-10.08,3.326c-3.277,6.502-9.83,10.541-17.105,10.541h-2.581
			c-4.146,0-7.506,3.361-7.506,7.506c0,4.146,3.36,7.506,7.506,7.506h2.581c12.978,0,24.668-7.203,30.51-18.798
			C441.986,320.506,440.497,315.993,436.795,314.128z"/>
	</g>
</g>
<g>
	<g>
		<path d="M435.229,221.723c-1.608-3.821-6.012-5.614-9.829-4.007c-3.437,1.445-7.088,2.179-10.856,2.179c-0.001,0-0.002,0-0.003,0
			h-17.883c-4.146,0-7.506,3.361-7.506,7.506s3.36,7.506,7.506,7.506h17.882c0.002,0,0.003,0,0.004,0
			c5.777,0,11.388-1.128,16.677-3.354C435.042,229.946,436.836,225.545,435.229,221.723z"/>
	</g>
</g>
<g>
	<g>
		<path d="M450.073,162.006c-4.146,0-7.506,3.361-7.506,7.506v22.357c0,2.563-0.344,5.099-1.022,7.537
			c-1.111,3.994,1.226,8.132,5.219,9.244c0.674,0.187,1.351,0.276,2.017,0.276c3.287,0,6.304-2.175,7.228-5.497
			c1.043-3.748,1.571-7.637,1.571-11.561v-22.357C457.579,165.367,454.22,162.006,450.073,162.006z"/>
	</g>
</g>
<g>
	<g>
		<path d="M89.063,417.201c0.272-3.968-1.018-7.806-3.631-10.806l-7.171-8.23c-2.614-3-6.239-4.801-10.208-5.073
			c-3.978-0.274-7.807,1.017-10.806,3.63l-4.654,4.056l-4.057-4.655c-5.396-6.191-14.822-6.84-21.014-1.443l-8.23,7.172
			c-6.191,5.396-6.839,14.822-1.443,21.014l4.056,4.655l-4.653,4.055c-3.001,2.614-4.802,6.239-5.075,10.208
			c-0.272,3.968,1.018,7.807,3.631,10.806l7.172,8.23c5.397,6.19,14.822,6.839,21.014,1.443l4.655-4.056l4.055,4.654
			c2.613,3,6.238,4.802,10.208,5.075c0.349,0.024,0.696,0.036,1.043,0.036c3.594,0,7.027-1.282,9.763-3.666l8.229-7.171
			c3-2.613,4.802-6.239,5.075-10.208c0.272-3.969-1.018-7.807-3.631-10.806l-4.056-4.655l4.655-4.056
			C86.988,424.795,88.791,421.17,89.063,417.201z M63.812,425.078c-1.5,1.308-2.42,3.159-2.557,5.144
			c-0.137,1.986,0.521,3.945,1.83,5.446l8.909,10.224l-8.051,7.016l-8.909-10.224c-1.484-1.703-3.567-2.575-5.662-2.575
			c-1.749,0-3.507,0.608-4.929,1.848l-10.226,8.91l-7.015-8.051l10.225-8.909c3.125-2.723,3.451-7.465,0.728-10.591l-8.909-10.224
			l8.052-7.016l8.909,10.224c2.725,3.127,7.466,3.45,10.591,0.728l10.225-8.909l7.016,8.051L63.812,425.078z"/>
	</g>
</g>
<g>
</g>
<g>
</g>
<g>
</g>
<g>
</g>
<g>
</g>
<g>
</g>
<g>
</g>
<g>
</g>
<g>
</g>
<g>
</g>
<g>
</g>
<g>
</g>
<g>
</g>
<g>
</g>
<g>
</g>
</svg>
