<?xml version="1.0" encoding="iso-8859-1"?>
<!-- Generator: Adobe Illustrator 19.0.0, SVG Export Plug-In . SVG Version: 6.00 Build 0)  -->
<svg version="1.1" id="Capa_1" xmlns="http://www.w3.org/2000/svg" xmlns:xlink="http://www.w3.org/1999/xlink" x="0px" y="0px"
	 viewBox="0 0 511.999 511.999" style="enable-background:new 0 0 511.999 511.999;" xml:space="preserve">
<g>
	<g>
		<path d="M318.908,294.296c4.144,0,7.504-3.36,7.504-7.504v-19.549c0-10.362-8.401-18.763-18.763-18.763h-74.997
			c-10.362,0-18.762,8.4-18.762,18.762v107.28c0,10.362,8.401,18.763,18.763,18.763h74.996c10.362,0,18.763-8.401,18.763-18.763
			v-38.9c0-4.144-3.36-7.504-7.504-7.504c-4.144,0-7.504,3.36-7.504,7.504v38.9c0,2.073-1.681,3.754-3.754,3.754h-74.997
			c-2.073,0-3.753-1.681-3.753-3.753V267.241c0-2.073,1.681-3.753,3.753-3.753h74.997c2.073,0,3.754,1.681,3.754,3.754v19.549
			C311.403,290.936,314.763,294.296,318.908,294.296z"/>
	</g>
</g>
<g>
	<g>
		<path d="M310.241,402.696h-80.178c-7.151,0-12.969,5.818-12.969,12.969v19.673c0,7.151,5.817,12.969,12.969,12.969h80.178
			c7.15,0,12.969-5.818,12.969-12.969v-19.673C323.209,408.514,317.391,402.696,310.241,402.696z M308.2,433.297h-76.098v-15.592
			H308.2V433.297z"/>
	</g>
</g>
<g>
	<g>
		<circle cx="241.16" cy="470.835" r="7.627"/>
	</g>
</g>
<g>
	<g>
		<circle cx="300.425" cy="470.835" r="7.627"/>
	</g>
</g>
<g>
	<g>
		<path d="M268.316,274.932h-25.431c-4.144,0-7.504,3.36-7.504,7.504c0,4.144,3.36,7.504,7.504,7.504h25.431
			c4.145,0,7.504-3.36,7.504-7.504C275.821,278.292,272.462,274.932,268.316,274.932z"/>
	</g>
</g>
<g>
	<g>
		<path d="M300.909,274.932h-12.131c-4.145,0-7.504,3.36-7.504,7.504c0,4.144,3.359,7.504,7.504,7.504h12.131
			c4.145,0,7.504-3.36,7.504-7.504C308.414,278.292,305.055,274.932,300.909,274.932z"/>
	</g>
</g>
<g>
	<g>
		<path d="M300.909,354.842h-25.431c-4.145,0-7.504,3.36-7.504,7.504s3.359,7.504,7.504,7.504h25.431
			c4.145,0,7.504-3.36,7.504-7.504S305.055,354.842,300.909,354.842z"/>
	</g>
</g>
<g>
	<g>
		<path d="M255.016,354.842h-12.131c-4.144,0-7.504,3.36-7.504,7.504s3.36,7.504,7.504,7.504h12.131c4.145,0,7.504-3.36,7.504-7.504
			S259.162,354.842,255.016,354.842z"/>
	</g>
</g>
<g>
	<g>
		<path d="M300.909,301.569h-58.024c-4.144,0-7.504,3.36-7.504,7.504c0,4.144,3.36,7.504,7.504,7.504h58.024
			c4.145,0,7.504-3.36,7.504-7.504C308.414,304.929,305.055,301.569,300.909,301.569z"/>
	</g>
</g>
<g>
	<g>
		<path d="M300.909,328.206h-58.024c-4.144,0-7.504,3.36-7.504,7.504s3.36,7.504,7.504,7.504h58.024c4.145,0,7.504-3.36,7.504-7.504
			S305.055,328.206,300.909,328.206z"/>
	</g>
</g>
<g>
	<g>
		<path d="M335.564,224.179v-14.976c0-4.908-2.397-9.254-6.072-11.967V20.609C329.493,9.245,320.248,0,308.883,0
			c-11.365,0-20.609,9.245-20.609,20.609v176.627c-3.674,2.713-6.072,7.06-6.072,11.967v14.662h-73.853
			c-9.98,0-18.099,7.961-18.099,17.745v18.872c-17.415,3.495-30.575,18.904-30.575,37.333s13.16,33.838,30.575,37.333v14.562h-4.727
			c-9.766,0-17.711,7.946-17.711,17.711v47.873c0,9.766,7.946,17.711,17.711,17.711h4.727v1.43c0,0.294,0.017,0.587,0.052,0.88
			l7.297,61.841c0.999,8.463,8.298,14.844,16.98,14.844h111.421c8.682,0,15.982-6.382,16.98-14.844l7.298-61.841
			c0.034-0.292,0.052-0.585,0.052-0.88V241.61C350.331,232.942,343.956,225.719,335.564,224.179z M190.252,417.996h-4.727
			c-1.49,0-2.703-1.213-2.703-2.703v-47.873c0-1.49,1.213-2.703,2.703-2.703h4.727V417.996z M190.252,319.626
			c-9.047-3.122-15.566-11.717-15.566-21.811c0-10.094,6.519-18.689,15.566-21.811V319.626z M303.284,20.609
			c-0.001-3.088,2.511-5.6,5.599-5.6c3.089,0,5.601,2.512,5.601,5.6v122.098h-11.201V20.609z M303.283,157.717h11.201v36.603
			h-11.201V157.717z M297.211,209.328h23.345v14.536h-23.345V209.328z M335.323,433.994L335.323,433.994l-7.247,61.403
			c-0.105,0.893-1.017,1.594-2.074,1.594H214.581c-1.058,0-1.969-0.7-2.074-1.594l-7.246-61.403V241.61
			c0-1.509,1.386-2.737,3.09-2.737h123.883c1.704,0,3.09,1.228,3.09,2.737V433.994z"/>
	</g>
</g>
<g>
	<g>
		<path d="M110.86,306.943c-27.548,0-49.959-22.411-49.959-49.959c0-27.548,22.411-49.959,49.959-49.959
			c4.144,0,7.504-3.36,7.504-7.504c0-4.144-3.36-7.504-7.504-7.504c-35.824,0-64.968,29.144-64.968,64.968
			c0,35.824,29.144,64.968,64.968,64.968c4.144,0,7.504-3.36,7.504-7.504S115.005,306.943,110.86,306.943z"/>
	</g>
</g>
<g>
	<g>
		<path d="M110.86,277.689c-11.417,0-20.705-9.288-20.705-20.705c0-11.417,9.288-20.705,20.705-20.705
			c4.144,0,7.504-3.36,7.504-7.504c0-4.144-3.36-7.504-7.504-7.504c-19.693,0-35.714,16.021-35.714,35.714
			c0,19.693,16.021,35.714,35.714,35.714c4.144,0,7.504-3.36,7.504-7.504C118.365,281.049,115.005,277.689,110.86,277.689z"/>
	</g>
</g>
<g>
	<g>
		<path d="M142.945,249.479h-12.664c-4.144,0-7.504,3.36-7.504,7.504s3.36,7.504,7.504,7.504h12.664c4.144,0,7.504-3.36,7.504-7.504
			S147.089,249.479,142.945,249.479z"/>
	</g>
</g>
<g>
	<g>
		<path d="M401.139,192.016c-4.145,0-7.504,3.36-7.504,7.504c0,4.144,3.359,7.504,7.504,7.504c27.548,0,49.959,22.411,49.959,49.959
			c0,27.548-22.412,49.959-49.959,49.959c-4.145,0-7.504,3.36-7.504,7.504s3.359,7.504,7.504,7.504
			c35.824,0,64.968-29.144,64.968-64.968C466.107,221.16,436.963,192.016,401.139,192.016z"/>
	</g>
</g>
<g>
	<g>
		<path d="M401.139,221.27c-4.145,0-7.504,3.36-7.504,7.504c0,4.144,3.359,7.504,7.504,7.504c11.417,0,20.705,9.288,20.705,20.705
			c0,11.417-9.288,20.705-20.705,20.705c-4.145,0-7.504,3.36-7.504,7.504c0,4.144,3.359,7.504,7.504,7.504
			c19.693,0,35.714-16.021,35.714-35.714C436.853,237.292,420.832,221.27,401.139,221.27z"/>
	</g>
</g>
<g>
	<g>
		<path d="M381.719,249.479h-12.664c-4.145,0-7.504,3.36-7.504,7.504s3.359,7.504,7.504,7.504h12.664
			c4.145,0,7.504-3.36,7.504-7.504S385.865,249.479,381.719,249.479z"/>
	</g>
</g>
<g>
</g>
<g>
</g>
<g>
</g>
<g>
</g>
<g>
</g>
<g>
</g>
<g>
</g>
<g>
</g>
<g>
</g>
<g>
</g>
<g>
</g>
<g>
</g>
<g>
</g>
<g>
</g>
<g>
</g>
</svg>
