<?xml version="1.0" encoding="iso-8859-1"?>
<!-- Generator: Adobe Illustrator 19.0.0, SVG Export Plug-In . SVG Version: 6.00 Build 0)  -->
<svg version="1.1" id="Capa_1" xmlns="http://www.w3.org/2000/svg" xmlns:xlink="http://www.w3.org/1999/xlink" x="0px" y="0px"
	 viewBox="0 0 511.999 511.999" style="enable-background:new 0 0 511.999 511.999;" xml:space="preserve">
<g>
	<g>
		<path d="M256.5,423.956c-15.774,0-28.607,12.833-28.607,28.607c0,15.774,12.833,28.607,28.607,28.607s28.607-12.833,28.607-28.607
			C285.107,436.789,272.274,423.956,256.5,423.956z M256.5,466.159c-7.496,0-13.594-6.099-13.594-13.594s6.099-13.594,13.594-13.594
			s13.594,6.099,13.594,13.594S263.996,466.159,256.5,466.159z"/>
	</g>
</g>
<g>
	<g>
		<path d="M292.257,299.858h10.476c9.009,0,16.311-7.303,16.311-16.311v-6.907c0.001-9.008-7.302-16.311-16.311-16.311h-7.175
			v-13.929c0-4.079-3.297-7.398-7.376-7.411c-0.064,0-0.127,0-0.191-0.001c-4.107-0.016-7.446,3.304-7.446,7.411v13.93h-49.09
			v-13.195h18.258c4.146,0,7.506-3.361,7.506-7.506V64.203l12.443-12.443l0.165,108.205c0.003,2.031,0.829,3.973,2.288,5.385
			l8.431,8.153v24.427c0,4.197,3.484,7.55,7.678,7.398c0.064-0.002,0.127-0.005,0.191-0.007c3.985-0.143,7.143-3.411,7.143-7.399
			v-27.603c0-2.035-0.826-3.981-2.288-5.396l-8.436-8.158l-0.222-145.673C284.602,4.976,279.617,0,273.502,0h-8.111
			c-26.992,0-48.95,24.546-48.95,54.717V260.33h-7.175c-9.009,0-16.311,7.303-16.311,16.311v6.907
			c0,9.009,7.303,16.311,16.311,16.311h10.476l3.583,15.216v88.195c-16.608,11.213-27.273,30.591-26.186,52.328
			c1.516,30.33,26.13,54.885,56.463,56.333c34.085,1.627,62.334-25.634,62.334-59.368c0-20.923-10.876-39.341-27.263-49.936v-87.553
			L292.257,299.858z M231.454,54.717c0-21.893,15.224-39.704,33.938-39.704h4.214l0.024,15.548l-25.225,25.226
			c-1.408,1.408-2.199,3.317-2.199,5.307v171.029h-10.751V54.717z M300.924,452.563c0,24.496-19.929,44.424-44.424,44.424
			c-24.496,0-44.424-19.929-44.424-44.424c0-24.496,19.929-44.424,44.424-44.424S300.924,428.068,300.924,452.563z M250.841,364.479
			h-12.505v-7.478h12.505c4.145,0,7.506-3.361,7.506-7.506s-3.361-7.506-7.506-7.506h-12.505v-7.477h12.505
			c4.145,0,7.506-3.361,7.506-7.506c0-4.146-3.361-7.506-7.506-7.506h-12.505v-5.295c0-0.58-0.067-1.157-0.2-1.72l-2.972-12.624
			h41.67l-2.972,12.624c-0.133,0.563-0.2,1.142-0.2,1.72v78.923h-35.325v-13.634h12.505c4.145,0,7.506-3.361,7.506-7.506
			S254.987,364.479,250.841,364.479z M209.266,284.846c-0.716,0-1.298-0.582-1.298-1.298v-6.907c0-0.716,0.582-1.298,1.298-1.298
			h93.468c0.716,0,1.298,0.582,1.298,1.298v6.907c0,0.716-0.583,1.298-1.298,1.298H209.266z"/>
	</g>
</g>
<g>
	<g>
		<path d="M269.164,207.892c-4.146,0-7.506,3.361-7.506,7.506v26.089c0,4.145,3.361,7.506,7.506,7.506
			c4.145,0,7.506-3.361,7.506-7.506v-26.089C276.67,211.252,273.309,207.892,269.164,207.892z"/>
	</g>
</g>
<g>
	<g>
		<path d="M269.164,176.188c-4.146,0-7.506,3.361-7.506,7.506v9.247c0,4.145,3.361,7.506,7.506,7.506
			c4.145,0,7.506-3.361,7.506-7.506v-9.247C276.67,179.549,273.309,176.188,269.164,176.188z"/>
	</g>
</g>
<g>
</g>
<g>
</g>
<g>
</g>
<g>
</g>
<g>
</g>
<g>
</g>
<g>
</g>
<g>
</g>
<g>
</g>
<g>
</g>
<g>
</g>
<g>
</g>
<g>
</g>
<g>
</g>
<g>
</g>
</svg>
