<?xml version="1.0" encoding="iso-8859-1"?>
<!-- Generator: Adobe Illustrator 19.0.0, SVG Export Plug-In . SVG Version: 6.00 Build 0)  -->
<svg version="1.1" id="Capa_1" xmlns="http://www.w3.org/2000/svg" xmlns:xlink="http://www.w3.org/1999/xlink" x="0px" y="0px"
	 viewBox="0 0 512.001 512.001" style="enable-background:new 0 0 512.001 512.001;" xml:space="preserve">
<g>
	<g>
		<path d="M333.532,93.881H202.34c-8.261,0-14.982,6.721-14.982,14.982v17.241c0,8.261,6.721,14.982,14.982,14.982h131.192
			c8.261,0,14.982-6.721,14.982-14.982v-17.241C348.514,100.602,341.793,93.881,333.532,93.881z M202.368,126.104l-0.029-17.211
			l131.163-0.029l0.035,17.211L202.368,126.104z"/>
	</g>
</g>
<g>
	<g>
		<path d="M267.937,154.121c-30.01,0-54.424,24.414-54.424,54.424c0,30.01,24.414,54.424,54.424,54.424
			c30.01,0,54.424-24.414,54.424-54.424C322.36,178.535,297.946,154.121,267.937,154.121z M267.936,247.957
			c-21.733,0-39.413-17.68-39.413-39.413s17.68-39.413,39.413-39.413s39.413,17.68,39.413,39.413
			C307.348,230.277,289.668,247.957,267.936,247.957z"/>
	</g>
</g>
<g>
	<g>
		<path d="M327.718,293.708H208.154c-4.145,0-7.505,3.36-7.505,7.505v64.084c0,4.145,3.36,7.505,7.505,7.505h119.564
			c4.145,0,7.505-3.36,7.505-7.505v-64.084C335.224,297.069,331.863,293.708,327.718,293.708z M320.213,357.792H215.66v-49.073
			h104.553V357.792z"/>
	</g>
</g>
<g>
	<g>
		<path d="M377.289,166.417c4.145,0,7.505-3.36,7.505-7.505v-40.793c0-27.554-19.567-50.62-45.535-56.042V17.312
			C339.258,7.751,331.508,0,321.947,0h-84.786C227.6,0,219.85,7.751,219.85,17.312v6.276h-48.806
			c-9.561,0-17.312,7.751-17.312,17.312v19.969h-1.584c-13.775,0-24.941,11.166-24.941,24.941v340.544
			c0,13.774,11.166,24.941,24.941,24.941h1.584v39.577c0,11.669,9.46,21.13,21.13,21.13h77.148c11.67,0,21.13-9.46,21.13-21.13
			v-1.283h44.988c11.669,0,21.13-9.46,21.13-21.13v-18.381c26.215-5.468,45.535-28.887,45.535-56.034V207.748
			c0-4.145-3.36-7.505-7.505-7.505s-7.505,3.36-7.505,7.505v146.768c0,23.329-18.912,42.24-42.24,42.24h-151.96v-120.65
			c0-4.11-3.166-7.694-7.274-7.817c-4.25-0.128-7.737,3.28-7.737,7.502v120.964h-8.423c-5.484,0-9.93-4.446-9.93-9.93V85.808
			c0-5.484,4.446-9.93,9.93-9.93h8.423v169.498c0,4.11,3.166,7.694,7.274,7.817c4.25,0.128,7.737-3.28,7.737-7.502V75.878h151.96
			c23.329,0,42.241,18.912,42.241,42.241v40.793C369.784,163.056,373.144,166.417,377.289,166.417z M258.13,490.871
			c0,3.374-2.745,6.119-6.118,6.119h-77.149c-3.374,0-6.118-2.745-6.118-6.119v-54.144h89.386V490.871z M324.247,468.457
			c0,3.374-2.745,6.118-6.119,6.118h-44.988v-37.85h51.107V468.457z M152.148,411.767h175.394c16.708,0,31.765-7.197,42.241-18.651
			v0.926c0,18.959-12.764,35.459-30.524,40.589v-5.411c0-4.145-3.36-7.505-7.505-7.505H161.237c-4.145,0-7.505,3.36-7.505,7.505
			v7.062h-1.584c-5.476,0-9.93-4.454-9.93-9.93V409.7C145.263,411.027,148.619,411.767,152.148,411.767z M258.13,60.867h-89.387
			V40.899c0-1.269,1.032-2.301,2.301-2.301h84.786c1.269,0,2.301,1.032,2.301,2.301V60.867z M324.248,60.867h-51.107V40.899
			c0-9.546-7.766-17.312-17.312-17.312h-20.968v-6.276c0-1.269,1.032-2.301,2.301-2.301h84.786c1.269,0,2.301,1.032,2.301,2.301
			V60.867z"/>
	</g>
</g>
<g>
</g>
<g>
</g>
<g>
</g>
<g>
</g>
<g>
</g>
<g>
</g>
<g>
</g>
<g>
</g>
<g>
</g>
<g>
</g>
<g>
</g>
<g>
</g>
<g>
</g>
<g>
</g>
<g>
</g>
</svg>
