<?xml version="1.0" encoding="iso-8859-1"?>
<!-- Generator: Adobe Illustrator 19.0.0, SVG Export Plug-In . SVG Version: 6.00 Build 0)  -->
<svg version="1.1" id="Capa_1" xmlns="http://www.w3.org/2000/svg" xmlns:xlink="http://www.w3.org/1999/xlink" x="0px" y="0px"
	 viewBox="0 0 512 512" style="enable-background:new 0 0 512 512;" xml:space="preserve">
<g>
	<g>
		<path d="M321.377,254.585c-2.471-2.442-6.292-2.868-9.238-1.032l-63.724,39.697c-9.164,2.751-16.373,10.051-19.002,19.266
			l-38.93,64.136c-1.802,2.968-1.331,6.785,1.139,9.226c1.444,1.428,3.351,2.166,5.274,2.166c1.366,0,2.74-0.372,3.964-1.134
			l63.722-39.697c9.166-2.751,16.376-10.051,19.004-19.267l38.93-64.135C324.318,260.843,323.847,257.026,321.377,254.585z
			 M219.628,357.546l13.303-21.915c2.195,3.349,5.084,6.201,8.461,8.357L219.628,357.546z M256.5,333.401
			c-7.262,0-13.169-5.908-13.169-13.169s5.907-13.169,13.169-13.169s13.169,5.908,13.169,13.169
			C269.669,327.493,263.762,333.401,256.5,333.401z M280.069,304.833c-2.196-3.349-5.084-6.202-8.461-8.357l21.764-13.558
			L280.069,304.833z"/>
	</g>
</g>
<g>
	<g>
		<path d="M512,476.593c0-4.142-3.357-7.5-7.5-7.5h-6.373v-25.758c0-3.372-2.251-6.33-5.501-7.229l-22.352-6.182v-19.078
			c0-2.035-0.826-3.981-2.29-5.395l-25.962-25.072c-2.18-2.105-5.413-2.693-8.192-1.486l-26.322,11.41
			c6.874-13.768,11.798-28.365,14.673-43.482h67.737c11.979,0,21.726-9.746,21.726-21.725s-9.746-21.725-21.726-21.725h-13.543
			c-0.303-14.587-12.264-26.361-26.922-26.361c-3.289,0-6.507,0.599-9.52,1.742c-4.908-8.675-13.417-15.036-23.356-17.104
			c-18.867-56.731-67.006-100.217-126.427-112.445l-4.621-31.788c-0.536-3.687-3.696-6.421-7.422-6.421h-0.283v-6.071
			c0-0.672-0.046-1.332-0.12-1.984c11.685-7.365,18.949-20.248,18.949-34.381c0-22.417-18.237-40.655-40.654-40.655
			s-40.654,18.238-40.654,40.655c0,13.956,7.316,26.963,18.953,34.351c-0.076,0.662-0.124,1.333-0.124,2.015v6.071h-0.283
			c-3.726,0-6.886,2.734-7.422,6.421l-4.623,31.799c-28.57,5.878-55.296,19.089-77.496,38.604c-1.47-0.25-2.978-0.387-4.518-0.387
			c-3.274,0-6.479,0.593-9.48,1.727c-6.043-10.833-17.528-17.821-30.509-17.821c-19.285,0-34.975,15.689-34.975,34.975
			c0,2.648,0.298,5.267,0.88,7.813c-10.175,1.801-17.929,10.709-17.929,21.394c0,11.979,9.746,21.725,21.726,21.725h27.372
			c-6.696,18.428-10.096,37.776-10.096,57.672c0,26.69,6.265,52.779,18.192,76.339l-5.969-0.959l-8.012-13.952
			c-0.868-1.513-2.237-2.675-3.87-3.288l-15.095-5.661c-3.068-1.15-6.527-0.176-8.544,2.405l-14.396,18.426
			c-2.134-0.7-4.472-0.419-6.372,0.795l-28.302,18.07c-2.158,1.377-3.464,3.761-3.464,6.321v36.5l-3.123,19.182H7.5
			c-4.143,0-7.5,3.358-7.5,7.5c0,4.142,3.357,7.5,7.5,7.5h30.465c0.008,0,0.016,0.002,0.024,0.002s0.017-0.002,0.025-0.002H504.5
			c0.005,0,0,0,0.005,0c0.005-0.002-0.01-0.002-0.005-0.002C508.643,484.093,512,480.735,512,476.593z M428.925,291.404
			c0.6,2.612,2.547,4.707,5.108,5.493c2.565,0.787,5.351,0.146,7.312-1.679c2.223-2.069,5.103-3.208,8.108-3.208
			c6.577,0,11.928,5.351,11.928,11.927c0,1.433-0.27,2.864-0.802,4.253c-0.882,2.306-0.573,4.898,0.826,6.932
			s3.71,3.249,6.179,3.249h22.334c3.708,0,6.726,3.017,6.726,6.725s-3.018,6.725-6.726,6.725h-65.572
			c0.551-5.585,0.831-11.225,0.831-16.906c0-11.962-1.257-23.635-3.629-34.901C425.184,282.791,427.866,286.784,428.925,291.404z
			 M230.346,68.557c0-14.146,11.509-25.655,25.654-25.655s25.654,11.509,25.654,25.655c0,8.874-4.544,16.96-11.852,21.62
			c-2.759-1.798-6.044-2.853-9.575-2.853h-8.453c-3.529,0-6.811,1.054-9.569,2.849C234.919,85.499,230.346,77.324,230.346,68.557z
			 M271.62,125.993l2.87,19.744h-36.98l2.87-19.744H271.62z M249.175,110.993v-6.071c0-1.433,1.166-2.598,2.599-2.598h8.453
			c1.433,0,2.599,1.166,2.599,2.598v6.071H249.175z M256,160.737c85.014,0,154.178,69.164,154.178,154.178
			c0,30.705-8.935,60.108-25.848,85.434l-2.097,0.909l-7.883-14.232c13.243-21.688,20.228-46.518,20.228-72.112
			c0-26.457-7.459-51.202-20.377-72.253c-2.319-3.78-7.593-4.456-10.746-1.338c-0.173,0.171-0.349,0.338-0.528,0.502
			c-2.513,2.293-3.162,5.979-1.389,8.883c10.209,16.717,16.562,36.033,17.806,56.707h-15.917c-4.107,0-7.688,3.164-7.811,7.269
			c-0.128,4.247,3.277,7.731,7.497,7.731h16.236c-1.109,18.455-6.297,36.301-15.227,52.389c-0.578-0.079-1.168-0.11-1.765-0.051
			l-35.088,3.56c-3.037,0.308-5.584,2.426-6.441,5.355l-12.677,43.305c-14.113,6.586-29.091,10.371-44.648,11.292v-15.924
			c0-4.107-3.165-7.688-7.27-7.811c-4.247-0.127-7.73,3.278-7.73,7.497v16.232c-62.179-3.741-112.102-53.664-115.843-115.843h15.917
			c4.107,0,7.688-3.164,7.811-7.269c0.128-4.247-3.277-7.731-7.497-7.731h-16.237c1.068-17.541,5.867-34.701,14.04-50.172h33.133
			c11.603,0,21.521-8.905,22.166-20.489c0.619-11.115-7.171-20.563-17.579-22.566c18.791-13.364,40.981-21.197,64.089-22.599v15.901
			c0,4.107,3.165,7.688,7.27,7.811c4.247,0.127,7.73-3.278,7.73-7.497v-16.232c25.534,1.536,48.997,10.865,68.047,25.628
			c2.641,2.047,6.32,1.855,8.861-0.316c0.186-0.159,0.375-0.314,0.568-0.466c3.534-2.781,3.509-8.163-0.041-10.924
			c-23.475-18.265-52.956-29.156-84.935-29.156c-32.929,0-64.698,11.697-89.721,32.971c-1.037-5.44-3.711-10.306-7.495-14.059
			C186.208,172.951,220.478,160.737,256,160.737z M69.547,242.243c-3.708,0-6.726-3.017-6.726-6.726
			c0-3.708,3.018-6.725,6.726-6.725h7.271c2.752,0,5.283-1.507,6.595-3.927c1.311-2.42,1.191-5.363-0.312-7.669
			c-2.114-3.242-3.231-7.006-3.231-10.885c0-11.014,8.961-19.975,19.975-19.975c9.368,0,17.371,6.369,19.461,15.488
			c0.599,2.612,2.547,4.707,5.108,5.494c2.564,0.789,5.35,0.146,7.312-1.679c2.223-2.069,5.103-3.208,8.108-3.208
			c6.577,0,11.928,5.351,11.928,11.927c0,1.433-0.27,2.864-0.802,4.253c-0.882,2.306-0.573,4.898,0.826,6.932
			s3.71,3.249,6.179,3.249h22.334c3.708,0,6.726,3.017,6.726,6.726c0,3.708-3.018,6.725-6.726,6.725c-0.025,0,0,0-0.025,0H69.547z
			 M71.955,383.373l7.414,2.78l4.47,7.785l-8.123,4.004l-11.776-4.31L71.955,383.373z M32.592,469.093h-9.526l2.828-17.371
			c0.065-0.398,0.098-0.801,0.098-1.205V417.52L47.7,403.66l1.319,0.483c0.013,0.005,0.027,0.01,0.04,0.015l8.06,2.95l-1.692,0.834
			c-1.794,0.884-3.16,2.448-3.796,4.344L32.592,469.093z M48.412,469.093l16.449-49.079l30.632-15.098l35.247,5.666l10.843,46.664
			c0.293,1.258,0.904,2.418,1.776,3.37l7.769,8.477H48.412z M171.476,469.093l-15.728-17.16l-0.203-0.875
			c9.616,7.121,19.895,13.149,30.674,18.035H171.476z M286.743,466.02c-10.056,2.034-20.392,3.073-30.743,3.073
			c-39.748,0-77.335-15.021-106.1-42.328l-5.689-24.486c-0.69-2.968-3.106-5.224-6.115-5.708l-14.282-2.296
			c-14.385-23.911-21.991-51.269-21.991-79.361c0-19.989,3.756-39.365,11.154-57.672h17.009
			c-8.233,18.003-12.562,37.728-12.562,57.672c0,76.412,62.165,138.577,138.577,138.577c14.509,0,28.616-2.189,42.144-6.515
			L286.743,466.02z M399.916,460.564c-0.182,0.654-0.273,1.329-0.273,2.007v6.522h-97.257l17.237-28.792
			c0.328-0.547,0.584-1.133,0.764-1.745l13.416-45.83l25.145-2.551l0.083,0.15c0.001,0.002,0.002,0.004,0.003,0.006l13.382,24.161
			c0.008,0.015,0.017,0.03,0.025,0.045l8.076,14.58c0.671,1.212,1.664,2.214,2.87,2.896l21.142,11.949L399.916,460.564z
			 M448.147,469.094h-33.505v-5.5l5.908-21.268c0.922-3.32-0.536-6.841-3.536-8.537l-24.403-13.792l-2.082-3.759
			c1.007-0.522,3.37-3.32,3.744-3.851l40.929-17.741l20.071,19.384v34.309h0.001L448.147,469.094z M483.128,469.093h-0.001h-19.119
			l5.861-17.067c0.269-0.784,0.406-1.607,0.406-2.436v-4.103l12.853,3.555V469.093z"/>
	</g>
</g>
<g>
</g>
<g>
</g>
<g>
</g>
<g>
</g>
<g>
</g>
<g>
</g>
<g>
</g>
<g>
</g>
<g>
</g>
<g>
</g>
<g>
</g>
<g>
</g>
<g>
</g>
<g>
</g>
<g>
</g>
</svg>
