<?xml version="1.0" encoding="iso-8859-1"?>
<!-- Generator: Adobe Illustrator 19.0.0, SVG Export Plug-In . SVG Version: 6.00 Build 0)  -->
<svg version="1.1" id="Capa_1" xmlns="http://www.w3.org/2000/svg" xmlns:xlink="http://www.w3.org/1999/xlink" x="0px" y="0px"
	 viewBox="0 0 512.002 512.002" style="enable-background:new 0 0 512.002 512.002;" xml:space="preserve">
<g>
	<g>
		<path d="M505.949,59.446L381.7,34.924c-0.07-0.014-0.14-0.018-0.21-0.029c-0.14-0.024-0.281-0.043-0.422-0.059
			c-0.134-0.015-0.268-0.026-0.402-0.033c-0.14-0.008-0.28-0.012-0.42-0.012c-0.136,0-0.272,0.004-0.408,0.011
			c-0.138,0.008-0.276,0.019-0.414,0.034c-0.138,0.015-0.274,0.035-0.411,0.057c-0.072,0.012-0.144,0.016-0.216,0.03L256,59.159
			L133.205,34.924c-0.069-0.014-0.139-0.018-0.208-0.029c-0.141-0.024-0.283-0.044-0.425-0.059c-0.134-0.015-0.267-0.025-0.4-0.033
			c-0.14-0.008-0.28-0.012-0.421-0.012c-0.137,0-0.273,0.004-0.409,0.011c-0.138,0.008-0.275,0.019-0.412,0.034
			c-0.139,0.015-0.276,0.035-0.413,0.058c-0.071,0.012-0.143,0.016-0.215,0.03L6.051,59.446C2.534,60.139,0,63.224,0,66.808V397.38
			c0,2.245,1.006,4.372,2.739,5.797c1.355,1.113,3.042,1.707,4.766,1.707c0.483,0,0.971-0.047,1.453-0.142l122.795-24.235
			l122.795,24.235c0.038,0.007,0.076,0.01,0.114,0.017c0.056,0.01,0.111,0.016,0.167,0.025c0.39,0.062,0.781,0.101,1.172,0.101
			c0.39,0,0.781-0.039,1.173-0.101c0.055-0.009,0.111-0.014,0.166-0.024c0.038-0.007,0.077-0.009,0.115-0.017l20.2-3.986
			c13.199,44.166,54.195,76.454,102.595,76.454c48.4,0,89.395-32.288,102.595-76.454l20.2,3.986c0.482,0.095,0.97,0.142,1.453,0.142
			c1.723,0,3.411-0.594,4.766-1.707c1.733-1.425,2.739-3.552,2.739-5.797V66.808C512,63.224,509.466,60.139,505.949,59.446z
			 M124.248,366.69l-109.24,21.56v-22.84l109.24-16.897V366.69z M76.412,340.726l-3.933-35.769l19.134-18.317l18.076-10.784
			c0.733-0.438,1.388-0.998,1.933-1.655l12.625-15.23v74.356h0.001L76.412,340.726z M124.248,235.452l-23.356,28.175l-17.698,10.558
			c-0.484,0.29-0.937,0.633-1.345,1.024l-22.423,21.466c-1.686,1.614-2.524,3.92-2.27,6.241l4.409,40.106l-46.557,7.202V217.57
			l109.24-26.975V235.452z M124.248,175.136L15.06,202.098v-13.407l109.189-26.962V175.136z M124.248,146.271l-109.24,26.974
			v-67.174l109.24-21.62V146.271z M124.248,69.151l-109.24,21.62V72.976l109.24-21.56V69.151z M139.257,248.383l39.769,12.498
			l-2.554,43.963c-0.121,2.092,0.637,4.14,2.093,5.648l17.953,18.595l-3.648,12.533l-53.613-8.293V248.383z M248.496,388.25
			l-109.24-21.559v-18.176l109.24,16.897V388.25z M248.496,350.224l-40.668-6.291l4.317-14.83c0.752-2.584,0.063-5.374-1.807-7.31
			l-18.694-19.361l2.703-46.521c0.199-3.434-1.961-6.564-5.242-7.594l-49.849-15.665v-42.037l109.24,27.207V350.224z
			 M139.787,175.279v-13.398l107.935,26.883v13.399L139.787,175.279z M248.496,173.49l-109.24-27.208V84.451l109.24,21.62V173.49z
			 M248.496,90.771l-109.24-21.62V51.416l109.24,21.56V90.771z M263.505,72.976l109.24-21.56v22.839l-109.24,16.898V72.976z
			 M263.505,388.25v-22.84l9.873-1.527c-0.12,2.074-0.188,4.163-0.188,6.268c0,5.421,0.408,10.747,1.19,15.954L263.505,388.25z
			 M380.248,462.201c-50.758,0-92.051-41.294-92.051-92.051s41.294-92.051,92.051-92.051s92.051,41.294,92.051,92.051
			C472.299,420.908,431.005,462.201,380.248,462.201z M366.527,232.851v-8.778h27.441v8.778H366.527z M386.729,247.86v15.232
			h-12.962V247.86H386.729z M401.737,265.26v-19.075c4.308-2.346,7.239-6.917,7.239-12.158v-11.126
			c0-7.641-6.194-13.835-13.835-13.835h-7.39v-40.168c0-4.144-3.36-7.504-7.504-7.504s-7.504,3.36-7.504,7.504v40.168h-7.39
			c-7.641,0-13.835,6.194-13.835,13.835v11.126c0,5.242,2.931,9.812,7.239,12.158v19.075c-41.732,8.537-74.696,41.43-83.343,83.122
			l-11.912,1.842V106.339l109.24-16.897v30.625c0,4.144,3.36,7.504,7.504,7.504s7.504-3.36,7.504-7.504V89.442l109.24,16.897
			v243.884l-11.91-1.842C476.434,306.69,443.468,273.797,401.737,265.26z M496.992,388.25l-10.874-2.146
			c0.781-5.206,1.19-10.533,1.19-15.954c0-2.104-0.068-4.192-0.188-6.267l9.873,1.527V388.25z M496.992,91.152l-109.24-16.898
			V51.416l109.24,21.56V91.152z"/>
	</g>
</g>
<g>
	<g>
		<path d="M380.248,289.981c-44.206,0-80.169,35.963-80.169,80.169c0,44.206,35.963,80.17,80.169,80.17
			c44.206,0,80.17-35.964,80.17-80.17C460.418,325.944,424.454,289.981,380.248,289.981z M380.248,435.312
			c-35.929,0-65.161-29.232-65.161-65.162s29.232-65.161,65.161-65.161c35.93,0,65.162,29.23,65.162,65.161
			S416.178,435.312,380.248,435.312z"/>
	</g>
</g>
<g>
	<g>
		<path d="M413.459,336.922c-1.903-1.897-4.678-2.63-7.267-1.926l-46.751,12.712c-2.719,0.739-4.794,2.939-5.374,5.695
			l-9.075,43.114c-0.531,2.522,0.27,5.141,2.121,6.935c1.416,1.373,3.295,2.115,5.222,2.115c0.592,0,1.189-0.07,1.776-0.213
			l43.671-10.639c2.662-0.648,4.759-2.697,5.47-5.342l12.155-45.188C416.105,341.59,415.362,338.82,413.459,336.922z
			 M389.913,381.186l-27.783,6.768l5.677-26.967l29.712-8.08L389.913,381.186z"/>
	</g>
</g>
<g>
	<g>
		<path d="M318.124,144.512c-14.899,0-27.02,12.121-27.02,27.02c0,12.295,8.258,22.691,19.516,25.952v22.35
			c0,4.144,3.359,7.504,7.504,7.504c4.145,0,7.504-3.36,7.504-7.504v-22.35c11.258-3.261,19.516-13.657,19.516-25.952
			C345.144,156.632,333.023,144.512,318.124,144.512z M318.124,183.544c-6.623,0-12.012-5.388-12.012-12.012
			c0-6.624,5.389-12.012,12.012-12.012c6.623,0,12.012,5.388,12.012,12.012C330.135,178.156,324.747,183.544,318.124,183.544z"/>
	</g>
</g>
<g>
	<g>
		<path d="M478.463,241.911l-4.491-3.685l4.533-3.636c3.232-2.593,3.751-7.316,1.158-10.549s-7.316-3.752-10.55-1.158l-6.996,5.612
			l-6.933-5.69c-3.201-2.628-7.93-2.164-10.562,1.04c-2.63,3.204-2.163,7.932,1.041,10.562l4.492,3.686l-4.533,3.636
			c-3.232,2.593-3.751,7.316-1.158,10.549c1.482,1.848,3.66,2.81,5.858,2.81c1.647,0,3.306-0.54,4.691-1.651l6.996-5.612l6.933,5.69
			c1.396,1.146,3.081,1.704,4.757,1.704c2.169,0,4.32-0.935,5.805-2.744C482.133,249.269,481.668,244.54,478.463,241.911z"/>
	</g>
</g>
<g>
</g>
<g>
</g>
<g>
</g>
<g>
</g>
<g>
</g>
<g>
</g>
<g>
</g>
<g>
</g>
<g>
</g>
<g>
</g>
<g>
</g>
<g>
</g>
<g>
</g>
<g>
</g>
<g>
</g>
</svg>
