<?xml version="1.0" encoding="iso-8859-1"?>
<!-- Generator: Adobe Illustrator 19.0.0, SVG Export Plug-In . SVG Version: 6.00 Build 0)  -->
<svg version="1.1" id="Capa_1" xmlns="http://www.w3.org/2000/svg" xmlns:xlink="http://www.w3.org/1999/xlink" x="0px" y="0px"
	 viewBox="0 0 511.996 511.996" style="enable-background:new 0 0 511.996 511.996;" xml:space="preserve">
<g>
	<g>
		<path d="M497.919,164.3h-6.543v-17.238c0-4.131-3.349-7.481-7.481-7.481h-33.761c-3.233,0-6.099,2.077-7.108,5.148l-6.421,19.57
			h-261.81c-1.654,0-3.26,0.548-4.569,1.557l-3.425,2.64c-4.924,3.798-11.061,5.89-17.281,5.89c-6.243,0-12.398-2.106-17.333-5.929
			l-3.618-2.804c-1.311-1.016-2.922-1.567-4.581-1.567H18.522C8.293,164.088,0,172.38,0,182.61v57.848
			c0,5.096,1.9,10.079,5.546,13.64c3.543,3.46,8.178,5.307,12.95,5.307c1.264,0,2.537-0.13,3.802-0.393l27.967-5.822
			c3.47-0.722,5.957-3.78,5.957-7.324c0-4.745-4.361-8.291-9.006-7.324l-27.967,5.822c-1.445,0.304-2.482-0.324-2.972-0.723
			c-0.491-0.399-1.314-1.289-1.314-2.763V182.61c0-1.967,1.594-3.561,3.561-3.561h102.905l1.595,1.236
			c7.544,5.845,16.954,9.064,26.497,9.064c9.507,0,18.89-3.198,26.418-9.004l1.405-1.083h11.03v19.646h-44.318
			c-2.462,0-4.766,1.211-6.161,3.239l-14.079,20.45l-27.924,5.813c-3.47,0.722-5.957,3.78-5.957,7.324
			c0,4.745,4.361,8.291,9.006,7.324l30.86-6.424c1.885-0.392,3.546-1.496,4.637-3.082l13.549-19.682h9.071v13.406
			c0,9.686,7.852,17.538,17.538,17.538h36.124c9.686,0,17.538-7.852,17.538-17.538v-13.406h18.672v10.446
			c0,9.253,7.501,16.754,16.754,16.754h59.204c1.879,6.757,8.07,11.736,15.417,11.736h44.127c5.906,0,11.061-3.222,13.837-7.991
			h21.678c8.329,0,15.079-6.752,15.079-15.079v-4.893c0-8.328-6.751-15.079-15.079-15.079h-19.502v-3.373
			c0-0.557-0.065-1.096-0.181-1.618h99.652c7.777,0,14.081-6.304,14.081-14.081v-12.308C512,170.604,505.696,164.3,497.919,164.3z
			 M213.297,227.276c0,1.42-1.156,2.576-2.576,2.576h-36.124c-1.42,0-2.576-1.156-2.576-2.576v-13.406h41.276V227.276z
			 M220.451,198.908h-17.118v-19.646h17.118V198.908z M398.448,224.723h19.502c0.065,0,0.118,0.053,0.118,0.118v4.894
			c0,0.064-0.053,0.117-0.118,0.117h-19.502V224.723z M455.554,154.542h20.861v9.757h-24.063L455.554,154.542z M322.29,226.108
			h-58.607c-0.988,0-1.793-0.805-1.793-1.793v-10.445h60.4V226.108z M383.487,236.789c0,0.581-0.473,1.053-1.053,1.053h-44.127
			c-0.581,0-1.054-0.473-1.054-1.053v-22.92h46.235V236.789z M355.785,189.809c-2.597,0-5.009,1.348-6.372,3.56l-3.408,5.539
			H235.413v-19.646h261.626v10.548H355.785z"/>
	</g>
</g>
<g>
	<g>
		<path d="M99.35,306.799c-4.389-5.927-11.135-9.324-18.509-9.324c-7.374,0-14.121,3.398-18.509,9.324
			c-4.122,5.565-6.393,12.443-6.393,19.367v38.766c0,4.131,3.349,7.481,7.481,7.481h34.842c4.131,0,7.481-3.349,7.481-7.481v-38.766
			C105.742,319.241,103.472,312.363,99.35,306.799z M74.353,315.703c1.538-2.077,3.903-3.268,6.486-3.268
			c2.584,0,4.949,1.191,6.488,3.268c1.732,2.338,2.849,5.106,3.264,7.98H71.09C71.505,320.81,72.622,318.041,74.353,315.703z
			 M90.782,357.452h-0.001h-19.88v-18.805h19.881V357.452z"/>
	</g>
</g>
<g>
	<g>
		<path d="M169.773,306.799c-4.388-5.926-11.135-9.324-18.509-9.324s-14.121,3.398-18.51,9.324
			c-4.121,5.565-6.391,12.443-6.391,19.367v38.766c0,4.131,3.349,7.481,7.481,7.481h34.841c4.131,0,7.481-3.349,7.481-7.481v-38.766
			C176.164,319.242,173.895,312.364,169.773,306.799z M144.776,315.704c1.538-2.077,3.904-3.268,6.487-3.268
			c2.584,0,4.949,1.191,6.487,3.268c1.732,2.338,2.849,5.107,3.264,7.98h-19.503C141.928,320.81,143.045,318.041,144.776,315.704z
			 M161.204,357.452h-19.88v-18.805h19.88V357.452z"/>
	</g>
</g>
<g>
	<g>
		<path d="M240.197,306.799c-4.389-5.926-11.135-9.324-18.509-9.324c-7.374,0-14.121,3.398-18.51,9.324
			c-4.122,5.565-6.393,12.443-6.393,19.367v38.766c0,4.131,3.349,7.481,7.481,7.481h34.842c4.131,0,7.481-3.349,7.481-7.481v-38.766
			C246.589,319.241,244.319,312.363,240.197,306.799z M215.2,315.704c1.538-2.077,3.904-3.268,6.488-3.268s4.948,1.191,6.487,3.268
			c1.732,2.338,2.849,5.106,3.264,7.98h-19.503C212.352,320.81,213.468,318.041,215.2,315.704z M231.628,357.452L231.628,357.452
			h-19.881v-18.805h19.881V357.452z"/>
	</g>
</g>
<g>
	<g>
		<path d="M310.622,306.8c-4.39-5.927-11.135-9.325-18.509-9.325c-7.375,0-14.122,3.398-18.512,9.325
			c-4.121,5.566-6.391,12.443-6.391,19.367v38.766c0,4.131,3.348,7.481,7.481,7.481h34.842c4.132,0,7.481-3.349,7.481-7.481v-38.766
			C317.013,319.243,314.743,312.365,310.622,306.8z M285.623,315.704c1.539-2.077,3.904-3.268,6.488-3.268s4.949,1.191,6.487,3.268
			c1.732,2.338,2.849,5.106,3.265,7.98H282.36C282.775,320.81,283.893,318.042,285.623,315.704z M302.052,357.452h-19.881v-18.805
			h19.881V357.452z"/>
	</g>
</g>
<g>
	<g>
		<path d="M381.045,306.799c-4.39-5.926-11.136-9.324-18.51-9.324c-7.374,0-14.12,3.398-18.509,9.324
			c-4.122,5.564-6.391,12.442-6.391,19.367v38.766c0,4.131,3.348,7.481,7.481,7.481h34.842c4.132,0,7.481-3.349,7.481-7.481v-38.766
			C387.437,319.242,385.167,312.364,381.045,306.799z M356.047,315.704c1.539-2.077,3.903-3.268,6.487-3.268
			c2.585,0,4.949,1.191,6.488,3.268c1.732,2.338,2.849,5.106,3.265,7.98h-19.503C353.199,320.81,354.316,318.042,356.047,315.704z
			 M372.476,357.452h-19.881v-18.805h19.881V357.452z"/>
	</g>
</g>
<g>
	<g>
		<path d="M451.468,306.799c-4.39-5.926-11.135-9.324-18.51-9.324c-7.374,0-14.12,3.398-18.509,9.324
			c-4.122,5.564-6.391,12.442-6.391,19.367v38.766c0,4.131,3.348,7.481,7.481,7.481h34.841c4.132,0,7.481-3.349,7.481-7.481v-38.766
			C457.86,319.241,455.591,312.363,451.468,306.799z M426.471,315.704c1.539-2.077,3.903-3.268,6.487-3.268
			c2.585,0,4.949,1.191,6.488,3.268c1.732,2.338,2.848,5.106,3.264,7.98h-19.502C423.623,320.81,424.74,318.042,426.471,315.704z
			 M442.898,357.452h-19.88v-18.805h19.88V357.452z"/>
	</g>
</g>
<g>
</g>
<g>
</g>
<g>
</g>
<g>
</g>
<g>
</g>
<g>
</g>
<g>
</g>
<g>
</g>
<g>
</g>
<g>
</g>
<g>
</g>
<g>
</g>
<g>
</g>
<g>
</g>
<g>
</g>
</svg>
