<?xml version="1.0" encoding="iso-8859-1"?>
<!-- Generator: Adobe Illustrator 19.0.0, SVG Export Plug-In . SVG Version: 6.00 Build 0)  -->
<svg version="1.1" id="Capa_1" xmlns="http://www.w3.org/2000/svg" xmlns:xlink="http://www.w3.org/1999/xlink" x="0px" y="0px"
	 viewBox="0 0 511.999 511.999" style="enable-background:new 0 0 511.999 511.999;" xml:space="preserve">
<g>
	<g>
		<path d="M159.426,195.232h-15.085c-12.009,0-21.778,9.769-21.778,21.778v21.477c0,12.009,9.769,21.778,21.778,21.778h15.085
			c12.009,0,21.778-9.769,21.778-21.778V217.01C181.204,205.002,171.434,195.232,159.426,195.232z M166.183,238.487
			c0,3.726-3.031,6.757-6.757,6.757h-15.085c-3.726,0-6.757-3.031-6.757-6.757V217.01c0-3.726,3.031-6.757,6.757-6.757h15.085
			c3.726,0,6.757,3.031,6.757,6.757V238.487z"/>
	</g>
</g>
<g>
	<g>
		<path d="M316.46,195.232h-15.085c-12.009,0-21.778,9.769-21.778,21.778v21.477c0,12.009,9.769,21.778,21.778,21.778h15.085
			c12.009,0,21.778-9.769,21.778-21.778V217.01C338.238,205.002,328.469,195.232,316.46,195.232z M323.218,238.487
			c0,3.726-3.031,6.757-6.757,6.757h-15.085c-3.726,0-6.757-3.031-6.757-6.757V217.01c0-3.726,3.031-6.757,6.757-6.757h15.085
			c3.726,0,6.757,3.031,6.757,6.757V238.487z"/>
	</g>
</g>
<g>
	<g>
		<path d="M504.49,313.695h-25.056v-7.939c9.182-3.133,15.806-11.839,15.806-22.068c0-12.857-10.459-23.316-23.316-23.316
			c-12.857,0-23.316,10.459-23.316,23.316c0,10.229,6.624,18.934,15.806,22.068v7.939h-41.527
			c-3.262-3.414-7.847-5.553-12.931-5.553h-9.092v-36.511h3.855c10.947,0,19.853-8.906,19.853-19.853v-44.05
			c0-10.948-8.906-19.854-19.853-19.854h-3.855v-21.309c0-18.598-15.13-33.728-33.728-33.728h-7.773l-3.073-14.862
			c-1.753-8.481-9.722-14.636-18.948-14.636h-46.931c-9.225,0-17.194,6.154-18.948,14.636l-3.073,14.862H163.079l-3.073-14.862
			c-1.754-8.481-9.723-14.636-18.948-14.636H94.127c-9.226,0-17.195,6.155-18.948,14.636l-3.073,14.862H57.353
			c-18.598,0-33.728,15.13-33.728,33.728v25.725h-1.848C9.769,192.289,0,202.059,0,214.067v54.966
			c0,12.009,9.769,21.778,21.778,21.778h1.848v17.513c-8.735,1.183-15.495,8.67-15.495,17.723v12.912
			c0,9.873,8.032,17.906,17.905,17.906h28.234c-1.384,4.049-2.115,8.324-2.115,12.655c0,21.583,17.558,39.141,39.141,39.141
			s39.141-17.558,39.141-39.141c0-4.366-0.714-8.624-2.091-12.655H307.67c-1.384,4.049-2.115,8.324-2.115,12.655
			c0,21.583,17.559,39.141,39.141,39.141c21.582,0,39.141-17.558,39.141-39.141c0-4.362-0.716-8.621-2.094-12.655h28.212
			c4.124,0,7.916-1.415,10.946-3.767h43.511v40.543h-22.094c-4.148,0-7.51,3.363-7.51,7.51s3.363,7.51,7.51,7.51h54.849
			c4.148,0,7.51-3.363,7.51-7.51s-3.363-7.51-7.51-7.51h-17.733v-40.543h25.056c4.148,0,7.51-3.363,7.51-7.51v-24.382
			C512,317.057,508.638,313.695,504.49,313.695z M404.72,202.894c2.665,0,4.833,2.168,4.833,4.834v44.05
			c0,2.665-2.168,4.833-4.833,4.833h-28.998c-2.665,0-4.833-2.168-4.833-4.833v-44.05c0-2.666,2.168-4.834,4.833-4.834H404.72z
			 M286.175,121.016c0.27-1.306,1.93-2.658,4.238-2.658h46.931c2.309,0,3.969,1.351,4.238,2.657l2.444,11.821H283.73
			L286.175,121.016z M89.889,121.015c0.27-1.306,1.929-2.657,4.238-2.657h46.93c2.309,0,3.968,1.352,4.239,2.657l2.444,11.821
			H87.445L89.889,121.015z M21.778,275.789c-3.726,0-6.757-3.031-6.757-6.757v-54.966c0-3.726,3.031-6.757,6.757-6.757h44.294
			c3.726,0,6.757,3.031,6.757,6.757v54.966c0,3.726-3.031,6.757-6.757,6.757H21.778z M91.295,393.64
			c-13.3,0-24.12-10.82-24.12-24.12c0-4.487,1.278-8.871,3.611-12.655h41.047c2.348,3.794,3.583,8.13,3.583,12.655
			C115.415,382.82,104.595,393.64,91.295,393.64z M344.697,393.64c-13.3,0-24.12-10.82-24.12-24.12
			c0-4.488,1.278-8.871,3.611-12.655h41.042c2.349,3.796,3.588,8.135,3.588,12.655C368.818,382.82,357.997,393.64,344.697,393.64z
			 M412.842,338.958h-0.002c0,1.593-1.292,2.885-2.885,2.885H26.036c-1.593,0-2.884-1.292-2.884-2.884v-12.913
			c0-1.593,1.292-2.884,2.884-2.884h99.373c4.241,0,7.672-3.451,7.647-7.692c0-0.076-0.001-0.152-0.001-0.228
			c-0.024-4.206-3.441-7.602-7.647-7.602H38.646V290.81h27.426c12.028,0,21.778-9.75,21.778-21.778v-54.966
			c0-12.028-9.75-21.778-21.778-21.778H38.646v-16.331h229.613c4.113,0,7.699-3.168,7.822-7.279
			c0.128-4.253-3.283-7.742-7.507-7.742H39.514c2.394-7.573,9.484-13.081,17.839-13.081h309.784c8.356,0,15.445,5.508,17.839,13.081
			h-82.439c-4.113,0-7.699,3.168-7.822,7.279c-0.128,4.253,3.283,7.742,7.507,7.742h83.622v11.914h-10.122
			c-10.965,0-19.853,8.888-19.853,19.853v44.05c0,10.965,8.888,19.853,19.853,19.853h10.122v36.011h-114.76v-94.22
			c0-10.046-8.143-18.189-18.189-18.189h-41.424c-10.046,0-18.189,8.143-18.189,18.189v94.22h-18.797
			c-4.208,0-7.626,3.4-7.647,7.607c0,0.076-0.001,0.152-0.001,0.228c-0.021,4.238,3.408,7.686,7.647,7.686h235.473
			c1.593,0,2.885,1.292,2.885,2.885V338.958z M256.064,213.421v94.22h-47.762v-94.22c0-1.747,1.421-3.168,3.168-3.168h41.425
			C254.643,210.253,256.064,211.675,256.064,213.421z M463.628,283.688c0-4.574,3.721-8.295,8.295-8.295
			c4.574,0,8.295,3.721,8.295,8.295c0,4.574-3.721,8.295-8.295,8.295C467.349,291.984,463.628,288.263,463.628,283.688z
			 M496.979,338.077h-69.118v-9.361h69.118V338.077z"/>
	</g>
</g>
<g>
</g>
<g>
</g>
<g>
</g>
<g>
</g>
<g>
</g>
<g>
</g>
<g>
</g>
<g>
</g>
<g>
</g>
<g>
</g>
<g>
</g>
<g>
</g>
<g>
</g>
<g>
</g>
<g>
</g>
</svg>
