<?xml version="1.0" encoding="iso-8859-1"?>
<!-- Generator: Adobe Illustrator 19.0.0, SVG Export Plug-In . SVG Version: 6.00 Build 0)  -->
<svg version="1.1" id="Capa_1" xmlns="http://www.w3.org/2000/svg" xmlns:xlink="http://www.w3.org/1999/xlink" x="0px" y="0px"
	 viewBox="0 0 512.001 512.001" style="enable-background:new 0 0 512.001 512.001;" xml:space="preserve">
<g>
	<g>
		<path d="M203.5,167.496h-39c-3.106,0-5.891,1.915-7.003,4.815l-17.743,46.285c-2.075,5.413-1.353,11.496,1.932,16.272
			c3.284,4.777,8.706,7.628,14.502,7.628H203.5c4.142,0,7.5-3.358,7.5-7.5v-60C211,170.854,207.643,167.496,203.5,167.496z
			 M196,227.496h-39.812c-1.19,0-1.853-0.706-2.142-1.127c-0.29-0.42-0.712-1.292-0.286-2.403l15.897-41.47H196V227.496z"/>
	</g>
</g>
<g>
	<g>
		<path d="M115.992,289.349c-14.418,0-26.147,11.729-26.147,26.147c0,14.418,11.729,26.147,26.147,26.147
			c14.418,0,26.147-11.729,26.147-26.147C142.138,301.078,130.409,289.349,115.992,289.349z M115.992,326.644
			c-6.146,0-11.147-5.001-11.147-11.147s5.001-11.147,11.147-11.147c6.146,0,11.147,5.001,11.147,11.147
			S122.138,326.644,115.992,326.644z"/>
	</g>
</g>
<g>
	<g>
		<path d="M388.992,289.349c-14.418,0-26.147,11.729-26.147,26.147c0,14.418,11.729,26.147,26.147,26.147
			c14.418,0,26.147-11.729,26.147-26.147C415.138,301.078,403.409,289.349,388.992,289.349z M388.992,326.644
			c-6.146,0-11.147-5.001-11.147-11.147s5.001-11.147,11.147-11.147s11.147,5.001,11.147,11.147S395.138,326.644,388.992,326.644z"
			/>
	</g>
</g>
<g>
	<g>
		<path d="M496.354,336.497L496.354,336.497c8.641-0.001,15.646-7.006,15.646-15.647v-10.708c0-6.249-3.691-11.639-9-14.144v-56.872
			c0-7.528-6.103-13.631-13.631-13.631h-49.909c-4.142,0-7.5,3.358-7.5,7.5c0,4.142,3.358,7.5,7.5,7.5H488v8.385h-13.603
			c-6.711,0-12.151,5.44-12.151,12.151v14.849c0,6.711,5.44,12.151,12.151,12.151H488v6.463h-48.008
			c-0.077-2.956-0.706-5.776-1.777-8.368h7.255c4.107,0,7.688-3.164,7.811-7.269c0.128-4.247-3.278-7.731-7.497-7.731H332.513
			c-4.107,0-7.688,3.164-7.811,7.269c-0.128,4.247,3.278,7.731,7.497,7.731h6.589c-1.071,2.592-1.7,5.412-1.777,8.368H281v-54
			h109.659c4.142,0,7.5-3.358,7.5-7.5c0-4.142-3.358-7.5-7.5-7.5h-36.373v-12.411c0-3.649-1.246-7.189-3.531-10.034l-17.643-21.96
			c-3.041-3.785-7.634-5.986-12.489-5.986H281v-2.061c0-15.214-12.333-27.547-27.547-27.547h-88.753
			c-13.36,0-25.58,8.37-30.407,20.827l-22.93,59.173H46.857C28.711,225.496,14,240.207,14,258.354v36.223
			c-7.852,0.799-14,7.475-14,15.566v10.708c0,8.627,6.991,15.646,15.583,15.646h53.002c2.574,5.619,6.15,10.695,10.495,15.009H7.815
			c-4.107,0-7.688,3.164-7.811,7.269c-0.128,4.247,3.278,7.731,7.497,7.731h291.915c4.107,0,7.688-3.164,7.811-7.269
			c0.128-4.247-3.278-7.731-7.497-7.731h-51.7c4.903-2.592,8.256-7.739,8.256-13.66v-1.349h85.3
			c2.574,5.619,6.15,10.695,10.495,15.009h-19.568c-4.107,0-7.688,3.164-7.811,7.269c-0.128,4.247,3.278,7.731,7.497,7.731h171.988
			c4.107,0,7.688-3.164,7.811-7.269c0.128-4.247-3.278-7.731-7.497-7.731h-79.58c4.345-4.314,7.92-9.39,10.495-15.009H496.354z
			 M477.247,273.033v-9.152H488v9.152H477.247z M440,309.496h56.354c0.356,0,0.646,0.29,0.646,0.646v10.708
			c0,0.356-0.29,0.646-0.646,0.646H440V309.496z M281,190.105h39.622c0.311,0,0.601,0.139,0.796,0.381l17.643,21.96
			c0.145,0.181,0.225,0.407,0.225,0.639v12.411H281V190.105z M29,266.908h11.769v8.799H29V266.908z M64,321.496H15.584
			c-0.322,0-0.583-0.29-0.583-0.646v-10.708c0-0.356,0.262-0.646,0.583-0.646H64V321.496z M65.428,286.128h0.358
			c-1.071,2.592-1.7,5.412-1.777,8.368H29v-3.789h15.354c6.294,0,11.414-5.12,11.414-11.414v-15.97
			c0-6.294-5.12-11.415-11.414-11.415H30.224c2.593-6.667,9.063-11.412,16.635-11.412H116.5c3.096,0,5.875-1.903,6.993-4.79
			l24.786-63.963c2.607-6.728,9.206-11.247,16.42-11.247h88.753c4.925,0,9.185,2.86,11.237,7h-19.486
			c-10.313,0-18.704,8.391-18.704,18.704v37.592c0,10.313,8.391,18.704,18.704,18.704H266v52h-41v-17.5c0-4.142-3.358-7.5-7.5-7.5
			c-4.142,0-7.5,3.358-7.5,7.5v17.5h-43.008c-0.077-2.956-0.706-5.776-1.777-8.368h6.449c4.142,0,7.5-3.358,7.5-7.5
			c0-4.142-3.358-7.5-7.5-7.5H65.428c-4.142,0-7.5,3.358-7.5,7.5C57.928,282.77,61.287,286.128,65.428,286.128z M266,182.496v45
			h-20.796c-2.042,0-3.704-1.662-3.704-3.704V186.2c0-2.042,1.662-3.704,3.704-3.704H266z M115.5,351.506
			c-20.126,0-36.5-16.154-36.5-36.009v-20.376c0-4.756,3.869-8.625,8.625-8.625h55.75c4.756,0,8.625,3.869,8.625,8.625v6.875
			c0,0.003,0,0.006,0,0.009s0,0.006,0,0.01l0.032,12.851c-0.017,0.208-0.032,0.418-0.032,0.631
			C152,335.352,135.627,351.506,115.5,351.506z M151.92,351.506c4.345-4.314,7.92-9.39,10.495-15.009h19.234v1.349
			c0,5.921,3.353,11.068,8.256,13.66H151.92z M241.286,337.845c0,0.247-0.201,0.447-0.448,0.447h-43.742
			c-0.247,0-0.448-0.201-0.448-0.447v-8.901c0-0.247,0.201-0.448,0.448-0.448h43.742c0.247,0,0.448,0.201,0.448,0.448V337.845z
			 M337,321.496h-82.637c-2.634-4.764-7.707-8-13.526-8h-43.742c-5.818,0-10.892,3.236-13.526,8h-16.522l-0.03-12H337V321.496z
			 M425,315.496c0,19.855-16.374,36.009-36.5,36.009c-20.126,0-36.5-16.153-36.5-36.009v-20.375c0-4.756,3.869-8.625,8.625-8.625
			h55.75c4.756,0,8.625,3.869,8.625,8.625V315.496z"/>
	</g>
</g>
<g>
</g>
<g>
</g>
<g>
</g>
<g>
</g>
<g>
</g>
<g>
</g>
<g>
</g>
<g>
</g>
<g>
</g>
<g>
</g>
<g>
</g>
<g>
</g>
<g>
</g>
<g>
</g>
<g>
</g>
</svg>
