<?xml version="1.0" encoding="iso-8859-1"?>
<!-- Generator: Adobe Illustrator 19.0.0, SVG Export Plug-In . SVG Version: 6.00 Build 0)  -->
<svg version="1.1" id="Capa_1" xmlns="http://www.w3.org/2000/svg" xmlns:xlink="http://www.w3.org/1999/xlink" x="0px" y="0px"
	 viewBox="0 0 512 512" style="enable-background:new 0 0 512 512;" xml:space="preserve">
<g>
	<g>
		<path d="M317.142,353.75h-63.31c-4.143,0-7.5,3.358-7.5,7.5c0,4.142,3.357,7.5,7.5,7.5h63.31c4.142,0,7.5-3.358,7.5-7.5
			C324.642,357.108,321.285,353.75,317.142,353.75z"/>
	</g>
</g>
<g>
	<g>
		<path d="M225.34,353.339h-26.495c-4.143,0-7.5,3.358-7.5,7.5c0,4.142,3.357,7.5,7.5,7.5h26.495c4.142,0,7.5-3.358,7.5-7.5
			C232.84,356.697,229.483,353.339,225.34,353.339z"/>
	</g>
</g>
<g>
	<g>
		<path d="M143.236,353.339h-20.583c-4.143,0-7.5,3.358-7.5,7.5c0,4.142,3.357,7.5,7.5,7.5h20.583c4.143,0,7.5-3.358,7.5-7.5
			C150.736,356.697,147.379,353.339,143.236,353.339z"/>
	</g>
</g>
<g>
	<g>
		<path d="M127.093,379.505h-17.758c-4.143,0-7.5,3.358-7.5,7.5c0,4.142,3.357,7.5,7.5,7.5h17.758c4.143,0,7.5-3.358,7.5-7.5
			C134.593,382.863,131.235,379.505,127.093,379.505z"/>
	</g>
</g>
<g>
	<g>
		<path d="M234.086,379.505h-22.481c-4.143,0-7.5,3.358-7.5,7.5c0,4.142,3.357,7.5,7.5,7.5h22.481c4.143,0,7.5-3.358,7.5-7.5
			C241.586,382.863,238.229,379.505,234.086,379.505z"/>
	</g>
</g>
<g>
	<g>
		<path d="M320.409,379.505h-26.232c-4.143,0-7.5,3.358-7.5,7.5c0,4.142,3.357,7.5,7.5,7.5h26.232c4.143,0,7.5-3.358,7.5-7.5
			C327.909,382.863,324.552,379.505,320.409,379.505z"/>
	</g>
</g>
<g>
	<g>
		<path d="M384.5,389.75c-4.143,0-7.5,3.358-7.5,7.5c0,1.378-1.121,2.5-2.5,2.5c-1.379,0-2.5-1.122-2.5-2.5v-26
			c0-1.378,1.121-2.5,2.5-2.5c4.143,0,7.5-3.358,7.5-7.5c0-4.142-3.357-7.5-7.5-7.5c-9.649,0-17.5,7.851-17.5,17.5v26
			c0,9.649,7.851,17.5,17.5,17.5s17.5-7.851,17.5-17.5C392,393.108,388.643,389.75,384.5,389.75z"/>
	</g>
</g>
<g>
	<g>
		<path d="M64.5,389.75c-4.143,0-7.5,3.358-7.5,7.5c0,1.378-1.121,2.5-2.5,2.5s-2.5-1.122-2.5-2.5v-26c0-1.378,1.121-2.5,2.5-2.5
			c4.143,0,7.5-3.358,7.5-7.5c0-4.142-3.357-7.5-7.5-7.5c-9.649,0-17.5,7.851-17.5,17.5v26c0,9.649,7.851,17.5,17.5,17.5
			s17.5-7.851,17.5-17.5C72,393.108,68.643,389.75,64.5,389.75z"/>
	</g>
</g>
<g>
	<g>
		<path d="M360.455,270.228c-0.041,0-0.07,0-0.105,0c-4.094,0.045-7.404,3.373-7.415,7.479l-0.046,17.021
			c-0.012,4.143,3.337,7.51,7.478,7.521c0.008,0,0.014,0,0.021,0c4.133,0,7.489-3.345,7.5-7.48l0.046-17.021
			C367.945,273.606,364.596,270.239,360.455,270.228z"/>
	</g>
</g>
<g>
	<g>
		<path d="M437.455,270.228c-0.041,0-0.07,0-0.105,0c-4.094,0.045-7.404,3.373-7.415,7.479l-0.046,17.021
			c-0.012,4.143,3.337,7.51,7.478,7.521c0.008,0,0.014,0,0.021,0c4.133,0,7.489-3.345,7.5-7.48l0.046-17.021
			C444.945,273.606,441.596,270.239,437.455,270.228z"/>
	</g>
</g>
<g>
	<g>
		<path d="M470.5,366.75c-4.143,0-7.5,3.358-7.5,7.5c0,1.378-1.121,2.5-2.5,2.5c-1.379,0-2.5-1.122-2.5-2.5v-26
			c0-1.378,1.121-2.5,2.5-2.5c4.143,0,7.5-3.358,7.5-7.5c0-4.142-3.357-7.5-7.5-7.5c-9.649,0-17.5,7.851-17.5,17.5v26
			c0,9.649,7.851,17.5,17.5,17.5s17.5-7.851,17.5-17.5C478,370.108,474.643,366.75,470.5,366.75z"/>
	</g>
</g>
<g>
	<g>
		<path d="M236.559,78.33c-1.411-1.936-3.663-3.08-6.059-3.08s-4.647,1.145-6.059,3.08c-5.016,6.874-48.994,67.965-48.994,95.867
			c0,30.356,24.697,55.053,55.053,55.053s55.053-24.697,55.053-55.053C285.553,146.295,241.574,85.204,236.559,78.33z M230.5,214.25
			c-22.085,0-40.053-17.968-40.053-40.053c0-16.932,25.04-56.731,40.053-78.468c15.013,21.737,40.053,61.535,40.053,78.468
			C270.553,196.282,252.585,214.25,230.5,214.25z"/>
	</g>
</g>
<g>
	<g>
		<path d="M258.522,173.641c-0.27-2.933-2.608-14.896-21.401-45.697l-0.206-0.338c-1.359-2.243-3.791-3.613-6.414-3.613
			c-2.623,0-5.055,1.37-6.414,3.613l-0.194,0.319c-18.805,30.819-21.144,42.783-21.413,45.716c-0.022,0.243-0.032,0.487-0.031,0.731
			c0.093,15.372,12.677,27.878,28.051,27.878c15.374,0,27.958-12.506,28.053-27.878
			C258.554,174.128,258.544,173.884,258.522,173.641z M231.373,187.221c-0.289,0.019-0.58,0.029-0.873,0.029
			c-0.291,0-0.58-0.01-0.866-0.029c-8.34-0.552-13.625-9.256-10.777-17.113c1.584-4.372,4.87-11.927,11.643-23.864
			c6.789,11.963,10.074,19.523,11.653,23.876C245,177.971,239.706,186.665,231.373,187.221z"/>
	</g>
</g>
<g>
	<g>
		<path d="M387.56,110.792c-1.412-1.936-3.664-3.08-6.06-3.08s-4.647,1.145-6.06,3.08c-5.5,7.54-32.94,46.112-32.94,64.997
			c0,21.504,17.495,39,39,39s39-17.495,39-39C420.5,156.904,393.06,118.332,387.56,110.792z M381.5,199.789
			c-13.233,0-24-10.767-24-24c0-8.711,12.57-30.609,24-47.513c11.43,16.904,24,38.802,24,47.513
			C405.5,189.022,394.733,199.789,381.5,199.789z"/>
	</g>
</g>
<g>
	<g>
		<path d="M399.47,173.498c-0.246-2.7-2.061-9.53-11.462-24.938l-0.105-0.173c-1.362-2.232-3.788-3.594-6.402-3.594
			s-5.04,1.362-6.402,3.594l-0.105,0.173c-9.401,15.408-11.216,22.238-11.462,24.938c-0.021,0.241-0.031,0.482-0.03,0.724
			c0.059,9.863,8.133,17.888,17.998,17.888s17.939-8.024,18-17.888C399.501,173.98,399.491,173.739,399.47,173.498z M381.544,177.11
			c-0.015,0-0.029,0-0.044,0c-0.294,0-0.579-0.043-0.848-0.123c-1.484-0.439-2.212-2.14-1.692-3.597
			c0.429-1.202,1.194-3.078,2.54-5.786c1.326,2.668,2.088,4.528,2.521,5.732C384.654,175.097,383.415,177.083,381.544,177.11z"/>
	</g>
</g>
<g>
	<g>
		<path d="M119.97,231.58c-0.24-2.619-2.313-13.276-18.897-40.457l-0.152-0.25c-1.358-2.249-3.793-3.623-6.42-3.623
			c-2.627,0-5.062,1.374-6.42,3.623l-0.163,0.268c-16.573,27.164-18.646,37.82-18.887,40.439c-0.022,0.243-0.032,0.487-0.031,0.731
			c0.085,13.974,11.524,25.342,25.5,25.342s25.415-11.369,25.501-25.342C120.002,232.067,119.992,231.823,119.97,231.58z
			 M94.5,242.653c-5.583,0-10.183-4.404-10.485-9.92c0.301-1.476,1.997-7.998,10.485-23.168
			c8.488,15.171,10.184,21.692,10.485,23.168C104.682,238.249,100.083,242.653,94.5,242.653z"/>
	</g>
</g>
<g>
	<g>
		<path d="M504.5,421.75h-99.078c1.946-2.453,3.626-5.126,4.953-8H460.5c21.78,0,39.5-17.72,39.5-39.5v-26
			c0-21.216-16.815-38.572-37.817-39.457c2.354-4.142,3.706-8.925,3.706-14.02v-17.045c0-15.703-12.775-28.478-28.478-28.478
			H269.589c-15.374,0-27.935,12.249-28.453,27.5H118.5c-12.306,0-23.313,5.659-30.563,14.509
			C80.938,280.151,68.571,272.75,54.5,272.75c-21.78,0-39.5,17.72-39.5,39.5v85c0,9.25,3.205,17.761,8.551,24.5H7.5
			c-4.143,0-7.5,3.358-7.5,7.5c0,4.142,3.357,7.5,7.5,7.5h497c4.143,0,7.5-3.358,7.5-7.5C512,425.108,508.643,421.75,504.5,421.75z
			 M79,397.25c0,13.509-10.99,24.5-24.5,24.5S30,410.759,30,397.25v-26c0-13.509,10.99-24.5,24.5-24.5S79,357.741,79,371.25V397.25z
			 M79,340.301c-6.739-5.346-15.25-8.551-24.5-8.551s-17.761,3.205-24.5,8.551V312.25c0-13.509,10.99-24.5,24.5-24.5
			S79,298.741,79,312.25V340.301z M85.435,421.75c0.362-0.456,0.723-0.912,1.065-1.384c0.342,0.472,0.703,0.928,1.065,1.384H85.435z
			 M460.5,323.75c13.51,0,24.5,10.991,24.5,24.5v26c0,13.509-10.99,24.5-24.5,24.5s-24.5-10.991-24.5-24.5v-26
			C436,334.741,446.99,323.75,460.5,323.75z M423.934,277.728c0-7.432,6.046-13.478,13.478-13.478s13.478,6.046,13.478,13.478
			v17.045c0,7.432-6.046,13.478-13.478,13.478s-13.478-6.046-13.478-13.478V277.728z M385.49,264.25h26.842
			c-2.166,4.015-3.398,8.605-3.398,13.478v17.045c0,5.078,1.342,9.845,3.681,13.978h-27.407c2.339-4.132,3.681-8.9,3.681-13.978
			v-17.045C388.889,272.855,387.656,268.265,385.49,264.25z M346.934,277.728c0-7.432,6.046-13.478,13.478-13.478
			s13.478,6.046,13.478,13.478v17.045c0,7.432-6.046,13.478-13.478,13.478s-13.478-6.046-13.478-13.478V277.728z M269.589,264.25
			h65.743c-2.166,4.015-3.398,8.605-3.398,13.478v17.045c0,5.078,1.342,9.845,3.681,13.978h-22.338
			c-3.515-18.205-19.561-32-38.777-32h-18.339C256.665,269.775,262.487,264.25,269.589,264.25z M274.5,291.75
			c10.894,0,20.146,7.149,23.321,17H204.5c-15.488,0-29.516,9.22-35.884,23H158v-15.5c0-9.25-3.205-17.761-8.551-24.5H274.5z
			 M94,316.25c0-13.509,10.99-24.5,24.5-24.5s24.5,10.991,24.5,24.5v15.5h-24.5c-9.25,0-17.761,3.205-24.5,8.551V316.25z
			 M173.5,421.653c-8.077,0-14.719-6.434-15.038-14.444c0.324-1.666,2.543-10.857,15.038-32.738
			c12.568,22.007,14.739,31.173,15.039,32.721C188.229,415.21,181.583,421.653,173.5,421.653z M266.957,421.75h-2.913
			c-5.219-0.926-8.15-6.965-5.367-11.786c1.502-2.602,3.678-6.03,6.824-10.432c3.145,4.403,5.321,7.83,6.823,10.432
			C275.106,414.784,272.176,420.824,266.957,421.75z M399,397.25c0,13.509-10.99,24.5-24.5,24.5s-24.5-10.991-24.5-24.5v-26
			c0-13.509,10.99-24.5,24.5-24.5s24.5,10.991,24.5,24.5V397.25z M374.5,331.75H271.481c-4.734,0-8.187,4.419-7.113,9.03
			c0.019,0.081,0.037,0.161,0.056,0.242c0.764,3.349,3.729,5.728,7.164,5.728h71.963C338.205,353.489,335,362,335,371.25v26
			c0,9.25,3.205,17.761,8.551,24.5H289.43c0.677-1.901,1.054-3.911,1.071-5.992c0.002-0.311-0.015-0.621-0.051-0.93
			c-0.406-3.47-3.395-12.266-18.857-32.206l-0.05-0.064c-0.883-1.14-2.034-2.076-3.388-2.574c-3.209-1.182-6.627-0.098-8.585,2.431
			l-0.172,0.222c-15.452,19.927-18.44,28.723-18.847,32.192c-0.036,0.309-0.053,0.619-0.051,0.93
			c0.016,2.081,0.393,4.091,1.071,5.992h-42.147c2.587-4.402,4.092-9.51,4.126-14.958c0.001-0.245-0.009-0.49-0.031-0.734
			c-0.293-3.18-2.845-16.17-23.386-49.836l-0.13-0.213c-0.952-1.559-2.385-2.812-4.122-3.377c-3.446-1.121-7.019,0.313-8.787,3.219
			l-0.223,0.364c-20.545,33.672-23.097,46.663-23.39,49.843c-0.022,0.244-0.032,0.489-0.031,0.734
			c0.034,5.448,1.539,10.556,4.126,14.958H118.5c-13.531,0-24.5-10.969-24.5-24.5v-26c0-13.531,10.969-24.5,24.5-24.5h107.235
			c3.513,0,6.509-2.492,7.209-5.935c0.013-0.063,0.026-0.127,0.039-0.191c0.948-4.574-2.512-8.874-7.184-8.874h-39.363
			c4.552-4.953,11.062-8,18.064-8h225.051C424.205,330.489,421,339,421,348.25v26c0,9.25,3.205,17.761,8.551,24.5h-15.589
			c0.019-0.499,0.038-0.997,0.038-1.5v-26C414,349.435,396.315,331.75,374.5,331.75z"/>
	</g>
</g>
<g>
	<g>
		<path d="M505.469,280.034c-0.215-2.334-1.858-9.637-12.422-26.949l-0.129-0.211c-1.355-2.241-3.806-3.572-6.425-3.578
			c-0.006,0-0.012,0-0.018,0c-2.612,0-5.062,1.4-6.425,3.629l-0.068,0.113c-10.593,17.36-12.236,24.663-12.451,26.997
			c-0.022,0.244-0.032,0.489-0.031,0.734c0.064,10.41,8.588,18.88,19,18.88s18.936-8.47,19-18.881
			C505.501,280.523,505.491,280.278,505.469,280.034z M486.5,284.649c-2.009,0-3.685-1.498-3.96-3.435
			c0.263-1.006,1.157-3.817,3.96-9.275c2.803,5.458,3.697,8.27,3.96,9.275C490.185,283.152,488.509,284.649,486.5,284.649z"/>
	</g>
</g>
<g>
</g>
<g>
</g>
<g>
</g>
<g>
</g>
<g>
</g>
<g>
</g>
<g>
</g>
<g>
</g>
<g>
</g>
<g>
</g>
<g>
</g>
<g>
</g>
<g>
</g>
<g>
</g>
<g>
</g>
</svg>
