<?xml version="1.0" encoding="iso-8859-1"?>
<!-- Generator: Adobe Illustrator 19.0.0, SVG Export Plug-In . SVG Version: 6.00 Build 0)  -->
<svg version="1.1" id="Capa_1" xmlns="http://www.w3.org/2000/svg" xmlns:xlink="http://www.w3.org/1999/xlink" x="0px" y="0px"
	 viewBox="0 0 512 512" style="enable-background:new 0 0 512 512;" xml:space="preserve">
<g>
	<g>
		<path d="M190.916,307.167h-26.048c-4.142,0-7.5,3.358-7.5,7.5v25.382c0,4.142,3.358,7.5,7.5,7.5c4.142,0,7.5-3.358,7.5-7.5
			v-17.882h18.548c4.142,0,7.5-3.358,7.5-7.5C198.415,310.525,195.058,307.167,190.916,307.167z"/>
	</g>
</g>
<g>
	<g>
		<path d="M347.131,453.14c-4.143,0-7.5,3.358-7.5,7.5V475h-16.655c-4.143,0-7.5,3.358-7.5,7.5c0,4.142,3.357,7.5,7.5,7.5h24.155
			c4.143,0,7.5-3.358,7.5-7.5v-21.86C354.63,456.498,351.274,453.14,347.131,453.14z"/>
	</g>
</g>
<g>
	<g>
		<path d="M369.131,373.184c-4.143,0-7.501,3.358-7.501,7.5V487.44c0,5.28-4.28,9.561-9.561,9.561H159.928
			c-5.28,0-9.561-4.281-9.561-9.561V309.728c0-5.28,4.281-9.561,9.561-9.561H352.07c5.28,0,9.561,4.28,9.561,9.561v22.157
			c0,4.142,3.358,7.5,7.5,7.5c4.142,0,7.5-3.358,7.5-7.5V125.578c0-13.564-10.995-24.56-24.56-24.56h-21.787v-6.339
			c2.533-2.611,5.72-6.218,8.29-10.164c0.811-0.115,1.616-0.358,2.385-0.755c13.23-6.838,21.449-20.332,21.449-35.216
			c0-20.526-29.339-42.849-35.219-47.116c-2.627-1.905-6.182-1.905-8.809,0c-5.881,4.267-35.219,26.589-35.219,47.116
			c0,15.111,8.798,29.124,22.413,35.698c0.525,0.254,1.066,0.441,1.611,0.564c2.536,3.833,5.628,7.325,8.1,9.872v6.34H159.929
			c-13.564,0-24.56,10.995-24.56,24.56V487.44c0,13.564,10.995,24.56,24.56,24.56h192.141c13.563,0,24.56-10.995,24.56-24.56
			V380.684C376.63,376.542,373.273,373.184,369.131,373.184z M200.82,181.65c-2.934-3.54-5.156-6.938-5.369-8.458
			c0.037-2.93,2.431-5.302,5.369-5.302s5.333,2.372,5.369,5.302C205.976,174.712,203.753,178.11,200.82,181.65z M243.63,181.65
			c-2.934-3.54-5.156-6.938-5.369-8.458c0.037-2.93,2.431-5.302,5.369-5.302s5.333,2.372,5.369,5.302
			C248.786,174.712,246.563,178.11,243.63,181.65z M286.437,181.655c-2.931-3.534-5.151-6.932-5.366-8.463
			c0.037-2.93,2.432-5.302,5.37-5.302c2.938,0,5.332,2.372,5.369,5.302C291.595,174.713,289.37,178.114,286.437,181.655z
			 M330.284,116.018h21.787c5.271,0,9.561,4.289,9.561,9.561v161.528c-2.94-1.247-6.171-1.938-9.561-1.938h-0.439V133.517
			c0-4.142-3.357-7.5-7.5-7.5h-13.848V116.018z M336.631,141.016v144.152H293.94v-89.38c5.105-5.261,12.868-14.568,12.868-22.528
			c0-11.231-9.138-20.369-20.368-20.369c-11.232,0-20.369,9.138-20.369,20.369c0,7.961,7.764,17.268,12.869,22.529v89.38H251.13
			v-89.38c5.106-5.26,12.869-14.568,12.869-22.529c0-11.231-9.138-20.369-20.369-20.369c-11.232,0-20.369,9.138-20.369,20.369
			c0,7.961,7.764,17.268,12.869,22.529v89.38H208.32v-89.38c5.106-5.26,12.869-14.568,12.869-22.529
			c0-11.231-9.138-20.369-20.369-20.369s-20.369,9.138-20.369,20.369c0,7.961,7.764,17.268,12.869,22.529v89.38h-17.953V141.016
			h139.917v50.543c-0.001,4.142,3.357,7.5,7.499,7.5c4.143,0,7.5-3.358,7.5-7.5v-50.543H336.631z M317.415,72.083
			c0.037-2.93,2.432-5.302,5.369-5.302c2.938,0,5.332,2.372,5.37,5.302c-0.213,1.521-2.437,4.918-5.37,8.458
			C319.85,77.001,317.628,73.603,317.415,72.083z M303.961,64.388c-3.666-4.375-5.801-9.976-5.801-15.844
			c0-8.447,13.233-22.412,24.628-31.598c0.398,0.32,0.799,0.648,1.2,0.979c-0.005,0.118-0.018,0.234-0.018,0.353v19.574
			c0,4.142,3.357,7.5,7.5,7.5s7.5-3.358,7.5-7.5v-5.321c4.942,5.856,8.438,11.656,8.438,16.011c0,5.935-2.112,11.507-5.791,15.868
			c-3.053-7.403-10.341-12.63-18.833-12.63C314.301,51.782,307.02,56.998,303.961,64.388z M150.369,125.578
			c0-5.272,4.289-9.561,9.561-9.561h155.355v10H167.868c-4.142,0-7.5,3.358-7.5,7.5v151.651h-0.439c-3.39,0-6.621,0.69-9.561,1.938
			V125.578z"/>
	</g>
</g>
<g>
	<g>
		<path d="M310.413,414.508c-0.381-8.428-2.963-16.397-7.467-23.05c-2.165-3.196-4.694-6.01-7.519-8.364
			c-4.804-4.001-11.489-4.729-17.036-1.855c-5.596,2.9-8.885,8.839-8.379,15.131c0.242,3.018,0.438,10.193-2.985,11.656
			c-2.068,0.883-4.581,0.142-5.728-1.685c-2.472-3.94,2.97-10.928,5.424-13.748c8.256-9.49,11.523-21.846,9.452-35.732
			c-2.4-16.087-11.99-32.268-23.32-39.348c-2.757-1.724-6.31-1.474-8.799,0.618c-2.489,2.091-3.348,5.548-2.126,8.561
			c0.026,0.065,2.614,6.791,1.185,15.601c-1.99,12.263-10.677,22.342-25.822,29.958c-8.561,4.305-15.133,11.543-18.507,20.383
			c-2.41,6.315-3.665,13.439-3.729,21.178c-0.175,20.969,11.308,40.211,29.97,50.216c3.371,1.807,7.023,3.56,10.857,5.208
			c6.788,2.918,14.054,4.38,21.283,4.38c6.853,0,13.67-1.314,20.006-3.947C299.79,460.27,311.595,440.68,310.413,414.508z
			 M271.417,455.817c-9.298,3.863-20.09,3.731-29.608-0.362c-3.44-1.479-6.701-3.042-9.694-4.647
			c-13.734-7.364-22.187-21.492-22.059-36.872c0.05-5.947,0.973-11.314,2.744-15.955c2.036-5.333,6.025-9.713,11.232-12.331
			c22.667-11.398,30.998-26.491,33.485-39.221c1.788,3.92,3.163,8.229,3.822,12.645c0.979,6.563,0.745,15.997-5.933,23.674
			c-13.454,15.466-10.044,26.415-6.813,31.565c5.051,8.048,15.507,11.276,24.327,7.505c5.122-2.188,13.496-8.562,12.041-26.65
			c-0.014-0.168-0.034-0.423,0.329-0.612c0.283-0.146,0.389-0.06,0.532,0.06c1.744,1.454,3.327,3.222,4.703,5.253
			c2.95,4.358,4.646,9.654,4.901,15.315C296.329,435.151,288.251,448.823,271.417,455.817z"/>
	</g>
</g>
<g>
</g>
<g>
</g>
<g>
</g>
<g>
</g>
<g>
</g>
<g>
</g>
<g>
</g>
<g>
</g>
<g>
</g>
<g>
</g>
<g>
</g>
<g>
</g>
<g>
</g>
<g>
</g>
<g>
</g>
</svg>
