<?xml version="1.0" encoding="iso-8859-1"?>
<!-- Generator: Adobe Illustrator 19.0.0, SVG Export Plug-In . SVG Version: 6.00 Build 0)  -->
<svg version="1.1" id="Capa_1" xmlns="http://www.w3.org/2000/svg" xmlns:xlink="http://www.w3.org/1999/xlink" x="0px" y="0px"
	 viewBox="0 0 512 512" style="enable-background:new 0 0 512 512;" xml:space="preserve">
<g>
	<g>
		<path d="M133.362,41.04c-27.873,0-50.549,22.676-50.549,50.549c0,27.873,22.676,50.549,50.549,50.549s50.549-22.676,50.549-50.549
			C183.911,63.716,161.235,41.04,133.362,41.04z M133.362,127.124c-19.594,0-35.535-15.941-35.535-35.535
			c0-19.594,15.941-35.535,35.535-35.535s35.535,15.941,35.535,35.535C168.897,111.184,152.956,127.124,133.362,127.124z"/>
	</g>
</g>
<g>
	<g>
		<path d="M439.697,201.196h-69.603v-33.095c0-4.146-3.361-7.507-7.507-7.507s-7.507,3.361-7.507,7.507v33.095h-68.458
			c-0.394,0.004-0.809,0.005-1.215,0.02c-16.224,0.577-29.424,14.511-29.424,31.061v27.924c0,8.561-6.703,15.764-14.943,16.057
			c-4.554,0.158-8.847-1.611-11.966-4.973c-2.73-2.942-4.122-6.883-4.122-10.896V91.589c0-31.985-16.485-60.189-41.401-76.575
			h94.954c42.291,0,76.575,34.284,76.575,76.575v27.662c0,4.146,3.361,7.507,7.507,7.507c4.146,0,7.507-3.361,7.507-7.507V91.589
			C370.094,41.006,329.088,0,278.505,0H134.53C84.106,0,42.266,40.263,41.777,90.686c-0.494,50.915,40.782,92.493,91.584,92.493
			h76.575v76.889c0,8.506,3.239,16.797,9.37,22.694c5.718,5.499,13.165,8.502,21.052,8.517c0.036,0,0.071,0.005,0.108,0.005h61.56
			v201.688c0,10.508,8.519,19.028,19.028,19.028h130.145c10.508,0,19.028-8.519,19.028-19.028V231.726
			C470.227,214.865,456.558,201.196,439.697,201.196z M209.937,168.164h-26.401c10.494-6.902,19.499-15.892,26.401-26.387V168.164z
			 M133.362,168.164c-42.223,0-76.575-34.352-76.575-76.575c0-42.223,34.352-76.575,76.575-76.575
			c42.223,0,76.575,34.352,76.575,76.575C209.937,133.813,175.586,168.164,133.362,168.164z M302.027,276.27L302.027,276.27h-35.52
			c2.84-4.717,4.489-10.227,4.489-16.067v-27.924c0-8.56,6.703-15.764,14.943-16.057c4.262-0.153,8.289,1.39,11.345,4.339
			c3.059,2.952,4.743,6.917,4.743,11.166V276.27z M321.054,496.985c-2.212,0-4.013-1.8-4.013-4.013V359.717
			c0.979-4.388,4.898-7.68,9.577-7.68c5.414,0,9.819,4.404,9.819,9.819v53.691c0,13.693,11.14,24.833,24.833,24.833
			s24.833-11.14,24.833-24.833v-32.448c0-5.414,4.404-9.819,9.819-9.819c5.414,0,9.819,4.404,9.819,9.819v113.886H321.054z
			 M451.199,496.985h-30.444V383.099c0-13.693-11.14-24.833-24.833-24.833s-24.833,11.14-24.833,24.833v32.448
			c0,5.414-4.404,9.819-9.819,9.819c-5.414,0-9.819-4.404-9.819-9.819v-53.691c0-13.693-11.14-24.833-24.833-24.833
			c-3.393,0-6.628,0.687-9.577,1.925V231.726c0-5.559-1.465-10.872-4.216-15.515h126.871c8.555,0,15.515,6.96,15.515,15.515v261.246
			h0.001C455.212,495.185,453.412,496.985,451.199,496.985z"/>
	</g>
</g>
<g>
</g>
<g>
</g>
<g>
</g>
<g>
</g>
<g>
</g>
<g>
</g>
<g>
</g>
<g>
</g>
<g>
</g>
<g>
</g>
<g>
</g>
<g>
</g>
<g>
</g>
<g>
</g>
<g>
</g>
</svg>
