<?xml version="1.0" encoding="iso-8859-1"?>
<!-- Generator: Adobe Illustrator 19.0.0, SVG Export Plug-In . SVG Version: 6.00 Build 0)  -->
<svg version="1.1" id="Capa_1" xmlns="http://www.w3.org/2000/svg" xmlns:xlink="http://www.w3.org/1999/xlink" x="0px" y="0px"
	 viewBox="0 0 511.997 511.997" style="enable-background:new 0 0 511.997 511.997;" xml:space="preserve">
<g>
	<g>
		<path d="M389.912,66.423c-2.121-5.296-7.177-8.718-12.882-8.718h-53.678V15.041c0-5.351-2.661-10.181-7.119-12.919
			c-4.252-2.61-9.443-2.824-13.889-0.572l-31.948,16.201c-2.523,1.28-4.113,3.868-4.113,6.697v33.049l-40.275-0.198L152.99,33.302
			c-3.498-1.15-7.311,0.405-9.008,3.671c-30.537,58.766-30.537,118.361,0,177.128c1.311,2.522,3.903,4.047,6.661,4.047
			c0.511,0,1.026-0.052,1.541-0.16l114.099-23.894v163.527l-12.719,18.719c-0.594,0.875-0.997,1.864-1.182,2.905l-18.636,104.852
			c-1.232,6.934,0.655,14.007,5.178,19.404c4.523,5.398,11.156,8.494,18.199,8.494h42.484c13.093,0,23.743-10.652,23.743-23.743
			V182.145l21.326-4.465c0.047-0.01,0.095-0.021,0.142-0.031c6.813-1.565,11.572-7.54,11.572-14.53v-50.215
			c0-1.572,0.653-3.096,1.79-4.18l28.424-27.1C390.734,77.686,392.033,71.719,389.912,66.423z M281.301,29.06l27.032-13.708v42.105
			h-27.032V29.06z M308.334,488.255c0,4.812-3.915,8.725-8.725,8.725h-9.568v-69.763c0-0.772,0.313-1.528,0.86-2.074l6.088-6.089
			c1.408-1.409,2.199-3.318,2.199-5.309V385.24c0-0.493,0.4-0.893,0.893-0.893h8.254V488.255z M308.334,369.329h-8.254
			c-8.773,0-15.911,7.138-15.911,15.911v25.395l-3.889,3.889c-3.391,3.391-5.258,7.898-5.258,12.694v69.763h-17.897
			c-2.588,0-5.026-1.137-6.688-3.122c-1.662-1.984-2.356-4.583-1.903-7.132l18.355-103.273l13.116-19.302
			c0.846-1.245,1.298-2.714,1.298-4.22v-23.644h4.378c9.732,0,17.648-7.917,17.648-17.648v-47.384
			c0-9.732-7.917-17.648-17.648-17.648h-4.378v-62.658l27.032-5.661V369.329z M281.301,321.271v-52.644h4.378
			c1.451,0,2.63,1.179,2.63,2.63v47.384c0,1.451-1.18,2.63-2.63,2.63H281.301z M347.817,97.855
			c-4.095,3.906-6.444,9.39-6.444,15.048v50.125l-159.359,33.371c-3.017-6.71-5.598-13.434-7.749-20.166
			c-1.063-3.327-4.271-5.45-7.749-5.131c-0.064,0.006-0.128,0.012-0.192,0.017c-4.704,0.409-7.873,5.031-6.438,9.528
			c2.014,6.309,4.376,12.609,7.094,18.9l-12.227,2.56c-25.04-51.262-25.141-101.265-0.302-152.516l11.91,3.915
			c-11.156,26.367-16.176,52.902-15.078,79.423c0.193,4.659,4.594,8.003,9.116,6.862c0.127-0.032,0.253-0.063,0.379-0.094
			c3.415-0.834,5.714-3.985,5.571-7.498c-1.004-24.708,3.762-49.431,14.323-73.989l41.773,13.728
			c0.745,0.244,1.523,0.371,2.307,0.375l149.427,0.411L347.817,97.855z"/>
	</g>
</g>
<g>
</g>
<g>
</g>
<g>
</g>
<g>
</g>
<g>
</g>
<g>
</g>
<g>
</g>
<g>
</g>
<g>
</g>
<g>
</g>
<g>
</g>
<g>
</g>
<g>
</g>
<g>
</g>
<g>
</g>
</svg>
