<?xml version="1.0" encoding="iso-8859-1"?>
<!-- Generator: Adobe Illustrator 19.0.0, SVG Export Plug-In . SVG Version: 6.00 Build 0)  -->
<svg version="1.1" id="Capa_1" xmlns="http://www.w3.org/2000/svg" xmlns:xlink="http://www.w3.org/1999/xlink" x="0px" y="0px"
	 viewBox="0 0 511.999 511.999" style="enable-background:new 0 0 511.999 511.999;" xml:space="preserve">
<g>
	<g>
		<path d="M319.41,342.19c4.144,0,7.503-3.359,7.503-7.503v-19.013c0-8.709-7.06-15.768-15.768-15.768h-82.515
			c-8.708,0-15.768,7.059-15.768,15.768v154.547c0,8.709,7.06,15.768,15.768,15.768h82.515c8.708,0,15.768-7.059,15.768-15.768
			V383.51c0-4.144-3.359-7.503-7.503-7.503c-4.144-0.001-7.503,3.357-7.503,7.502v86.711c0,0.42-0.341,0.761-0.761,0.761h-82.515
			c-0.42,0-0.761-0.341-0.761-0.761V315.673c0-0.42,0.341-0.761,0.761-0.761h82.515c0.42,0,0.761,0.341,0.761,0.761v19.014
			C311.907,338.83,315.267,342.19,319.41,342.19z"/>
	</g>
</g>
<g>
	<g>
		<path d="M346.923,279.045v-17.519c0-4.073-1.577-7.774-4.136-10.562l-3.714-21.354c2.419-3.479,3.848-7.695,3.848-12.244
			c0-11.86-9.649-21.51-21.51-21.51c-11.86,0-21.51,9.649-21.51,21.51c0,4.549,1.429,8.766,3.848,12.244l-2.829,16.268h-7.021
			v-24.846c0-8.918-7.255-16.172-16.172-16.172h-5.838v-13.415c0-6.945-5.651-12.597-12.597-12.597h-12.824
			c-6.945,0-12.597,5.651-12.597,12.597v13.731c-7.405,1.477-13.006,8.023-13.006,15.857v24.846h-16.367
			c-0.216,0-0.426,0.024-0.64,0.032V137.331c0-4.144-3.358-7.503-7.503-7.503h-49.259c-14.488,0-26.275,11.786-26.275,26.274
			v112.527c0,14.487,11.786,26.274,26.275,26.274h40.755v194.58c0,12.417,10.102,22.517,22.518,22.517h120.038
			c12.417,0,22.518-10.102,22.518-22.517V286.397C352.926,282.768,350.348,279.74,346.923,279.045z M188.852,279.895h-7.003v-23.511
			c0-4.144-3.359-7.503-7.503-7.503c-4.145,0-7.503,3.359-7.503,7.503v23.511h-19.746c-6.213,0-11.268-5.054-11.268-11.267V156.102
			c0-6.213,5.055-11.267,11.268-11.267h19.589v89.54c0,4.144,3.359,7.503,7.503,7.503c4.145,0,7.503-3.359,7.503-7.503v-89.54h7.16
			V279.895z M321.411,210.864c3.586,0,6.503,2.917,6.503,6.503c0,3.586-2.917,6.503-6.503,6.503c-3.586,0-6.503-2.917-6.503-6.503
			C314.908,213.781,317.826,210.864,321.411,210.864z M326.671,245.879h-10.52l1.285-7.386c1.291,0.242,2.616,0.383,3.975,0.383
			c1.359,0,2.685-0.141,3.975-0.383L326.671,245.879z M256.882,193.856v11.005h-8.004v-11.005H256.882z M235.873,221.033
			c0-0.643,0.522-1.166,1.166-1.166h4.337h23.01h13.341c0.643,0,1.166,0.522,1.166,1.166v24.846h-43.019V221.033z M204.499,260.886
			h126.778c0.353,0,0.64,0.287,0.64,0.64v17.368H203.86v-17.368h-0.001C203.858,261.173,204.146,260.886,204.499,260.886z
			 M337.919,489.482c0,4.142-3.37,7.51-7.511,7.51H210.369c-4.142,0-7.511-3.37-7.511-7.51V293.901h135.061V489.482z"/>
	</g>
</g>
<g>
	<g>
		<path d="M324.328,98.184c-0.381-8.432-2.963-16.405-7.47-23.061c-2.166-3.197-4.696-6.013-7.522-8.368
			c-4.805-4.004-11.494-4.732-17.046-1.855c-5.598,2.9-8.888,8.843-8.382,15.138c0.242,3.019,0.438,10.199-2.986,11.662
			c-2.067,0.882-4.582,0.143-5.731-1.686c-2.473-3.942,2.971-10.933,5.426-13.755c8.26-9.494,11.529-21.857,9.456-35.749
			c-2.401-16.095-11.995-32.284-23.331-39.369c-2.757-1.725-6.312-1.476-8.803,0.618c-2.49,2.092-3.349,5.55-2.127,8.565
			c0.026,0.065,2.615,6.794,1.186,15.609c-1.99,12.27-10.683,22.353-25.834,29.972c-8.567,4.308-15.143,11.55-18.516,20.392
			c-2.411,6.317-3.667,13.446-3.732,21.19c-0.173,20.978,11.316,40.229,29.986,50.24c3.373,1.809,7.028,3.563,10.862,5.21
			c6.79,2.919,14.061,4.382,21.293,4.382c6.857,0,13.677-1.315,20.016-3.949C313.699,143.968,325.51,124.369,324.328,98.184z
			 M285.312,139.51c-9.301,3.866-20.099,3.733-29.622-0.361c-3.44-1.48-6.703-3.043-9.698-4.649
			c-13.741-7.367-22.198-21.503-22.07-36.891c0.052-5.949,0.974-11.319,2.747-15.962c2.036-5.335,6.027-9.715,11.237-12.337
			c22.679-11.404,31.013-26.504,33.502-39.241c1.789,3.921,3.164,8.233,3.824,12.652c0.979,6.566,0.745,16.005-5.936,23.686
			c-13.461,15.473-10.049,26.427-6.816,31.58c5.053,8.051,15.515,11.28,24.339,7.508c5.124-2.189,13.503-8.566,12.047-26.664
			c-0.014-0.168-0.034-0.423,0.329-0.611c0.283-0.146,0.389-0.061,0.532,0.06c1.745,1.455,3.328,3.223,4.705,5.255
			c2.951,4.36,4.648,9.658,4.903,15.322C310.236,118.834,302.155,132.512,285.312,139.51z"/>
	</g>
</g>
<g>
	<g>
		<path d="M408.21,147.835c-7.449,0-16.267-8.817-16.267-16.267c0-4.144-3.359-7.503-7.503-7.503c-4.145,0-7.503,3.359-7.503,7.503
			c0,7.449-8.817,16.267-16.267,16.267c-4.145,0-7.503,3.359-7.503,7.503s3.358,7.503,7.503,7.503
			c7.449,0,16.267,8.817,16.267,16.267c0,4.144,3.358,7.503,7.503,7.503c4.145,0,7.503-3.359,7.503-7.503
			c0-7.449,8.817-16.267,16.267-16.267c4.144,0,7.503-3.359,7.503-7.503C415.714,151.195,412.355,147.835,408.21,147.835z
			 M384.44,159.977c-1.401-1.678-2.959-3.236-4.638-4.637c1.679-1.401,3.236-2.959,4.638-4.637c1.401,1.678,2.959,3.236,4.638,4.637
			C387.399,156.74,385.84,158.298,384.44,159.977z"/>
	</g>
</g>
<g>
	<g>
		<path d="M98.071,214.865c-7.449,0-16.267-8.817-16.267-16.267c0-4.144-3.359-7.503-7.503-7.503c-4.145,0-7.503,3.36-7.503,7.503
			c0,7.449-8.817,16.267-16.267,16.267c-4.145,0-7.503,3.359-7.503,7.503s3.358,7.503,7.503,7.503
			c7.449,0,16.267,8.817,16.267,16.267c0,4.144,3.359,7.503,7.503,7.503c4.145,0,7.503-3.359,7.503-7.503
			c0-7.449,8.817-16.267,16.267-16.267c4.145,0,7.503-3.36,7.503-7.503S102.215,214.865,98.071,214.865z M74.3,227.007
			c-1.401-1.678-2.959-3.236-4.638-4.637c1.679-1.401,3.236-2.959,4.638-4.637c1.401,1.678,2.959,3.236,4.638,4.637
			C77.26,223.77,75.701,225.328,74.3,227.007z"/>
	</g>
</g>
<g>
	<g>
		<path d="M163.1,50.792c-7.449,0-16.267-8.817-16.267-16.267c0-4.144-3.358-7.503-7.503-7.503c-4.145,0-7.503,3.359-7.503,7.503
			c0,7.449-8.817,16.267-16.267,16.267c-4.145,0-7.503,3.36-7.503,7.503s3.359,7.503,7.503,7.503c7.45,0,16.267,8.818,16.267,16.267
			c0,4.144,3.359,7.503,7.503,7.503c4.145,0,7.503-3.359,7.503-7.503c0-7.449,8.817-16.267,16.267-16.267
			c4.145,0,7.503-3.359,7.503-7.503S167.245,50.792,163.1,50.792z M139.329,62.932c-1.401-1.678-2.959-3.236-4.638-4.637
			c1.679-1.401,3.237-2.959,4.638-4.637c1.401,1.678,2.959,3.236,4.638,4.637C142.289,59.696,140.731,61.254,139.329,62.932z"/>
	</g>
</g>
<g>
	<g>
		<circle cx="380.433" cy="53.293" r="10.505"/>
	</g>
</g>
<g>
	<g>
		<circle cx="458.468" cy="142.333" r="10.505"/>
	</g>
</g>
<g>
	<g>
		<circle cx="174.34" cy="99.313" r="7.503"/>
	</g>
</g>
<g>
	<g>
		<circle cx="408.445" cy="234.374" r="7.503"/>
	</g>
</g>
<g>
	<g>
		<circle cx="69.303" cy="119.322" r="12.506"/>
	</g>
</g>
<g>
</g>
<g>
</g>
<g>
</g>
<g>
</g>
<g>
</g>
<g>
</g>
<g>
</g>
<g>
</g>
<g>
</g>
<g>
</g>
<g>
</g>
<g>
</g>
<g>
</g>
<g>
</g>
<g>
</g>
</svg>
