<?xml version="1.0" encoding="iso-8859-1"?>
<!-- Generator: Adobe Illustrator 19.0.0, SVG Export Plug-In . SVG Version: 6.00 Build 0)  -->
<svg version="1.1" id="Capa_1" xmlns="http://www.w3.org/2000/svg" xmlns:xlink="http://www.w3.org/1999/xlink" x="0px" y="0px"
	 viewBox="0 0 512 512" style="enable-background:new 0 0 512 512;" xml:space="preserve">
<g>
	<g>
		<path d="M456.85,154.5H433v-32.64c0-16.189-13.171-29.36-29.359-29.36H7.5C3.357,92.5,0,95.858,0,100v312
			c0,4.142,3.357,7.5,7.5,7.5h401.218c13.39,0,24.282-10.893,24.282-24.283V388.5h61.266c9.778,0,17.734-7.956,17.734-17.734V209.65
			C512,179.24,487.26,154.5,456.85,154.5z M15,267.835c13.859,1.154,44.332,6.218,65.028,28.294
			c31.448,33.544,88.995,41.956,91.43,42.298c0.354,0.05,0.704,0.074,1.051,0.074c3.678,0,6.888-2.708,7.415-6.454
			c0.578-4.1-2.277-7.893-6.377-8.474c-0.544-0.077-54.781-8.056-82.575-37.703c-8.254-8.804-17.691-15.284-27.183-20.06
			c8.211-2.702,17.489-5.459,23.585-6.358c3.879-0.573,6.849-3.966,6.616-7.881c-0.265-4.436-4.252-7.613-8.549-6.996
			c-13.087,1.87-37.381,10.722-43.299,12.925c-11.011-3.083-20.769-4.277-27.14-4.731V141.5H271.4c4.005,0,7.281-3.188,7.392-7.192
			c0.002-0.07,0.004-0.14,0.006-0.21c0.116-4.162-3.228-7.598-7.392-7.598H15v-19h388.641c7.93,0,14.359,6.429,14.359,14.359V154.5
			h-21.85c-0.05,0-0.1,0.004-0.15,0.004V134c0-4.142-3.358-7.5-7.5-7.5h-68.6c-4.071,0-7.372,3.29-7.395,7.362
			c0,0.064-0.001,0.128-0.001,0.192c-0.024,4.104,3.29,7.446,7.395,7.446H381v15.133c-23.064,6.601-40,27.861-40,53.017v38.383
			c-25.638-8.556-48.178-9.489-49.223-9.527c-4.148-0.165-7.618,3.078-7.772,7.217c-0.153,4.139,3.078,7.619,7.218,7.772
			c0.248,0.009,24.271,1.003,49.777,10.437v106.835c0,0.932,0.094,1.84,0.233,2.734h-15.414
			c-0.442-0.011-22.301-0.774-49.302-25.075c-32.868-29.581-57.36-21.881-58.39-21.541c-3.93,1.31-6.053,5.557-4.743,9.487
			s5.555,6.053,9.487,4.744c0.166-0.058,17.584-4.964,43.61,18.459c6.327,5.694,12.435,10.252,18.179,13.925H15V267.835z
			 M418,395.217c0,5.119-4.164,9.283-9.282,9.283H15v-16h403V395.217z M494.266,373.5H358.734c-1.508,0-2.734-1.227-2.734-2.734
			V209.65c0-22.139,18.012-40.15,40.15-40.15h60.699c22.139,0,40.15,18.011,40.15,40.15v161.116H497
			C497,372.273,495.773,373.5,494.266,373.5z"/>
	</g>
</g>
<g>
	<g>
		<path d="M477.499,262.515V219c0-4.142-3.357-7.5-7.5-7.5s-7.5,3.358-7.5,7.5v27.41c-8.426-6.259-18.528-10.378-29.499-11.556
			V197.63l3.911,4.371c2.763,3.087,7.502,3.35,10.59,0.588c3.087-2.762,3.351-7.503,0.588-10.59l-17-19
			c-1.449-1.619-3.53-2.533-5.701-2.498c-2.173,0.033-4.225,1.006-5.625,2.668l-16,19c-2.668,3.168-2.262,7.9,0.906,10.568
			c1.407,1.185,3.121,1.763,4.827,1.763c2.136,0,4.258-0.907,5.741-2.669L418,198.55v36.559c-11.073,1.564-21.19,6.134-29.499,12.86
			V219c0-4.142-3.357-7.5-7.5-7.5s-7.5,3.358-7.5,7.5v45.732c0,0.339,0.03,0.671,0.074,0.998C368.755,274.41,366,284.388,366,295
			c0,33.36,27.141,60.5,60.5,60.5S487,328.36,487,295C487,283.05,483.503,271.907,477.499,262.515z M426.5,340.5
			c-25.089,0-45.5-20.411-45.5-45.5s20.411-45.5,45.5-45.5S472,269.911,472,295S451.589,340.5,426.5,340.5z"/>
	</g>
</g>
<g>
	<g>
		<path d="M453.018,310.911l-10.049-10.049c0.656-1.836,1.031-3.803,1.031-5.862c0-9.649-7.851-17.5-17.5-17.5
			c-2.058,0-4.026,0.376-5.862,1.031l-10.048-10.048c-2.929-2.929-7.678-2.93-10.606,0c-2.93,2.929-2.93,7.677-0.001,10.606
			l10.048,10.048C409.376,290.974,409,292.942,409,295c0,9.649,7.851,17.5,17.5,17.5c2.058,0,4.026-0.376,5.862-1.031l10.048,10.048
			c1.465,1.465,3.384,2.197,5.304,2.197c1.919,0,3.839-0.732,5.303-2.197C455.947,318.588,455.947,313.84,453.018,310.911z
			 M426.5,297.5c-1.379,0-2.5-1.122-2.5-2.5s1.121-2.5,2.5-2.5c1.379,0,2.5,1.122,2.5,2.5S427.879,297.5,426.5,297.5z"/>
	</g>
</g>
<g>
	<g>
		<path d="M271.5,166.5c-16.817,0-30.5,13.682-30.5,30.5c0,14.23,9.797,26.213,23,29.564V245c0,4.142,3.357,7.5,7.5,7.5
			s7.5-3.358,7.5-7.5v-18.436c13.203-3.351,23-15.334,23-29.564C302,180.182,288.317,166.5,271.5,166.5z M271.5,212.5
			c-8.547,0-15.5-6.953-15.5-15.5s6.953-15.5,15.5-15.5S287,188.453,287,197S280.047,212.5,271.5,212.5z"/>
	</g>
</g>
<g>
	<g>
		<path d="M197.5,252.5c-16.817,0-30.5,13.682-30.5,30.5c0,14.23,9.797,26.213,23,29.564V331c0,4.142,3.357,7.5,7.5,7.5
			s7.5-3.358,7.5-7.5v-18.436c13.203-3.351,23-15.334,23-29.564C228,266.182,214.317,252.5,197.5,252.5z M197.5,298.5
			c-8.547,0-15.5-6.953-15.5-15.5s6.953-15.5,15.5-15.5S213,274.453,213,283S206.047,298.5,197.5,298.5z"/>
	</g>
</g>
<g>
	<g>
		<path d="M106.5,169.5C89.683,169.5,76,183.182,76,200c0,14.23,9.797,26.213,23,29.564V248c0,4.142,3.357,7.5,7.5,7.5
			s7.5-3.358,7.5-7.5v-18.436c13.203-3.351,23-15.334,23-29.564C137,183.182,123.317,169.5,106.5,169.5z M106.5,215.5
			c-8.547,0-15.5-6.953-15.5-15.5s6.953-15.5,15.5-15.5S122,191.453,122,200S115.047,215.5,106.5,215.5z"/>
	</g>
</g>
<g>
	<g>
		<path d="M249.779,230.61c-52.771-9.132-117.04,3.494-119.75,4.036c-4.062,0.813-6.696,4.764-5.884,8.825
			c0.713,3.565,3.845,6.031,7.347,6.031c0.487,0,0.982-0.048,1.479-0.147c0.636-0.127,64.207-12.626,114.25-3.964
			c4.09,0.704,7.963-2.029,8.669-6.111C256.597,235.198,253.86,231.316,249.779,230.61z"/>
	</g>
</g>
<g>
</g>
<g>
</g>
<g>
</g>
<g>
</g>
<g>
</g>
<g>
</g>
<g>
</g>
<g>
</g>
<g>
</g>
<g>
</g>
<g>
</g>
<g>
</g>
<g>
</g>
<g>
</g>
<g>
</g>
</svg>
