<?xml version="1.0" encoding="iso-8859-1"?>
<!-- Generator: Adobe Illustrator 19.0.0, SVG Export Plug-In . SVG Version: 6.00 Build 0)  -->
<svg version="1.1" id="Capa_1" xmlns="http://www.w3.org/2000/svg" xmlns:xlink="http://www.w3.org/1999/xlink" x="0px" y="0px"
	 viewBox="0 0 512 512" style="enable-background:new 0 0 512 512;" xml:space="preserve">
<g>
	<g>
		<path d="M287.947,320.314c-0.238-5.342-1.883-10.407-4.756-14.649c-1.39-2.052-3.02-3.863-4.843-5.381
			c-2.769-2.307-6.346-3.21-9.771-2.598c0.578-3.207,0.62-6.607,0.099-10.104c-1.48-9.923-7.49-19.963-14.613-24.416
			c-2.789-1.744-6.432-1.564-8.922,0.588c-2.479,2.144-3.319,5.549-2.02,8.553c0.837,2.3,3.83,13.38-12.26,21.471
			c-5.545,2.788-9.805,7.482-11.995,13.218c-1.495,3.915-2.272,8.305-2.312,13.046c-0.108,13.009,7.009,24.942,18.577,31.145
			c1.981,1.062,4.12,2.087,6.354,3.048c4.226,1.817,8.753,2.727,13.258,2.727c4.281,0,8.542-0.822,12.503-2.468
			C281.327,348.642,288.679,336.503,287.947,320.314z M261.492,340.642c-4.41,1.832-9.542,1.765-14.081-0.188
			c-1.842-0.792-3.59-1.629-5.193-2.489c-6.639-3.56-10.726-10.38-10.664-17.799c0.025-2.95,0.471-5.582,1.326-7.822
			c0.851-2.229,2.526-4.063,4.719-5.166c7.96-4.003,13.168-8.915,16.437-14.005c-0.122,2.871-1.045,5.311-2.76,7.283
			c-8.953,10.292-6.432,17.977-4.132,21.641c3.688,5.879,11.316,8.241,17.745,5.493c2.502-1.069,6.087-3.469,7.829-8.713
			c0.131,0.686,0.214,1.392,0.246,2.112C273.409,330.82,269.656,337.249,261.492,340.642z"/>
	</g>
</g>
<g>
	<g>
		<path d="M297,415h-32c-4.143,0-7.5,3.358-7.5,7.5c0,4.142,3.357,7.5,7.5,7.5h32c4.143,0,7.5-3.358,7.5-7.5
			C304.5,418.358,301.143,415,297,415z"/>
	</g>
</g>
<g>
	<g>
		<path d="M317.164,190c5.645,0,10.406-3.816,11.866-9h10.274c9.498,0,17.197-7.699,17.197-17.197V75.816
			c0-33.425-26.245-60.828-59.208-62.705C296.122,5.695,289.707,0,281.968,0h-51.936c-7.739,0-14.155,5.695-15.324,13.111
			c-32.964,1.877-59.208,29.28-59.208,62.705v87.986c0,9.498,7.7,17.198,17.198,17.198h10.273c1.46,5.184,6.221,9,11.865,9h2.664
			v16.868c-7.068,3.238-12,10.362-12,18.632c0,5.718,2.359,10.892,6.148,14.614c-12.19,8.787-20.148,23.095-20.148,39.236v70.302
			c0,13.963,5.957,26.556,15.454,35.39c-0.59,0.553-1.106,1.193-1.498,1.929l-17.039,31.936c-0.009,0.016-0.017,0.031-0.025,0.047
			l-0.009,0.017c-0.006,0.012-0.01,0.024-0.016,0.036c-0.125,0.236-0.235,0.481-0.334,0.731c-0.026,0.066-0.049,0.132-0.073,0.199
			c-0.074,0.202-0.139,0.408-0.195,0.618c-0.021,0.078-0.042,0.156-0.06,0.234c-0.049,0.208-0.087,0.419-0.118,0.634
			c-0.011,0.074-0.025,0.146-0.034,0.22c-0.032,0.282-0.053,0.568-0.053,0.859v49.555c-7.361,3.512-12.384,11.163-11.977,19.937
			C156.046,503.281,165.705,512,177.005,512h155.988c11.301,0,20.96-8.719,21.483-20.008c0.407-8.774-4.616-16.425-11.977-19.937
			V422.5c0-1.231-0.304-2.444-0.883-3.53l-17.073-32c-0.393-0.736-0.908-1.376-1.498-1.929c9.498-8.834,15.454-21.427,15.454-35.39
			v-38.549c0-4.115-3.336-7.451-7.451-7.451h-0.097c-4.115,0-7.451,3.336-7.451,7.451v38.549c0,18.418-14.931,33.349-33.349,33.349
			H219.85c-18.418,0-33.349-14.931-33.349-33.349v-70.302c0-18.418,14.931-33.349,33.349-33.349h70.302
			c13.472,0,25.097,8.032,30.353,19.556c1.21,2.653,3.929,4.292,6.845,4.292c5.361,0,9.055-5.529,6.84-10.411
			c-3.513-7.742-9.007-14.401-15.837-19.324c3.789-3.722,6.148-8.895,6.148-14.613c0-7.463-4.022-13.989-10-17.574V190H317.164z
			 M339.5,491c0,3.309-2.691,6-6,6h-157c-3.309,0-6-2.691-6-6c0-3.309,2.691-6,6-6h157C336.809,485,339.5,487.691,339.5,491z
			 M196.572,398h116.855l14.072,26.375V470h-145v-40h0.001H243c4.142,0,7.5-3.358,7.5-7.5c0-4.142-3.358-7.5-7.5-7.5h-55.498
			L196.572,398z M229.5,15.532c0-0.293,0.239-0.532,0.532-0.532h51.936c0.294,0,0.532,0.239,0.532,0.532v9.937
			c0,0.293-0.238,0.532-0.532,0.532h-51.936c-0.293,0-0.532-0.239-0.532-0.532V15.532z M304,231h-98c-3.033,0-5.5-2.467-5.5-5.5
			s2.467-5.5,5.5-5.5h98c3.032,0,5.5,2.467,5.5,5.5S307.032,231,304,231z M212.5,205v-15h87v15H212.5z M197.5,175v-13.187
			c0-19.196,15.617-34.813,34.813-34.813h47.373c19.196,0,34.813,15.617,34.813,34.813V175H197.5z M252.5,112V97h7v15H252.5z
			 M279.687,112H274.5V96.541c0-8.018-6.523-14.541-14.541-14.541h-7.918c-8.018,0-14.541,6.523-14.541,14.541V112h-5.187
			c-27.467,0-49.813,22.346-49.813,49.813V166h-9.802c-1.212,0-2.198-0.986-2.198-2.198V75.816
			c0-25.164,19.544-45.836,44.248-47.669C216.023,35.437,222.382,41,230.031,41h51.936c7.649,0,14.01-5.563,15.285-12.853
			C321.957,29.98,341.5,50.652,341.5,75.816v87.986c0,1.212-0.985,2.198-2.197,2.198H329.5v-4.187
			C329.5,134.346,307.153,112,279.687,112z"/>
	</g>
</g>
<g>
</g>
<g>
</g>
<g>
</g>
<g>
</g>
<g>
</g>
<g>
</g>
<g>
</g>
<g>
</g>
<g>
</g>
<g>
</g>
<g>
</g>
<g>
</g>
<g>
</g>
<g>
</g>
<g>
</g>
</svg>
