<?xml version="1.0" encoding="iso-8859-1"?>
<!-- Generator: Adobe Illustrator 19.0.0, SVG Export Plug-In . SVG Version: 6.00 Build 0)  -->
<svg version="1.1" id="Capa_1" xmlns="http://www.w3.org/2000/svg" xmlns:xlink="http://www.w3.org/1999/xlink" x="0px" y="0px"
	 viewBox="0 0 512 512" style="enable-background:new 0 0 512 512;" xml:space="preserve">
<g>
	<g>
		<circle cx="151.5" cy="349" r="9.5"/>
	</g>
</g>
<g>
	<g>
		<path d="M256.5,194.5c-47.145,0-85.5,38.355-85.5,85.5s38.355,85.5,85.5,85.5S342,327.145,342,280
			C342,232.855,303.645,194.5,256.5,194.5z M256.5,350.5c-38.874,0-70.5-31.626-70.5-70.5c0-38.874,31.626-70.5,70.5-70.5
			c38.874,0,70.5,31.626,70.5,70.5C327,318.874,295.374,350.5,256.5,350.5z"/>
	</g>
</g>
<g>
	<g>
		<path d="M298.707,258.245c2.09-3.605,3.293-7.786,3.293-12.245c0-13.509-10.991-24.5-24.5-24.5
			c-8.529,0-16.051,4.384-20.44,11.014c-0.187-0.002-0.374-0.014-0.56-0.014c-26.191,0-47.5,21.309-47.5,47.5s21.309,47.5,47.5,47.5
			c26.191,0,47.5-21.309,47.5-47.5C304,272.423,302.16,264.939,298.707,258.245z M277.5,236.5c5.238,0,9.5,4.262,9.5,9.5
			c0,5.238-4.262,9.5-9.5,9.5c-5.238,0-9.5-4.262-9.5-9.5C268,240.762,272.262,236.5,277.5,236.5z M256.5,312.5
			c-17.92,0-32.5-14.58-32.5-32.5c0-16.76,12.753-30.595,29.064-32.317c0.869,12.726,11.493,22.817,24.436,22.817
			c3.341,0,6.526-0.674,9.431-1.89c1.353,3.624,2.069,7.487,2.069,11.39C289,297.92,274.42,312.5,256.5,312.5z"/>
	</g>
</g>
<g>
	<g>
		<path d="M445.834,142.5h-52.667c-8.363,0-15.167,6.804-15.167,15.167v24.667c0,8.363,6.804,15.167,15.167,15.167h52.667
			c8.363,0,15.167-6.804,15.167-15.167v-24.667C461.001,149.303,454.197,142.5,445.834,142.5z M446.001,182.334
			c0,0.092-0.075,0.167-0.167,0.167h-52.667c-0.092,0-0.167-0.075-0.167-0.167v-24.667c0-0.092,0.075-0.167,0.167-0.167h52.667
			c0.092,0,0.167,0.075,0.167,0.167V182.334z"/>
	</g>
</g>
<g>
	<g>
		<path d="M120.201,162.5H78.799C71.19,162.5,65,168.69,65,176.299v7.401c0,7.609,6.19,13.799,13.799,13.799H120.2
			c7.609,0,13.799-6.19,13.799-13.799v-7.401C134,168.69,127.81,162.5,120.201,162.5z M119,182.5H80v-5h39V182.5z"/>
	</g>
</g>
<g>
	<g>
		<path d="M347.856,140.674h-15.712c-7.248,0-13.144,5.896-13.144,13.144v13.364c0,7.248,5.896,13.144,13.144,13.144h15.712
			c7.248,0,13.144-5.896,13.144-13.144v-13.364C361,146.57,355.104,140.674,347.856,140.674z M346,165.326h-12v-9.652h12V165.326z"
			/>
	</g>
</g>
<g>
	<g>
		<path d="M490.518,213.5h-4.543c0.011-0.166,0.025-0.331,0.025-0.5v-70.052c0-13.481-10.967-24.448-24.448-24.448H305.639
			c-1.576,0-3.111,0.496-4.389,1.418L271.345,141.5H251v-9.944c4.18-2.453,7-6.983,7-12.169v-8.773
			c0-7.782-6.331-14.113-14.113-14.113h-74.773c-7.782,0-14.113,6.331-14.113,14.113v8.773c0,5.187,2.82,9.716,7,12.169v9.944h-34.5
			V126c0-3.196-2.003-5.917-4.818-6.998v-7.675c0-8.176-6.652-14.828-14.828-14.828H79.146c-8.176,0-14.828,6.652-14.828,14.828
			v7.675c-2.816,1.08-4.818,3.802-4.818,6.998v15.5h-8.052C37.967,141.5,27,152.467,27,165.948V213c0,0.169,0.014,0.334,0.025,0.5
			h-5.543C9.637,213.5,0,223.137,0,234.982v17.035C0,263.863,9.637,273.5,21.482,273.5H27v117.552
			c0,13.481,10.967,24.448,24.448,24.448h410.104c13.481,0,24.448-10.967,24.448-24.448V273.5h4.518
			c11.845,0,21.482-9.637,21.482-21.482v-17.035C512,223.137,502.363,213.5,490.518,213.5z M27,258.5h-5.518
			c-3.574,0-6.482-2.908-6.482-6.482v-17.035c0-3.574,2.908-6.482,6.482-6.482H27V258.5z M170,111.5h73v7h-73V111.5z M236,133.5v7
			h-59v-7H236z M79.318,111.5h28.363v7H79.318V111.5z M74.5,133.5h38v7h-38V133.5z M42,221.5h118.441
			c-1.669,2.731-3.212,5.546-4.648,8.423H42V221.5z M159,280c0-53.762,43.738-97.5,97.5-97.5c53.762,0,97.5,43.738,97.5,97.5
			c0,53.762-43.738,97.5-97.5,97.5C202.738,377.5,159,333.762,159,280z M168.923,350.529c-0.778,8.935-8.289,15.972-17.423,15.972
			c-9.649,0-17.5-7.851-17.5-17.5s7.851-17.5,17.5-17.5c1.609,0,3.199,0.217,4.728,0.644c0.231,0.064,0.463,0.115,0.694,0.156
			C160.336,338.773,164.361,344.874,168.923,350.529z M42,244.923h107.608C145.974,255.966,144,267.756,144,280
			c0,12.784,2.148,25.075,6.094,36.536C132.824,317.275,119,331.551,119,349c0,2.439,0.279,4.812,0.79,7.099H42V244.923z
			 M471,391.052c0,5.21-4.238,9.448-9.448,9.448H51.448c-5.21,0-9.448-4.238-9.448-9.448v-19.953h85.699
			c5.939,6.392,14.409,10.401,23.801,10.401c12.863,0,24.004-7.513,29.268-18.38c20.003,18.241,46.591,29.38,75.732,29.38
			c24.363,0,46.94-7.788,65.378-21H471V391.052z M471,229.923h-40.974c-4.865,0-8.409,4.616-7.152,9.316
			c0.017,0.064,0.034,0.128,0.051,0.192c0.859,3.242,3.798,5.493,7.152,5.493H471V356.5H338.905
			C357.567,336.411,369,309.518,369,280c0-12.244-1.974-24.034-5.608-35.077h20.267c3.603,0,6.708-2.589,7.296-6.144
			c0.01-0.064,0.021-0.127,0.032-0.191c0.767-4.528-2.702-8.665-7.294-8.665h-26.484c-1.437-2.877-2.979-5.692-4.648-8.423H471
			V229.923z M471,205.5H341.134c-0.135,0-0.267,0.013-0.401,0.02c-20.627-23.301-50.74-38.02-84.233-38.02
			c-33.482,0-63.583,14.712-84.209,38H42v-39.552c0-5.21,4.238-9.448,9.448-9.448h222.321c1.576,0,3.111-0.496,4.389-1.418
			l29.905-21.582h153.489c5.21,0,9.448,4.238,9.448,9.448V205.5z M497,252.018c0,3.574-2.908,6.482-6.482,6.482H486v-30h4.518
			c3.574,0,6.482,2.908,6.482,6.482V252.018z"/>
	</g>
</g>
<g>
</g>
<g>
</g>
<g>
</g>
<g>
</g>
<g>
</g>
<g>
</g>
<g>
</g>
<g>
</g>
<g>
</g>
<g>
</g>
<g>
</g>
<g>
</g>
<g>
</g>
<g>
</g>
<g>
</g>
</svg>
