<?xml version="1.0" encoding="iso-8859-1"?>
<!-- Generator: Adobe Illustrator 19.0.0, SVG Export Plug-In . SVG Version: 6.00 Build 0)  -->
<svg version="1.1" id="Capa_1" xmlns="http://www.w3.org/2000/svg" xmlns:xlink="http://www.w3.org/1999/xlink" x="0px" y="0px"
	 viewBox="0 0 512 512" style="enable-background:new 0 0 512 512;" xml:space="preserve">
<g>
	<g>
		<path d="M416.936,63.875H285.193c-4.134,0-7.485,3.351-7.485,7.485V174.16c0,4.134,3.352,7.485,7.485,7.485h131.743
			c4.134,0,7.485-3.351,7.485-7.485V71.361C424.421,67.227,421.07,63.875,416.936,63.875z M409.45,166.674H292.678V78.846H409.45
			V166.674z"/>
	</g>
</g>
<g>
	<g>
		<path d="M351.064,80.842c-22.838,0-41.419,18.581-41.419,41.419c0,22.838,18.581,41.419,41.419,41.419
			s41.419-18.581,41.419-41.419C392.483,99.423,373.903,80.842,351.064,80.842z M351.064,148.71
			c-14.583,0-26.448-11.865-26.448-26.448c0-14.584,11.865-26.448,26.448-26.448s26.448,11.865,26.448,26.448
			C377.513,136.845,365.648,148.71,351.064,148.71z"/>
	</g>
</g>
<g>
	<g>
		<circle cx="351.064" cy="122.261" r="12.975"/>
	</g>
</g>
<g>
	<g>
		<path d="M219.419,109.786h-64.071c-10.677,0-19.364,8.687-19.364,19.364v52.094c0,10.677,8.687,19.364,19.364,19.364h64.071
			c10.677,0,19.364-8.687,19.364-19.364V129.15C238.784,118.473,230.097,109.786,219.419,109.786z M223.813,181.244
			c0,2.422-1.971,4.393-4.393,4.393h-64.071c-2.422,0-4.393-1.971-4.393-4.393V129.15c0-2.422,1.971-4.393,4.393-4.393h64.071
			c2.422,0,4.393,1.971,4.393,4.393V181.244z"/>
	</g>
</g>
<g>
	<g>
		<path d="M174.409,207.595c-17.885,0-32.437,14.552-32.437,32.437s14.552,32.437,32.437,32.437s32.437-14.552,32.437-32.437
			S192.294,207.595,174.409,207.595z M174.409,257.497c-9.63,0-17.466-7.836-17.466-17.466s7.836-17.466,17.466-17.466
			s17.466,7.836,17.466,17.466S184.04,257.497,174.409,257.497z"/>
	</g>
</g>
<g>
	<g>
		<path d="M286.377,220.569h-46.282c-8.978,0-16.282,7.304-16.282,16.282v6.36c0,8.978,7.304,16.282,16.282,16.282h46.282
			c8.979,0,16.282-7.304,16.282-16.282v-6.36C302.659,227.873,295.355,220.569,286.377,220.569z M287.688,243.211
			c0,0.724-0.588,1.311-1.311,1.311h-46.282c-0.724,0-1.311-0.588-1.311-1.311v-6.36c0-0.724,0.588-1.311,1.311-1.311h46.282
			c0.724,0,1.311,0.588,1.311,1.311V243.211z"/>
	</g>
</g>
<g>
	<g>
		<path d="M369.215,220.569h-26.321c-8.978,0-16.282,7.304-16.282,16.282v6.36c0,8.978,7.304,16.282,16.282,16.282h26.321
			c8.978,0,16.282-7.304,16.282-16.282v-6.36C385.497,227.873,378.193,220.569,369.215,220.569z M370.526,243.211
			c0,0.724-0.588,1.311-1.311,1.311h-26.321c-0.724,0-1.311-0.588-1.311-1.311v-6.36c0-0.724,0.588-1.311,1.311-1.311h26.321
			c0.724,0,1.311,0.588,1.311,1.311V243.211z"/>
	</g>
</g>
<g>
	<g>
		<path d="M422.874,41.918h-23.903v-4.362c0-11.903-9.684-21.587-21.587-21.587H249.891c-11.903,0-21.587,9.684-21.587,21.587
			v21.329h-11.478v-3.538c0-7.405-6.024-13.429-13.429-13.429h-4.536v-5.5c6.31-1.678,10.979-7.423,10.979-14.254v-7.4
			C209.84,6.623,203.217,0,195.076,0h-27.361c-8.141,0-14.764,6.623-14.764,14.764v7.4c0,6.831,4.669,12.575,10.979,14.254v5.5
			h-4.536c-7.405,0-13.429,6.024-13.429,13.429v3.538h-6.986V46.974c0-8.292-6.746-15.037-15.037-15.037h-6.854
			c-8.292,0-15.037,6.746-15.037,15.037v12.612c-10.867,2.636-18.963,12.44-18.963,24.106v124.9H81.07
			c-8.242,0-14.948,6.706-14.948,14.948v28.989c0,8.242,6.706,14.948,14.948,14.948h2.019v29.087
			c-0.001,13.679,11.127,24.808,24.807,24.808h60.027v30.966c0,8.791,7.152,15.943,15.943,15.943h6.513v24.951h-62.813
			c-0.955-2.697-3.407-4.704-6.406-4.962l-34.424-2.972c-5.409-0.467-10.812,1.371-14.814,5.043
			c-4.003,3.673-6.299,8.894-6.299,14.326v16.055c0,5.432,2.296,10.653,6.299,14.326c3.593,3.297,8.311,5.115,13.153,5.115
			c0.552,0,1.107-0.024,1.661-0.072l34.424-2.972c3.359-0.29,6.039-2.771,6.688-5.96h62.532v22.955h-59.582
			c-9.797,0-17.767,7.97-17.767,17.767v22.352c0,9.797,7.97,17.767,17.767,17.767h252.902c9.797,0,17.767-7.97,17.767-17.767V471.88
			c0-9.797-7.97-17.767-17.767-17.767h-59.582v-22.955h33.934c4.134,0,7.485-3.351,7.485-7.485v-22.955
			c0-4.134-3.351-7.485-7.485-7.485h-33.934v-24.951h8.509c8.791,0,15.943-7.152,15.943-15.943v-30.966h60.027
			c13.679,0,24.808-11.128,24.808-24.808v-95.462c7.686-3.868,12.975-11.828,12.975-21.004V65.422
			C446.378,52.462,435.835,41.918,422.874,41.918z M113.029,422.794l-27.582,2.381c-1.706,0.143-2.865-0.664-3.406-1.16
			c-0.541-0.496-1.448-1.584-1.448-3.294v-16.055c0-1.71,0.907-2.798,1.448-3.294c0.497-0.456,1.518-1.178,3.002-1.178
			c0.131,0,0.266,0.006,0.404,0.018l27.582,2.381V422.794z M324.616,408.203h25.949v7.984h-25.949V408.203z M243.275,37.556
			c0-3.648,2.968-6.616,6.616-6.616h127.492c3.648,0,6.616,2.968,6.616,6.616v4.362H279.255c-10.691,0-19.732,7.179-22.572,16.967
			h-13.408V37.556z M198.862,56.889h2.994v9.481c0,4.134,3.351,7.485,7.485,7.485h46.409v10.979h-56.889V56.889z M167.922,14.971
			h26.947v6.986h-26.947V14.971z M178.901,41.918v-4.99h4.99v4.99H178.901z M183.891,56.889v27.945h-4.99V56.889H183.891z
			 M117.087,46.908h6.854l0.066,0.066v10.913h-6.959L117.087,46.908z M128,416.187v-7.984h62.378v7.984H128z M383.699,469.084
			c1.542,0,2.797,1.255,2.797,2.797v22.352c0,1.542-1.255,2.797-2.797,2.797H130.797c-1.542,0-2.797-1.255-2.797-2.797V471.88
			c0-1.542,1.255-2.797,2.797-2.797H383.699z M205.349,452.616v-84.335h12.476v84.335H205.349z M232.795,452.616v-84.335H281.7
			v84.335H232.795z M296.671,452.616v-84.335h12.476v84.335H296.671z M333.598,352.338c0,0.536-0.436,0.972-0.972,0.972H183.865
			c-0.536,0-0.972-0.436-0.972-0.972v-30.966h150.706V352.338z M418.433,296.565L418.433,296.565c0,5.433-4.404,9.837-9.837,9.837
			H107.895c-5.433,0-9.837-4.404-9.837-9.837v-36.573c0-4.134-3.351-7.485-7.485-7.485l-9.482,0.023l-0.023-28.966h9.504
			c4.134,0,7.485-3.351,7.485-7.485V83.693c0-5.433,4.404-9.837,9.837-9.837h45.555c4.134,0,7.485-3.352,7.485-7.485v-9.481h2.994
			v27.945h-47.407c-4.134,0-7.485,3.352-7.485,7.485v195.618c0,4.134,3.351,7.485,7.485,7.485h185.194
			c4.361,0,7.785-3.76,7.355-8.099c-0.006-0.064-0.012-0.127-0.019-0.19c-0.361-3.791-3.547-6.681-7.355-6.681h-177.69V99.805
			h131.743v80.293c0,12.981,10.523,23.504,23.504,23.504h113.229v76.85h-44.299c-3.917,0-7.134,3.057-7.377,6.967
			c-0.004,0.064-0.008,0.127-0.012,0.191c-0.279,4.239,3.131,7.813,7.378,7.813h51.796c4.134,0,7.485-3.351,7.485-7.485v-84.335
			h10.979V296.565z M431.407,180.098c0,4.705-3.828,8.533-8.533,8.533h-143.62c-4.705,0-8.533-3.828-8.533-8.533V65.422
			c0-4.705,3.828-8.533,8.533-8.533h143.62c4.705,0,8.533,3.828,8.533,8.533V180.098z"/>
	</g>
</g>
<g>
</g>
<g>
</g>
<g>
</g>
<g>
</g>
<g>
</g>
<g>
</g>
<g>
</g>
<g>
</g>
<g>
</g>
<g>
</g>
<g>
</g>
<g>
</g>
<g>
</g>
<g>
</g>
<g>
</g>
</svg>
