<?xml version="1.0" encoding="iso-8859-1"?>
<!-- Generator: Adobe Illustrator 19.0.0, SVG Export Plug-In . SVG Version: 6.00 Build 0)  -->
<svg version="1.1" id="Capa_1" xmlns="http://www.w3.org/2000/svg" xmlns:xlink="http://www.w3.org/1999/xlink" x="0px" y="0px"
	 viewBox="0 0 512.001 512.001" style="enable-background:new 0 0 512.001 512.001;" xml:space="preserve">
<g>
	<g>
		<path d="M357.013,182.116c-2.608-3.532-7.771-3.879-10.876-0.775l-0.406,0.406c-2.512,2.514-2.823,6.488-0.715,9.35
			c14.326,19.446,22.442,43.735,21.394,69.915c-2.303,57.559-49.162,104.052-106.736,105.928
			c-63.822,2.08-116.185-50.278-114.114-114.098c1.887-58.122,49.205-105.196,107.335-106.799
			c21.249-0.586,41.208,4.865,58.291,14.754c2.856,1.654,6.455,1.238,8.789-1.095c0.139-0.139,0.278-0.278,0.416-0.416
			c3.352-3.352,2.608-8.964-1.49-11.348c-19.771-11.501-42.95-17.761-67.625-16.85c-65.541,2.42-118.577,55.7-120.708,121.251
			c-2.357,72.503,57.143,131.983,129.653,129.592c66.002-2.176,119.42-55.91,121.231-121.923
			C382.252,230.843,373.039,203.819,357.013,182.116z"/>
	</g>
</g>
<g>
	<g>
		<path d="M300.001,179.625c-13.233,0-24,10.766-24,24c0,11.657,14.635,25.103,19.12,28.945c1.404,1.203,3.142,1.805,4.88,1.805
			c1.738,0,3.476-0.602,4.88-1.805c4.485-3.843,19.12-17.288,19.12-28.945C324.001,190.391,313.234,179.625,300.001,179.625z
			 M299.996,216.572c-5.049-5.206-8.995-10.721-8.995-12.947c0-4.962,4.037-9,9-9s9,4.038,9,9
			C309.001,205.838,305.049,211.356,299.996,216.572z"/>
	</g>
</g>
<g>
	<g>
		<path d="M313.275,262.684l-3.998-16.003c-1.005-4.019-5.081-6.459-9.096-5.457c-4.019,1.004-6.461,5.077-5.457,9.095l3.776,15.104
			v24.497l-10.669,3.201l-20.065-17.657l-11.943-51.752c-2.306-9.994-12.341-16.337-22.351-14.147l-11.526,2.521
			c-9.053,1.98-15.393,10.444-14.746,19.687l2.271,32.574l-0.925,8.326c-0.457,4.117,2.509,7.825,6.626,8.282
			c4.122,0.455,7.825-2.51,8.282-6.626l1-9c0.05-0.448,0.06-0.9,0.027-1.35l-2.319-33.251c-0.131-1.873,1.153-3.587,2.988-3.988
			l11.526-2.521c2.034-0.441,4.063,0.842,4.53,2.867l12.485,54.103c0.353,1.528,1.176,2.908,2.353,3.944l25,22
			c1.389,1.221,3.155,1.87,4.956,1.87c0.72,0,1.445-0.104,2.154-0.316l20-6c3.172-0.952,5.345-3.872,5.345-7.184v-31
			C313.499,263.89,313.424,263.279,313.275,262.684z"/>
	</g>
</g>
<g>
	<g>
		<path d="M414.482,316.384c-1.299-3.91-4.043-7.081-7.727-8.929L399.864,304c4.948-14.948,7.636-30.915,7.636-47.501
			c0-17.236-2.9-33.805-8.226-49.255l7.705-4.448c7.366-4.253,9.899-13.706,5.646-21.073l-10.073-17.447
			c-2.06-3.569-5.387-6.122-9.367-7.188c-3.98-1.066-8.137-0.519-11.706,1.542l-6.738,3.89c-1.374-1.732-2.794-3.424-4.241-5.093
			v-47.365C370.501,94.588,357.913,82,342.439,82h-3.938V27.729C338.501,12.439,326.063,0,310.772,0H201.23
			c-15.291,0-27.729,12.439-27.729,27.729V82h-3.938c-15.474,0-28.062,12.588-28.062,28.062v47.365
			c-1.446,1.669-2.867,3.361-4.241,5.093l-6.738-3.89c-3.567-2.06-7.724-2.607-11.706-1.542c-3.98,1.067-7.308,3.62-9.367,7.188
			l-10.073,17.448c-4.253,7.367-1.72,16.82,5.646,21.073l7.705,4.448c-5.326,15.45-8.226,32.019-8.226,49.255
			c0,16.586,2.688,32.553,7.636,47.501l-6.892,3.455c-3.683,1.847-6.427,5.018-7.726,8.928c-1.298,3.911-0.996,8.093,0.852,11.776
			l9.028,18.01c1.847,3.684,5.018,6.428,8.929,7.727c1.599,0.53,3.241,0.794,4.877,0.794c2.368,0,4.722-0.552,6.899-1.644
			l8.02-4.021c1.729,2.235,3.528,4.412,5.376,6.545v46.368c0,15.473,12.588,28.062,28.062,28.062h3.938v54.271
			c0,15.29,12.438,27.729,27.729,27.729h109.543c15.29,0,27.729-12.439,27.729-27.729V430h3.938
			c15.474,0,28.062-12.588,28.062-28.062v-46.375c1.848-2.131,3.649-4.305,5.376-6.538l8.02,4.021
			c2.179,1.092,4.531,1.644,6.899,1.644c1.636,0,3.279-0.264,4.877-0.794c3.911-1.299,7.082-4.043,8.928-7.727l9.029-18.009
			C415.479,324.478,415.78,320.295,414.482,316.384z M388.98,171.62c0.042-0.024,0.152-0.089,0.324-0.042
			c0.17,0.045,0.234,0.156,0.259,0.199l10.073,17.447c0.117,0.204,0.048,0.466-0.156,0.583l-4.827,2.787l-10.5-18.187L388.98,171.62
			z M201.23,15h109.543c7.019,0,12.729,5.71,12.729,12.729V82h-135V27.729h-0.001C188.501,20.71,194.211,15,201.23,15z
			 M156.501,110.062c0-7.202,5.859-13.062,13.062-13.062H342.44c7.202,0,13.062,5.859,13.062,13.062v32.307
			C328.864,119.114,294.054,105,256.001,105c-38.053,0-72.863,14.114-99.5,37.369V110.062z M112.522,189.807
			c-0.204-0.118-0.273-0.379-0.156-0.583l10.073-17.448c0.024-0.042,0.089-0.153,0.259-0.198c0.043-0.012,0.082-0.016,0.117-0.016
			c0.105,0,0.176,0.041,0.207,0.059l4.827,2.787l-10.5,18.187L112.522,189.807z M121.382,339.637
			c-0.044,0.022-0.157,0.08-0.326,0.023c-0.168-0.056-0.225-0.17-0.247-0.213l-9.029-18.011c-0.021-0.043-0.079-0.158-0.023-0.325
			c0.056-0.167,0.171-0.225,0.213-0.247l4.983-2.498l9.412,18.772L121.382,339.637z M323.501,484.271
			c0,7.019-5.71,12.729-12.729,12.729H201.23c-7.019,0-12.729-5.71-12.729-12.729V430h135V484.271z M355.501,401.938
			c0,7.202-5.859,13.062-13.062,13.062H169.563c-7.202,0-13.062-5.859-13.062-13.062v-31.295
			C183.136,393.896,217.95,408,256.001,408c38.051,0,72.865-14.104,99.5-37.356V401.938z M256.001,393
			c-75.267,0-136.5-61.234-136.5-136.5S180.734,120,256.001,120s136.5,61.234,136.5,136.5S331.268,393,256.001,393z
			 M400.223,321.438l-9.03,18.01c-0.021,0.043-0.078,0.158-0.246,0.213c-0.168,0.056-0.282-0.001-0.326-0.023l-4.982-2.498
			l9.412-18.772l4.982,2.498c0.043,0.022,0.158,0.08,0.214,0.247C400.303,321.28,400.244,321.393,400.223,321.438z"/>
	</g>
</g>
<g>
	<g>
		<path d="M234.461,313.403l-7.173-5.478l6.476-6.286c2.972-2.885,3.042-7.633,0.156-10.605c-2.885-2.972-7.634-3.042-10.604-0.157
			l-8.081,7.845l-8.951-6.836c-3.293-2.513-7.998-1.882-10.513,1.409c-2.514,3.292-1.883,7.999,1.409,10.513l7.173,5.478
			l-6.476,6.287c-2.973,2.885-3.043,7.633-0.157,10.605c1.471,1.515,3.425,2.276,5.382,2.276c1.882,0,3.767-0.704,5.223-2.119
			l8.082-7.845l8.952,6.836c1.359,1.038,2.959,1.54,4.546,1.54c2.258,0,4.49-1.016,5.967-2.949
			C238.384,320.624,237.753,315.917,234.461,313.403z"/>
	</g>
</g>
<g>
</g>
<g>
</g>
<g>
</g>
<g>
</g>
<g>
</g>
<g>
</g>
<g>
</g>
<g>
</g>
<g>
</g>
<g>
</g>
<g>
</g>
<g>
</g>
<g>
</g>
<g>
</g>
<g>
</g>
</svg>
