<?xml version="1.0" encoding="iso-8859-1"?>
<!-- Generator: Adobe Illustrator 19.0.0, SVG Export Plug-In . SVG Version: 6.00 Build 0)  -->
<svg version="1.1" id="Capa_1" xmlns="http://www.w3.org/2000/svg" xmlns:xlink="http://www.w3.org/1999/xlink" x="0px" y="0px"
	 viewBox="0 0 512 512" style="enable-background:new 0 0 512 512;" xml:space="preserve">
<g>
	<g>
		<path d="M255.999,94.184c-9.668,0-17.534,7.866-17.534,17.534s7.866,17.534,17.534,17.534c9.668,0,17.534-7.866,17.534-17.534
			S265.667,94.184,255.999,94.184z M255.999,114.223c-1.381,0-2.505-1.124-2.505-2.505s1.124-2.505,2.505-2.505
			c1.382,0,2.505,1.124,2.505,2.505S257.381,114.223,255.999,114.223z"/>
	</g>
</g>
<g>
	<g>
		<path d="M255.999,134.262c-12.431,0-22.544-10.113-22.544-22.544c0-4.15-3.365-7.515-7.515-7.515s-7.515,3.365-7.515,7.515
			c0,20.718,16.855,37.573,37.573,37.573c4.151,0,7.515-3.365,7.515-7.515S260.15,134.262,255.999,134.262z"/>
	</g>
</g>
<g>
	<g>
		<path d="M255.999,74.145c-4.15,0-7.515,3.365-7.515,7.515s3.365,7.515,7.515,7.515c12.43,0,22.544,10.113,22.544,22.544
			c0,4.15,3.364,7.515,7.515,7.515s7.515-3.365,7.515-7.515C293.572,91,276.717,74.145,255.999,74.145z"/>
	</g>
</g>
<g>
	<g>
		<path d="M360.251,47.092h-14.124c-10.195,0-18.488,8.294-18.488,18.488v14.124c0,10.194,8.293,18.488,18.488,18.488h14.124
			c10.195,0,18.488-8.294,18.488-18.488V65.58C378.739,55.386,370.446,47.092,360.251,47.092z M363.709,79.704
			c0,1.907-1.552,3.459-3.459,3.459h-14.124c-1.907,0-3.459-1.552-3.459-3.459V65.58c0-1.907,1.552-3.459,3.459-3.459h14.124
			c1.907,0,3.459,1.552,3.459,3.459V79.704z"/>
	</g>
</g>
<g>
	<g>
		<path d="M169.776,47.092h-19.93c-7.488,0-13.581,6.093-13.581,13.582v7.906c0,7.488,6.093,13.581,13.581,13.581h19.929
			c7.489,0,13.581-6.093,13.581-13.582v-7.906C183.357,53.185,177.264,47.092,169.776,47.092z M168.328,67.131h-17.033v-5.01h17.033
			V67.131z"/>
	</g>
</g>
<g>
	<g>
		<path d="M168.829,118.231c-11.326,0-20.54,9.214-20.54,20.54c0,11.326,9.214,20.54,20.54,20.54c11.326,0,20.54-9.214,20.54-20.54
			C189.369,127.445,180.155,118.231,168.829,118.231z M168.829,144.282c-3.039,0-5.511-2.472-5.511-5.511s2.472-5.511,5.511-5.511
			s5.511,2.472,5.511,5.511S171.868,144.282,168.829,144.282z"/>
	</g>
</g>
<g>
	<g>
		<circle cx="331.146" cy="159.812" r="8.517"/>
	</g>
</g>
<g>
	<g>
		<circle cx="359.201" cy="159.812" r="8.517"/>
	</g>
</g>
<g>
	<g>
		<path d="M429.837,270.001c0-0.06-0.007-0.119-0.009-0.179c-0.006-0.227-0.019-0.452-0.045-0.674
			c-0.01-0.083-0.025-0.165-0.038-0.248c-0.031-0.205-0.069-0.409-0.116-0.608c-0.019-0.079-0.039-0.158-0.061-0.237
			c-0.059-0.216-0.127-0.428-0.204-0.636c-0.015-0.04-0.024-0.082-0.039-0.122l-30.514-78.153c-0.009-0.023-0.023-0.044-0.032-0.067
			V57.315c-0.001-17.792-14.475-32.266-32.267-32.266h-14.826v-9.415c0-8.068-6.564-14.632-14.632-14.632H209.01
			c-8.068,0-14.632,6.564-14.632,14.632v9.415h-11.022V13.704C183.357,6.148,177.209,0,169.653,0h-14.675
			c-7.556,0-13.704,6.148-13.704,13.704v11.629c-15.808,2.071-28.055,15.619-28.055,31.982v131.76
			c-0.009,0.023-0.023,0.044-0.032,0.067l-30.514,78.153c-0.016,0.041-0.025,0.083-0.04,0.125c-0.077,0.207-0.145,0.418-0.203,0.633
			c-0.022,0.08-0.042,0.159-0.061,0.24c-0.047,0.199-0.085,0.402-0.115,0.606c-0.013,0.083-0.028,0.166-0.038,0.249
			c-0.026,0.221-0.039,0.447-0.045,0.674c-0.002,0.06-0.009,0.119-0.009,0.179c0,0.009-0.001,0.018-0.001,0.026v65.463
			c-0.002,11.141,9.062,20.204,20.202,20.204h32.899V496.43c0,8.585,6.985,15.57,15.57,15.57h208.328
			c8.585,0,15.569-6.985,15.569-15.57V355.695h34.903c11.141,0,20.204-9.064,20.204-20.204v-65.463
			C429.839,270.018,429.837,270.01,429.837,270.001z M411.323,262.513H325.17l-15.502-63.123h77.009L411.323,262.513z
			 M248.629,199.389h14.742l5.031,63.123h-24.804L248.629,199.389z M247.983,184.36v-10.54c2.625,0.338,5.299,0.52,8.016,0.52
			s5.391-0.181,8.016-0.52v10.54H247.983z M255.999,159.311c-26.242,0-47.593-21.351-47.593-47.593s21.351-47.593,47.593-47.593
			s47.593,21.351,47.593,47.593S282.241,159.311,255.999,159.311z M233.551,199.389l-5.032,63.123h-26.215l15.501-63.123H233.551z
			 M219.428,184.36v-21.856c4.156,3.001,8.697,5.498,13.526,7.42v14.435H219.428z M292.57,162.504v21.856h-13.526v-14.435
			C283.873,168.002,288.414,165.506,292.57,162.504z M294.193,199.389l15.502,63.123h-26.216l-5.032-63.123H294.193z
			 M315.615,16.031h21.041v9.018h-21.041V16.031z M209.408,16.031h91.178v9.018h-91.178V16.031z M156.304,15.029h12.023v10.02
			h-12.023V15.029z M128.249,57.315c0-9.505,7.732-17.237,17.237-17.237h221.026c9.504,0,17.237,7.732,17.237,17.237V184.36H307.6
			v-37.215c6.945-10.083,11.022-22.286,11.022-35.427c0-34.529-28.092-62.622-62.622-62.622c-34.529,0-62.622,28.093-62.622,62.622
			c0,13.142,4.077,25.344,11.022,35.427v37.215h-76.149V57.315z M125.321,199.389h77.008l-15.501,63.123h-86.153L125.321,199.389z
			 M359.702,496.43c0,0.298-0.242,0.541-0.54,0.541H150.834c-0.298,0-0.541-0.242-0.541-0.541V317.62h18.035v153.8
			c0,4.15,3.365,7.515,7.515,7.515h158.309c4.151,0,7.515-3.365,7.515-7.515v-153.8h18.035V496.43z M414.809,335.49
			c0,2.859-2.317,5.175-5.175,5.175h-34.903v-23.546h21.728c4.115,0,7.703-3.17,7.826-7.283c0.128-4.255-3.283-7.746-7.512-7.746
			h-99.462c-4.288,0-7.765,3.477-7.765,7.765c0,4.288,3.477,7.765,7.765,7.765h29.325v146.286h-143.28V317.62h64.557
			c4.288,0,7.765-3.477,7.765-7.765c0-4.288-3.477-7.765-7.765-7.765H121.55c-4.115,0-7.703,3.17-7.826,7.283
			c-0.128,4.255,3.284,7.746,7.512,7.746h14.027v23.546h-32.899c-2.859,0-5.175-2.317-5.175-5.175v-57.948h317.62V335.49z"/>
	</g>
</g>
<g>
</g>
<g>
</g>
<g>
</g>
<g>
</g>
<g>
</g>
<g>
</g>
<g>
</g>
<g>
</g>
<g>
</g>
<g>
</g>
<g>
</g>
<g>
</g>
<g>
</g>
<g>
</g>
<g>
</g>
</svg>
