<?xml version="1.0" encoding="iso-8859-1"?>
<!-- Generator: Adobe Illustrator 19.0.0, SVG Export Plug-In . SVG Version: 6.00 Build 0)  -->
<svg version="1.1" id="Capa_1" xmlns="http://www.w3.org/2000/svg" xmlns:xlink="http://www.w3.org/1999/xlink" x="0px" y="0px"
	 viewBox="0 0 512 512" style="enable-background:new 0 0 512 512;" xml:space="preserve">
<g>
	<g>
		<path d="M407.316,31.314c-1.074-4.001-5.19-6.372-9.189-5.299l-12.072,3.241c-4,1.074-6.373,5.188-5.299,9.188
			c0.899,3.349,3.929,5.557,7.239,5.557c0.644,0,1.298-0.083,1.95-0.258l12.072-3.241C406.017,39.428,408.39,35.314,407.316,31.314z
			"/>
	</g>
</g>
<g>
	<g>
		<path d="M401.505,54.017l-12.159-2.899c-4.025-0.96-8.074,1.527-9.035,5.556s1.527,8.074,5.556,9.035l12.159,2.899
			c0.584,0.14,1.169,0.206,1.746,0.206c3.393,0,6.468-2.318,7.289-5.762C408.022,59.022,405.535,54.978,401.505,54.017z"/>
	</g>
</g>
<g>
	<g>
		<path d="M313.945,29.256l-12.072-3.241c-3.998-1.073-8.114,1.298-9.188,5.299c-1.075,4,1.297,8.114,5.298,9.188l12.072,3.241
			c0.651,0.175,1.306,0.258,1.95,0.258c3.31,0,6.339-2.208,7.239-5.557C320.318,34.444,317.946,30.33,313.945,29.256z"/>
	</g>
</g>
<g>
	<g>
		<path d="M319.689,56.674c-0.961-4.029-5.007-6.518-9.035-5.556l-12.159,2.899c-4.029,0.96-6.517,5.005-5.556,9.035
			c0.821,3.445,3.896,5.762,7.289,5.762c0.576,0,1.161-0.066,1.746-0.206l12.159-2.899C318.161,64.749,320.65,60.704,319.689,56.674
			z"/>
	</g>
</g>
<g>
	<g>
		<path d="M125.945,29.256l-12.072-3.241c-3.997-1.073-8.114,1.298-9.188,5.299c-1.075,4,1.297,8.114,5.298,9.188l12.072,3.241
			c0.651,0.175,1.306,0.258,1.95,0.258c3.31,0,6.339-2.208,7.239-5.557C132.318,34.444,129.945,30.33,125.945,29.256z"/>
	</g>
</g>
<g>
	<g>
		<path d="M131.689,56.674c-0.961-4.029-5.006-6.518-9.035-5.556l-12.159,2.899c-4.029,0.96-6.517,5.005-5.556,9.035
			c0.821,3.445,3.896,5.762,7.289,5.762c0.576,0,1.161-0.066,1.746-0.206l12.159-2.899C130.161,64.749,132.65,60.704,131.689,56.674
			z"/>
	</g>
</g>
<g>
	<g>
		<path d="M219.315,31.314c-1.074-4.001-5.191-6.372-9.189-5.299l-12.072,3.241c-4,1.074-6.373,5.188-5.299,9.188
			c0.899,3.349,3.929,5.557,7.239,5.557c0.644,0,1.298-0.083,1.95-0.258l12.072-3.241C218.017,39.428,220.39,35.314,219.315,31.314z
			"/>
	</g>
</g>
<g>
	<g>
		<path d="M213.505,54.017l-12.159-2.899c-4.026-0.96-8.074,1.527-9.035,5.556s1.527,8.074,5.556,9.035l12.159,2.899
			c0.584,0.14,1.169,0.206,1.746,0.206c3.393,0,6.468-2.318,7.289-5.762C220.022,59.022,217.535,54.978,213.505,54.017z"/>
	</g>
</g>
<g>
	<g>
		<path d="M270.594,157h-29.188c-8.219,0-14.906,6.687-14.906,14.906v9.188c0,8.219,6.687,14.906,14.906,14.906h29.188
			c8.219,0,14.906-6.687,14.906-14.906v-9.188C285.5,163.687,278.813,157,270.594,157z M270.5,181h-29v-9h29V181z"/>
	</g>
</g>
<g>
	<g>
		<path d="M464.942,21h-9.287c-6.122-12.427-18.916-21-33.68-21H90.023C75.26,0,62.466,8.573,56.344,21h-9.287
			C36.273,21,27.5,29.773,27.5,40.558v47.885C27.5,99.227,36.273,108,47.057,108h9.287c6.122,12.427,18.916,21,33.68,21h28.197
			c-0.762,1.893-1.284,3.906-1.539,6h-6.119c-8.857,0-16.062,7.206-16.062,16.063v43.875c0,8.857,7.206,16.063,16.062,16.063h8.214
			c1.545,4.796,3.829,9.264,6.723,13.265V282H83.215c-11.422,0-20.715,9.293-20.715,20.715V315.5c0,4.142,3.358,7.5,7.5,7.5h1.5
			v29.839C71.5,367.264,83.236,379,97.661,379h30.292c4.359,10.046,14.089,17.231,25.547,17.931V494.5
			c0,2.548,1.293,4.921,3.434,6.302l15.5,10c1.238,0.798,2.652,1.198,4.066,1.198s2.828-0.399,4.066-1.198l15.5-10
			c2.141-1.381,3.434-3.754,3.434-6.302V397h113v97.5c0,2.548,1.293,4.921,3.434,6.302l15.5,10c1.238,0.798,2.652,1.198,4.066,1.198
			s2.828-0.399,4.066-1.198l15.5-10c2.141-1.381,3.434-3.754,3.434-6.302V397h0.166c12.248,0,22.791-7.421,27.381-18h30.292
			c14.425,0,26.161-11.736,26.161-26.161V323h1.5c4.142,0,7.5-3.358,7.5-7.5v-12.785c0-11.422-9.293-20.715-20.715-20.715H388.5
			v-57.735c2.894-4.001,5.178-8.469,6.723-13.265h8.214c8.857,0,16.063-7.206,16.063-16.063v-43.875
			c0-8.857-7.206-16.063-16.063-16.063h-6.119c-0.256-2.094-0.778-4.107-1.539-6h26.197c14.763,0,27.558-8.573,33.68-21h9.287
			c10.784,0,19.558-8.773,19.558-19.558V40.558C484.5,29.773,475.727,21,464.942,21z M52.539,93h-5.481
			c-2.513,0-4.558-2.044-4.558-4.558V40.558c0-2.513,2.044-4.558,4.558-4.558h5.481c-0.02,0.506-0.039,1.013-0.039,1.524v53.951
			C52.5,91.987,52.518,92.494,52.539,93z M116.5,196h-5.938c-0.586,0-1.062-0.477-1.062-1.063v-43.875
			c0-0.586,0.477-1.063,1.062-1.063h5.938V196z M125.5,364H97.661c-6.154,0-11.161-5.007-11.161-11.161V323h39V364z M125.5,308h-48
			v-5.285c0-3.151,2.564-5.715,5.715-5.715H125.5V308z M397.5,150h5.937c0.586,0,1.063,0.477,1.063,1.063v43.875
			c0,0.586-0.477,1.063-1.063,1.063H397.5V150z M343.5,15h13v99h-13V15z M157.5,15h13v31.98c0,4.606,4.162,8.084,8.699,7.288
			c0.064-0.011,0.127-0.022,0.191-0.033c3.539-0.608,6.11-3.698,6.11-7.289V15h143v99h-143V93.148c0-3.6-2.585-6.7-6.136-7.294
			c-0.063-0.011-0.127-0.021-0.191-0.032c-4.53-0.775-8.673,2.697-8.673,7.292V114h-13V15z M90.023,114
			C77.604,114,67.5,103.896,67.5,91.476V37.524C67.5,25.104,77.604,15,90.023,15H142.5v99H90.023z M184.5,490.413l-8,5.162l-8-5.162
			V397h16V490.413z M199.5,382v-15.643c0-6.814,5.543-12.357,12.357-12.357h90.285c6.814,0,12.357,5.543,12.357,12.357V382H199.5z
			 M343.5,490.413l-8,5.162l-8-5.162V397h16V490.413z M373.5,367.166c0,8.193-6.641,14.834-14.834,14.834H329.5v-15.643
			c0-15.109-12.248-27.357-27.357-27.357h-90.285c-15.109,0-27.357,12.248-27.357,27.357V382h-29.166
			c-8.193,0-14.834-6.641-14.834-14.834V237.75c6.938,3.969,14.96,6.25,23.509,6.25h1.491v70.305c0,2.398,1.147,4.651,3.085,6.063
			l14,10.195C183.901,331.521,185.45,332,187,332s3.099-0.479,4.415-1.437l14-10.195c1.939-1.412,3.085-3.665,3.085-6.063V244h11
			v19.047c0,6.691,4.146,12.424,10,14.789V285c0,8.285,6.716,15,15,15h23c8.285,0,15-6.716,15-15v-7.163
			c5.854-2.365,10-8.098,10-14.789V244h14v70.305c0,2.398,1.147,4.652,3.085,6.063l14,10.195C324.901,331.521,326.45,332,328,332
			s3.099-0.479,4.415-1.437l14-10.195c1.938-1.412,3.085-3.665,3.085-6.063v-14.32c0-3.666-2.678-6.793-6.305-7.321
			c-0.064-0.009-0.127-0.019-0.191-0.028c-4.477-0.668-8.504,2.794-8.504,7.32v10.532l-6.5,4.733l-6.5-4.733V218.5h13v35.193
			c0,4.539,4.049,8.008,8.535,7.316c0.063-0.01,0.127-0.019,0.19-0.029c3.613-0.544,6.275-3.662,6.275-7.316V244h0.491
			c8.549,0,16.571-2.281,23.509-6.25V367.166z M202.5,196v7h-31v-7H202.5z M180.5,181v-16h13v16H180.5z M193.5,218.5v91.989
			l-6.5,4.733l-6.5-4.733V218.5H193.5z M235.453,264c-0.525,0-0.953-0.428-0.953-0.953V244h43v19.047
			c0,0.525-0.428,0.953-0.953,0.953H235.453z M267.509,285c0,0-0.003,0-0.01,0h-23v-6h23.005L267.509,285z M343.5,196v7h-31v-7
			H343.5z M321.5,181v-16h13v16H321.5z M382.5,196.491c0,17.926-14.583,32.509-32.509,32.509H349.5v-11h1.5
			c4.142,0,7.5-3.358,7.5-7.5v-22c0-4.142-3.358-7.5-7.5-7.5h-1.5v-16.025c3.908-0.258,7-3.502,7-7.475c0-4.142-3.358-7.5-7.5-7.5
			h-43c-4.142,0-7.5,3.358-7.5,7.5c0,4.142,3.358,7.5,7.5,7.5h0.5v16H305c-4.142,0-7.5,3.358-7.5,7.5v22c0,4.142,3.358,7.5,7.5,7.5
			h1.5v11h-98v-11h1.5c4.142,0,7.5-3.358,7.5-7.5v-22c0-4.142-3.358-7.5-7.5-7.5h-1.5v-16h0.5c4.142,0,7.5-3.358,7.5-7.5
			c0-4.142-3.358-7.5-7.5-7.5h-43c-4.142,0-7.5,3.358-7.5,7.5c0,3.973,3.092,7.216,7,7.475V181H164c-4.142,0-7.5,3.358-7.5,7.5v22
			c0,4.142,3.358,7.5,7.5,7.5h1.5v11h-1.491c-17.926,0-32.509-14.583-32.509-32.509v-58.604c0-4.9,3.987-8.887,8.887-8.887h233.226
			c4.9,0,8.887,3.987,8.887,8.887V196.491z M427.5,352.839c0,6.154-5.007,11.161-11.161,11.161H388.5v-41h39V352.839z M430.785,297
			c3.151,0,5.715,2.564,5.715,5.715V308h-48v-11H430.785z M444.5,91.476c0,12.42-10.104,22.524-22.524,22.524H371.5V15h50.476
			c12.42,0,22.524,10.104,22.524,22.524V91.476z M469.5,88.442c0,2.513-2.044,4.558-4.558,4.558h-5.481
			c0.02-0.506,0.039-1.013,0.039-1.524V37.524c0-0.511-0.018-1.018-0.039-1.524h5.481c2.513,0,4.558,2.044,4.558,4.558V88.442z"/>
	</g>
</g>
<g>
</g>
<g>
</g>
<g>
</g>
<g>
</g>
<g>
</g>
<g>
</g>
<g>
</g>
<g>
</g>
<g>
</g>
<g>
</g>
<g>
</g>
<g>
</g>
<g>
</g>
<g>
</g>
<g>
</g>
</svg>
