<?xml version="1.0" encoding="iso-8859-1"?>
<!-- Generator: Adobe Illustrator 19.0.0, SVG Export Plug-In . SVG Version: 6.00 Build 0)  -->
<svg version="1.1" id="Capa_1" xmlns="http://www.w3.org/2000/svg" xmlns:xlink="http://www.w3.org/1999/xlink" x="0px" y="0px"
	 viewBox="0 0 512 512" style="enable-background:new 0 0 512 512;" xml:space="preserve">
<g>
	<g>
		<path d="M458.5,327c-10.752,0-19.5,8.748-19.5,19.5s8.748,19.5,19.5,19.5s19.5-8.748,19.5-19.5S469.252,327,458.5,327z M458.5,351
			c-2.481,0-4.5-2.019-4.5-4.5c0-2.481,2.019-4.5,4.5-4.5c2.481,0,4.5,2.019,4.5,4.5C463,348.981,460.981,351,458.5,351z"/>
	</g>
</g>
<g>
	<g>
		<circle cx="169.5" cy="346.5" r="8.5"/>
	</g>
</g>
<g>
	<g>
		<path d="M512,75.449C512,69.688,507.313,65,501.551,65C456.032,65,419,102.032,419,147.551v16.587l-44.581-80.815
			c-2.783-5.044-9.153-6.883-14.196-4.101c-39.856,21.987-54.395,72.3-32.408,112.156l19.915,36.101l-103.907-54.89
			c-2.468-1.304-5.296-1.569-7.963-0.745c-2.667,0.824-4.854,2.636-6.156,5.104c-10.3,19.497-12.39,41.838-5.887,62.907
			c6.503,21.069,20.823,38.345,40.319,48.644l6.628,3.501H177c-29.776,0-54,24.224-54,54c0,0.112,0.008,0.221,0.008,0.333
			c-0.001,0.056-0.008,0.111-0.008,0.167v19.419h-23V355.5c0-11.855-9.645-21.5-21.5-21.5S57,343.645,57,355.5v36
			c0,3.584-2.916,6.5-6.5,6.5s-6.5-2.916-6.5-6.5v-18c0-4.142-3.358-7.5-7.5-7.5h-29c-4.142,0-7.5,3.358-7.5,7.5
			c0,4.142,3.358,7.5,7.5,7.5H29v10.5c0,11.855,9.645,21.5,21.5,21.5S72,403.355,72,391.5v-36c0-3.584,2.916-6.5,6.5-6.5
			s6.5,2.916,6.5,6.5v17.919c0,4.142,3.358,7.5,7.5,7.5H123V392.5c0,0.084,0.01,0.166,0.013,0.25
			C123.01,392.834,123,392.916,123,393c0,29.776,24.224,54,54,54h281c29.776,0,54-24.224,54-54c0-0.084-0.01-0.166-0.013-0.25
			c0.003-0.084,0.013-0.166,0.013-0.25v-46c0-0.056-0.007-0.111-0.008-0.167c0.001-0.111,0.008-0.221,0.008-0.333
			s-0.008-0.221-0.008-0.333c0.001-0.056,0.008-0.111,0.008-0.167V75.449z M434,193.183v-45.632
			c0-27.877,16.977-51.863,41.133-62.168C457.517,100.74,447,123.141,447,147.551v58.417c0,4.258,3.585,7.67,7.834,7.392
			c0.064-0.004,0.127-0.008,0.191-0.012c3.915-0.242,6.975-3.468,6.975-7.39v-58.406c0-25.015,13.499-47.447,35-59.213V308.71
			c-8.973-9.38-21.281-15.532-35-16.544v-39.578c0-3.942-3.089-7.178-7.025-7.393c-0.064-0.003-0.127-0.007-0.191-0.011
			c-4.231-0.247-7.784,3.156-7.784,7.394V292h-13v-98.766h0C434,193.217,434,193.2,434,193.183z M371.249,108.631L419,195.191
			v69.858l-49.051-88.916C358.238,154.903,359.026,129.008,371.249,108.631z M340.949,184.133
			c-16.856-30.555-7.464-68.612,20.606-88.091c-17.893,25.538-19.998,59.677-4.74,87.336L416.737,292h-16.283L340.949,184.133z
			 M252.22,193.989l107.344,56.705c0.41,0.217,0.832,0.385,1.26,0.52l22.5,40.786h-27.065l-38.199-18.96l-29.917-15.804
			C264.638,244.819,250.84,220.049,252.22,193.989z M238.15,235.431c-3.697-11.979-3.992-24.459-1.005-36.313
			c0.554,29.638,17.053,57.15,43.992,71.381l30,15.848c0.056,0.03,0.112,0.059,0.169,0.086L322.522,292h-20.029
			c-0.408-0.346-0.856-0.656-1.348-0.916l-30.001-15.848C255.189,266.808,243.472,252.671,238.15,235.431z M206.5,308.5h213v8.5
			h-213V308.5z M177.732,307H191.5v11.467c0,7.474,6.059,13.533,13.533,13.533h215.934c7.474,0,13.533-6.059,13.533-13.533V307
			h22.768c21.297,0,39.217,16.769,39.72,38.061C497.507,366.993,479.817,385,458,385h-23.5v-10.467
			c0-7.474-6.059-13.533-13.533-13.533h-38.295c-3.389,0-6.334,2.301-7.177,5.584c-0.016,0.063-0.033,0.127-0.049,0.191
			c-1.218,4.671,2.351,9.225,7.178,9.225H419.5v8.5h-213V376h130.682c4.894,0,8.456-4.669,7.136-9.382
			c-0.018-0.063-0.035-0.127-0.053-0.19c-0.887-3.21-3.805-5.429-7.135-5.429H205.033c-7.474,0-13.533,6.059-13.533,13.533V385H177
			c-21.817,0-39.507-18.007-38.989-39.939C138.514,323.769,156.434,307,177.732,307z M497,393c0,21.505-17.495,39-39,39H177
			c-21.505,0-39-17.495-39-39c0-0.084-0.01-0.166-0.013-0.25c0.003-0.084,0.013-0.166,0.013-0.25v-9.209
			C147.838,393.575,161.678,400,177,400h281c15.322,0,29.162-6.425,39-16.709v9.209c0,0.084,0.01,0.166,0.013,0.25
			C497.01,392.834,497,392.916,497,393z"/>
	</g>
</g>
<g>
	<g>
		<path d="M436.5,409h-238c-4.142,0-7.5,3.358-7.5,7.5c0,4.142,3.358,7.5,7.5,7.5h238c4.142,0,7.5-3.358,7.5-7.5
			C444,412.358,440.642,409,436.5,409z"/>
	</g>
</g>
<g>
</g>
<g>
</g>
<g>
</g>
<g>
</g>
<g>
</g>
<g>
</g>
<g>
</g>
<g>
</g>
<g>
</g>
<g>
</g>
<g>
</g>
<g>
</g>
<g>
</g>
<g>
</g>
<g>
</g>
</svg>
